/* XPM */
static char *_[] = {
/* columns rows colors chars-per-pixel */
"21 27 123 2 ",
"   c None",
".  c black",
"X  c #010101",
"o  c #020202",
"O  c gray1",
"+  c #040404",
"@  c gray2",
"#  c gray3",
"$  c #0C0C0C",
"%  c #111111",
"&  c gray8",
"*  c #151515",
"=  c #191919",
"-  c #1B1B1B",
";  c #1E1E1E",
":  c #222222",
">  c gray16",
",  c gray18",
"<  c #313131",
"1  c gray23",
"2  c #3F3F3F",
"3  c #494949",
"4  c #555555",
"5  c #565656",
"6  c #5A5A5A",
"7  c #5D5D5D",
"8  c #676767",
"9  c #686868",
"0  c gray42",
"q  c #727272",
"w  c gray45",
"e  c gray46",
"r  c #777777",
"t  c #797979",
"y  c #7B7B7B",
"u  c #7C7C7C",
"i  c gray49",
"p  c gray50",
"a  c #808080",
"s  c gray51",
"d  c #838383",
"f  c #848484",
"g  c gray54",
"h  c #8D8D8D",
"j  c #8E8E8E",
"k  c gray56",
"l  c #939393",
"z  c gray58",
"x  c gray60",
"c  c #9A9A9A",
"v  c gray62",
"b  c #9F9F9F",
"n  c #A0A0A0",
"m  c gray63",
"M  c gray64",
"N  c #A4A4A4",
"B  c gray65",
"V  c gray66",
"C  c #B1B1B1",
"Z  c #B2B2B2",
"A  c gray71",
"S  c #B7B7B7",
"D  c gray72",
"F  c #B9B9B9",
"G  c #BCBCBC",
"H  c gray75",
"J  c gray76",
"K  c #C3C3C3",
"L  c gray77",
"P  c #C5C5C5",
"I  c #C6C6C6",
"U  c gray78",
"Y  c #C8C8C8",
"T  c gray79",
"R  c #CACACA",
"E  c #CBCBCB",
"W  c #CECECE",
"Q  c gray81",
"!  c #D0D0D0",
"~  c gray82",
"^  c #D2D2D2",
"/  c LightGray",
"(  c gray83",
")  c #D5D5D5",
"_  c gray84",
"`  c #D7D7D7",
"'  c gray85",
"]  c #DADADA",
"[  c gray86",
"{  c gainsboro",
"}  c #DDDDDD",
"|  c gray87",
" . c #DFDFDF",
".. c gray88",
"X. c #E1E1E1",
"o. c #E2E2E2",
"O. c gray89",
"+. c #E4E4E4",
"@. c gray90",
"#. c #E6E6E6",
"$. c #E7E7E7",
"%. c gray91",
"&. c #E9E9E9",
"*. c #EAEAEA",
"=. c gray92",
"-. c #ECECEC",
";. c gray93",
":. c #EEEEEE",
">. c #EFEFEF",
",. c gray94",
"<. c #F1F1F1",
"1. c gray95",
"2. c #F3F3F3",
"3. c #F4F4F4",
"4. c gray96",
"5. c #F6F6F6",
"6. c gray97",
"7. c #F8F8F8",
"8. c #F9F9F9",
"9. c gray98",
"0. c #FBFBFB",
"q. c gray99",
"w. c #FDFDFD",
/* pixels */
"                                          ",
"                                          ",
"                    . . . . .             ",
"              . # d U X.[ G 8 .           ",
"          . 0 ( 4.q.q.q.q.q.q.G ;         ",
"        . n 4.q.q.Q y q U q.q.q.U *       ",
"      . n ( -.X.k ; . . * X.4.4.4.v .     ",
"      y ( X.[ v : . . . . C 4.4.4.-.<     ",
"    > [ ( X.-.q . .     . k 4.4.4.4.k .   ",
"  . v [ 4.-.( * . .       q 4.4.4.4.G .   ",
"  . [ [ 4.4.( . .         q 4.-.-.-.Q .   ",
"  5 -.-.4.4.U . .         y -.-.-.-.( .   ",
"  k 4.4.4.4.G . .       . v -.-.-.-.U . . ",
". n -.-.-.-.G .         . C -.-.-.U n .   ",
". C -.-.-.-.G .         . Q Q X.[ G 0 .   ",
". V -.-.-.-.U .         3 Q [ X.X.C . .   ",
". l -.-.-.-.[ *       . l [ X.X.X.y . .   ",
"  7 X.X.X.X.X.y .     # Q X.[ [ C . .     ",
"  . Q X.X.X.X.U . . . d [ [ [ Q 1 . .     ",
"  . d X.X.X.[ [ V 3 d ( ( ( Q 7 . .       ",
"    . n [ [ [ [ ( ( ( ( ( G 5 . . .       ",
"    . . y U ( ( ( Q Q Q v > . . .         ",
"      . . ; q v V v d 1 . . . .           ",
"        . . . . . . . . . .               ",
"          . . . . . . . .                 ",
"                                          ",
"                                          "
};
