/* XPM */
static char *_[] = {
/* columns rows colors chars-per-pixel */
"21 37 115 2 ",
"   c None",
".  c black",
"X  c #010101",
"o  c #020202",
"O  c gray1",
"+  c #040404",
"@  c gray3",
"#  c #0B0B0B",
"$  c gray5",
"%  c gray7",
"&  c gray8",
"*  c #151515",
"=  c #1B1B1B",
"-  c #222222",
";  c #2C2C2C",
":  c #393939",
">  c gray26",
",  c #494949",
"<  c gray29",
"1  c #4E4E4E",
"2  c #505050",
"3  c #5A5A5A",
"4  c #626262",
"5  c #646464",
"6  c #656565",
"7  c DimGray",
"8  c #6A6A6A",
"9  c #6C6C6C",
"0  c #6F6F6F",
"q  c #747474",
"w  c gray47",
"e  c gray49",
"r  c #808080",
"t  c #838383",
"y  c #848484",
"u  c #929292",
"i  c gray58",
"p  c #959595",
"a  c #989898",
"s  c gray60",
"d  c #9B9B9B",
"f  c gray61",
"g  c #9D9D9D",
"h  c gray62",
"j  c #A0A0A0",
"k  c gray63",
"l  c gray64",
"z  c #A4A4A4",
"x  c gray65",
"c  c #A7A7A7",
"v  c gray66",
"b  c #A9A9A9",
"n  c #AAAAAA",
"m  c #ACACAC",
"M  c #B1B1B1",
"N  c gray70",
"B  c #B4B4B4",
"V  c gray71",
"C  c #B6B6B6",
"Z  c #B7B7B7",
"A  c gray72",
"S  c gray73",
"D  c #BCBCBC",
"F  c gray",
"G  c gray75",
"H  c #C1C1C1",
"J  c gray76",
"K  c gray77",
"L  c #C5C5C5",
"P  c #C6C6C6",
"I  c #C8C8C8",
"U  c gray79",
"Y  c gray80",
"T  c #CDCDCD",
"R  c #CECECE",
"E  c gray81",
"W  c #D0D0D0",
"Q  c gray82",
"!  c #D2D2D2",
"~  c LightGray",
"^  c gray83",
"/  c #D5D5D5",
"(  c gray84",
")  c #D7D7D7",
"_  c gray85",
"`  c #DADADA",
"'  c gainsboro",
"]  c #DDDDDD",
"[  c gray87",
"{  c #DFDFDF",
"}  c gray88",
"|  c gray89",
" . c #E4E4E4",
".. c gray90",
"X. c #E6E6E6",
"o. c gray91",
"O. c #E9E9E9",
"+. c gray92",
"@. c #ECECEC",
"#. c gray93",
"$. c #EEEEEE",
"%. c #EFEFEF",
"&. c gray94",
"*. c #F1F1F1",
"=. c gray95",
"-. c #F3F3F3",
";. c #F4F4F4",
":. c gray96",
">. c #F6F6F6",
",. c gray97",
"<. c #F8F8F8",
"1. c #F9F9F9",
"2. c gray98",
"3. c #FBFBFB",
"4. c gray99",
/* pixels */
"                                          ",
"                                          ",
"                        .                 ",
"                  . . $ . . .             ",
"                . * Z A W 6 .             ",
"                . Z [ &.<.Z . .           ",
"              . p <.<.<.<.T ; .           ",
"            . 7 &.<.<.<.<.$.6 .           ",
"          . : | <.<.<.<.<.&.7 . .         ",
"          . K &.&.<.<.<.&.&.b . .         ",
"        . y &.<.<.<.&.&.&.&.K . .         ",
"        . T &.&.&.&.&.&.&.&.K . .         ",
"        . 3 f < W &.&.&.&.&.A . .         ",
"        . . . . T &.&.&.&.&.f . .         ",
"        . . . . T &.&.&.&.&.e . .         ",
"          . . . T $.&.$.$.$.7 . .         ",
"            . . W | $.$.$.T 6 . .         ",
"              . W l $.[ $.A q . .         ",
"              . T p | W $.b e . .         ",
"              . [ l $.A | f 2 . .         ",
"              . [ f | l [ f 7 . .         ",
"              . [ b | l W l < . .         ",
"              . [ l | b W l > . .         ",
"              . [ f | Z W f * . .         ",
"              . [ l [ Z T p $ . .         ",
"              . W b W A W y . .           ",
"              . T Z K A K y . .           ",
"              . Z Z Z A Z e . .           ",
"              . f K p A T y . .           ",
"              . 6 T y K f < . .           ",
"              . $ f f f - . . .           ",
"                . . * = . . . .           ",
"                . . . . . . .             ",
"                  . . . . .               ",
"                    . . .                 ",
"                                          ",
"                                          "
};
