/* XPM */
static char *_[] = {
/* columns rows colors chars-per-pixel */
"21 34 146 2 ",
"   c None",
".  c black",
"X  c #010101",
"o  c #020202",
"O  c gray1",
"+  c #040404",
"@  c gray2",
"#  c #060606",
"$  c gray3",
"%  c #090909",
"&  c gray5",
"*  c gray7",
"=  c #151515",
"-  c #1B1B1B",
";  c #202020",
":  c #222222",
">  c gray16",
",  c gray17",
"<  c #2D2D2D",
"1  c gray18",
"2  c #2F2F2F",
"3  c gray19",
"4  c #323232",
"5  c #373737",
"6  c gray22",
"7  c #393939",
"8  c #3A3A3A",
"9  c #414141",
"0  c #444444",
"q  c gray29",
"w  c #4B4B4B",
"e  c #515151",
"r  c gray33",
"t  c gray34",
"y  c #585858",
"u  c #5B5B5B",
"i  c gray36",
"p  c #5D5D5D",
"a  c #5F5F5F",
"s  c #606060",
"d  c gray38",
"f  c gray39",
"g  c #676767",
"h  c #686868",
"j  c DimGray",
"k  c gray42",
"l  c #6F6F6F",
"z  c gray44",
"x  c #717171",
"c  c gray45",
"v  c #747474",
"b  c gray47",
"n  c #7B7B7B",
"m  c #7C7C7C",
"M  c gray50",
"N  c #808080",
"B  c #818181",
"V  c #868686",
"C  c #8E8E8E",
"Z  c #929292",
"A  c gray58",
"S  c gray59",
"D  c #979797",
"F  c #989898",
"G  c gray60",
"H  c #9A9A9A",
"J  c #9B9B9B",
"K  c #9F9F9F",
"L  c gray64",
"P  c #A9A9A9",
"I  c #AAAAAA",
"U  c gray67",
"Y  c gray68",
"T  c gray69",
"R  c #B1B1B1",
"E  c gray70",
"W  c #B4B4B4",
"Q  c gray71",
"!  c #B7B7B7",
"~  c gray72",
"^  c gray73",
"/  c #BBBBBB",
"(  c #BCBCBC",
")  c gray74",
"_  c gray",
"`  c gray75",
"'  c #C0C0C0",
"]  c #C1C1C1",
"[  c gray76",
"{  c #C3C3C3",
"}  c gray77",
"|  c #C6C6C6",
" . c gray78",
".. c #C8C8C8",
"X. c gray79",
"o. c #CACACA",
"O. c #CBCBCB",
"+. c gray80",
"@. c #CDCDCD",
"#. c #CECECE",
"$. c gray81",
"%. c #D0D0D0",
"&. c gray82",
"*. c #D2D2D2",
"=. c LightGray",
"-. c gray83",
";. c #D5D5D5",
":. c gray84",
">. c #D7D7D7",
",. c #D8D8D8",
"<. c gray85",
"1. c #DADADA",
"2. c gray86",
"3. c gainsboro",
"4. c #DDDDDD",
"5. c gray87",
"6. c #DFDFDF",
"7. c gray88",
"8. c #E1E1E1",
"9. c #E2E2E2",
"0. c gray89",
"q. c #E4E4E4",
"w. c gray90",
"e. c #E6E6E6",
"r. c #E7E7E7",
"t. c gray91",
"y. c #E9E9E9",
"u. c #EAEAEA",
"i. c gray92",
"p. c #ECECEC",
"a. c gray93",
"s. c #EFEFEF",
"d. c gray94",
"f. c #F1F1F1",
"g. c gray95",
"h. c #F3F3F3",
"j. c #F4F4F4",
"k. c gray96",
"l. c #F6F6F6",
"z. c gray97",
"x. c #F8F8F8",
"c. c #F9F9F9",
"v. c gray98",
"b. c #FBFBFB",
"n. c gray99",
"m. c #FDFDFD",
/* pixels */
"                                          ",
"                  . . . . . . .           ",
"              . . z } 6.w.6._ s . .       ",
"            . s >.k.n.n.n.n.n.n.Y . .     ",
"          . Z k.n.n.n.n.n.n.n.n.n.F .     ",
"        . F 6.n.n.n.n.n.n.n.n.n.n.i.6 .   ",
"      . n _ w.n.n.k.w.w.n.n.k.k.k.k.C .   ",
"      6 _ 6.k.n.w.z . 6 w.k.k.k.k.k.Y .   ",
"    . Y _ k.6.w.q . . . _ k.k.k.k.k.Y . . ",
"  . e _ >.6.w.z . . . . } k.k.k.k.i.N . . ",
"  . T i.w.@._ . . . . % w.k.k.k.k.w.s . . ",
"  . w.k.6.i.u . . . . n k.k.k.i.k.6.; . . ",
"  . i.k.w.@.. . .   . @.k.k.i.i.6.N . .   ",
"  . _ i.} l . .   . n w.w.w.i.@.Y 4 . .   ",
"  . 4 4 < . . . . < 6._ i.w.i.T N . . .   ",
"  . . . . . . . . T 6.@.i.i.6.Z % . .     ",
"    . . . . . . n i.w.i.i.i.Y < . . .     ",
"      . .   . e 6.i.i.i.i.>.9 . . .       ",
"          . < @.i.i.i.i.6.u . . .         ",
"          . T w.w.w.w.w.l . . . .         ",
"        . Z w.w.w.w.6.n . . . . . . . .   ",
"      . s w.w.w.w.} u . . . - z } Z u . . ",
"      < >.w.w.w.T ; < z F T @.6.>.@.} q . ",
"    . F 6.w.6.6._ @.6.6.6.6.>.>.>.>.T 4 . ",
"  . 9 } 6.6.6.6.6.6.>.>.>.>.>.>.>.@.u . . ",
"  . Z _ 6.6.>.>.>.>.>.>.>.@.@.@.@.N . . . ",
"  4 } >.>.>.>.>.>.@.@.@.@.@.} L e . . . . ",
". l @.>.@.@.@.@.@.} T F n e % . . . . .   ",
". l _ @._ F n s 4 = . . . . . . . . .     ",
". q n s = . . . . . . . . . . . . .       ",
". . . . . . . . . . . . . . .             ",
"  . . . . . . . . .                       ",
"  . . . .                                 ",
"                                          "
};
