/* XPM */
static char *resized[] = {
/* columns rows colors chars-per-pixel */
"64 64 253 2 ",
"   c None",
".  c #000000",
"X  c #010101",
"o  c #020202",
"O  c #030303",
"+  c #040404",
"@  c #050505",
"#  c #060606",
"$  c #070707",
"%  c #080808",
"&  c #090909",
"*  c #0A0A0A",
"=  c #0B0B0B",
"-  c #0C0C0C",
";  c #0D0D0D",
":  c #0E0E0E",
">  c #0F0F0F",
",  c #101010",
"<  c #111111",
"1  c #121212",
"2  c #131313",
"3  c #141414",
"4  c #151515",
"5  c #161616",
"6  c #171717",
"7  c #181818",
"8  c #191919",
"9  c #1A1A1A",
"0  c #1B1B1B",
"q  c #1C1C1C",
"w  c #1D1D1D",
"e  c #1E1E1E",
"r  c #1F1F1F",
"t  c #202020",
"y  c #212121",
"u  c #222222",
"i  c #232323",
"p  c #242424",
"a  c #252525",
"s  c #262626",
"d  c #272727",
"f  c #282828",
"g  c #292929",
"h  c #2A2A2A",
"j  c #2C2C2C",
"k  c #2D2D2D",
"l  c #2E2E2E",
"z  c #2F2F2F",
"x  c #303030",
"c  c #313131",
"v  c #323232",
"b  c #333333",
"n  c #343434",
"m  c #353535",
"M  c #363636",
"N  c #373737",
"B  c #383838",
"V  c #393939",
"C  c #3A3A3A",
"Z  c #3B3B3B",
"A  c #3C3C3C",
"S  c #3D3D3D",
"D  c #3E3E3E",
"F  c #3F3F3F",
"G  c #404040",
"H  c #414141",
"J  c #424242",
"K  c #434343",
"L  c #444444",
"P  c #454545",
"I  c #464646",
"U  c #484848",
"Y  c #494949",
"T  c #4A4A4A",
"R  c #4B4B4B",
"E  c #4C4C4C",
"W  c #4D4D4D",
"Q  c #4E4E4E",
"!  c #4F4F4F",
"~  c #505050",
"^  c #515151",
"/  c #525252",
"(  c #535353",
")  c #545454",
"_  c #555555",
"`  c #565656",
"'  c #585858",
"]  c #595959",
"[  c #5A5A5A",
"{  c #5B5B5B",
"}  c #5C5C5C",
"|  c #5E5E5E",
" . c #5F5F5F",
".. c #606060",
"X. c #616161",
"o. c #626262",
"O. c #636363",
"+. c #646464",
"@. c #656565",
"#. c #666666",
"$. c #676767",
"%. c #686868",
"&. c #696969",
"*. c #6A6A6A",
"=. c #6B6B6B",
"-. c #6C6C6C",
";. c #6D6D6D",
":. c #6E6E6E",
">. c #6F6F6F",
",. c #707070",
"<. c #717171",
"1. c #727272",
"2. c #737373",
"3. c #747474",
"4. c #757575",
"5. c #767676",
"6. c #777777",
"7. c #787878",
"8. c #797979",
"9. c #7A7A7A",
"0. c #7B7B7B",
"q. c #7C7C7C",
"w. c #7D7D7D",
"e. c #7E7E7E",
"r. c #7F7F7F",
"t. c #808080",
"y. c #818181",
"u. c #828282",
"i. c #838383",
"p. c #848484",
"a. c #858585",
"s. c #868686",
"d. c #878787",
"f. c #888888",
"g. c #898989",
"h. c #8A8A8A",
"j. c #8B8B8B",
"k. c #8C8C8C",
"l. c #8D8D8D",
"z. c #8E8E8E",
"x. c #8F8F8F",
"c. c #909090",
"v. c #919191",
"b. c #929292",
"n. c #939393",
"m. c #949494",
"M. c #959595",
"N. c #969696",
"B. c #979797",
"V. c #989898",
"C. c #999999",
"Z. c #9A9A9A",
"A. c #9B9B9B",
"S. c #9C9C9C",
"D. c #9D9D9D",
"F. c #9E9E9E",
"G. c #9F9F9F",
"H. c #A0A0A0",
"J. c #A1A1A1",
"K. c #A2A2A2",
"L. c #A3A3A3",
"P. c #A4A4A4",
"I. c #A5A5A5",
"U. c #A6A6A6",
"Y. c #A7A7A7",
"T. c #A8A8A8",
"R. c #A9A9A9",
"E. c #AAAAAA",
"W. c #ABABAB",
"Q. c #ACACAC",
"!. c #ADADAD",
"~. c #AEAEAE",
"^. c #AFAFAF",
"/. c #B0B0B0",
"(. c #B1B1B1",
"). c #B2B2B2",
"_. c #B3B3B3",
"`. c #B4B4B4",
"'. c #B5B5B5",
"]. c #B6B6B6",
"[. c #B7B7B7",
"{. c #B8B8B8",
"}. c #B9B9B9",
"|. c #BABABA",
" X c #BBBBBB",
".X c #BCBCBC",
"XX c #BDBDBD",
"oX c #BEBEBE",
"OX c #BFBFBF",
"+X c #C0C0C0",
"@X c #C1C1C1",
"#X c #C2C2C2",
"$X c #C3C3C3",
"%X c #C4C4C4",
"&X c #C5C5C5",
"*X c #C6C6C6",
"=X c #C7C7C7",
"-X c #C8C8C8",
";X c #C9C9C9",
":X c #CACACA",
">X c #CBCBCB",
",X c #CCCCCC",
"<X c #CDCDCD",
"1X c #CECECE",
"2X c #CFCFCF",
"3X c #D0D0D0",
"4X c #D1D1D1",
"5X c #D2D2D2",
"6X c #D3D3D3",
"7X c #D4D4D4",
"8X c #D5D5D5",
"9X c #D6D6D6",
"0X c #D7D7D7",
"qX c #D8D8D8",
"wX c #D9D9D9",
"eX c #DADADA",
"rX c #DBDBDB",
"tX c #DCDCDC",
"yX c #DDDDDD",
"uX c #DEDEDE",
"iX c #DFDFDF",
"pX c #E0E0E0",
"aX c #E1E1E1",
"sX c #E2E2E2",
"dX c #E3E3E3",
"fX c #E4E4E4",
"gX c #E5E5E5",
"hX c #E6E6E6",
"jX c #E7E7E7",
"kX c #E8E8E8",
"lX c #E9E9E9",
"zX c #EAEAEA",
"xX c #EBEBEB",
"cX c #ECECEC",
"vX c #EDEDED",
"bX c #EEEEEE",
"nX c #EFEFEF",
"mX c #F0F0F0",
"MX c #F1F1F1",
"NX c #F2F2F2",
"BX c #F3F3F3",
"VX c #F4F4F4",
"CX c #F5F5F5",
"ZX c #F6F6F6",
"AX c #F7F7F7",
"SX c #F8F8F8",
"DX c #F9F9F9",
"FX c #FAFAFA",
"GX c #FBFBFB",
"HX c #FCFCFC",
"JX c #FDFDFD",
"KX c #FEFEFE",
"LX c #FFFFFF",
/* pixels */
"                                                                                                                                ",
"                                                                                                                                ",
"                                                                                                                                ",
"                                                                                                                                ",
"                                                                                                                                ",
"                                                              X X X X X X X X X X X X X X                                       ",
"                                                            S x l l x x x x x l l l y q 1 >                                     ",
"                                            X X X X 1 S ;.8.u.u.u.g.v.v.v.v.g.g.8.,.X.Y S y > X                                 ",
"                                          q q q q y x } 8.Z.].@X;X5XeXsXsXeX5X5X@X].U.u.;.Y l 1 >                               ",
"                                  > x ` X.X.X.;.,.8.g.Z.].;XeXsXBXBXFXFXFXBXBXkXkXeX5X@X~.g.,.} J l                             ",
"                              X X q S X.u.U. X;X5XeXsXkXkXBXBXBXBXBXBXBXFXFXFXFXFXBXBXBXsX5X XU.,.J y q                         ",
"                            1 y x Y ;.g.~.;XsXBXFXFXFXFXFXBXsXeX5X5X5X5XeXkXBXFXFXFXFXFXFXBXsX;XU.,.` J l                       ",
"                          X q Y ,.v.].;XeXkXBXFXFXFXFXBXsX5X XU.Z.v.v.Z.].;XeXkXBXFXFXFXFXFXBXkX5X].v.;.S q                     ",
"                        1 y S ;.Z.@XeXkXFXFXFXBXBXkXeX;X].Z.u.;.X.} } X.8.v.].;XkXBXFXFXFXFXFXFXBXsX@Xg.} x y                   ",
"                    X q S } 8.Z. X5XsXkXBXBXkXsX5X@X~.g.;.` J x l y y l S Y ;.Z.;XkXFXFXFXFXFXFXBXBXeX].g.X.J y X               ",
"                  X > x X.v.~.@X;XeXsXkXkXsXeX;X].v.,.` x q 1 > X X X X > 1 x ,.].sXBXBXBXBXBXBXBXBXkX5X Xv.X.l > X             ",
"                  l S ` u.].;X5XeXeXsXsXeX5X@X~.g.;.Y l 1 X X X X X X X X X y } U.;XsXkXBXBXBXBXBXFXBXkXeX X8.J q >             ",
"                  X.;.u.U.@X5XeXeXsXsXeX5X@X~.g.X.J y 1 > X X X X X X X X X q ` v. XeXkXBXFXBXBXBXBXBXBXkX5XZ.} x y             ",
"                  u.Z.~. X5XeXeXsXsXsXsX5X XZ.,.Y y 1 X X X X X X X X X X X 1 J u.~.5XsXBXFXBXBXBXBXBXFXBXsX].8.` S y           ",
"              l } v. X;X5X5XeXeXsXsXkXsX5X].g.X.S q X X X X X           X X 1 S ,.U.@XsXBXFXBXBXBXBXBXFXFXkX;XZ.,.Y y X         ",
"            l J X.Z.;XeXeXeXeXeXsXsXkXsX;XU.,.Y l > X X X X               X 1 S ;.Z. XsXBXFXBXBXBXBXBXFXFXkX5X].g.} l X X       ",
"        > l Y ;.g.].5XsXkXsXkXkXkXkXkXeX Xu.` l 1 X X X X X                 y Y ;.g.].eXBXFXBXBXBXBXBXFXBXkXeX@XU.;.l > X       ",
"      X > l X.v.].@X5XsXkXBXBXBXkXkXsX5X~.;.x 1 X X X X X X                     ,.u.~.eXBXFXBXBXBXBXBXBXBXBXsX;X~.,.x > X       ",
"      X X x ,.~.;X5XeXsXkXBXBXBXBXkXsX5XU.X.y X X X X X X                       ,.u.~.5XBXFXBXBXBXBXBXBXBXkXsX5X X8.x > X       ",
"      X > S u.@XeXeXeXsXkXBXBXBXBXkXkX5XU.} q X X X X X                         ,.u.~.eXBXFXBXkXkXkXkXBXBXkXkXeX X8.S > X       ",
"      > q Y v.5XsXsXsXsXkXBXBXFXBXBXkX5XU.} q X X X X                           ,.u.~.5XBXBXBXkXkXkXkXkXkXkXkXsX@Xu.S > X       ",
"      x J ;.U.eXkXkXkXkXBXBXBXFXBXkXsX;XZ.` q X X X X                           ,.u.~.5XkXBXBXkXkXkXkXkXkXkXkXsX@Xu.S > X       ",
"      ` X.u.].sXBXBXkXBXBXBXBXBXBXkXsX;XZ.` q X X X X                         ;.8.g.~.5XkXBXkXkXkXkXkXkXkXkXkXsX@Xu.S > X       ",
"      ,.8.Z.@XkXBXBXBXBXBXBXBXFXBXkXeX@Xv.` q X X X X                       y ` 8.Z. X5XkXBXkXkXkXkXkXkXkXkXkXeX@Xu.S > X X X X ",
"      u.v.~.;XkXFXFXBXBXBXBXBXBXBXkXeX@Xv.` q X X X X                     X q J 8.U.@XeXkXBXkXkXkXkXkXkXkXkXsX5X X8.S > X X X X ",
"    Y 8.v.].5XkXBXBXBXBXBXBXBXBXBXkXeX@Xv.` q X X X X                     X 1 J u.~.;XsXkXBXkXkXkXkXkXkXsXeX5X;X~.,.x > X X X X ",
"X > x ;.Z. X5XkXBXBXkXkXkXkXkXBXkXsXeX@Xv.Y q X X                         X q Y u.].5XsXkXBXkXkXkXkXkXsXeX;X@X XZ.;.l > X       ",
"X > l X.Z. X5XsXkXkXkXkXkXkXkXBXkXsXeX@Xv.Y q X                           X q Y g. X5XeXsXkXkXkXkXkXsXeX;X@X].U.g.} l > X       ",
"X > x ;.U.@XeXsXkXkXkXkXkXkXkXBXkXsX5X@Xv.Y q X                           X q ` Z.@X5X5XeXsXsXsXsXsXeX5X;X X~.v.8.Y y X X       ",
"X > x ;.U.@XeXkXkXkXkXkXkXkXkXBXkXsXeX@Xv.` q X                           X y } U.;X5X5X5XeXeXsXsXeXeX5X@X].Z.8.} S q X X       ",
"X > x ;.U.@XeXkXkXkXkXkXkXkXkXkXkXsXeX@Xv.` q X                           q S ;.~.;X5X5X5XeXeXsXsXsXeX5X@X~.g.} S q > X X       ",
"X > x ;.Z.@XeXsXBXBXkXkXkXkXkXkXkXsXeX;XZ.` q X                           S ` u.].;XeXeXeXeXsXsXsXsXeX5X@XU.,.S 1 X X X X       ",
"X > l X.Z. X5XsXBXBXkXkXkXkXkXkXkXkXsX;XZ.} q X                         J } ,.v. X5XeXeXeXsXsXsXsXsXeX;X].v.X.l X X X X X       ",
"X > l } v.].5XsXBXBXkXkXkXkXkXkXkXkXsX5XU.X.l >                     X q J ;.g.~.@XeXeXeXsXsXsXsXsXsXeX@XU.u.` y X X X X X       ",
"X > l } u.~.;XsXkXkXkXkXkXkXkXkXkXkXkXeX].,.S y 1                   X q J 8.U. X5XeXsXsXsXsXsXsXsXeX;X~.u.X.S q X X X X X       ",
"    S } 8.Z. XeXkXkXsXsXsXsXsXsXsXsXsXeX@Xv.X.J y 1                 X q ` v. X5XeXeXsXeXeXsXeXeXeX5X Xg.} x q > X X X           ",
"      ` X.u.~.5XsXsXsXsXsXsXsXsXsXsXsXsX;X~.u.X.x 1 X             X > l X.U.5XeXeXsXeXeXeXeXeX5X;X XZ.;.x > X X X X             ",
"      l S X.Z.;XsXsXsXsXsXsXsXsXsXsXsXsX5X@XU.8.J 1 X X X       > q x ` u. XeXsXeXeXeXeXeXeXeX5X XZ.,.Y q X X X X X             ",
"      X q J g.@XeXsXsXsXsXsXsXsXsXsXsXsXeX5X@Xv.` q X X X X X X 1 S } u.U.@XeXeXeXeXeXeXeXeX5X@XZ.;.Y l 1 X X X X X             ",
"      X X x ,.~.;XeXeXsXsXsXsXsXsXsXsXsXeXeX5X~.,.J y 1 1 1 1 q x } u.U. X5XeXeXeXeXeXeX5X;X@XU.8.Y l 1 > X X X X               ",
"      X X l } v.].;XeXsXsXsXsXsXsXsXsXeXeXeX5X@XU.u.X.Y S x S ` ;.g.~.@X;X5X5XeX5X5XeXeX;X].Z.8.` l 1 X X X X                   ",
"      X X y Y ;.v.].5XeXsXsXsXsXsXsXeXeXeXeXeX5X@X].Z.8.X.X.;.u.Z.].@X5X5X5X5X5X5X5X;X@X].v.;.Y l 1 X X X X X                   ",
"          1 l S X.g. X;XeXeXsXsXeXeXeXeXeXeXeXeX5X;X X~.Z.Z.U.~. X@X5X5XeX5X5X5X;X@X].U.u.X.J y 1 X X X X X X                   ",
"            X 1 x X.v.].@X5XeXeXeXeXeXeXeXeXeXeX5X5X5X;X;X;X;X;X;X5X5X5X5X5X;X;X X~.v.,.` x q > X X X X X X X                   ",
"            X X 1 x } 8.Z.].@X;X5XeXeXeXeXeXeXeXeXeXeXeXeXeXeX5X5X5X5X5X5X;X X~.v.8.} J l q > X X X X X X X                     ",
"            X X X > q S X.u.U.].@X5X5X5X5X5X5X5X5X5X5X5X5X5X5X5X5X5X5X;X@X].Z.8.} S l q > X X X X X X X                         ",
"              X X X X 1 x ` ,.g.Z.~.]. X@X@X;X;X;X;X;X;X;X@X@X@X X X].~.Z.u.;.Y x q > X X X X X X X X                           ",
"                X X X X 1 y x J ` X.8.v.U.~.]. X X X X X].].~.U.Z.g.8.X.` J x y 1 > X X X X X X X X                             ",
"                  X X X X X > 1 q x Y X.,.u.g.v.v.Z.v.v.v.g.u.8.;.} J x q > X X X X X X X X X X X                               ",
"                      X X X X X > 1 y x S J Y ` ` ` ` ` Y Y Y J S l y 1 > X X X X X X X X X X                                   ",
"                        X X X X X X > > > 1 1 1 1 1 1 1 1 1 > > > > X X X X X X X X X                                           ",
"                          X X X X X X X X X X X X X X X X X X X X X X X X X X X X X                                             ",
"                              X X X X X X X X X X X X X X X X X X X X X X X X X                                                 ",
"                                X X X X X X X X X X X X X X X X X X X X X X X                                                   ",
"                                                                                                                                ",
"                                                                                                                                ",
"                                                                                                                                ",
"                                                                                                                                ",
"                                                                                                                                "
};
