/* XPM */
static char * XFACE[] = {
/* width height num_colors chars_per_pixel */
"16 16 8 1",
"a c #575e6f"
"b c #a4aaaa"
"c c #757d90"
"d c #313543"
"e c #d4d4d4"
"f c #c0c0c0"
"g c #3a6426"
"h c #5b851e"
"abbbbbbbbbbbbbbb",
"abcbbbbbbbbbbbcb",
"abbbbbbbbbbbbbbb",
"abbbbbbbbbbbbbbb",
"abbbbbbbbbbbbbbb",
"abbbbbbbbbbbbbbb",
"abcbbbbbbbbbbbcb",
"abbbbbbbbbbbbbbb",
"defffffffffffffe",
"daaaaaaaaaaaaaaa",
"dcdcccccccccccda",
"dcccccccccccccca",
"dcccccccccccccaa",
"dcccccccccccccaa",
"dcdcccgccccccada",
"dccgchgchccccaaa",
};
