/* XPM */
static char * XFACE[] = {
/* width height num_colors chars_per_pixel */
"16 16 13 1",
"a c #575e6f"
"b c #bc8d44"
"c c #a4aaaa"
"d c #94703a"
"e c #757d90"
"f c #313543"
"g c #d4d4d4"
"h c #c0c0c0"
"i c #ceb164"
"j c #755733"
"k c #3a6426"
"l c #5b851e"
"m c #7b9d25"
"abcccccccccccccc",
"abdbccccccccccec",
"abbccccccccccccc",
"accccccccccccccc",
"abccccccccccbbbc",
"acccccccccbbbbbb",
"aceccccccccbbbdb",
"accccccccbbbbbbb",
"fghhhhhbhiibibii",
"faaaaaaajjjjjjjj",
"fefeeeeeddddddfd",
"feeeeeeeeededdde",
"feeeeeeeeeeeedee",
"feeeeeeeeedeeeee",
"fefeeekeeeeeeefe",
"feekelkeleeemeee",
};