/* XPM */
static char * XFACE[] = {
/* width height num_colors chars_per_pixel */
"16 16 7 1",
"a c #45465e"
"b c #313543"
"c c #575e6f"
"d c #757d90"
"e c #d78632"
"f c #f0a53b"
"g c #a54d34"
"aaaaaaaaaaaaaaaa",
"bbcccdddddddddbb",
"bccceeeeeeeedddb",
"ccceeffffffeeddd",
"ccaeffeeeeffecdd",
"ccbefeffffefebdd",
"dcbefeffffefebdd",
"ddbefeffffefebdd",
"ddbeffeeeeffebdd",
"ddbeeffffffeebdd",
"ddbgeeeeeeeegbdd",
"ddbggggggggggbdd",
"ddbbggggggggbbcc",
"ddcbbbbbbbbbbacc",
"bdddddddddcccccb",
"bbdddddddcccccbb",
};