/* XPM */
static char * XFACE[] = {
/* width height num_colors chars_per_pixel */
"16 16 5 1",
"a c #313543"
"b c #a4aaaa"
"c c #757d90"
"d c #575e6f"
"e c #45465e"
"aaaaaaaaaaaaaaaa",
"abbbcbbbcbbbcbbb",
"acddecddecddecdd",
"acddecddecddecdd",
"acddecddecddecdd",
"acddecddecddecdd",
"acddecddecddecdd",
"acddecddecddecdd",
"acddecddecddecdd",
"acddecddecddecdd",
"acddecddecddecdd",
"acddecddecddecdd",
"acddecddecddecdd",
"acddecddecddecdd",
"abbbcbbbcbbbcbbb",
"aeeeaeeeaeeeaeee",
};