/* XPM */
static char *tile_01[] = {
/* columns rows colors chars-per-pixel */
"64 64 114 2 ",
"   c #3F682A",
".  c #436E1D",
"X  c #477217",
"o  c #4C761F",
"O  c #426A2D",
"+  c #4D7624",
"@  c #49712C",
"#  c #547C2F",
"$  c #456A35",
"%  c #43673D",
"&  c #476A3F",
"*  c #4C703B",
"=  c #527834",
"-  c #54783A",
";  c #3F4351",
":  c #41554A",
">  c #414655",
",  c #444B56",
"<  c #494F5E",
"1  c #4A5C56",
"2  c #52545E",
"3  c #476942",
"4  c #486946",
"5  c #4B6A4C",
"6  c #506F4B",
"7  c #5B7E45",
"8  c #57774C",
"9  c #57784A",
"0  c #4D6952",
"q  c #4E605D",
"w  c #506B57",
"e  c #51655C",
"r  c #546D5B",
"t  c #5C765F",
"y  c #617E5B",
"u  c #494F60",
"i  c #4D5364",
"p  c #4E5B61",
"a  c #4F5768",
"s  c #515666",
"d  c #525967",
"f  c #5D5F67",
"g  c #505768",
"h  c #585F6F",
"j  c #575E70",
"k  c #585F70",
"l  c #556365",
"z  c #566D61",
"x  c #5A6F64",
"c  c #57606E",
"v  c #59626D",
"b  c #5C6B6C",
"n  c #5D7464",
"m  c #5D716C",
"M  c #5B6273",
"N  c #5E6C70",
"B  c #5F6778",
"V  c #66686F",
"C  c #60746D",
"Z  c #677C6E",
"A  c #616777",
"S  c #636A73",
"D  c #6B6D74",
"F  c #62697B",
"G  c #637476",
"H  c #6C7F77",
"J  c #66757B",
"K  c #6C727D",
"L  c #6B7C7B",
"P  c #70747F",
"I  c #76787D",
"U  c #628154",
"Y  c #648258",
"T  c #678166",
"R  c #688169",
"E  c #6D8175",
"W  c #6E807B",
"Q  c #676F81",
"!  c #686F81",
"~  c #6A7284",
"^  c #6D7985",
"/  c #6F7789",
"(  c #6F7A88",
")  c #727682",
"_  c #737C84",
"`  c #7C7E85",
"'  c #70778A",
"]  c #737B8D",
"[  c #757D90",
"{  c #718082",
"}  c #7A8088",
"|  c #82858A",
" . c #87898D",
".. c #848790",
"X. c #8B8E94",
"o. c #888F9A",
"O. c #8C9296",
"+. c #8E959D",
"@. c #929397",
"#. c #93989C",
"$. c #999EA2",
"%. c #9CA2A4",
"&. c #A1A7A8",
"*. c #A2A8A9",
"=. c #AAAFAF",
"-. c #AEAFB2",
";. c #ABB0B0",
":. c #B1B5B4",
">. c #B7B7B9",
",. c #B7B9B9",
"<. c #B8BBBB",
"1. c #BDBEC0",
"2. c #C0C1C2",
"3. c #C6C7C7",
/* pixels */
"} K K } O.%.*.*.*.*.*.*.*.*.*.*.*.*.*.*.*.*.*.*.*.*.*.*.*.*.*.*.*.*.*.*.*.*.*.*.*.*.*.*.*.*.*.*.*.*.*.*.*.*.*.*.*.*.*.*.*.*.%.O.",
"} K K } O.%.*.*.*.*.*.*.*.*.*.*.*.*.*.*.*.*.*.*.*.*.*.*.*.*.*.*.*.*.*.*.*.*.*.*.*.*.*.*.*.*.*.*.*.*.*.*.*.*.*.*.*.*.*.*.*.*.%.O.",
"} K K } O.%.&.*.&.%.%.&.*.*.*.*.*.*.*.*.*.*.*.*.*.*.*.*.*.*.*.*.*.*.*.*.*.*.*.*.*.*.*.*.*.*.*.*.*.*.*.*.*.*.*.*.&.%.%.&.*.*.%.O.",
"} K K } O.%.&.%.%.$.$.$.%.*.*.*.*.*.*.*.*.*.*.*.*.*.*.*.*.*.*.*.*.*.*.*.*.*.*.*.*.*.*.*.*.*.*.*.*.*.*.*.*.*.*.%.%.$.$.%.%.&.%.O.",
"} K K } O.%.%.%.$.+.+.$.%.&.*.*.*.*.*.*.*.*.*.*.*.*.*.*.*.*.*.*.*.*.*.*.*.*.*.*.*.*.*.*.*.*.*.*.*.*.*.*.*.*.&.%.$.+.+.$.%.%.%.O.",
"} K K } O.%.%.$.+.o.o.+.$.&.*.*.*.*.*.*.*.*.*.*.*.*.*.*.*.*.*.*.*.*.*.*.*.*.*.*.*.*.*.*.*.*.*.*.*.*.*.*.*.*.&.$.+.o.o.+.$.%.%.O.",
"} K K } O.%.%.$.+.o.+.+.$.&.*.*.*.*.*.*.*.*.*.*.*.*.*.*.*.*.*.*.*.*.*.*.*.*.*.*.*.*.*.*.*.*.*.*.*.*.*.*.*.*.&.$.+.o.o.+.$.%.%.O.",
"} K K } O.%.%.%.$.+.+.$.%.&.*.*.*.*.*.*.*.*.*.*.*.*.*.*.*.*.*.*.*.*.*.*.*.*.*.*.*.*.*.*.*.*.*.*.*.*.*.*.*.*.&.%.$.+.+.$.%.%.%.O.",
"} K K } O.%.&.%.%.$.$.%.%.*.*.*.*.*.*.*.*.*.*.*.*.*.*.*.*.*.*.*.*.*.*.*.*.*.*.*.*.*.*.*.*.*.*.*.*.*.*.*.*.*.*.%.%.$.$.%.%.&.%.O.",
"} K K } O.%.&.*.&.%.%.&.*.*.*.*.*.*.*.*.*.*.*.*.*.*.*.*.*.*.*.*.*.*.*.*.*.*.*.*.*.*.*.*.*.*.*.*.*.*.*.*.*.*.*.*.&.&.&.*.*.&.%.O.",
"} K K } O.%.*.*.*.*.*.*.*.*.*.*.*.*.*.*.*.*.*.*.*.*.*.*.*.*.*.*.*.*.*.*.*.*.*.*.*.*.*.*.*.*.*.*.*.*.*.*.*.*.*.*.*.*.*.*.*.*.%.O.",
"} K K } O.%.*.*.*.*.*.*.*.*.*.*.*.*.*.*.*.*.*.*.*.*.*.*.*.*.*.*.*.*.*.*.*.*.*.*.*.*.*.*.*.*.*.*.*.*.*.*.*.*.*.*.*.*.*.*.*.*.%.O.",
"} K K } O.%.*.*.*.*.*.*.*.*.*.*.*.*.*.*.*.*.*.*.*.*.*.*.*.*.*.*.*.*.*.*.*.*.*.*.*.*.*.*.*.*.*.*.*.*.*.*.*.*.*.*.*.*.*.*.*.*.%.O.",
"} K K } O.%.*.*.*.*.*.*.*.*.*.*.*.*.*.*.*.*.*.*.*.*.*.*.*.*.*.*.*.*.*.*.*.*.*.*.*.*.*.*.*.*.*.*.*.*.*.*.*.*.*.*.*.*.*.*.*.*.%.O.",
"} K K } O.%.*.*.*.*.*.*.*.*.*.*.*.*.*.*.*.*.*.*.*.*.*.*.*.*.*.*.*.*.*.*.*.*.*.*.*.*.*.*.*.*.*.*.*.*.*.*.*.*.*.*.*.*.*.*.*.*.%.O.",
"} K K } O.%.*.*.*.*.*.*.*.*.*.*.*.*.*.*.*.*.*.*.*.*.*.*.*.*.*.*.*.*.*.*.*.*.*.*.*.*.*.*.*.*.*.*.*.*.*.*.*.*.*.*.*.*.*.*.*.*.%.O.",
"} K K } O.%.*.*.*.*.*.*.*.*.*.*.*.*.*.*.*.*.*.*.*.*.*.*.*.*.*.*.*.*.*.*.*.*.*.*.*.*.*.*.*.*.*.*.*.*.*.*.*.*.*.*.*.*.*.*.*.*.%.O.",
"} K K } O.%.*.*.*.*.*.*.*.*.*.*.*.*.*.*.*.*.*.*.*.*.*.*.*.*.*.*.*.*.*.*.*.*.*.*.*.*.*.*.*.*.*.*.*.*.*.*.*.*.*.*.*.*.*.*.*.*.%.O.",
"} K K } O.%.*.*.*.*.*.*.*.*.*.*.*.*.*.*.*.*.*.*.*.*.*.*.*.*.*.*.*.*.*.*.*.*.*.*.*.*.*.*.*.*.*.*.*.*.*.*.*.*.*.*.*.*.*.*.*.*.%.O.",
"} K K } O.%.*.*.*.*.*.*.*.*.*.*.*.*.*.*.*.*.*.*.*.*.*.*.*.*.*.*.*.*.*.*.*.*.*.*.*.*.*.*.*.*.*.*.*.*.*.*.*.*.*.*.*.*.*.*.*.*.%.O.",
"} K K } O.%.*.*.*.*.*.*.*.*.*.*.*.*.*.*.*.*.*.*.*.*.*.*.*.*.*.*.*.*.*.*.*.*.*.*.*.*.*.*.*.*.*.*.*.*.*.*.*.*.*.*.*.*.*.*.*.*.%.O.",
"} K K } O.%.*.*.*.*.*.*.*.*.*.*.*.*.*.*.*.*.*.*.*.*.*.*.*.*.*.*.*.*.*.*.*.*.*.*.*.*.*.*.*.*.*.*.*.*.*.*.*.*.*.*.*.*.*.*.*.*.%.O.",
"} K K } O.%.*.*.*.&.&.&.*.*.*.*.*.*.*.*.*.*.*.*.*.*.*.*.*.*.*.*.*.*.*.*.*.*.*.*.*.*.*.*.*.*.*.*.*.*.*.*.*.*.*.*.&.&.&.*.*.&.%.O.",
"} K K } O.%.&.&.%.$.$.%.%.*.*.*.*.*.*.*.*.*.*.*.*.*.*.*.*.*.*.*.*.*.*.*.*.*.*.*.*.*.*.*.*.*.*.*.*.*.*.*.*.*.*.%.%.$.$.%.%.&.%.O.",
"} K K } O.%.%.%.$.+.+.$.$.&.*.*.*.*.*.*.*.*.*.*.*.*.*.*.*.*.*.*.*.*.*.*.*.*.*.*.*.*.*.*.*.*.*.*.*.*.*.*.*.*.&.%.$.+.+.$.%.%.%.O.",
"} K K } O.%.%.$.+.o.o.+.$.%.*.*.*.*.*.*.*.*.*.*.*.*.*.*.*.*.*.*.*.*.*.*.*.*.*.*.*.*.*.*.*.*.*.*.*.*.*.*.*.*.&.$.+.o.o.+.$.%.%.O.",
"} K K } O.$.%.$.+.o.o.+.$.%.*.*.*.*.*.*.*.*.*.*.*.*.*.*.*.*.*.*.*.*.*.*.*.*.*.*.*.*.*.*.*.*.*.*.*.*.*.*.*.*.&.$.+.o.o.+.$.%.$.O.",
"} K K } O.$.%.%.$.+.+.$.%.%.*.*.*.*.*.*.*.*.*.*.*.*.*.*.*.*.*.*.*.*.*.*.*.*.*.*.*.*.*.*.*.*.*.*.*.*.*.*.*.*.&.%.$.+.+.$.$.%.$.O.",
"} K K } O.$.%.%.%.$.$.%.%.&.*.*.*.*.*.*.*.*.*.*.*.*.*.*.*.*.*.*.*.*.*.*.*.*.*.*.*.*.*.*.*.*.*.*.*.*.*.*.*.*.&.%.%.$.$.%.%.%.$.O.",
"} K K } O.%.*.*.*.&.&.&.*.*.*.*.*.*.*.*.*.*.*.*.*.*.*.*.*.*.*.*.*.*.*.*.*.*.*.*.*.*.*.*.*.*.*.*.*.*.*.*.*.*.*.*.&.&.&.*.*.*.%.+.",
"} K K } #.&.=.;.;.=.=.=.=.=.=.=.=.=.=.=.=.=.=.=.=.=.=.=.=.=.=.=.=.=.=.=.=.=.=.=.=.=.=.=.=.=.=.=.=.=.=.=.=.=.=.=.=.=.=.;.;.-.*.#.",
"| K K | $.;.,.<.,.:.:.:.:.:.:.:.:.:.:.:.:.:.:.:.:.:.:.:.:.:.:.:.:.:.:.:.:.:.:.:.:.:.:.:.:.:.:.:.:.:.:.:.:.:.:.:.:.:.:.,.<.,.;.%.",
" .K K  .&.<.2.2.2.<.<.<.<.<.<.<.,.,.,.<.<.<.<.,.<.<.<.<.,.,.,.<.<.<.<.<.,.,.,.<.<.<.<.,.<.<.<.<.,.,.,.<.<.<.<.,.<.<.<.1.2.2.<.*.",
" .D D  .&.<.2.2.2.<.<.<.<.<.<.<.<.<.<.<.<.<.<.<.<.<.<.<.<.<.<.<.<.<.<.<.<.<.<.<.<.<.<.<.<.<.<.<.<.<.<.<.<.<.<.<.<.<.<.2.2.2.1.-.",
"| V V | &.>.2.2.<.>.:.:.:.:.:.:.:.:.:.:.:.:.:.:.:.:.:.:.:.:.:.:.:.:.:.:.:.:.:.:.:.:.:.:.:.:.:.:.:.:.:.:.:.:.:.:.:.:.>.<.2.2.<.*.",
"I f f I @.&.-.;.=.&.&.&.&.&.&.&.&.&.&.&.&.&.&.&.&.&.&.&.&.&.&.&.&.&.&.&.&.&.&.&.&.&.&.&.&.&.&.&.&.&.&.&.&.&.&.&.&.&.&.=.;.;.=.$.",
"S 2 2 S ` X.#.#.#.O.X.X.X.X.X.X.X.X.X.X.X.X.X.X.X.X.X.X.X.X.X.X.X.X.X.X.X.X.X.X.X.X.X.X.X.X.X.X.X.X.X.X.X.X.X.X.X.X.O.#.#.#.+...",
"s , , s S P _ _ _ ) ) ) ) ) ) ) ) ) ) ) ) ) ) ) ) ) ) ) ) ) ) ) ) ) ) ) ) ) ) ) ) ) ) ) ) ) ) ) ) ) ) ) ) ) ) ) ) ) ) _ _ _ ) K ",
"< ; ; < d M A A M M M M M A A F F F F F F F F F F F F F F F F F F F F F F F F F F F F F F F F F F F F F F F A M M M v M M M M M ",
"< ; ; < d M M k d i i d k M A F F F F F F F F F F F F F F F F F F F F F F F F F F F F F F F F F F F F F F F M k d i i i i g d d ",
"i > > i k A F M g < < i M F Q ~ ~ ~ ~ ~ ~ ~ Q ! ~ ~ Q Q ~ ~ ~ ~ ~ ~ Q Q ~ ~ ~ ~ ~ ~ ~ ~ ! ~ ~ ~ ~ ~ ~ ~ ~ Q F M g < < < i a d d ",
"s , , s M ! ~ F d < < d A ~ / ] ] ] ] ] ] ] / / ] ] / / ] ] ] ] ] ] / / ] ] ] ] ] ] ] ] ] ] ] ] ] ] ] ] ] / ~ A d < < < i d d d ",
"d < < d F ~ ~ F M s i h F / ] [ [ ] ] ] ] ] ] ] ] ] ] ] ] ] ] ] ] ] ] ] ] ] ] ] ] ] ] ] ] ] ] ] ] ] ] [ [ ] / F M i i i a d d d ",
"d < < d F ~ / ~ F M M A ~ ] ] [ [ [ [ [ [ [ [ [ [ [ [ [ [ [ [ [ [ [ [ [ [ [ [ [ [ [ [ [ [ [ [ [ [ [ [ [ [ ] ' ~ F M d d d j j d ",
"g < < g F ~ ] / ~ F F ~ / ] [ [ [ [ [ [ [ [ [ [ [ [ [ [ [ [ [ [ [ [ [ [ [ [ [ [ [ [ [ [ [ [ [ [ [ [ [ [ [ [ ] / ~ F A M M M k d ",
"s < < g F ~ ] ] ] / / ] ] ] [ [ [ [ [ [ [ [ [ [ [ [ [ [ [ [ [ [ [ [ [ [ [ [ [ [ [ [ [ [ [ [ [ [ [ [ [ [ [ [ ] ] / ~ ~ F F M k d ",
"s < < s F ~ ] [ [ ] ] ] ] [ [ [ [ [ [ [ [ [ [ [ [ [ [ [ [ [ [ [ [ [ [ [ [ [ [ [ [ [ [ [ [ [ [ [ [ [ [ [ [ [ [ ] ] ' ~ Q F M k d ",
"s < < s F ~ ] [ [ [ [ [ [ [ [ [ [ [ [ [ [ [ [ [ [ [ [ [ [ [ [ [ [ [ [ [ [ [ [ [ [ [ [ [ [ [ [ [ [ [ [ [ [ [ ] ] ' ~ ~ F F M k d ",
"s < < s A ~ ] [ [ [ [ [ [ [ [ [ [ [ [ [ [ [ [ [ [ [ [ [ [ [ [ [ [ [ [ [ [ [ [ [ [ [ [ [ [ [ [ [ [ [ [ [ [ ] ] / ~ Q F F M M d d ",
"s < < s A ~ ] [ [ [ [ [ [ [ [ [ [ [ [ [ [ [ [ [ [ [ [ [ [ [ [ [ [ [ [ [ [ [ [ [ [ [ [ [ [ [ [ [ [ [ [ [ [ ] ] ~ ! F M M M k j d ",
"s < < s F ~ ] [ [ [ [ [ [ [ [ [ [ [ [ [ [ [ [ [ [ [ [ [ [ [ [ [ [ [ [ [ [ [ [ [ [ [ [ [ [ [ [ [ [ [ [ [ [ ] ] ~ F M M j j j d d ",
"s < < s F ~ ] [ [ [ [ [ [ [ [ [ [ [ [ [ [ [ [ [ [ [ [ [ [ [ [ [ [ [ [ [ [ [ [ [ [ [ [ [ [ [ [ [ [ [ [ [ [ ] ] ~ F M k d d j d d ",
"d < < d F ~ ] [ [ [ [ [ [ [ [ [ [ [ [ [ [ [ [ [ [ [ [ [ [ [ [ [ [ [ [ [ [ [ [ [ [ [ [ [ [ [ [ [ [ [ [ [ [ ] ] ~ F M M d d j j d ",
"d < < d F ~ ] [ [ ] ] ] ] [ [ [ [ [ [ [ [ [ [ ] ] ] ] ] ] [ [ [ [ [ [ [ [ [ [ [ [ [ [ [ [ [ [ [ [ [ [ [ [ ] ] ~ F M k d d j j d ",
"d < < d F ~ ] ] ] / / ] ] ] [ [ [ [ [ [ [ [ ] ] ] ( ( ] ] ] [ [ [ [ [ [ [ [ [ [ [ [ [ [ [ [ [ [ [ [ ] ] ] ] ~ Q B k d d d d j d ",
"s < < d F ~ ] / ~ F F ~ / ] [ [ [ [ [ [ [ [ ] ^ ^ J J ^ ^ ] ] [ [ [ [ [ [ [ [ [ [ [ [ [ [ [ [ [ [ [ ] ] / ~ Q A M d i s d d d j ",
"s < < s F ~ / ~ F M M A ~ ] [ [ [ [ [ [ [ [ ] ~ G m m G L ] ] [ [ [ [ [ [ [ [ [ [ [ [ [ [ [ [ [ [ ] ] / ~ Q F k s < < i g d j j ",
"d < < d F ~ ~ F M s s v F ~ ] ] [ [ [ [ [ ] ^ J n r r m J ^ ] ] [ ] ] ] ] [ [ [ [ [ [ [ [ [ [ [ [ ] ] ~ ! A M d < < > < i d j j ",
"d < < d F ~ ~ F M s i d S ~ ^ ] ] ] ] ] ] _ L C r 5 5 z G ^ ] ] ] ] ] ] ] ] [ [ [ [ [ [ [ [ [ [ [ ] ] ~ F M d i < > > < i d d d ",
"g < < g F ~ / ~ F M d v N G J ^ ] ] ] ] { L Z t 6 & 4 r G ^ ] ] { W W _ _ ] [ [ [ [ [ [ [ [ [ [ [ [ ] ~ F M d i u < < i g d j d ",
"s < < d F ~ ] ' ~ F S N b x m G ^ ] ] { E R y 9 * $ 4 z G ^ ] { E R R E _ ] [ [ [ [ [ [ [ [ [ [ [ [ ] ~ F M d g i i i s d d j d ",
"s , < s B ~ ] ] ] ~ J N z w r m J ^ _ W R U 7 = @ $ 4 z G ^ ^ L R Y U T H _ ] ] ] ] ] ] ] ] ] ] ] ] ] ~ F M c d d d d d d d d d ",
"2 , , 2 M J ^ ^ ^ ^ K m r 5 5 r m J L Z y 7 # o . O 3 r m J L Z y U U y Z L ^ ^ ^ ^ ^ ^ ^ ^ ^ ^ ^ ^ ~ J S b v l d d d d l l d d ",
"1 : : 1 l b G J J G C z 5 % % 5 z m m n 8 - + X .   % 0 z m m n 8 - - 8 t m G G G G G G G G G G G G G C n x r r e e q q q q q p "
};
