/* XPM */
static char *tile_02[] = {
/* columns rows colors chars-per-pixel */
"64 64 61 1 ",
"  c #555C6D",
". c #585F70",
"X c #5A616D",
"o c #5B6272",
"O c #606775",
"+ c #626876",
"@ c #6B6C74",
"# c #656B79",
"$ c #686F7B",
"% c #6B727D",
"& c #70717B",
"* c #9C6866",
"= c #9A706E",
"- c #826E74",
"; c #817C7C",
": c #8B7B7E",
"> c #9E7C7A",
", c #A4736E",
"< c #AC807A",
"1 c #6F7580",
"2 c #727782",
"3 c #757B84",
"4 c #7B7F86",
"5 c #7A8088",
"6 c #958B83",
"7 c #94898B",
"8 c #9A8B8B",
"9 c #91908F",
"0 c #838790",
"q c #858B91",
"w c #8B8F93",
"e c #878F9A",
"r c #888F9A",
"t c #928F92",
"y c #8C9296",
"u c #8E959D",
"i c #9E9393",
"p c #90959D",
"a c #92989B",
"s c #9E9D99",
"d c #A28784",
"f c #A78D89",
"g c #A98F8A",
"h c #B28B84",
"j c #A7918E",
"k c #A3988B",
"l c #B3918A",
"z c #B8928A",
"x c #A59896",
"c c #A59F9D",
"v c #AAA093",
"b c #A5A09F",
"n c #ABA09E",
"m c #989EA3",
"M c #9BA1A2",
"N c #9EA6A8",
"B c #A0A6A7",
"V c #A3A8A7",
"C c #A9A8A3",
"Z c #A1A7A8",
"A c #A2A8A9",
/* pixels */
"5%%5yMAAAAAAAAAAAAAAAAAAAAAAAAAAAAAAAAAAAAAAAAAAAAAAAAAAAAAAAAMw",
"5%%5yMAAAAAAAAAAAAAAAAAAAAAAAAAAAAAAAAAAAAAAAAAAAAAAAAAAAAAAAAmy",
"5%%5yMZAZMMZAAAAAAAAAAAAAAAAAAAAAAAAAAAAAAAAAAAAAAAAAAAAZMMZAAMt",
"5%%5yMBMMmmMMAAAAAAAAAAAAAAAAAAAAAAAAAAAAAAAAAAAAAAAAAAMMmmMNBbi",
"5%%5yMMMmuumMZAAAAAAAAAAAAAAAAAAAAAAAAAAAAAAAAAAAAAAAAZMmuumMBcj",
"5%%5yMMmurrumBAAAAAAAAAAAAAAAAAAAAAAAAAAAAAAAAAAAAAAAABmurrumBcl",
"5%%5yMMmuruumBAAAAAAAAAAAAAAAAAAAAAAAAAAAAAAAAAAAAAAAABmurrumBcl",
"5%%5yMMMmuumMZAAAAAAAAAAAAAAAAAAAAAAAAAAAAAAAAAAAAAAAAZMmuumMBcz",
"5%%5yMBMMmmMMAAAAAAAAAAAAAAAAAAAAAAAAAAAAAAAAAAAAAAAAAAMMmmMNBnz",
"5%%5yMZAZMMZAAAAAAAAAAAAAAAAAAAAAAAAAAAAAAAAAAAAAAAAAAAAZZBAABnz",
"5%%5yMAAAAAAAAAAAAAAAAAAAAAAAAAAAAAAAAAAAAAAAAAAAAAAAAAAAAAAAAnz",
"5%%5yMAAAAAAAAAAAAAAAAAAAAAAAAAAAAAAAAAAAAAAAAAAAAAAAAAAAAAAAAnz",
"5%%5yMAAAAAAAAAAAAAAAAAAAAAAAAAAAAAAAAAAAAAAAAAAAAAAAAAAAAAAAAnz",
"5%%5yMAAAAAAAAAAAAAAAAAAAAAAAAAAAAAAAAAAAAAAAAAAAAAAAAAAAAAAAAnz",
"5%%5yMAAAAAAAAAAAAAAAAAAAAAAAAAAAAAAAAAAAAAAAAAAAAAAAAAAAAAAAAnl",
"5%%5yMAAAAAAAAAAAAAAAAAAAAAAAAAAAAAAAAAAAAAAAAAAAAAAAAAAAAAAAAnl",
"5%%5yMAAAAAAAAAAAAAAAAAAAAAAAAAAAAAAAAAAAAAAAAAAAAAAAAAAAAAAAAcg",
"5%%5yMAAAAAAAAAAAAAAAAAAAAAAAAAAAAAAAAAAAAAAAAAAAAAAAAAAAAAAAAcg",
"5%%5yMAAAAAAAAAAAAAAAAAAAAAAAAAAAAAAAAAAAAAAAAAAAAAAAAAAAAAAAAcg",
"5%%5yMAAAAAAAAAAAAAAAAAAAAAAAAAAAAAAAAAAAAAAAAAAAAAAAAAAAAAAAAcg",
"5%%5yMAAAAAAAAAAAAAAAAAAAAAAAAAAAAAAAAAAAAAAAAAAAAAAAAAAAAAAAAnl",
"5%%5yMAAAAAAAAAAAAAAAAAAAAAAAAAAAAAAAAAAAAAAAAAAAAAAAAAAAAAAAVnl",
"5%%5yMAAAZZZAAAAAAAAAAAAAAAAAAAAAAAAAAAAAAAAAAAAAAAAAAAAZZZAABnl",
"5%%5yMBZMmmMMAAAAAAAAAAAAAAAAAAAAAAAAAAAAAAAAAAAAAAAAAAMMmmMNBnz",
"5%%5yMMMmuumMZAAAAAAAAAAAAAAAAAAAAAAAAAAAAAAAAAAAAAAAAZMmuumMBcz",
"5%%5yMMmurrumMAAAAAAAAAAAAAAAAAAAAAAAAAAAAAAAAAAAAAAAAZmureumBcz",
"5%%5yMMmuruumMAAAAAAAAAAAAAAAAAAAAAAAAAAAAAAAAAAAAAAAAZmuruumBcz",
"5%%5yMMMmuumMZAAAAAAAAAAAAAAAAAAAAAAAAAAAAAAAAAAAAAAAAZMmuumMBcz",
"5%%5yMZNMmmMMAAAAAAAAAAAAAAAAAAAAAAAAAAAAAAAAAAAAAAAAAAMMmmMNBnz",
"5%%5yMZAAZZZAAAAAAAAAAAAAAAAAAAAAAAAAAAAAAAAAAAAAAAAAAAAZBBAABnl",
"5%%5yMAAAAAAAAAAAAAAAAAAAAAAAAAAAAAAAAAAAAAAAAAAAAAAAAAAAAAAAAnl",
"q2%5yMAAAAAAAAAAAAAAAAAAAAAAAAAAAAAAAAAAAAAAAAAAAAAAAAAAAAAAAAnl",
"y3%5yMAAAAAAAAAAAAAAAAAAAAAAAAAAAAAAAAAAAAAAAAAAAAAAAAAAAAAAAAnj",
"p3%4ymBAAAAAAAAAAAAAAAAAAAAAAAAAAAAAAAAAAAAAAAAAAAAAAAAAAAAAABcf",
"u3%3qamMMMMMMMMMMMMMMMMMMMMMMMMMMMMMMMMMMMMMMMMMMMMMMMMMMMMMMmid",
"02#%5qyyyyyyyyyyyyyyyyyyyyyyyyyyyyyyyyyyyyyyyyyyyyyyyyyyyyyyyy7>",
"3#O#%345555555555555555555555555555555555555555555555555555554:=",
"#ooo#$%%%%%%%%%%%%%%%%%%%%%%%%%%%%%%%%%%%%%%%%%%%%%%%%%%%%%%%&-*",
"oooo#$%%%%%%%%%%%%%%%%%%%%%%%%%%%%%%%%%%%%%%%%%%%%%%%%%%%%%%%&-*",
" .o#%345555555555555555555555555555555555555555555555555555554:,",
" o+15qyyyyyyyyyyyyyyyyyyyyyyyyyyyyyyyyyyyyyyyyyyyyyyyyyyyyyuuy8<",
" o#3qamMMMMMMMMMMMMMMMMMMMMMMMMMMMMMMMMMMMMMMMMMMMMMMMMMMMMMMmxh",
" o$5ymMZMMMMBZAAAAAAAAAAAAAAAAAAAAAAAAAAAAAAAAAAAAAAAAZBMMMMNBcl",
" o$5uMZZMmmMMAAAAAAAAAAAAAAAAAAAAAAAAAAAAAAAAAAAAAAAAAAMMmmMNBnl",
" o$5uMMMmpumMZAAAAAAAAAAAAAAAAAAAAAAAAAAAAAAAAAAAAAAAAZMmuumMBcj",
" o$5uMMmprrumMAAAAAAAAAAAAAAAAAAAAAAAAAAAAAAAAAAAAAAAAMmurrumMcg",
" o$5uMMmuruumNAAAAAAAAAAAAAAAAAAAAAAAAAAAAAAAAAAAAAAAAMmurrumMcg",
" o$5uMMMmuumMZAAAAAAAAAAAAAAAAAAAAAAAAAAAAAAAAAAAAAAAAZMmuumMBcj",
" o$5yMBMMmmMMAAAAAAAAAAAAAAAAAAAAAAAAAAAAAAAAAAAAAAAAAAMMmmMNBcl",
" o$5yMZAAZZZAAAAAAAAAAAAAAAAAAAAAAAAAAAAAAAAAAAAAAAAAAAAZZZAAVnl",
" o$5yMAAAAAAAAAAAAAAAAAAAAAAAAAAAAAAAAAAAAAAAAAAAAAAAAAAAAAAAVnl",
" o$5yMAAAAAAAAAAAAAAAAAAAAAAAAAAAAAAAAAAAAAAAAAAAAAAAAAAAAAAAAnl",
" o%5yMAAAAAAAAAAAAAAAAAAAAAAAAAAAAAAAAAAAAAAAAAAAAAAAAAAAAAAAAcj",
" o$5yMAAAAAAAAAAAAAAAAAAAAAAAAAAAAAAAAAAAAAAAAAAAAAAAAAAAAAAAAcg",
" o$5yMAAAAAAAAAAAAAAAAAAAAAAAAAAAAAAAAAAAAAAAAAAAAAAAAAAAAAAAAcg",
" o$5yMAAAAAAAAAAAAAAAAAAAAAAAAAAAAAAAAAAAAAAAAAAAAAAAAAAAAAAAAcg",
" o$5yMAAAAAAAAAAAAAAAAAAAAAAAAAAAAAAAAAAAAAAAAAAAAAAAAAAAAAAAAnl",
" o$5yMAAAAAAAAAAAAAAAAAAAAAAAAAAAAAAAAAAAAAAAAAAAAAAAAAAAAAAAAnl",
" o$5yMAAAAAAAAAAAAAAAAAAAAAAAAAAAAAAAAAAAAAAAAAAAAAAAAAAAAAAAAnz",
" o$5uMAAAAAAAAAAAAAAAAAAAAAAAAAAAAAAAAAAAAAAAAAAAAAAAAAAAAAAAAnz",
" o$5uMAAAAAAAAAAAAAAAAAAAAAAAAAAAAAAAAAAAAAAAAAAAAAAAAAAAAAAAAnz",
" o$5yMVAAAAAAAAAAAAAAAAAAAAAAAAAAAAAAAAAAAAAAAAAAAAAAAAAAAAAAAnl",
" o$49sBCCAAAAAAAAAAAAAAAAAAAAAAAAAAAAAAAAAAAAAAAAAAAAAAAAAAAAAnl",
" X@;6kvnCAAAAAAAAAAAAAAAAAAAAAAAAAAAAAAAAAAAAAAAAAAAAAAAAAAAAABj"
};
