/* XPM */
static char * XFACE[] = {
/* width height num_colors chars_per_pixel */
"16 16 5 1",
"a c #45465e"
"b c #7b9d25"
"c c #575e6f"
"d c #5b851e"
"e c #313543"
"aaaaaaaaaaaaaaaa",
"bbbbbbbbbbbbbbbb",
"baaaaaaaaaaaaaab",
"bcbbbccacccdbbcb",
"dedeeeeeeeaeeded",
"babaaaaaaaaaabab",
"bccccacccccccccb",
"baaaaaaaaaaaaaab",
"deeeeeaeeeeeeeed",
"bccccccccccacccb",
"baaaaaaaaaaaaaab",
"bebeeaeeeeeeedeb",
"babaaaaaaaaaabab",
"dcbbcccccacbbbcd",
"baaaaaaaaaaaaaab",
"bbbbbbbbbbbbbbbb",
};