/* XPM */
static char *tile_04[] = {
/* columns rows colors chars-per-pixel */
"64 64 149 2 ",
"   c #45553F",
".  c #4B5F3C",
"X  c #5B7C2D",
"o  c #4C6436",
"O  c #47623E",
"+  c #4A623D",
"@  c #4E6B3B",
"#  c #506736",
"$  c #546D37",
"%  c #586F37",
"&  c #586D3F",
"*  c #557535",
"=  c #5A7536",
"-  c #577836",
";  c #5A7935",
":  c #56773B",
">  c #57783F",
",  c #5C7B3C",
"<  c #607F2A",
"1  c #617D3B",
"2  c #373B47",
"3  c #35364C",
"4  c #36394A",
"5  c #3D3E54",
"6  c #3B4346",
"7  c #3E4C44",
"8  c #3D444B",
"9  c #3E484B",
"0  c #3E4154",
"q  c #404E44",
"w  c #424E4B",
"e  c #445345",
"r  c #485644",
"t  c #465C41",
"y  c #495844",
"u  c #435249",
"i  c #48544D",
"p  c #4C5A4C",
"a  c #414456",
"s  c #434956",
"d  c #43445C",
"f  c #484C5D",
"g  c #455351",
"h  c #4B5653",
"j  c #4D5A53",
"k  c #4C545C",
"l  c #4F5959",
"z  c #525E56",
"x  c #5C5558",
"c  c #515C59",
"v  c #4D6441",
"b  c #4E6A42",
"n  c #4F674B",
"m  c #526444",
"M  c #556B45",
"N  c #5A6E44",
"B  c #51634C",
"V  c #5A6D4D",
"C  c #577245",
"Z  c #5C7046",
"A  c #5D7A40",
"S  c #55704E",
"D  c #5E724D",
"F  c #5D7C49",
"G  c #4E6152",
"H  c #536155",
"J  c #576853",
"K  c #54625B",
"L  c #58655A",
"P  c #576F59",
"I  c #5B6B5C",
"U  c #5C7352",
"Y  c #577058",
"T  c #5F7458",
"R  c #686C4E",
"E  c #73654E",
"W  c #637D44",
"Q  c #60734D",
"!  c #657C4A",
"~  c #687F4F",
"^  c #797E42",
"/  c #627554",
"(  c #647957",
")  c #637959",
"_  c #464761",
"`  c #474960",
"'  c #494C62",
"]  c #4D5164",
"[  c #4F5368",
"{  c #505765",
"}  c #525B63",
"|  c #51566A",
" . c #545A6B",
".. c #566263",
"X. c #5A6664",
"o. c #5B6962",
"O. c #57606B",
"+. c #59636A",
"@. c #5C6868",
"#. c #607061",
"$. c #86761B",
"%. c #8D7A1C",
"&. c #887542",
"*. c #638B1D",
"=. c #688F1F",
"-. c #5D812A",
";. c #648A24",
":. c #63842C",
">. c #68852F",
",. c #6B8A2D",
"<. c #718022",
"1. c #788424",
"2. c #6F9226",
"3. c #709520",
"4. c #779A23",
"5. c #7B9D24",
"6. c #74942D",
"7. c #7A942E",
"8. c #76982B",
"9. c #7A9A2A",
"0. c #688533",
"q. c #6D8C34",
"w. c #66833D",
"e. c #6D8A3D",
"r. c #738F34",
"t. c #708F39",
"y. c #6F9137",
"u. c #739235",
"i. c #799235",
"p. c #749339",
"a. c #7A9338",
"s. c #658143",
"d. c #698641",
"f. c #6F8B41",
"g. c #698649",
"h. c #6B884A",
"j. c #708C41",
"k. c #698151",
"l. c #96801D",
"z. c #9F861E",
"x. c #A58A1F",
"c. c #808A25",
"v. c #888F27",
"b. c #8E9524",
"n. c #8D9328",
"m. c #858C33",
"M. c #988032",
"N. c #A08726",
"B. c #A48920",
/* pixels */
"d d d d d d d d d d d d d d d d d d d d d d d d d d d d d d d d d d d d d d d d d d d d d d d d d d d d d d d d d d d d d d d _ ",
"f f f f f f f f f f f f f f f f f f f f f f f f f f f f f f f f f f f f f f f f f f f f f f f f f f f f f f f f f f f f f f f f ",
"x c c c c c c c c c c c c c c c c c c c c c c c c c c c c c c c c c c c c c c c c c c c c c c c c c c c c c c c c c c c c c c c ",
"E R Q D D D D D D D Q Q D D D D D D D D Q D D Q D D D D D D D D D Q Q Q D D D D D D D D Q D D Q D D D D D D D D D Q Q D D D D D ",
"&.^ d.d.d.d.d.d.d.d.d.d.d.d.d.d.d.d.d.d.d.d.d.d.d.d.d.d.d.d.d.d.d.d.d.d.d.d.d.d.d.d.d.d.d.d.d.d.d.d.d.d.d.d.d.d.d.d.d.d.d.d.d.d.",
"M.m.i.u.u.u.u.u.u.u.u.u.u.u.u.u.u.u.u.u.u.u.u.u.u.u.u.u.u.u.u.u.u.u.u.u.u.u.u.u.u.u.u.u.u.u.u.u.u.u.u.u.u.u.u.u.u.u.u.u.u.u.u.u.",
"N.n.9.8.u.u.u.u.u.u.u.u.u.u.u.u.u.u.u.u.u.u.u.u.u.u.u.u.u.u.u.u.u.u.u.u.u.u.u.u.u.u.u.u.u.u.u.u.u.u.u.u.u.u.u.u.u.u.u.u.6.9.9.9.",
"B.b.9.u.y.e.d.d.d.d.d.d.d.d.d.d.d.d.d.d.d.d.d.d.d.d.d.d.d.d.d.d.d.d.d.d.d.d.d.d.d.d.d.d.d.d.d.d.d.d.d.d.d.d.d.d.d.d.e.r.u.9.5.5.",
"x.b.7.u.d.! Q D D D D D D D D D D D D D D D D D Q D Q D D Q Q Q D D D D D D D D D D D D D D D D D D D D D D D D D Q ! d.u.9.5.5.",
"B.b.i.e.! J H c c z z z z z z z z z z z c c c c c c c c c c c c c c c c c c c c c c c z z z z z z z z z z z z c c H J ! e.u.5.5.",
"x.n.i.d.U K k k k c z z z z z H H z z c k k [ ' ' ' f f f f f f f f f f ' ' ' ' ' ' k k k k j j z z z H H z c k k k K / d.u.9.5.",
"x.n.i.d.U K } c K J J D D D D D D U J L c [ [ ' ' ' ' ' ` _ _ ` ' ' ' ' ' ' ' ' ' ' [ k l G B V V V D D D J J K c } K / d.u.9.5.",
"x.n.a.h.) X...I / ! d.d.d.d.d.d.d.d.! / I } | [ | | [ ' ' _ _ ' ' [ [ [ [ [ [ [ | | } K H V C A W s.d.d.d.d.! / I ..X.) g.p.9.5.",
"x.n.a.h.) o.o.) ~ f.u.u.u.u.u.u.u.r.f.~ ) X. . . . .| [ ' ` ` ' [ |  . . . . . . . ...K S > ; 0.q.q.u.u.u.u.f.~ ) o.o.) g.p.9.5.",
"z.v.r.g.T o.o.) g.t.6.6.6.6.6.6.6.r.e.! T X. .| | | [ [ ' f f ' [ [  . . . . . . . ...K V : X :.,.,.6.6.6.6.t.g.) o.o./ g.u.8.4.",
"l.c.q.s.U K K U s.q.2.2.,.>.0.>.>.0.1 D J c k [ [ [ f f d a a d f f [ [ [ [ [ [ [ } } K n % * X X :.>.,.2.2.q.s.U K K J W q.2.3.",
"%.<.:., V j p V , :.;.:.X = % % % % % m p s s d d d a 0 0 5 5 0 0 a s f f f f f ' [ [ k p t . o # $ = X :.;.:., V p j V , :.;.=.",
"$.<.:.* v e e v * -.-.X $ .   e e e e q 8 8 2 2 2 2 2 2 2 4 4 4 2 2 2 2 2 2 0 a d f f f w 7 7 7 q   . $ X -.-.* v e e v * -.;.*.",
"$.<.X * O e e + * X -.* + e 6 2 2 2 2 2 4 4 4 4 4 4 4 4 4 4 4 4 4 4 4 4 4 4 2 5 a d d a 0 2 4 2 2 6 e + * -.X * + e e + * -.;.*.",
"%.1.:.* v e e v ; :.:.; v w 2 3 3 3 3 2 2 2 2 2 2 2 2 2 2 2 2 2 2 2 2 4 2 2 5 5 0 d d d 5 5 2 3 3 2 w v ; :.:.; v e e v = :.;.=.",
"l.c.,., M p p M 1 ,.,.1 M i 0 5 5 5 5 5 5 5 5 5 5 5 5 5 5 5 5 5 5 5 5 5 5 5 0 d d d d d a 5 5 5 5 0 i M 1 ,.,.1 M p p M 1 ,.2.3.",
"z.v.r.s.V j z V s.q.q.s.V j f d d d d d d d d d d d d d d d d d d d d d d d d d d d d d d d d d d f j V s.q.q.s.V j z V s.u.4.4.",
"x.b.i.s.U K c J ! f.f.g.J c f ` _ ` ` ` d d d d d f ' ' ' ' ' ' ' ' ' f ' ' ' ' ` ' ' ' ' ' ' ` ` f c J g.f.f.! J c K U d.u.9.5.",
"x.n.i.d.U K ..I ( k.k.( I } [ ' ' [ ' ' ' ` ` ' ' ' [ [ [ [ [ [ [ [ [ [ [ [ [ [ [ [ [ [ [ [ [ ' ' [ } I ( k.k.( I ..L / d.u.9.5.",
"x.n.i.h.) o...X.o.) ) #.X. . .| | | [ [ ' ' ' ' [ [ | | | | | | | | | | | | | | | | | | | | | | |  . .X.#.) ) o.X...X.) h.u.9.5.",
"x.n.a.h.) o.O.O.+.@.@.+.+. . . . . .| [ ' ' ' ' [ |  . . . . . . . . . . . . . . . . . . . . . . . . .+.+.@.@.+.O.O.o.) h.p.9.5.",
"x.n.a.h.) o. . . . . . . . . . . . .| [ ' ' ' ' [ |  . . . . . . . . . . . . . . . . . . . . . . . . . . . . . . . .o.) h.p.9.5.",
"x.n.a.h.( X. .| | | | | | | | | | | [ [ ' ' ' ' [ [ | | | | | | | | | | | | | | | | | | | | | | | | | | | | | | |  .X.( h.u.9.5.",
"x.n.i.f.U K [ ' ' ' ' ' [ [ [ [ [ [ ' ' ' ` ` ' ' ' [ [ [ [ [ [ [ [ [ [ [ [ [ [ [ [ [ [ [ [ [ [ [ [ [ [ ' ' ' ' ' [ K / d.u.9.5.",
"x.b.i.d.U c f ` _ ` ' ' ' ' ' ' ' ' ` f d d d d ` ' ' ' ' ' ' ' f f ' ' ' ' ' f ' ' ' ' f f ' ' ' ' ' ' ' ' ` _ ` f c U d.u.9.5.",
"z.v.r.w.D j f d d d d d d d d d d d d d d d d d d d d d d d d d d d d d d d d d d d d d d d d d d d d d d d d d d f j V w.u.4.4.",
"l.c.,., M i a 5 5 5 5 5 5 5 5 5 5 5 5 5 5 5 0 d d d d d a 0 5 5 5 5 5 5 5 5 5 5 5 5 5 5 5 5 5 5 5 5 5 5 5 5 5 5 5 a i M 1 ,.2.3.",
"%.1.:.- v u 2 4 4 2 2 2 2 2 2 2 4 4 2 2 2 2 5 5 d d d d 5 2 2 2 2 2 2 2 2 2 2 2 2 2 2 2 2 2 2 2 2 2 2 2 2 2 2 4 4 2 u v = :.;.=.",
"$.<.< * + 7 2 3 3 4 4 4 4 4 4 4 4 4 4 4 4 4 2 5 d d d d 5 2 4 4 4 4 4 4 4 4 4 4 4 4 4 4 4 4 4 4 4 4 4 4 4 4 4 3 3 2 q + * -.;.*.",
"$.<.:.* v u 8 2 2 2 2 2 2 2 2 2 2 2 2 2 2 2 0 a d f f d a 0 2 2 2 2 2 2 2 2 2 2 2 2 2 2 2 4 4 4 2 2 2 2 2 2 2 2 2 8 u v * -.;.*.",
"%.1.:., V j s a a s f f f f f f s s s s s f f f ' ' ' ' f f s s s f f f s s s s f s a 0 0 5 5 0 0 a s s f f f d d s j V , :.;.=.",
"l.c.q.s.U K [ [ [ [ [ [ [ [ [ [ [ [ [ [ [ [ [ [ [ { | [ [ [ [ [ [ [ [ [ [ [ k [ [ [ f f d d d d f f [ [ [ [ [ [ [ [ K D s.q.2.3.",
"z.v.u.g.U X.} | |  . . . . . . . . . . . . . . . . . . . . . . . . . . . . .}  . . .[ [ ' f f ' [ [  . . . . .| | } X./ g.u.8.4.",
"x.n.a.h.) o. . . . . . . . . . . . . . . . . . . . . . . . . . . . . . . . . . . . .| [ ' ' ' ' [ |  . . . . . . . .o.) h.p.9.5.",
"x.n.i.h.) X. .| | | [ | | | | | | | | | | | | | | | | | | | | | | | | | | | | | | | [ [ ' ' ' ' [ [ | | | | | [ |  .X.) h.u.9.5.",
"x.n.i.f.T K [ ' ' ' ' ' [ [ [ [ [ [ [ [ [ [ [ [ [ [ [ [ [ [ [ [ [ [ [ [ [ [ [ [ [ [ ' ' ' ` ` ' ' ' [ [ [ [ ' ' ] { K / d.u.9.5.",
"x.n.i.d.U c f ' ` f ' ' ' ' f ' ' ' ' ' ' ' ' ' ' ' ' ' ' ' ' ' ' ' ' ' ' ' ' ' f f ` f d d d d ` ` ' ' ' ' f ` ` f c U d.u.9.5.",
"B.b.i.d.D j f f k k l k f f d d d d d d d d d d d d d d d d d d d d d d d d d d d d d d d d d d d d d f f k k f f f j D d.u.9.5.",
"B.b.7.w.C p s h H V V H h s 0 5 5 5 0 d d d d d d 0 0 5 5 5 5 5 5 5 5 5 5 5 5 5 5 5 5 0 0 0 0 5 5 0 a g j p p g s s p N 0.u.9.5.",
"B.b.7.w.M i u p N W W Z B w 2 4 4 2 5 5 d d d d 5 2 2 2 2 2 2 2 2 2 2 2 2 2 2 2 5 2 2 2 2 2 2 2 2 2 9 u v b b v u w i N 0.6.5.5.",
"B.b.6.0.% y r m 1 0.e.1 M e 2 3 3 4 2 5 a d d d 5 2 4 3 4 4 4 4 4 4 4 4 4 4 4 4 4 4 4 4 4 4 4 3 3 4 7 t @ * * @ t q r % 0.6.5.5.",
"B.b.6.0.% y y % 0.r.r.0.& e 2 3 3 4 4 5 a d d d 5 2 4 4 3 4 4 4 4 4 4 4 4 4 4 4 4 4 4 4 4 4 4 3 3 4 7 + * X X * + e r % 0.6.5.5.",
"B.b.7.w.M p p N 0.6.6.0.N i 2 3 3 2 5 5 a d d d 5 5 2 2 2 2 2 2 2 2 2 2 2 2 2 2 5 2 2 2 2 2 4 3 3 2 w v ; :.:.; v e p N 0.6.5.5.",
"B.b.i.w.V p p Z 0.u.u.0.Z h a 5 5 5 0 d d d d d d 0 0 5 5 5 5 5 5 5 5 0 0 0 0 0 0 5 5 5 5 5 5 5 5 0 i M 1 q.q.1 M p p N 0.u.9.5.",
"B.b.u.s.D z z D d.u.u.0.Q z f d d d d d d d d d d d d d d d d d d d d d d d d d d d d d d f f d d s z D 0.q.q.w.V z z D d.u.9.5.",
"z.v.r.s.U H K U d.u.u.e.! J z k f f ' ' ' ' ' ' ' ' ' ' f ' ' ' ' ' ` ` d d d d f ' f k k l z z z z J ! e.u.u.d.U K K J s.u.8.4.",
"%.c.q.s.U K L / d.u.u.u.d.! U L c { [ [ [ [ [ [ [ [ [ [ [ [ [ [ [ [ ' ' ' ` ` ' ' [ { c I J D D D Q ! d.u.u.u.d./ L K J W q.2.3.",
"%.1.0.F Y ..o.) h.u.9.6.u.e.g./ I .. .| | | | | | | | | | | | | | | [ [ ' ' ' ' ' { ..I / g.d.d.d.d.t.u.6.9.u.h.) o...I F 0.;.=.",
"$.<.0.F P ..o.) g.p.9.9.6.u.f.k.) X. . . . . . . . . . . . . . . . .| [ ' ' ' ' [  .X.) k.f.p.u.u.u.u.6.9.9.p.g.) o...I F 0.;.*.",
"$.<.0.F P ..X.) k.j.u.u.u.p.f.k.) X. . . . . . . . . . . . . . . . .| [ ' ' ' ' [  .X.) k.f.p.u.u.u.u.u.u.u.j.k.) X...I F 0.;.*.",
"%.1.0.F P ....I / ! d.d.d.d.! / I } | [ [ | | | | | | | | | | | | | [ ' ' _ _ ' ' [ } I / ! d.d.d.d.d.d.d.d.! / I ....I F 0.;.=.",
"l.c.q.s.U c } c K J J D D D J L c [ [ ' ' ' ' ' ' ' ' ' ' ' ' ' ' ' ' ' ` _ _ _ ' ' [ c L J D D D D D D D J J K c } c J W q.2.3.",
"z.c.r.s.U K k k l c z H H z c c k k [ ' ' ' ' ' ' ' [ [ ' ' ' ' ' ' f f f f f f f f k k c c z H H z z z z z c l k k K U d.u.8.4.",
"x.b.i.e.! J H c c z z z z z z z c c c c c c c c c c c c c c c c c c c c c c c c c c c c z z z z z z z z z z z c c H J ! e.u.5.5.",
"x.b.7.u.d.! Q D D D D D D D D D D D D D Q D D Q Q Q Q Q Q Q D Q D D D D Q Q D Q D D D D D D D D D D D D D D D D D Q ! d.u.9.5.5.",
"B.b.9.u.y.e.d.d.d.d.d.d.d.d.d.d.d.d.d.d.d.d.d.d.d.d.d.d.d.d.d.d.d.d.d.d.d.d.d.d.d.d.d.d.d.d.d.d.d.d.d.d.d.d.d.d.d.d.e.u.u.9.5.5.",
"N.n.9.8.u.u.u.u.u.u.u.u.u.u.u.u.u.u.u.u.u.u.u.u.u.u.u.u.u.u.u.u.u.u.u.u.u.u.u.u.u.u.u.u.u.u.u.u.u.u.u.u.p.u.u.u.u.u.u.u.8.9.9.9.",
"M.m.i.u.u.u.u.u.u.u.u.u.u.u.u.u.u.u.u.u.u.u.u.u.u.u.u.u.u.u.u.u.u.u.u.u.u.u.u.u.u.u.u.u.u.u.u.u.u.u.u.u.u.u.u.u.u.u.u.u.u.u.u.u.",
"&.^ d.d.d.d.d.d.d.d.d.d.d.d.d.d.d.d.d.d.d.d.d.d.d.0.d.d.0.d.0.0.0.0.0.0.d.d.d.d.0.0.0.0.d.d.d.d.0.0.0.0.d.d.d.d.d.d.d.d.d.d.d.d."
};
