/* XPM */
static char *tile_22[] = {
/* columns rows colors chars-per-pixel */
"64 64 112 2 ",
"   c None",
".  c #2D071C",
"X  c #2E0B1E",
"o  c #32181F",
"O  c #311727",
"+  c #341D27",
"@  c #372327",
"#  c #382626",
"$  c #3A2B27",
"%  c #372428",
"&  c #382528",
"*  c #3B2C28",
"=  c #3C3027",
"-  c #3E3228",
";  c #3C2C32",
":  c #3F3231",
">  c #453A25",
",  c #413629",
"<  c #423A28",
"1  c #483F2B",
"2  c #423632",
"3  c #443A31",
"4  c #4A4227",
"5  c #474029",
"6  c #4B452B",
"7  c #4E492B",
"8  c #514B2D",
"9  c #56532D",
"0  c #58552F",
"q  c #5B592D",
"w  c #4F4631",
"e  c #504731",
"r  c #544B33",
"t  c #584F36",
"y  c #555030",
"u  c #5A5236",
"i  c #5D5C30",
"p  c #5D5439",
"a  c #5F5938",
"s  c #615F32",
"d  c #615B38",
"f  c #676636",
"g  c #676637",
"h  c #656435",
"j  c #636432",
"k  c #686637",
"l  c #686737",
"z  c #686737",
"x  c #676833",
"c  c #676834",
"v  c #676833",
"b  c #686933",
"n  c #686A33",
"m  c #696A33",
"M  c #686934",
"N  c #696935",
"B  c #696A34",
"V  c #696B34",
"C  c #696A35",
"Z  c #6A6B34",
"A  c #6A6B35",
"S  c #696837",
"D  c #6A6A36",
"F  c #6A6C34",
"G  c #6B6C34",
"H  c #6B6D34",
"J  c #6C6D34",
"K  c #6C6D35",
"L  c #6C6E35",
"P  c #6D6F35",
"I  c #6C6D36",
"U  c #6D6E36",
"Y  c #6D6F36",
"T  c #6B6C35",
"R  c #646038",
"E  c #646038",
"W  c #6D7035",
"Q  c #6E7035",
"!  c #6E7135",
"~  c #6F7135",
"^  c #6F7136",
"/  c #6E7035",
"(  c #443B46",
")  c #453C46",
"_  c #463D47",
"`  c #463E47",
"'  c #473F47",
"]  c #453D48",
"[  c #494148",
"{  c #4C444B",
"}  c #49424C",
"|  c #4F484D",
" . c #524B4F",
".. c #524C4F",
"X. c #534C50",
"o. c #534E56",
"O. c #535160",
"+. c #535161",
"@. c #535260",
"#. c #545261",
"$. c #555362",
"%. c #565562",
"&. c #595764",
"*. c #5F5E62",
"=. c #5D5C68",
"-. c #605F68",
";. c #67666B",
":. c #686769",
">. c #6B6A6E",
",. c #6C6B6E",
"<. c #6A6B73",
"1. c #7C7E84",
/* pixels */
"      *.:.,.,.;.-.&.$.$.$.$.$.$.$.$.$.$.$.$.$.$.$.$.$.$.$.$.$.$.$.$.$.$.$.$.$.$.$.$.$.$.$.$.$.$.$.$.$.$.$.$.$.$.@.$.*.<.1.      ",
"        ..X...| { [ ' ' ' ' ' ' ' ' ' ' ' ' ' ' ' ' ' ' ' ' ' ' ' ' ' ' ' ' ' ' ' ' ' ' ' ' ' ' ' ' ' ' ' ' ' ' ' ' { X.        ",
"        ; ; ; : 2 3 3 3 3 3 3 3 3 3 3 3 3 3 3 3 3 3 3 3 3 3 3 3 3 3 3 3 3 3 3 3 3 3 3 3 3 3 3 3 3 3 3 3 3 3 2 : ; ; ; ;         ",
"        X O @ * > 7 6 7 7 7 7 7 7 7 7 7 7 7 7 7 7 7 7 7 7 7 7 7 7 7 7 7 7 7 7 7 7 7 7 7 7 7 7 7 7 7 7 7 7 6 6 > - % O X         ",
"        X o * > 7 0 q q q q q q q q q q q q q q q q q q q q q q q q q q q q q q q q q q q q q q q q q q q q 0 7 > * O .         ",
"        O @ - 6 0 s h h h h h h h h h h h h h h h h h h h h h h h h h h h h x h h h h h h x h h x h h h h h s 0 6 - @ O         ",
"        O % , 7 q h B B B x h h h h h h h x x h h x h h h h h h h h x B B B B B B B B B B B B B B B B B B B h q 7 , % O         ",
"        O % , 8 q h B B h h h h h h s s s s s s s s s s h s s q q h h h B B B ! ! ! ! ! ! ! ! ! ! ! ! ! ! B x q 7 , & O         ",
"        O & , 8 i h B h h q 0 0 0 0 0 0 0 0 0 0 0 0 0 0 0 0 0 0 0 0 q s h B B ! ! ! ! ! ! ! ! ! ! ! ! ! ! B x i 7 , & O         ",
"        O % , 8 i h x h q 8 7 6 6 6 6 6 6 6 6 6 7 7 6 6 7 7 7 6 6 7 0 q h B B ! ! B ! B B B B B B B B ! B B h i 7 , & O         ",
"        O % , 8 i h x h u 8 6 6 1 6 6 6 6 6 6 6 6 6 6 6 6 6 7 6 7 7 0 q h B B ! ! B B B B B B x x B B B B B h q 7 , & O         ",
"        O % , 8 i h x h i r 6 6 w w 6 6 6 6 6 6 6 6 6 8 8 0 0 0 0 0 q i h B B ! ! B B B h h h i i h h h B B h q 7 , % O         ",
"        O % , 8 i h B h i u r r r r r r r r r r r r r u u i i i i i h h B B B ! ! ! B h i q 0 0 0 0 q h h B h q 8 , % O         ",
"        O % , 7 i h B h s u u u u u u u u u u u u u u i h h x B B B B B B B B B B B B h q 8 7 6 6 7 8 q h x h i 8 , % O         ",
"        O % , 7 i h B l h a p p p p p p p a a a a d s h h B B B B B B B B B B B B B h i 0 7 6 < < 5 7 0 h h h i 8 , % O         ",
"        O % , 7 i h B l R d p p p p p d d d d d d R h l B B ! ! ! ! B B h h h i i s i u y 8 6 < < < 6 0 h h h q 8 , % O         ",
"        O % , 7 i h B l R d p p p p p d R h l l l l B B B ! ! ~ ! B B h i q 0 0 0 0 0 y r r r 6 < < 6 0 s h h q 8 , % O         ",
"        O % , 7 i h B l R d p p p p d d h B B B B B B B B B B B B B B h q 8 7 6 6 6 7 r r r r r 6 6 6 0 h h h q 8 , % O         ",
"        O % , 7 i h B B h d d d a d d h l B B ! B B B B B B B B x x h i 0 7 6 6 5 6 6 r r t t r 6 6 6 0 h h h q 8 , % O         ",
"        O % , 7 i h B B l h h R d h h h B B ! ! ! ! B B h h h h i i i u 8 8 6 6 6 6 w r t u u r 6 6 6 0 h h h q 8 , % O         ",
"        O % , 7 i h B B B B l l h l B B B B ! ! ! B B h h q 0 0 0 0 0 0 r r r r r r r t u p u r 6 6 6 0 h h h q 8 , % O         ",
"        O % , 7 i h B B B B B B B B B B B B B B B B B h q 8 7 6 6 6 7 r r r u u t u u p p p u r 6 6 6 0 h h h i 8 , % O         ",
"        O % , 7 i h B ! ! ! B B B B B B B B B B B x h i 0 7 6 5 6 6 6 r r u p p p p p p p p u r 6 6 6 0 h h h i 8 , % O         ",
"        O & , 7 i h B ! ! B B ! ! B B B h h h i i i i y r 8 6 6 6 6 w r r p p p p p p p p p u r 6 6 6 0 h h h i 8 , % O         ",
"        O % , 7 i x B ! ! ! B ! ! B B h q q 0 0 0 0 0 r r r r r r r r r p p p p p p p p p p u r 6 6 6 0 h h h i 8 , % O         ",
"        O % , 7 i h B ! ! ! B ! ! B B h q 0 7 6 6 7 7 r r u u u p p u u p p p p p p p p p p u r 6 6 7 0 h h h i 8 , % O         ",
"        O % , 7 i h B ! ! B B ! ! B B h q 0 7 6 6 7 8 r u u a a a a i a d d d d d d d d d a u u r 8 8 q h x h i 8 , % O         ",
"        O & , 7 i h B ! ! ! ! ! ! B B h i q 0 0 0 0 0 i i s R R R d s h R R d R R R R R R h s i i u q s h B h i 8 , & O         ",
"        O & , 7 q h B ! B B ! ! ! B B B h h h q q i h h h h l l B B B l h h l l l l l l l l h h h h h h B B h i 8 , & O         ",
"        O % , 7 i h B B B B B B B B B B B x h h h h h B B B B B B B B B B B B B B B B B B B B B B x B B B B h i 7 , % O         ",
"        O % , 6 0 h h B x B B B B B B x x x h h h h h x x x x x x x x x h h x x x x x x x x x x x h x x B h h 0 6 , % O         ",
"        O @ - 1 8 q i h h h h h s h h h h h h s i i h h h h h h h h h s q q h h h h h h s s h s i s h h h q q 8 1 - @ O         ",
"        O @ * < 6 8 0 0 0 0 0 0 0 0 0 0 0 0 0 0 0 0 0 0 0 0 0 0 0 0 0 0 0 0 0 0 0 0 0 0 0 0 0 0 0 0 0 0 0 0 8 6 < * @ O         ",
"        O @ & - < 6 6 6 6 6 6 6 6 6 6 6 6 6 6 6 6 6 6 6 6 6 6 6 6 6 6 6 6 6 6 6 6 6 6 6 6 6 6 6 6 6 6 6 6 6 6 < - & @ O         ",
"        O @ % * - < < < > > < < < < < < < > > > < < < < < < < < > > > > < < < < < > > > > > < < < < < < < < > - * @ O O         ",
"        O @ @ * - - , - - - - * * * * * * * * * * * * * * * * * * * * * * * * * * * * * * * * * * * - - - , - - * @ O O         ",
"        O O @ * - - - - - * * * * * * * * * * * * * * * * * @ @ * * * * @ * @ * * * * * * * * * * * * - - - - - * @ O O         ",
"        O O % * - - , - * * @ @ @ @ @ @ @ @ @ @ @ @ @ @ @ @ @ @ @ @ @ @ @ @ @ @ @ @ @ @ @ @ @ @ @ @ * * - , - - * @ O O         ",
"        O O @ * - , - - * @ @ @ @ @ @ @ @ @ @ @ @ @ @ @ @ @ @ @ @ @ @ @ @ @ @ @ @ @ @ @ @ @ @ @ @ @ @ * - , , - * @ @ O         ",
"        O O @ * - , - - * @ @ @ @ % * * * * * * * * * * * * * * * * * * * * * * * * * * * * * @ @ @ @ * - , , - * @ @ O         ",
"        O @ % * - , , - * @ @ @ * * - - - - - - - - - - - - - - - - - - - - - - - - - - - - * * @ @ @ * - , , - * @ O O         ",
"        O @ % * - , , - * @ @ * * - , , , , , , , , , , - - - - , , , , , , , , , , , , , , - * * @ @ * - , , - * @ O O         ",
"        O O % * - , , - * @ @ * - - < < < < < < < < < < < < < < < < < < < < < < < < < < < < - - * @ @ * - , , - * % O O         ",
"        O O % * - , , - * @ @ * - - < < < < < < < < < < < < < > < < < < < < < < < < < < < < - - * @ @ * - , , - * % O O         ",
"        O O @ * - , , - * @ @ * - - < < < < < < < < < < > > > > < < < < < < < < < < < < < < - - * @ @ * - , , - * % @ O         ",
"        O O @ * - , , - * @ @ * - < < < < < < < < < < < > > > > < < < < < < < < < < < < < < < - * @ @ * - , , - * % @ O         ",
"        O O @ * - , - - * @ * - < 6 6 6 6 6 6 6 6 6 6 6 6 6 6 6 6 6 6 6 6 6 6 6 6 6 6 6 6 6 6 < - * @ * - - , - * @ O O         ",
"        O O @ * - , - - * % * < 6 8 0 0 0 0 0 0 0 0 0 0 0 0 0 0 0 0 0 0 0 0 0 0 0 0 0 0 0 0 8 6 < * % * - - , - * @ O O         ",
"        O O @ * - , - - * & - 6 8 q i h h h s s s s s s s s h s h h s s s h s s s s s h h q q 8 5 - & * - - , - * % @ O         ",
"        O O @ * - , - - * * , 6 0 h h h h h h h h h h h h h h h h h h h h h x h h h h x x h h 0 6 - * * - - , - * @ @ O         ",
"        O @ @ * - , , - * * , 6 0 h h x x x h h h h h h h x x x h h h h h h x x h h x x x h h 0 6 , * * - , , - * @ @ O         ",
"        O @ @ * - , , - - - < 6 0 q i h h h h h h h h h h h h h h h s s s h h h h h h h h s q 0 6 < - - - , , - * @ O O         ",
"        O @ @ * - , < , - - < 6 7 0 0 0 0 0 0 0 0 0 0 0 0 0 0 0 0 0 0 0 0 0 0 0 0 0 0 0 0 0 0 7 6 < - - , < , - * @ O O         ",
"        O @ @ * - , < < , , < < 5 6 6 6 6 6 6 6 6 6 6 6 6 6 6 6 6 6 6 6 6 6 6 6 6 6 6 6 6 6 6 6 < < , , < < , - * @ @ O         ",
"        O O @ * * - , , , , < < < < > < > > > > < < < < < < < < < < > < > > > > < < < < < < < < , , , , , , - * * @ O O         ",
"        O O @ % * * - - - - - - - - * * * * * * * * * * * * - - - * * * * * * * * * * * * * - - - - - - - - * * % @ O O         ",
"        O O @ @ * * * * * * * * * * # # * * * * * * * * * * * * * * * # * * * * * * * * * * * * * * * * * * * * @ @ O O         ",
"        O O O @ @ @ % % @ @ % % @ @ @ @ @ @ @ @ @ @ @ @ @ @ @ @ @ @ @ @ @ @ @ @ @ @ @ @ @ @ @ @ @ @ @ @ @ @ @ @ @ @ O O         ",
"        O O O O O O @ @ O O O O O O O O O O O O O O O O O O O O O O O O O O O O O O O O O O O O O O O O O O O O O O O O         ",
"          O O O O O O O O O O O O O O O O O O O O O O O O O O O O O O O O O O O O O O O O O O O O O O O O O O O O O O           ",
"                                                                                                                                ",
"                                                                                                                                ",
"                                                                                                                                ",
"                                                                                                                                "
};
