/* XPM */
static char *crate[] = {
/* columns rows colors chars-per-pixel */
"64 64 51 1 ",
"  c None",
". c #6C1D1D",
"X c #6F1E1E",
"o c #701E1E",
"O c #711F1F",
"+ c #732020",
"@ c #732121",
"# c #742121",
"$ c #762222",
"% c #772222",
"& c #792323",
"* c #7A2424",
"= c #7C2424",
"- c #7D2525",
"; c #7F2626",
": c #802626",
"> c #822727",
", c #852828",
"< c #882929",
"1 c #892A2A",
"2 c #8B2B2B",
"3 c #8B2D2D",
"4 c #863434",
"5 c #863636",
"6 c #8A3333",
"7 c #8D3131",
"8 c #8A3434",
"9 c #8B3434",
"0 c #8A3535",
"q c #8A3737",
"w c #8C3535",
"e c #8F3737",
"r c #8A3A3A",
"t c #8F3939",
"y c #8C3B3B",
"u c #8D3B3B",
"i c #8B3E3E",
"p c #8D3C3C",
"a c #8E3D3D",
"s c #8F3E3E",
"d c #8E3F3F",
"f c #913E3E",
"g c #913F3F",
"h c #8E4040",
"j c #8C4545",
"k c #8F4848",
"l c #914040",
"z c #904242",
"x c #934444",
"c c #924A4A",
"v c #964D4D",
/* pixels */
"       O@@@@@@@@@@@@@@@@@@@@@@@@@@@@@@@@@@@@@@@@@@@@@@OOO       ",
"    O@@@@@@@@@@@@@@@@@@@@@@@@@@@@@@@@@@@@@@@@@@@@@@@@@@@@@@O    ",
"   O@@@@@@;;;;;;;;;;;;;;;;;;;;;;;;;;;;;;;;;;;;;;;;;;;;;@@@@@.   ",
"  O@@@;<<<<<<<<<<<<<<<<<<<<<<<<<<<<<<<<<<<<<<<<<<<<<<<<<>;@@@.  ",
" O@@@<<<<<<<<<<<<<<<<<<<<<<<<<<<<<<<<<<<<<<<<<<<<<<<<<<<<<<;@@O ",
" @@@<<<<<<<<<<<<<<<<<<<<<<<<<<<<<<<<<<<<<<<<<<<<<<<<<<<<<<<<@@@ ",
" @@><<<<<<<<<<<<<<<<<<<<<<<<<<<<<<<<<<<<<<<<<<<<<<<<<<<<<<<<>@@.",
"O@@<<<<<<<<<fxrxxxxxxxxxxjxxxxxxxxxxrxxxxxxxxrxxxxxf<<<<<<<<<@@O",
"O@@<<<<<<<<<<xjvvvvvvvvvvvvvvvvvvvvvjvvvvvvvvjvvvvx<<<<<<<<<<@@@",
"@@;<<<<<<<<<<<rvvvvvvvvvvvvvvvvvvvvvjvvvvvvvvjvvvx<<<<<<<<<<<;@@",
"@@;<<<<<<<<<<<<xvvvvvvvvvvvvvvvvvvvvjvvvvvvvvjvvx<<<<<<<<<<<<;@@",
"@@;<<<<f<<<<<<<<xvvvvvvvvvvvvvvvvvvvjvvvvvvvvjvx<<<<<<<<w<<<<;@@",
"@@;<<<<xx<<<<<<<<xvvvvvvvkvvvvvvvvvvjvvvvvvvvjx<<<<<<<<ex<<<<;@@",
"@@;<<<<xvx<<<<<<<<xvvvvvvkvvvvvvvvvvjvvvvvvvvr<<<<<<<<wvx<<<<;@@",
"@@;<<<<xvvx<<<<<<<<xvvvvvkvvvvvvvvvvjvvvvvvvx<<<<<<<<fjvx<<<<;@@",
"@@;<<<<xvvvx<<<<<<<<xvvvvkvvvvvvvvvvjvvvvvvx<<<<<<<<fvjvx<<<<;@@",
"@@;<<<<xvvvvx<<<<<<<<xvvvvvvvvvvvvvvjvvvvvx<<<<<<<<wvvjvx<<<<;@@",
"@@;<<<<xvvvvvx<<<<<<<<xvvvvvvvvvvvvvjvvvvx<<<<<<<<wvvvjvx<<<<;@@",
"@@;<<<<xvvvvvvr<<<<<<<<xvvvvvvvvvvvvjvvvx<<<<<<<<xvvvvjvx<<<<;@@",
"@@;<<<<xvvvvvvjw<<<<<<<<xvvvvvvvvvvvjvvx<<<<<<<<xvvvvvjvx<<<<;@@",
"@@;<<<<xvvvvvvjvf<<<<<<<<rvvvvvvvvvvjvx<<<<<<<<xvvvvvvjvx<<<<;@@",
"@@;<<<<xvvvvvvjvvf<<<<<<<<fvvvvvvvvvjx<<<<<<<<xvvvvvvvjvx<<<<;@@",
"@@;<<<<xvvvvvvjvvvf<<<<<<<<xvvvvvvvvr<<<<<<<<wvvvvvvvvjvx<<<<;@@",
"@@;<<<<xvvvvvvjvvvve<<<<<<<<xvvvvvvx<<<<<<<<fjvvvvvvvvjvx<<<<;@@",
"@@;<<<<xvvvvvvjvvvvvf<<<<<<<<xvvvvx<<<<<<<<wvjvvvvvvvvjvx<<<<;@@",
"@@;<<<<xvvvvvvjvvvvvvx<<<<<<<<xvvx<<<<<<<<wvvjvvvvvvvvjvx<<<<;@@",
"@@;<<<<xvvvvvvjvvvvvvvx<<<<<<<<jx<<<<<<<<wvvvjvvvvvvvvjvx<<<<;@@",
"@@;<<<<xvvvvvvjvvvvvvvvx<<<<<<>;<<<<<<<<xvvvvjvvvvvvvvjvx<<<<;@@",
"@@;<<<<xvvvvvvjvvvvvvvvvx<<<<>;<<<<<<<<xvvvvvjvvvvvvvvjvx<<<<;@@",
"@@;<<<<xvvvvvvjvvvvvvvvvvf<<>;<<<<<<<<xvvvvvvjvvvvvvvvjvx<<<<;@@",
"@@;<<<<xvvvvvvjvvvvvvvvvvkw>;<<<<<<<<xvvvvvvvjvvvvvvvvjvx<<<<;@@",
"@@;<<<<xvvvvvvjvvvvvvvvvvkv5<<<<<<<<wvvvvvvvvjvvvvvvvvjvx<<<<;@@",
"@@;<<<<xvvvvvvjvvvvvvvvvvkr<<<<<<<<>;xvvvvvvvjvvvvvvvvjvx<<<<;@@",
"@@;<<<<xvvvvvvjvvvvvvvvvvr<<<<<<<<>;<<xvvvvvvjvvvvvvvvjvx<<<<;@@",
"@@;<<<<xvvvvvvjvvvvvvvvvx<<<<<<<<>;<<<<xvvvvvjvvvvvvvvjvx<<<<;@@",
"@@;<<<<xvvvvvvjvvvvvvvvx<<<<<<<<>;<<<<<<xvvvvjvvvvvvvvjvx<<<<;@@",
"@@;<<<<xvvvvvvjvvvvvvvx<<<<<<<<f5<<<<<<<<xvvvjvvvvvvvvjvx<<<<;@@",
"@@;<<<<xvvvvvvjvvvvvvx<<<<<<<<fvvf<<<<<<<<xvvjvvvvvvvvjvx<<<<;@@",
"@@;<<<<xvvvvvvjvvvvvx<<<<<<<<fvvvvf<<<<<<<<xvjvvvvvvvvjvx<<<<;@@",
"@@;<<<<xvvvvvvjvvvvx<<<<<<<<xvvvvvvx<<<<<<<<xjvvvvvvvvjvx<<<<;@@",
"@@;<<<<xvvvvvvjvvvx<<<<<<<<xvvvvvvvvw<<<<<<<<rvvvvvvvvjvx<<<<;@@",
"@@;<<<<xvvvvvvjvvx<<<<<<<<fvvvvvvvvvjw<<<<<<<<xvvvvvvvjvx<<<<;@@",
"@@;<<<<xvvvvvvjvx<<<<<<<<wvvvvvvvvvvjvw<<<<<<<<xvvvvvvjvx<<<<;@@",
"@@;<<<<xvvvvvvjx<<<<<<<<wkvvvvvvvvvvjvvw<<<<<<<<xvvvvvjvx<<<<;@@",
"@@;<<<<xvvvvvvr<<<<<<<<wvkvvvvvvvvvvjvvvf<<<<<<<<xvvvvjvx<<<<;@@",
"@@;<<<<xvvvvvx<<<<<<<<wvvkvvvvvvvvvvjvvvvx<<<<<<<<xvvvjvx<<<<;@@",
"@@;<<<<xvvvvx<<<<<<<<wvvvkvvvvvvvvvvjvvvvvx<<<<<<<<xvvjvx<<<<;@@",
"@@;<<<<xvvvx<<<<<<<<rvvvvkvvvvvvvvvvjvvvvvvx<<<<<<<<xvjvx<<<<;@@",
"@@;<<<<xvvx<<<<<<<<xvvvvvkvvvvvvvvvvjvvvvvvvx<<<<<<<<xjvx<<<<;@@",
"@@;<<<<xvx<<<<<<<<xvvvvvvkvvvvvvvvvvjvvvvvvvvr<<<<<<<<rvx<<<<;@@",
"@@;<<<<xx<<<<<<<<xvvvvvvvkvvvvvvvvvvjvvvvvvvvjw<<<<<<<<xx<<<<;@@",
"@@;<<<<w<<<<<<<<xvvvvvvvvkvvvvvvvvvvjvvvvvvvvjvw<<<<<<<<f<<<<;@@",
"@@;<<<<<<<<<<<<xvvvvvvvvvkvvvvvvvvvvjvvvvvvvvjvvf<<<<<<<<<<<<;@@",
"@@;<<<<<<<<<<<rvvvvvvvvvvkvvvvvvvvvvjvvvvvvvvjvvvf<<<<<<<<<<<;@@",
"@@;<<<<<<<<<<xjvvvvvvvvvvkvvvvvvvvvvjvvvvvvvvjvvvvf<<<<<<<<<<;@@",
"O@@<<<<<<<<<rvjvvvvvvvvvvkvvvvvvvvvvjvvvvvvvvjvvvvvf<<<<<<<<<@@@",
"O@@<<<<<<<<wxxrxxxxxxxxxxjxxxxxxxxxxrxxxxxxxxrxxxxxxw<<<<<<<<@@@",
" @@;<<<<<<<<<<<<<<<<<<<<<<<<<<<<<<<<<<<<<<<<<<<<<<<<<<<<<<<<>@@@",
" @@@<<<<<<<<<<<<<<<<<<<<<<<<<<<<<<<<<<<<<<<<<<<<<<<<<<<<<<<<@@@ ",
" O@@;<<<<<<<<<<<<<<<<<<<<<<<<<<<<<<<<<<<<<<<<<<<<<<<<<<<<<<;@@@ ",
"  @@@@><<<<<<<<<<<<<<<<<<<<<<<<<<<<<<<<<<<<<<<<<<<<<<<<<<<;@@@  ",
"   @@@@@;;;;;;;;;;;;;;;;;;;;;;;;;;;;;;;;;;;;;;;;;;;;;;;;;@@@@   ",
"    O@@@@@@@@@@@@@@@@@@@@@@@@@@@@@@@@@@@@@@@@@@@@@@@@@@@@@@@    ",
"      OO@@@@@@@@@@@@@@@@@@@@@@@@@@@@@@@@@@@@@@@@@@@@@@@@@@      "
};
