/* XPM */
static char *tile_05[] = {
/* columns rows colors chars-per-pixel */
"64 64 91 1 ",
"  c #3E691F",
". c #395F2D",
"X c #365532",
"o c #385735",
"O c #3D5A3D",
"+ c #3A6426",
"@ c #3E6924",
"# c #3E6435",
"$ c #436D1E",
"% c #47711E",
"& c #49731E",
"* c #4F791B",
"= c #517B1D",
"- c #565F2B",
"; c #4C6727",
": c #426B25",
"> c #4C6C26",
", c #486328",
"< c #436B2B",
"1 c #496F2D",
"2 c #546E26",
"3 c #56652A",
"4 c #5A652A",
"5 c #526928",
"6 c #5E6B2A",
"7 c #477024",
"8 c #4F7921",
"9 c #4D722D",
"0 c #517525",
"q c #597426",
"w c #527B21",
"e c #5B7D23",
"r c #50752D",
"t c #55782D",
"y c #406734",
"u c #456B33",
"i c #496E33",
"p c #43663D",
"a c #45693C",
"s c #496C3B",
"d c #4A7132",
"f c #5A7C34",
"g c #606E29",
"h c #637E24",
"j c #637328",
"k c #456742",
"l c #466941",
"z c #496A45",
"x c #446048",
"c c #4C694F",
"v c #516F4F",
"b c #557543",
"n c #56734E",
"m c #4C6653",
"M c #4C6A51",
"N c #536D5B",
"B c #517050",
"V c #567059",
"C c #607F46",
"Z c #566E61",
"A c #5B7361",
"S c #667E62",
"D c #57801F",
"F c #5B851E",
"G c #5F881F",
"H c #61891F",
"J c #6C8F1F",
"K c #6E921E",
"L c #74971F",
"P c #568020",
"I c #5B8121",
"U c #5E8228",
"Y c #5F8134",
"T c #608721",
"R c #638625",
"E c #648A21",
"W c #698E22",
"Q c #6B8D2E",
"! c #6F9322",
"~ c #719523",
"^ c #759823",
"/ c #799C25",
"( c #73942D",
") c #618233",
"_ c #6C8C3B",
"` c #678740",
"' c #6C8A46",
"] c #6F8B4E",
"[ c #739241",
"{ c #738E59",
"} c #6E8661",
/* pixels */
"XoOxmNNZZZNMk##kcNNBzi:$ +#kMNNvzddscNNZZZZZZNVnbfY`]{{}SAAZZNNm",
"..##plzzzzlay++yallau<:@+++yallau<<ualzzzzzzzzzsi9t)_[['Cbzzzzlp",
"++++<<<<<<<<<::<<<<<<::::::<<<<<<::<<<<<++,<<111<:0UQ((QUr<<<<<<",
"+++@:$%%%%&888888&%7888888888&&888888%$$@+@:8www88wIW~~JF=&%%%%:",
"++@:&&*==**==ww===**=wwwwww==*===ww==*&&$@:8eTTIIwIE!LLKHF=***&7",
"++:78wDDDDDDDDDDDDDDDDDDDDDDDDDDDDDDD==8::>wTW!WEITE!^^~EFFD=ww8",
"++:8wPFFFFFFFFFFFFFFFFFFFFFFFFFDDDDFFFP87:8eE~~~!EE!~^^~!EEFFPw8",
"++:8wDFFFFFFFFFFFFFFFFFFFFFFFFFDwwwwFFDw7:8eW~/^~!!~^//^~!ETIw88",
"++:8wDFFFFFFFFFFFFFFFFFFFFFFFFFww88wwDDw7:8eW~//^~~^////^~!EIw8:",
"++:8wDFFFFFFFFFFFFFFFFFFFFFFFFFw8878w=Pw8:8eW~///^^^/////^~Ee8:+",
"++:8wDFFFFFFFFFFFFFFGHHGFFFFFFDw8888w==w878eE~^^^^^^^^^^^^!Ee8:+",
"++:8wDFFFFFFFFFFFFFHEEEEHFFFFFFw888ww=Fww8wIE!!~~~~~~~~~~~!EIw8:",
"++:88=FFFFFFFFFFFFGEW!!WEGFFFFFDwwwwDFFDwwwITEWWWWWWWWWWWWEEIw87",
"++:88=FFFFFFFFFFFFHE!~~!EHFFFFFFFDDFFFFFPPIIFGHHHHHHHHHHHHHFFIw8",
"++:88=FFFFFFFFFFFFHW~^^~WHFFFFFFFFFFFFFFFFFFFFFFFFFFFFFFFFFFFFP8",
"++:88=FFFFFFFFFFFFHW~^^~WHFFFFFFFFFFFFFFFFFFFFFFFFFFFFFFFFFFFFDw",
"++:8wDFFFFFFFFFFFFHW~^^~WHFFFFFFFFFFFFFFFFFFFFFFFFFFFFFFFFFFFFDw",
"++:8wDFFFFFFFFFFFFHW~^^~!HFFFFFFFFFFFFFFFFFFFFFFFFFFFFFFFFFFFFDw",
"++:8wDFFFFFFGHHFFFHW~^^~!EHFFFFGGHHGFFFFFFFFFFFFFFFFFFFFFFFFFFDw",
"++:8wDFFFFFHEEEEHGHW~^^^~!EEGFFHEEEEHFFFFFFFFFFFFFFFFFFFFFFFFFDw",
"++:8wDFFFFGEW!!WEHHW~^//^~!WEGGEW!!WEGFFFFFFFFFFFFFFFFFFFFFFFFDw",
"++:8wDFFFFHE!~~!EEEW~^///^~!EHHE!~~!EHFFFFFFFFFFFFFFFFFFFFFFFFDw",
"++:8wDFFFFHW~^^!EIIE!^////^~!EE!~^^~WHFFFFFFFFFFFFFFFFFFFFFFFFDw",
"++:8wDFFFFH!~^^!EIIE!^/////^~!!~^/^~WHFFFFFFFFFFFFFDwwwwDFFFFFDw",
"++:88=FFFFH!~^~WIwwIW~//////^~~^//^~WHFFFFFFFFFFFFFww88wwFFFFFDw",
"++:88=FFFFH!~^~WI00IW~//////^^^///^~WHFFFFFFFFFFFFDw8778wDFFFFP8",
"++:8wDFFFFHE!~!Ee08eE~^^^^^^^^^^^^~!EHFFFFFFFFFFFDw8:::8wFFFFDw8",
"++:8w=FFFFGEW!WEIwweE!!~~~~~~~~~~~!WEGFFFFFFFFFDww87:+:8wPFFww88",
"++:8wDFFFFFHEEETIwwITEWWWWWWWWWWWWEEHFFFFFFFFFFw88::++@7wwDww87:",
"++:8wDFFFFFFGHGFIIIIFGHHHHHHHHHHHHHGFFFFFFFFFFFw8::+++:8wwDw87:+",
"++:8wDFFFFFFFFFFFFFFFFFFFFFFFFFFFFFFFFFFFFFFFFFw8::::::8w=Dw87:+",
"++:8wDFFFFFFFFFFFFFFFFFFFFFFFFFFFFFFFFFFFFFFFFFw8887888wwFFww87:",
"++:8wDFFFFFFFFFFFFFFFFFFFFFFFFFFFFFFFFFFFFFFFFFDwwwwwwwwDFFDww88",
"++:8wDFFFFFFFFFFFFFFFFFFFFFFFFFFFFFFFFFFFFFFFFFFFDDDDDDFFFFFFDw8",
"++:8wDFFFFFFFFFFDFDDFFFFFFFFFFFFFFFFFFFFFFFFFFFFFFFFFFFFFFFFFFP8",
"++:8wDFFFFFFFFFDwwwwDFFFFFFFFFFFFFFFFFFFFFFFFFFFFFFFFFFFFFFFFFDw",
"++:88=FFFFFFFFFww888wFFFFFFFFFFFFFFFFFFFFFFFFFFFFFFFFFFFFFFFFFDw",
"++:88=FFFFFFFFDw87:8wDFFFFFFFFFFFFFFFFFFFFFFFFFFFFFFFFFFFFFFFFDw",
"++:88=FFFFFFFFDw8::8wDFFFFFFFFFFFFFFFFFFFFFFFFFFGHHGFFFFFFFFFFDw",
"++:88=FFFFFFFFDw8::8wDFFFFFFFFFFFFFFFFFFFFFFFFFHEEEEHFFFFFFFFFDw",
"++:8wDFFFFFFFFDw8::8wDFFFFFFFFFFFFFFFFFFFFFFFFGEW!!WEGFFFFFFFFDw",
"++:8wDFFFFFFFFDw7::78wFFFFFFFFFFFFFFFFFFFFFFFFHE!~~!EHFFFFFFFFDw",
"++:8wDFFFFFFFFDw8:::8w=FFFFFFDDDFFFFFFFFGHHFFFHW~^^~WHFFFFFFFFDw",
"++:8wPFDwwwwDFPw8:+:78wwFFFDwwwwDFFFFFFHEEEEHFHW~^^~!HFFFFFFFFDw",
"++:8wwDww88wwDPw8:+@:78wwFFww888wFFFFFGEW!!WEHH!~^^~!HFFFFFFFFDw",
"++:8wwDw8888wDPw8:+++:78wDDw8878wDFFFFHE!~~!EHH!~^^~WHFFFFFFFFDw",
"++:8ww=w8788wDDw8::@::78wDDw8878wDFFFFHW~^^~WHHW~^^!EIIFFGHGFFDw",
"++:8wwDw888wwFFww887788wwFFww888wFFFFFHW~^^~WHHW~^~!EIwITEEEHFPw",
"++:8wwDDwwwwDFFDwwwwwwwwDFFDwwwwDFFFFFHW~^^~WHHW~^~WIwwIEW!!EIP8",
"++:8w=FFFFDFFFFFFDDDDDDFFFFFFFFFFFFFFFHW~^^~WEE!~^~WI08eE!~!WII8",
"++:8wDFFFFFFFFFFFFFFFFFFFFFFFFFFFHHFFFHW~^^~!EE!~^~We88eW~^~!EI8",
"++:8w=FFFFFFFFFFFFFFFFFFFFFFFFFHEEEEHGHW~^/^~!!~^^~We88eW~^~WEI8",
"++:8wDFFFFFFFFFFFFFFFFFFFFFFFFGE!!!WEHHW~^//^~~^//~We88eE~^~!EI8",
"++:8wDFFFFFFFFFFFFFFFFFFFFFFFFHE!~~!EHHW!^///^^///~Ee89eE~^~!HI8",
"++:8wDFFFFFFFFFFFFFFFFFFFFFFFFHE!~~!EHHE!~^^^^^^^^!Ee88eE!~!WGI8",
"++:8wDFFFFFFFFFFFFFFFFFFFFFFFFGEW!!WEHHEW!~~~~~~~!WTew0eEW!!EFP8",
"++:8wDFFFFFFFFFFFFFFFFFFFFFFFFFHEEEEHFFHEEWWWWWWWWETIwwITEEEHFPw",
"++:8wDFFFFFFFFFFFFFFFFFFFFFFFFFFGHHGFFFFGHHHHHHHEEHIFIIIFGHGFFDw",
"++:7wDFFFFFFFDDDFFFFFDDDFFFFFFFFFFFFFFFFFFFFFFFFFFFFIHTFFFFFFFDw",
"++@7wDFFFFFDwwwwDFFDwwwwDFFFFFFFFFFFFFFFFFFFFFFFFFFHEWEEHGFFFFD8",
"++@7wDFFFFFw8888wFFw8888wFFFFFFFFFFFFFFFFFFFFFFFFFGH!!!!HGFFFFD8",
"++:8weFFFFPw8888wPPw88>8wIFFFFFFFFFFFFFFFFFFFFFFFFTE!~~!ETFFFFew",
",,;2qeeIIew0>>>0weew0>>2qeehheeIIIIIeeeIIIIIeeeeeTTEW~~WWTThhhe0",
"--46gjjqew00533qeeee2344gjjjjjjqwwweqjjeewweqjjjjjhhTWWThhjjjjj6"
};
