/* XPM */
static char *exit[] = {
/* columns rows colors chars-per-pixel */
"32 32 18 1 ",
"  c None",
". c #A32E2E",
"X c #A32F2F",
"o c #A53030",
"O c #A73030",
"+ c #A93131",
"@ c #AB3232",
"# c #AD3333",
"$ c #AF3434",
"% c #B43636",
"& c #B63737",
"* c #B83737",
"= c #BA3838",
"- c #BD3939",
"; c #BF3A3A",
": c #C13B3B",
"> c #C53D3D",
", c #C83E3E",
/* pixels */
"                                ",
"          XXooooooooXX          ",
"        XooooooooooooooX        ",
"       oooooooooooooooooo       ",
"     Xooooooo++++++oooooooX     ",
"     ooooo+->,,,,,,>-+ooooo     ",
"    oooo+-,,,,,,,,,,,,-+oooo    ",
"   Xooo+>,,,,,,,,,,,,,,>+oooX   ",
"  Xoooo>,,,,,,,,,,,,,,,,>ooooX  ",
"  oooo*,,,,,,,,,,,,,,,,,,*oooo  ",
" Xooo+,,,,,,,,,,,,,,,,,,,,+oooX ",
" Xooo-,,,,,,,,,,,,,,,,,,,,-oooX ",
" oooo,,,,,,,,,,,,,,,,,,,,,,oooo ",
" ooo+,,,,,,,,,,,,,,,,,,,,,,+ooo ",
" ooo&,,,,,,,,,,,,,,,,,,,,,,&ooo ",
" ooo&,,,,,,,,,,,,,,,,,,,,,,&ooo ",
" ooo&,,,,,,,,,,,,,,,,,,,,,,&ooo ",
" ooo&,,,,,,,,,,,,,,,,,,,,,,&ooo ",
" ooo+,,,,,,,,,,,,,,,,,,,,,,+ooo ",
" oooo,,,,,,,,,,,,,,,,,,,,,,oooo ",
" Xooo-,,,,,,,,,,,,,,,,,,,,-oooX ",
" Xooo+,,,,,,,,,,,,,,,,,,,,+oooX ",
"  oooo-,,,,,,,,,,,,,,,,,,-oooo  ",
"  Xoooo>,,,,,,,,,,,,,,,,>ooooX  ",
"   oooo+>,,,,,,,,,,,,,,>+oooo   ",
"    ooooo-,,,,,,,,,,,,-ooooo    ",
"    Xooooo+-,,,,,,,,-+oooooX    ",
"      oooooo+&&&&&&+oooooo      ",
"       oooooooooooooooooo       ",
"        XooooooooooooooX        ",
"          XooooooooooX          ",
"                                "
};
