/* XPM */
static char *exit[] = {
/* columns rows colors chars-per-pixel */
"64 64 33 1 ",
"  c #A53030",
". c #A73030",
"X c #A53633",
"o c #A83131",
"O c #A93131",
"+ c #A63D36",
"@ c #B63636",
"# c #B93737",
"$ c #BA3838",
"% c #BC3939",
"& c #C43D3D",
"* c #C83E3E",
"= c #A7453B",
"- c #A8473C",
"; c #A74B3E",
": c #A84E3F",
"> c #A94F40",
", c #A85342",
"< c #AA5946",
"1 c #AA5D49",
"2 c #AB654D",
"3 c #AD684F",
"4 c #AD6950",
"5 c #AE7356",
"6 c #AF7658",
"7 c #AF7859",
"8 c #B07759",
"9 c #B0795A",
"0 c #B1805E",
"q c #B38562",
"w c #B48864",
"e c #B68E68",
"r c #B7916A",
/* pixels */
"rrrrrrrrrrrrrrrrrrrrrrrrwwwqqqqqqqqqqqwwrrrrrrrrrrrrrrrrrrrrrrrr",
"rrrrrrrrrrrrrrrrrrewqqq999555555555555990qqwwerrrrrrrrrrrrrrrrrr",
"rrrrrrrrrrrrrrrrrewq5321,,,>>>>>>>>>>,,,1247qwerrrrrrrrrrrrrrrrr",
"rrrrrrrrrrrrrrrewq952,=+XXXXXXXX XX XXXX+=,259qqerrrrrrrrrrrrrrr",
"rrrrrrrrrrrrrrqq62<:=++X    XXXXX   XXXXX++=:,26qwrrrrrrrrrrrrrr",
"rrrrrrrrrrrrwq951;+XXXX    XXXXXX   XXXXXXXXX+;159qwrrrrrrrrrrrr",
"rrrrrrrrrrrwq52:=+XXXXX  X   XXX   XXXXXXXXXXX+=>25qwrrrrrrrrrrr",
"rrrrrrrrrew051= XXXXXXXXXX   XXXX  XXXXXXXXX    X=150werrrrrrrrr",
"rrrrrrrrrw93,-X XXXXXXXXXXooooooooooooXXXX  XXXXXX=,39wrrrrrrrrr",
"rrrrrrrrw04,+   XXXXXooooo@@@@@@@@@@@@ooo.. XXXXXXX+,40wrrrrrrrr",
"rrrrrrrwq5,+XX XXXXXoo@%%%&&&&&&&&&&&&%%%@ooXXXXXXXX+,5qwrrrrrrr",
"rrrrrreq52=XXXXXXXoo@@%&&&&**********&&&&%@@ooXXXXXXX=25qerrrrrr",
"rrrrreq81=XXXXXXo.@#%&&&&**************&&&&%%@oXXXXX X=18qerrrrr",
"rrrrrw92-XXX X o.@%&&**********************&&%@ooXXXX  -29wrrrrr",
"rrrrw02;+XXX  Xo%&&&************************&&&%oX XX  X;20wrrrr",
"rrreq5,XXXXX o.@&&****************************&&@o.XX   X,5qerrr",
"rrrw92=XXXXXXo@%&******************************&%@.XXXXXX=29wrrr",
"rreq3,+ XXXXo@%&&******************************&&%@.XXXXX+,4qerr",
"rew9<+X XXXo@#&&********************************&&#@o XXXX+<9wer",
"rwq4:   XXXo@%&**********************************&%@o XXXXX:5qwr",
"rw72=XX X o@%&&**********************************&&%@oXXXXX=27wr",
"rq4,+XXXXoo@&**************************************&@ooXXXX+,4qr",
"rq2=+XXXX.@%&**************************************&%@o   XX=2qr",
"e01+XXXXX.#&&**************************************&&#o X XX+19e",
"w9,XXXXXXo%&&**************************************&&%oXX   X,9w",
"q5,XXXXXX@&******************************************&@oXX   ,5q",
"q5>XXXXXo@&******************************************&@oXXX X:5q",
"04:X XXXo@&******************************************&@oXXX X:49",
"92-X   .@%&***************************************&&*&%@o   X-29",
"82=X   .@%&****************************************&*&%@o X X=28",
"82=XXX o@%&***************************************&&*&%@o XXX=28",
"82=XXXXo@%&***************************************&**&%@oXXXX=28",
"82=X   o@%&&&&&**************************************&%@oXXXX=28",
"82=X X o@%&*&&***************************************&%@oXXXX=29",
"82=XXX o@%&******************************************&%@oXXXX=29",
"92-XX  o@#&******************************************&%@oXXXX:29",
"94:XXX  o@&******************************************&@oXX   :49",
"q5>XXXXXo@&******************************************&@o X  X>5q",
"q5,XXXXXo@&******************************************&@o   XX,5q",
"w9,XXXXXXo%&****************************************&%oX  XXX,9w",
"e9<X    Xo%&&**************************************&&%oXXXXXX<9e",
"rq2=X  XXo@%&**************************************&%@oXXXXX=2qr",
"rq4,+ X Xoo#&**************************************&#ooXXXX+,4qr",
"rw82= XXXXo@%&************************************&%@oXXXXX=28wr",
"rw04:XX XXXo%&&**********************************&&%oXXXXXX:40wr",
"rew9,+XXXXXo@%&**********************************&%@oXX XX+,9wer",
"rre02;X XXXXo@&&********************************&&@o   X +=20err",
"rrrw5<- XXXXXo%&&&****************************&&&%o      =,5wrrr",
"rrrwq5>XXXXXXo.@%&***************************&&%@ooXXXXXX>5qwrrr",
"rrrrw92=XXXXXX..@%&&&**********************&&&%@ooXXXXXX=29wrrrr",
"rrrrrq51=XXXX  .o@%&&**********************&&%@oXXXXX X=15qrrrrr",
"rrrrrwq5,+XX  XXXo@%%&&&*****************&&%%@oXXXXXXX+,5qwrrrrr",
"rrrrrew92,+XXXXXXXoo@%%&&&&&***********&&%%@ooXXXXXX +,20wrrrrrr",
"rrrrrrrw92,=XXXXXXXXo@@%%&&&&&&&&&&&&&&%%@@oXXXXXXXX=,29wrrrrrrr",
"rrrrrrreq94<=XXXXXXXXooo@@#%%%%%%%%%%#@@oo.X  XXXXX=149werrrrrrr",
"rrrrrrrrrq95<=XX  XXXXXXXoo@@@@@@@@@@ooX   X  XXXX=<5qwrrrrrrrrr",
"rrrrrrrrrrwq52=X  XXXXXXXXooooo.oooooo  XXXXXXXXX=15qwrrrrrrrrrr",
"rrrrrrrrrrrwq62,=XXXXXXXXX  X   XXXXXX  XXXXXX+=:25qwrrrrrrrrrrr",
"rrrrrrrrrrrrww051=+ XXXX    XXXXXXXXXXXX    X+;159qwrrrrrrrrrrrr",
"rrrrrrrrrrrrrreq52,:=+XX XX XXXXXXXXXXXX X+=:,25qeerrrrrrrrrrrrr",
"rrrrrrrrrrrrrrreq954<;+X  XXXXXXXXXXXXXX +;<450werrrrrrrrrrrrrrr",
"rrrrrrrrrrrrrrrrreq9531,>::==========-:>,1359qerrrrrrrrrrrrrrrrr",
"rrrrrrrrrrrrrrrrreewwq99542222222222224599qwwerrrrrrrrrrrrrrrrrr",
"rrrrrrrrrrrrrrrrrrrrrrewq99899888888899qqerrrrrrrrrrrrrrrrrrrrrr"
};
