/* XPM */
static char *exit[] = {
/* columns rows colors chars-per-pixel */
"64 64 23 1 ",
"  c #7C7B35",
". c #A53030",
"X c #A93131",
"o c #A03E30",
"O c #B63737",
"+ c #B83737",
"@ c #BD3939",
"# c #C53D3D",
"$ c #C83E3E",
"% c #9D4A31",
"& c #965D33",
"* c #936434",
"= c #906B35",
"- c #847B36",
"; c #887837",
": c #857E38",
"> c #5E9539",
", c #7C8839",
"< c #6E973C",
"1 c #659F3E",
"2 c #699B3D",
"3 c #72923B",
"4 c #808339",
/* pixels */
"1111111111111111111111111111111111111111111111111111111111111111",
"1111111111111111111111111111111111111111111111111111111111111111",
"1111111111111111111111111111111111111111111111111111111111111111",
"11111111111111111111111111111>>>>1111111111111111111111111111111",
"11111111111111111111111111111>>>>1111111111111111111111111111111",
"1111111111111111111111111111>>>>>>111111111111111111111111111111",
"1111111111111111111111111111>>>>>>111111111111111111111111111111",
"11111111111111111111111111111>>>>>111111111111111111111111111111",
"111111111111111111111111111111>>11111111111111111111111111111111",
"111111111111>>11111111111111111111111111111111111111111111111111",
"111111111111>>>11111111111111111111111111111111111>>>11111111111",
"111111111111>>>11111111111111111111111111111111111>>>>1111111111",
"111111111111111111111111111111111111111111111111111>>11111111111",
"1111111111111111111111111111111111111111111111111111111111111111",
"1111111111111111111111111111111111111111111111111111111111111111",
"1111111111111111111111111111111111111111111111111111111111111111",
"1111111111111111111111111111<,,,,,,<1111111111111111111111111111",
"111111111111111>>111111113=%........%=31111111111111111111111111",
"11111111111111111111111<*..............*<11111111111111111111111",
"1111111111111111111111:..................:1111111111111111111111",
"111111111111111111111=.......XXXXXX.......=111111111111111111111",
"111111111111111111114.....X@##$$$$$#@X.....411111111111111111111",
"1111111111111111111,....X@$$$$$$$$$$$$@X....,1111111111111111111",
"111111111111111111<o...X#$$$$$$$$$$$$$$#X...o<111111111111111111",
"111111111111111111=....#$$$$$$$$$$$$$$$$#....=111111111111111111",
"111111111111111113....+$$$$$$$$$$$$$$$$$$+....311111111111111111",
"11111111111111111=...X$$$$$$$$$$$$$$$$$$$$X...=11111111111111111",
"11111111111111111%...@$$$$$$$$$$$$$$$$$$$$@...%11111111111111111",
"11111111111111113....$$$$$$$$$$$$$$$$$$$$$$....31111111111111111",
"1111111111111111,...X$$$$$$$$$$$$$$$$$$$$$$X...,1111111111111111",
"1111111111111111;...O$$$$$$$$$$$$$$$$$$$$$$O...;1111111111111111",
"1111111111111111;...O$$$$$$$$$$$$$$$$$$$$$$O...;1111111111111111",
"1111111111111111;...O$$$$$$$$$$$$$$$$$$$$$$O...;1111111111111111",
"1111111111111111;...O$$$$$$$$$$$$$$$$$$$$$$O...;1111111111111111",
"1111111111111111,...X$$$$$$$$$$$$$$$$$$$$$$X...,1111111111111111",
"11111111111111113....$$$$$$$$$$$$$$$$$$$$$$....31111111111111111",
"11111111111111111o...@$$$$$$$$$$$$$$$$$$$$@...o11111111111111111",
"11111111111111111=...X$$$$$$$$$$$$$$$$$$$$X...=11111111111111111",
"11111111111111111,....@$$$$$$$$$$$$$$$$$$@....,11111111111111111",
"111111111111111111&....#$$$$$$$$$$$$$$$$#....&111111111111111111",
"111111>>1111111111<....X#$$$$$$$$$$$$$$#X....<111111111111111111",
"1111111>11111111111:.....@$$$$$$$$$$$$@.....:1111111111111111111",
"11111111111111111111=.....X@$$$$$$$$@X.....=11111111111111111111",
"111111111111111111111:......XOOOOOOX......-111111111111111111111",
"11111111111111111111114.................. 1111111111111111111111",
"111111111111111111111112&..............&211111111111111111111111",
"1111111111111111111111111,*..........*,1111111111111111111111111",
"1111111111111111111111111112,;;;;;;,2111111111111111111111111111",
"1111111111111111111111111111111111111111111111111111111111111111",
"1111111111111111111111111111111111111111111111111111111111111111",
"1111111111111111111111111111111111111111111111111111111111111111",
"1111111111111111111111111111111111111111111111111111111111111111",
"1111111111111111111111111111111111111111111111111111111111111111",
"111111111111111>111111111111111111111111111111111111111111111111",
"1111111111111>>>>1111111111111111111111111111111111>>>1111111111",
"111111111111>>>>>>11111111111111111111111111111111>>>>>111111111",
"111111111111>>>>>>11111111111111111111111111111111>>>>>111111111",
"1111111111111>>>>1111111111111111111111111111111111>>>1111111111",
"11111111111111>>111111111111111111111111111111111111111111111111",
"1111111111111111111111111111111111111111111111111111111111111111",
"1111111111111111111111111111111111111111111111111111111111111111",
"1111111111111111111111111111111111111111111111111111111111111111",
"1111111111111111111111111111111111111111111111111111111111111111",
"1111111111111111111111111111111111111111111111111111111111111111"
};
