/* XPM */
static char *tile_03[] = {
/* columns rows colors chars-per-pixel */
"64 64 200 2 ",
"   c #5A393F",
".  c #673D3F",
"X  c #743938",
"o  c #743B3C",
"O  c #7A3C3C",
"+  c #273B4F",
"@  c #2C3A4C",
"#  c #3B3947",
"$  c #353A4A",
"%  c #2F3F56",
"&  c #333F55",
"*  c #3D3F54",
"=  c #413C4A",
"-  c #4B3C49",
";  c #543A44",
":  c #5D3C45",
">  c #553D4A",
",  c #5B3D49",
"<  c #443F52",
"1  c #633D45",
"2  c #6B3D43",
"3  c #603C48",
"4  c #743D42",
"5  c #7B3E41",
"6  c #374056",
"7  c #3D4154",
"8  c #3E4857",
"9  c #3F455E",
"0  c #5F404A",
"q  c #414356",
"w  c #4A4556",
"e  c #424857",
"r  c #4E465C",
"t  c #46495D",
"y  c #4C4C5E",
"u  c #5B4456",
"i  c #544659",
"p  c #514A5F",
"a  c #5B4A5D",
"s  c #69454B",
"d  c #6A424D",
"f  c #754347",
"g  c #7B4242",
"h  c #7E484A",
"j  c #7F5C4E",
"k  c #644552",
"l  c #6B4754",
"z  c #6D4957",
"x  c #624758",
"c  c #644B5C",
"v  c #6D4B59",
"b  c #734A56",
"n  c #7C4E55",
"m  c #744D59",
"M  c #7A4E58",
"N  c #63515A",
"B  c #6E5159",
"V  c #7C5052",
"C  c #73525D",
"Z  c #7C545D",
"A  c #454A61",
"S  c #494B61",
"D  c #524B60",
"F  c #465166",
"G  c #4C566A",
"H  c #4E596B",
"J  c #535164",
"K  c #5B5162",
"L  c #595867",
"P  c #51566A",
"I  c #595769",
"U  c #535A6B",
"Y  c #5A5A6B",
"T  c #635564",
"R  c #6B5562",
"E  c #6F5965",
"W  c #625B6A",
"Q  c #6A5C69",
"!  c #745661",
"~  c #745964",
"^  c #705C68",
"/  c #8C3B2F",
"(  c #993F2D",
")  c #853F35",
"_  c #8C3D34",
"`  c #923F31",
"'  c #96661B",
"]  c #9E6A1B",
"[  c #A9701C",
"{  c #B2751D",
"}  c #B7781E",
"|  c #B9791E",
" . c #96402D",
".. c #9D432B",
"X. c #9F5321",
"o. c #8D4236",
"O. c #84453D",
"+. c #954235",
"@. c #9E4635",
"#. c #9E4837",
"$. c #96463B",
"%. c #9F493B",
"&. c #AB4726",
"*. c #A4442A",
"=. c #A8472D",
"-. c #A54A2C",
";. c #AC4C2D",
":. c #B94E26",
">. c #B04C2D",
",. c #A45623",
"<. c #A85823",
"1. c #B35E24",
"2. c #BE532D",
"3. c #A64630",
"4. c #A64C35",
"5. c #AB4D35",
"6. c #A34C3C",
"7. c #AC4E3C",
"8. c #B24D31",
"9. c #AE513F",
"0. c #B25135",
"q. c #BF5434",
"w. c #BF5934",
"e. c #B3523C",
"r. c #BA563A",
"t. c #BD593C",
"y. c #BC6325",
"u. c #B47726",
"i. c #B87920",
"p. c #B86232",
"a. c #AA7132",
"s. c #C55326",
"d. c #CA5726",
"f. c #C4542C",
"g. c #C9562B",
"h. c #C15432",
"j. c #C15A34",
"k. c #CA5A33",
"l. c #C05739",
"z. c #C15A3D",
"x. c #C36725",
"c. c #834444",
"v. c #8F4944",
"b. c #804449",
"n. c #894748",
"m. c #854B4E",
"M. c #8E4D4E",
"N. c #924A45",
"B. c #9E4D45",
"V. c #914D4D",
"C. c #9E4E49",
"Z. c #89544E",
"A. c #854D52",
"S. c #8B4E51",
"D. c #814F58",
"F. c #914E50",
"G. c #875052",
"H. c #8D5354",
"J. c #8A5659",
"K. c #8A595D",
"L. c #935454",
"P. c #945759",
"I. c #925959",
"U. c #A34E42",
"Y. c #AD4F40",
"T. c #AD5241",
"R. c #A65B43",
"E. c #A2544B",
"W. c #AE5548",
"Q. c #A75C4E",
"!. c #B25542",
"~. c #A35951",
"^. c #A85E50",
"/. c #986841",
"(. c #AF604F",
"). c #B9644F",
"_. c #AF6051",
"`. c #AB655B",
"'. c #B96450",
"]. c #BA6755",
"[. c #825A61",
"{. c #907375",
"}. c #A76B62",
"|. c #A6726A",
" X c #A9776E",
".X c #AF796F",
"XX c #BD7262",
"oX c #B67B6F",
"OX c #BD7C6E",
"+X c #AA7A74",
"@X c #B57C71",
"#X c #BC7E72",
"$X c #C4654A",
"%X c #CA6A4F",
"&X c #C16750",
"*X c #C66A50",
"=X c #C86A50",
"-X c #C37F6F",
";X c #C27F71",
":X c #767982",
/* pixels */
":XY A 9 9 9 9 A 9 9 9 9 9 9 9 9 9 9 9 9 9 9 9 9 9 9 9 9 9 9 9 9 9 9 9 9 9 9 9 9 9 9 9 9 9 9 9 9 9 9 9 9 9 9 9 9 9 9 9 9 9 9 e e ",
":XW D r r r r p r r r r r r r r r r r r r r r r r r r r r r r r r r r r r r r r r r r r r r r r r r r r r r r r r r r r r r r r ",
"{.^ v l l z z z z z z z z z z z z z z z z z z z z z z z z z z z z z z z z z z z z z z z z z z z z z z z z z z z z z z z z z v N ",
"{.K.L.M.V.V.V.V.V.V.V.V.V.V.V.V.V.V.V.V.V.V.V.V.V.V.V.V.V.V.V.V.V.V.V.V.V.V.V.V.V.V.V.V.V.V.V.V.V.V.V.V.V.V.V.V.V.V.V.V.V.M.Z.j ",
"+X`.T.7.7.9.9.9.9.9.9.9.9.9.9.9.9.9.9.9.9.9.9.9.9.9.9.9.9.9.9.9.9.9.9.9.9.9.9.9.9.9.9.9.9.9.9.9.9.9.9.9.9.9.9.9.9.9.9.T.T.T.R./.",
"#X].z.f.f.h.q.q.q.q.q.q.q.q.q.q.q.q.q.q.q.q.q.q.q.q.q.q.q.q.q.q.q.q.q.q.q.q.q.q.q.q.q.q.q.q.q.q.q.q.q.q.q.q.q.q.q.q.h.h.h.h.p.a.",
";X*Xk.d.f.h.q.q.q.q.q.q.q.q.q.q.q.q.q.q.q.q.q.q.q.q.q.q.q.q.q.q.q.q.q.q.q.q.q.q.q.q.q.q.q.q.q.q.q.q.q.q.q.q.q.q.q.q.h.f.g.d.x.u.",
";X%Xk.s.2.e.9.T.T.T.T.T.T.T.T.T.T.T.T.T.9.9.9.9.9.9.9.9.9.9.9.9.9.9.9.9.9.9.9.9.9.9.9.9.T.T.T.T.T.T.T.T.T.T.T.T.T.9.e.q.f.d.x.| ",
"-X%Xk.q.7.B.V.M.M.M.M.M.M.M.M.M.M.M.M.V.V.V.V.V.V.V.V.V.V.V.V.V.V.V.V.V.V.V.V.V.V.V.V.V.V.V.V.V.V.M.M.M.M.M.M.M.M.V.B.Y.q.g.x.| ",
"-X=Xz.e.B.A.b v z b b b b b b b b b b b z v v v v v v v v z z v z z z v v v v v v v v z z b b b b b b b b b b z v b A.C.e.g.x.| ",
"-X*Xz.9.V.m a a c v b b b b b b b b v v c a D D D D p p p r r p p p p p D D D D D D p a u x k l z b b b b b v c a a m V.T.j.x.| ",
"-X=Xz.T.L.C T c m A.M.M.V.M.M.V.V.M.A.M v L G F F F A A A A A A A A G G G G G F F G D a x l b f m.M.M.V.V.M.A.m c T C L.T.w.x.| ",
"-X=Xz.T.L.! R Z H.E.T.T.T.T.T.T.T.T.E.L.Z T P G G G G F A A A A A G G G G G G G G G L c b b.n.$.6.U.T.T.T.T.E.H.Z R ! P.W.j.x.| ",
"-X*Xz.T.L.~ ~ K.E.e.q.h.h.q.q.h.h.q.!.E.J.E Y H H U P G S A A S G P U U U U U U U U T B h o.@.3.8.q.q.h.h.q.e.E.J.~ ~ P.W.w.x.} ",
"OX*Xt.T.H.! ! J.E.q.f.s.s.f.2.2.2.2.e.E.J.R L H H U G G S t t A G G U U U U U U U U T C h o...*.>.:.2.s.s.f.q.E.J.! ! H.W.q.y.{ ",
"oX].e.%.m.B B G.U.8.:.:.:.>.;.;.;.5.6.N.V N J G G G r t e q q e t r G G G G G G G J L c b O _  ...;.;.:.:.:.8.U.G.B B A.U.0.1.[ ",
".X(.6.$.f s k h $.=.&.&...+.o.o.o.o.O.f s i e t t t q 7 7 * * 7 7 q q t t t t t A G D a s 2 o O ) o.+...&.&.=.$.h k s f $.-.<.] ",
" XQ.#._ o : : g o...*. .) o . 1 1 1 : : - = # # 7 # # # $ $ $ $ # # # # # # 7 7 t t r r - ; ;     . o )  .*...o.g : : 4 _ ..X.' ",
" XQ.@./ o : : o _ ....` O : - # # = = # # # $ $ $ $ $ $ $ $ $ $ $ $ $ $ $ $ # 7 e e e q < # # # # - : O ` ...._ o : : o _ ..X.' ",
".X(.4.` O 1 1 5 +.*.*.+.f , # + + $ $ $ $ # # # # # # # # # # # # # # # # # * 7 e e e 9 * * $ + + # , f +.*.*.+.5 1 1 5 +.-.,.] ",
"oX).0.@.c.s s c.%.>.>.6.c.s q % % & * * * * * * * * * * * * * * * * * * * * 7 e e e e e 9 * * & & q s c.6.>.>.%.c.s s c.%.>.1.[ ",
"OX&Xr.6.n.l z M.U.0.0.6.M.l r 9 9 e e e e e e e e e e e e e e e e e e e e e e e e e e e e e e 9 9 r l M.6.0.0.U.M.z l M.6.q.y.{ ",
"-X*Xt.7.M.m v G.E.!.!.E.H.v p A A A A t e e e e e A S S S S S S S S S S S S S S S S S S S S A A A p v H.E.!.!.E.G.v m S.T.w.x.} ",
"-X=Xz.T.L.C R Z L.~.~.L.J.T J G G G S S S A A S S S S G G G G G G G G G G G G G G G G S G G G G G J T J.L.~.~.L.Z R C L.T.j.x.| ",
"-X=Xz.T.L.! T E ~ [.K.[.~ T P P P P G G S S S S G G P P P P P P P P P P P P P P P P P P P P P G G P T ~ [.K.K.~ E T ! L.W.j.x.| ",
"-X*Xz.T.L.~ W W Q ^ ^ Q W Y U U U U P G S S S S G P U U U U U U U U U U U U U U U U U U U U U U U U Y W Q ^ ^ Q W W ~ P.W.j.x.| ",
"-X*Xz.T.L.~ Y U U Y Y Y U U U U U U P G S S S S G P U U U U U U U U U U U U U U U U U U U U U U U U U U Y Y Y U U Y ~ P.W.j.x.| ",
"-X=Xz.!.L.! I G G G G G P P P P P P G G S S S S S G P P P P P P P P P P P P P P P P P P P P P P P P P G G G G G G I ! L.!.j.x.| ",
"-X*Xz.T.L.C J F A S S S G G G G G S S S S A A S S S S G G G G G G G G G G G G G G G G G G G G G G G G G G G G F F J C L.T.j.x.| ",
"-X*Xz.9.V.v p A A A A A A S S S S S A t e e A A A S S S S S S S S S S S S S S S S S S S S S S S S S S A S A A A A p v V.T.w.x.} ",
"OX&Xr.7.n.l r 9 9 e e e e e e e e e e e e e e e e e e e e e e e e e e e e e e e e e e e e e e e e e e e e e e 9 9 r l M.7.q.y.{ ",
"@X].0.@.c.s < * & * * * * * * * * * * * * * < e e e e e e 7 * * * * * * * * * * * * * * * * * * * * * * * * * & * < s c.%.>.1.[ ",
".X(.4.` O : = $ $ $ $ # # # # # # # # # # # * 7 e e e 9 * # # # # # # # # # # # # # # $ # # # # # $ # # # # $ $ $ = , 5 +.-.,.] ",
" XQ.@./ o ; # $ $ $ $ $ $ $ $ $ $ $ $ $ $ $ # 7 e e e q * # $ $ $ $ $ $ $ $ $ $ $ $ $ $ $ $ $ $ $ $ $ $ $ $ $ $ $ # ; o _ ..X.' ",
"|.Q.@._ o : = $ $ # # # # # # # # # # # # 7 7 7 e t t e q 7 # # # # # # # # # # 7 # # $ $ $ $ $ # # # # 7 # # $ $ = , 4 _ ..X.' ",
"}.W.4.$.f k w 8 8 e e t t t t t e e e e e t t t S S S S t t e q e t t t e e e e t e q 7 7 * * 7 7 q e e t t t 8 8 w k f $.-.<.] ",
"`.!.0.6.M.B J F F G G G G G G G G G G G G G G G G P P G G G G G G G G G G G y y G G r t t e e e t r G G G G G F F J B S.U.0.1.[ ",
"_.t.r.T.L.! L H H U U U U U U U P U U U P P P U U U U U U U U U U U U U U U J J U U G G S t t S G G U U P P P H H L ~ L.T.q.y.{ ",
"_.z.t.T.P.~ Y H H U U U U U U U U U U U U U U U U U U U U U U U U U U U U U U U U U P G S S S S G P U U U U U H H Y ~ I.W.w.x.} ",
"].$Xz.!.L.! Y G G G G G G P P P P P P P P P P P P P P P P P P P U U U P P P P P P P P G S S S S G J P P P G G G G Y ! L.!.j.x.| ",
"XX$Xz.!.L.C J F F G G G G G G G G G G G G G G S G G G G G G G G G G G G G G G G G G S S S A A S S S G G G G G F F J C L.!.j.x.| ",
"OX$Xt.9.V.v p A S r D S r S r r S S S S S S S S S S S S S S S S S S S S S S S A r r A t e e e e t S S r S S S A A p v F.T.j.x.| ",
"OX$Xr.6.n.l i i u c c c i r e e e e e e e e e e e e e e e e e e e e e e e e e e e e e e e e e e e e r r i u i r r i l V.7.j.x.| ",
"@X].0.@.c.s u k b m.m.h k i < * * * * e e e e e e * * * * * * * * * * * * * * * * * * * 7 7 7 7 7 q w i 3 s s u i i s n.7.2.x.| ",
"@X(.4.` O 1 0 b v.B.B.N.f , = $ $ # * * e e e e * * # # # # # # # # # # # # # * # # # # # # # $ $ # - 3 4 5 5 2 , > s n.5.2.x.i.",
"+XQ.@./ o : 1 c.6.0.0.6.c.1 = + @ $ # * 9 e e e * # $ $ $ $ $ $ $ $ $ $ $ $ $ $ $ $ $ $ $ $ $ $ $ # ; 2 O _ _ O 1 : 2 o.5.2.x.i.",
"+XQ.@./ o : 2 o.5.2.2.5.o.1 = + @ $ $ * 9 e e e * # $ $ $ $ $ $ $ $ $ $ $ $ $ $ $ $ $ $ $ $ $ @ + # ; o _ ( ( _ o : 2 o.5.2.x.i.",
"oX(.4.` O 1 s v.5.2.2.5.v.s # + + & & * 9 e e e * * # # # # # # # # # # # # # # # # # $ $ & & % + # , f +.*.*.+.O 1 s n.7.f.x.i.",
"OX).e.@.c.s s v.7.f.f.9.v.s q % % 6 7 9 e e e e e 7 7 * * * * * * * * * * * * * * * * * 7 7 & % & < s c.6.>.>.%.c.s s n.7.g.x.| ",
"OX&Xr.6.n.l b M.9.h.h.e.V.b i r e r r r r e e e e e e e e e e e e e e e e e e e e e e e r r r r e i l M.7.q.q.6.M.b b M.7.q.x.} ",
"OX&Xr.6.M.m m F.T.h.h.e.B.A.b z z z v c a S S A A S S S S S S S S S S S S S S A A S r a c v v z z b A.B.e.h.q.T.S.m m S.U.q.y.{ ",
"oX].e.B.A.C C L.T.h.f.q.9.C.V.V.V.V.S.n v K S G G G G G G G G G G G G G G G G G G J L v n S.V.V.V.V.C.9.q.f.h.T.L.C C A.B.0.1.[ ",
".X_.7.N.A.! ! L.W.h.g.f.q.e.e.9.9.T.E.L.Z R P G G P P P P P P P P P P P P P P G G P R Z L.E.T.9.9.e.e.h.f.g.h.Q.L.C C D.V.4.<.] ",
" X^.6.N.n R ~ I.Q.l.g.g.f.h.h.h.h.q.!.E.J.~ Y U U U U U U U U U U U U U U U U U U Y E K.E.!.q.h.h.h.h.f.g.g.l.Q.I.~ R Z V.#.X.' ",
" X^.6.N.n R ~ K.E.!.q.h.h.q.q.h.h.q.!.E.K.E Y U H U U U U U U U U U U U U U U H U Y E K.E.!.q.h.h.q.h.h.h.q.!.E.K.~ R Z V.#.,.' ",
".X_.6.N.n R R Z H.E.T.T.T.T.T.9.9.T.E.L.Z T P G G G G G G G G G G G G G G G G G G P T Z L.E.T.9.9.T.T.T.T.T.E.H.Z R R A.V.4.<.] ",
"oX].e.B.A.v L c m A.M.M.M.M.M.V.V.M.A.M v L G F F F G G G G G G G G G G G G F F F G L v M A.M.V.V.M.M.M.M.M.A.m c L v A.U.0.1.[ ",
"OX&Xr.7.M.m a a c v b b b b b b b b v v c a D D D D D D D D D D D D D D D D D D D D a c v v b b b b b b b b v c a a m V.Y.q.y.{ ",
"-X*Xz.e.B.A.b v z b b b b b b b b b b b z v v v v v v v v v v v v v v v v v v v v v v z b b b b b b b b b b b z v b A.C.e.g.x.} ",
"-X%Xk.q.7.B.V.M.M.V.V.M.M.M.M.M.M.M.M.V.V.V.V.V.V.V.V.V.V.V.V.V.V.V.V.V.V.V.V.V.V.V.V.M.V.M.M.M.M.M.M.M.M.M.M.M.V.V.B.Y.q.g.x.| ",
"-X%Xk.s.2.e.9.T.T.T.T.T.T.T.T.T.T.T.T.T.9.9.9.9.9.9.9.9.9.9.9.9.9.9.9.9.9.9.9.9.9.9.9.9.T.T.T.T.T.T.T.T.T.T.T.T.T.9.e.q.f.d.x.| ",
"#X*Xk.d.f.h.q.q.q.q.q.q.q.q.q.q.q.q.q.q.q.q.q.q.q.q.q.q.q.q.q.q.q.q.q.q.q.q.q.q.q.q.q.q.q.q.q.q.q.q.q.q.q.q.q.q.q.q.h.f.g.d.x.u.",
"@X].z.f.f.h.q.q.q.q.q.q.q.q.q.q.q.q.q.q.q.q.q.q.q.q.q.q.q.q.q.q.q.q.q.q.q.q.q.q.q.q.q.q.q.q.q.q.q.q.q.q.q.q.q.q.q.q.h.h.h.h.p.a.",
"+X`.T.7.7.9.T.9.9.9.9.9.9.9.9.9.9.9.9.9.9.9.9.9.7.9.9.9.9.9.9.9.7.9.9.9.9.9.9.9.9.9.9.9.9.9.9.9.9.9.9.9.9.9.9.9.9.9.T.T.T.T.R./."
};
