/* XPM */
static const char *free_exit[] = {
/* columns rows colors chars-per-pixel */
"64 64 85 1 ",
"  c #B7916A",
". c #B3916F",
"X c #B6916C",
"o c #A78F7E",
"O c #A88F7D",
"+ c #AF9075",
"@ c #A7907F",
"# c #AB9079",
"$ c #AD9078",
"% c #A9907D",
"& c #B39170",
"* c #B09074",
"= c #198EBF",
"- c #1C8EBF",
"; c #218EBE",
": c #278DBD",
"> c #2B8EBD",
", c #2D8DBC",
"< c #368EBB",
"1 c #328EBC",
"2 c #358EBC",
"3 c #398EBB",
"4 c #7F8F9F",
"5 c #5F8EAF",
"6 c #458DB7",
"7 c #4B8EB7",
"8 c #4C8EB7",
"9 c #428EB9",
"0 c #448EB9",
"q c #488EB8",
"w c #558EB3",
"e c #538EB4",
"r c #548FB4",
"t c #5B8EB1",
"y c #5E8FB1",
"u c #618EAF",
"i c #648EAD",
"p c #6A8EAB",
"a c #6E8FA9",
"s c #688EAC",
"d c #728EA7",
"f c #758EA6",
"g c #7A8EA2",
"h c #7F8EA0",
"j c #788FA4",
"k c #718EA8",
"l c #198EC0",
"z c #1990C2",
"x c #1991C4",
"c c #1A94C7",
"v c #1A95C8",
"b c #1A97CC",
"n c #1B9ACF",
"m c #1B9AD0",
"M c #1C9BD2",
"N c #1B9CD2",
"B c #1C9DD3",
"V c #1C9ED5",
"C c #1C9FD7",
"Z c #1CA0D7",
"A c #1DA1D9",
"S c #1DA3DC",
"D c #1DA4DD",
"F c #1EA7E0",
"G c #9F8F87",
"H c #978F8E",
"J c #9B8F8B",
"K c #9D8F89",
"L c #988F8E",
"P c #9D9089",
"I c #8F8E95",
"U c #858E9B",
"Y c #818E9F",
"T c #848F9D",
"R c #8A8F99",
"E c #938F92",
"W c #948F91",
"Q c #908F94",
"! c #A28F83",
"~ c #A48F80",
"^ c #A08F86",
"/ c #A39083",
"( c #A59080",
") c #A19085",
"_ c #808EA0",
/* pixels */
"                       X&#~^^^^^^^^^^~#&X                       ",
"                  X&$%(^JWQIIIIIIIIIIQWJ^(%$&X                  ",
"                 X+(WUgaiyttttttttttttyiagUW(+X                 ",
"              X&#/LRfu83:==============:38ufRL/#&X              ",
"             X&oEhswq3,;================;,3qwshEo&X             ",
"           X&%PIkw2==========================2wkIP%&X           ",
"           &)Idt01;==========================;10tdI)&           ",
"         X$)Ra0===========llllllllllll===========0aR)$X         ",
"         $Lhu0>==========lzxxxxxxxxxxzl==========>0uhL$         ",
"       X&)_t3=======lzxxcvvnnnnnnnnnnvvcxxzl=======3t_)&X       ",
"       &(Ii3;======lzcnNVZAAAAAASASSAAZVNnczl======;3iI(&       ",
"      &@Qdq=====lzxcvmVADDFFFFFFFFFFFFDDAVmvcxzl=====qdQ@&      ",
"     &%Eaq>====lzxnBASDFFFFFFFFFFFFFFFFFDDAABnxzl====>qaE%&     ",
"    X#Hj8=====lzvnVADFFFFFFFFFFFFFFFFFFFFFFDAVnvzl=====8jH#X    ",
"   X&^ge1====lzvNADDFFFFFFFFFFFFFFFFFFFFFFFFDDANvzl====1eg^&X   ",
"   &oI5,-====zcnADFFFFFFFFFFFFFFFFFFFFFFFFFFFFFAncz====-,5Io&   ",
"   $Hf8-====lxnADFFFFFFFFFFFFFFFFFFFFFFFFFFFFFFDAnxl====-8fH$   ",
"  X(Yt3====lxbVDFFFFFFFFFFFFFFFFFFFFFFFFFFFFFFFFDVbxl====3tY(X  ",
" X+Lp3;====zvNAFFFFFFFFFFFFFFFFFFFFFFFFFFFFFFFFFFANvz====;3pL+X ",
" &(Rw=====lcmADFFFFFFFFFFFFFFFFFFFFFFFFFFFFFFFFFFDAmcl=====wR(& ",
" $Wfq====lzbADFFFFFFFFFFFFFFFFFFFFFFFFFFFFFFFFFFFFDZbzl====qfW$ ",
" %Uu3====zcmSFFFFFFFFFFFFFFFFFFFFFFFFFFFFFFFFFFFFFFAmcz====3uU% ",
" (g8,====xnVDFFFFFFFFFFFFFFFFFFFFFFFFFFFFFFFFFFFFFFDVnx====,8g( ",
".Ga3;====xMADFFFFFFFFFFFFFFFFFFFFFFFFFFFFFFFFFFFFFFDAMx====;3aG.",
"#Hu:====lvVDFFFFFFFFFFFFFFFFFFFFFFFFFFFFFFFFFFFFFFFFDVvl====:uH#",
"~Qt====lzvAFFFFFFFFFFFFFFFFFFFFFFFFFFFFFFFFFFFFFFFFFFAbzl====tQ~",
"GRt====lxnAFFFFFFFFFFFFFFFFFFFFFFFFFFFFFFFFFFFFFFFFFFAnxl====tRG",
"HTr====zcmAFFFFFFFFFFFFFFFFFFFFFFFFFFFFFFFFFFFFFFFFFFAmcz====rTH",
"Ig8====zvBSFFFFFFFFFFFFFFFFFFFFFFFFFFFFFFFFFFFFFFFFFFSBvz====8gI",
"Uf7====zbVDFFFFFFFFFFFFFFFFFFFFFFFFFFFFFFFFFFFFFFFFFFDVbz====7fU",
"Uf7====zbVDFFFFFFFFFFFFFFFFFFFFFFFFFFFFFFFFFFFFFFFFFFDVbz====8fU",
"Uf7====zbVDFFFFFFFFFFFFFFFFFFFFFFFFFFFFFFFFFFFFFFFFFFDVbz====8fU",
"Uf7====zbVDFFFFFFFFFFFFFFFFFFFFFFFFFFFFFFFFFFFFFFFFFFDVbz====7fU",
"Uf7====zbVDFFFFFFFFFFFFFFFFFFFFFFFFFFFFFFFFFFFFFFFFFFDVbz====7fU",
"Uf7====zbVDFFFFFFFFFFFFFFFFFFFFFFFFFFFFFFFFFFFFFFFFFFDVbz====7fU",
"Ig8====zvBSFFFFFFFFFFFFFFFFFFFFFFFFFFFFFFFFFFFFFFFFFFSBvz====8gI",
"HTr====zcmAFFFFFFFFFFFFFFFFFFFFFFFFFFFFFFFFFFFFFFFFFFAmcz====rTH",
"GRt====lxnAFFFFFFFFFFFFFFFFFFFFFFFFFFFFFFFFFFFFFFFFFFAnxl====tRG",
"~Qt====lzvAFFFFFFFFFFFFFFFFFFFFFFFFFFFFFFFFFFFFFFFFFFAvzl====tQ~",
"#Hu-====lvZFFFFFFFFFFFFFFFFFFFFFFFFFFFFFFFFFFFFFFFFFDZvl====-uH#",
".Ps,-====xBADFFFFFFFFFFFFFFFFFFFFFFFFFFFFFFFFFFFFFFDABx====-,sP.",
" (f6>====xnVDFFFFFFFFFFFFFFFFFFFFFFFFFFFFFFFFFFFFFFDVnx====>6f( ",
" %Ty3====zvmSFFFFFFFFFFFFFFFFFFFFFFFFFFFFFFFFFFFFFFSmvz====3yT% ",
" $Ed0====lznADFFFFFFFFFFFFFFFFFFFFFFFFFFFFFFFFFFFFDAnzl====0dE$ ",
" *^Tr=====lcBADFFFFFFFFFFFFFFFFFFFFFFFFFFFFFFFFFFDABcl=====rT^* ",
" X$Wi1-====xnVDFFFFFFFFFFFFFFFFFFFFFFFFFFFFFFFFFFDVnx====-1iW$X ",
"  .)f8,====lxnADFFFFFFFFFFFFFFFFFFFFFFFFFFFFFFFFDAnxl====,8f).  ",
"   #Ia9=====lcNADFFFFFFFFFFFFFFFFFFFFFFFFFFFFFFDANcl=====9aI#   ",
"   &~Rw======zvmADFFFFFFFFFFFFFFFFFFFFFFFFFFFFDAmvz======wR~&   ",
"   X&Pd0>====lzvmVSDFFFFFFFFFFFFFFFFFFFFFFFFDSVmvzl====>0dP&X   ",
"    X%Ia0=====lzxbVADFFFFFFFFFFFFFFFFFFFFFFDAVbxzl=====0aI%X    ",
"     &)Ru3;=====lxvBASDFFFFFFFFFFFFFFFFFFDSABvxl=====;3uR)&     ",
"     X&)ht3======lzcnNASDFFFFFFFFFFFFFFFSANnczl======3th)&X     ",
"       $Lhu0>======lxvnVAASSDDDDDDDDSSAAVnvxl======>0uhL$       ",
"       X$)Ra0=======lzxcvnmBVVVVVVVVBmnvcxzl=======0aR)$X       ",
"         &)Ip0>========lzxvvvbbbbbbvvvxzl========>0pI)&         ",
"         X&(Idq==========lzzzzzzzzzzzzl==========qdI(&X         ",
"           &(Eft0,-==========================-,0tfE(&           ",
"           X&#)Ia81==========================18aI)#&X           ",
"              XOQfu891;==================;198ufQOX              ",
"               &#)Q4aw<==================<wa4Q)#&               ",
"                 &%KIhaytr877777777778rtyahIK%&                 ",
"                  &+#(GHITgffffffffffgTIHG(#+&                  ",
"                      .+!HIUUUUUUUUUUIH!+.                      "
};
