/* XPM */
static char *free_exit[] = {
/* columns rows colors chars-per-pixel */
"64 64 21 1 ",
"  c None",
". c #178BBC",
"X c #168BBD",
"o c #178CBD",
"O c #198CBD",
"+ c #198DBE",
"@ c #198EBF",
"# c #198FC1",
"$ c #1991C3",
"% c #1992C5",
"& c #1A94C7",
"* c #1A95C9",
"= c #1B98CD",
"- c #1B9AD0",
"; c #1B9CD2",
": c #1C9DD4",
"> c #1C9FD6",
", c #1CA0D8",
"< c #1DA2DA",
"1 c #1DA5DE",
"2 c #1EA7E1",
/* pixels */
"                                                                ",
"                                                                ",
"                                                                ",
"                                                                ",
"                                                                ",
"                                                                ",
"                                                                ",
"                                                                ",
"                                                                ",
"                                                                ",
"                                                                ",
"                                                                ",
"                                                                ",
"                                                                ",
"                                                                ",
"                                                                ",
"                                                                ",
"                          XX++++##++XX                          ",
"                        ++++++++++++++++                        ",
"                       ++++++++++++++++++                       ",
"                     X+++++++$$$$$$+++++++X                     ",
"                     +++++$>12222221>$+++++                     ",
"                    ++++$>222222222222>$++++                    ",
"                   ++++$1222222222222221$++++                   ",
"                  X+++#122222222222222221#+++X                  ",
"                  ++++>222222222222222222>++++                  ",
"                 X+++$22222222222222222222$+++X                 ",
"                 X+++>22222222222222222222>+++X                 ",
"                 +++#2222222222222222222222#+++                 ",
"                 +++$2222222222222222222222$+++                 ",
"                 +++>2222222222222222222222>+++                 ",
"                 +++>2222222222222222222222>+++                 ",
"                 +++>2222222222222222222222>+++                 ",
"                 +++>2222222222222222222222>+++                 ",
"                 +++$2222222222222222222222$+++                 ",
"                 +++#2222222222222222222222#+++                 ",
"                 ++++>22222222222222222222>++++                 ",
"                 X+++$22222222222222222222$+++X                 ",
"                  ++++>222222222222222222>++++                  ",
"                  X+++#122222222222222221#+++X                  ",
"                   ++++$1222222222222221$+++#                   ",
"                    ++++#>222222222222>#++++                    ",
"                    X+++++*1222222221*+++++X                    ",
"                      ++++++$=>>>>=$++++++                      ",
"                       ++++++++++++++++++                       ",
"                        X++++++++++++++X                        ",
"                          ++++++++++++                          ",
"                                                                ",
"                                                                ",
"                                                                ",
"                                                                ",
"                                                                ",
"                                                                ",
"                                                                ",
"                                                                ",
"                                                                ",
"                                                                ",
"                                                                ",
"                                                                ",
"                                                                ",
"                                                                ",
"                                                                ",
"                                                                ",
"                                                                "
};
