/* XPM */
static char *player[] = {
/* columns rows colors chars-per-pixel */
"64 64 219 2 ",
"   c #080303",
".  c #0C0303",
"X  c #120504",
"o  c #180A08",
"O  c #1C110D",
"+  c #1D1715",
"@  c #210C09",
"#  c #25130D",
"$  c #29150F",
"%  c #231A14",
"&  c #271915",
"*  c #2D1A14",
"=  c #321D16",
"-  c #25201D",
";  c #2B221B",
":  c #33241C",
">  c #3A231B",
",  c #382A1E",
"<  c #2B2622",
"1  c #2C2925",
"2  c #342B24",
"3  c #3B2C23",
"4  c #332C29",
"5  c #3D3024",
"6  c #35312D",
"7  c #3B332C",
"8  c #363431",
"9  c #393632",
"0  c #3C3936",
"q  c #3D3C3B",
"w  c #432E23",
"e  c #42352B",
"r  c #48372C",
"t  c #443C33",
"y  c #453935",
"u  c #4B3D33",
"i  c #423E3A",
"p  c #553B30",
"a  c #4D4236",
"s  c #44413D",
"d  c #4B423C",
"f  c #584439",
"g  c #54493D",
"h  c #694C3B",
"j  c #464543",
"k  c #494642",
"l  c #4C4A45",
"z  c #464949",
"x  c #4E4C49",
"c  c #554A44",
"v  c #524E4B",
"b  c #54514D",
"n  c #5B534C",
"m  c #4D5252",
"M  c #555552",
"N  c #595652",
"B  c #5C5955",
"V  c #555B5C",
"C  c #5D5D5A",
"Z  c #66544B",
"A  c #70584B",
"S  c #655B54",
"D  c #6A5E57",
"F  c #615E5B",
"G  c #735E52",
"H  c #6E6156",
"J  c #64615D",
"K  c #6B635B",
"L  c #75655B",
"P  c #73645D",
"I  c #5D6263",
"U  c #656462",
"Y  c #696663",
"T  c #6C6965",
"R  c #656768",
"E  c #656B6B",
"W  c #6D6D6A",
"Q  c #756C63",
"!  c #786B64",
"~  c #716E6A",
"^  c #797067",
"/  c #74726D",
"(  c #7A736B",
")  c #686F71",
"_  c #6D7374",
"`  c #6E7779",
"'  c #757572",
"]  c #797672",
"[  c #7C7A75",
"{  c #717779",
"}  c #747B7C",
"|  c #7D7D7B",
" . c #876957",
".. c #916C55",
"X. c #99745D",
"o. c #84776C",
"O. c #967867",
"+. c #847D74",
"@. c #897F75",
"#. c #817E7A",
"$. c #A47C67",
"%. c #A27F70",
"&. c #7A807F",
"*. c #9E826E",
"=. c #878077",
"-. c #84817D",
";. c #8B847A",
":. c #8E887E",
">. c #9B867A",
",. c #A9846A",
"<. c #AF8D73",
"1. c #B68C77",
"2. c #C3997C",
"3. c #777E81",
"4. c #7C8283",
"5. c #7F8789",
"6. c #858582",
"7. c #898682",
"8. c #8C8985",
"9. c #818789",
"0. c #848A8B",
"q. c #8D8D8A",
"w. c #938D85",
"e. c #9C8E82",
"r. c #918E8A",
"t. c #8E918C",
"y. c #999287",
"u. c #95928D",
"i. c #9B958C",
"p. c #858E90",
"a. c #8C9395",
"s. c #959592",
"d. c #999692",
"f. c #959895",
"g. c #9C9A95",
"h. c #959A9C",
"j. c #9D9D9A",
"k. c #A7978B",
"l. c #A2998E",
"z. c #B79A86",
"x. c #A99E92",
"c. c #A19E9A",
"v. c #9FA09F",
"b. c #BDA08B",
"n. c #A7A096",
"m. c #A4A19C",
"M. c #ABA59C",
"N. c #AFA89D",
"B. c #B1A495",
"V. c #B1A79B",
"C. c #B2A99D",
"Z. c #BBAB9C",
"A. c #969EA1",
"S. c #9CA3A4",
"D. c #9CA4A7",
"F. c #A5A4A1",
"G. c #A9A6A2",
"H. c #A5A8A7",
"J. c #ACAAA5",
"K. c #ADADA9",
"L. c #B3ADA3",
"P. c #BBAFA2",
"I. c #B1AEAA",
"U. c #B5B0A7",
"Y. c #BBB1A5",
"T. c #BBB5AC",
"R. c #A6ADB1",
"E. c #ABB2B4",
"W. c #AFB8BA",
"Q. c #B6B5B1",
"!. c #B9B6B2",
"~. c #B4B7B8",
"^. c #B4BABB",
"/. c #BDBCB9",
"(. c #C49C82",
"). c #C7A68B",
"_. c #D3AC8D",
"`. c #C6AA98",
"'. c #D2AC92",
"]. c #CAB29D",
"[. c #D4B49C",
"{. c #DBB79A",
"}. c #E6B99C",
"|. c #CDB7AD",
" X c #C4B8AB",
".X c #DAB9A3",
"XX c #C3BDB4",
"oX c #C9BCB6",
"OX c #C0BFBB",
"+X c #E2BEA2",
"@X c #BCC0BE",
"#X c #DDC0A4",
"$X c #C7C1B7",
"%X c #CAC1B5",
"&X c #C3C1BD",
"*X c #CDC8BE",
"=X c #D8C4B3",
"-X c #E9C5A8",
";X c #F2C9AC",
":X c #EACDB4",
">X c #EDD2B6",
",X c #F2D6B8",
"<X c #F4D9BB",
"1X c #B7BFC0",
"2X c #BCC3C3",
"3X c #BDC6C9",
"4X c #C3C5C2",
"5X c #CCCAC3",
"6X c #C7C9C8",
"7X c #C4CACB",
"8X c #CBD2D3",
"9X c #CFD8DA",
"0X c #D2D7D6",
"qX c #D2DADB",
"wX c #F2DAC3",
"eX c #D8DEE1",
"rX c #DAE2E3",
"tX c #DDE6E8",
"yX c #E1E8EA",
/* pixels */
"c.w.o.S : v ( 7.u.c.m.m.m.m.m.m.c.M.J.J.m.L.c.6 F #.i.c.M.L.M.J.G.G.G.G.m.m.G.m.c.;. X! ( d.j.c.c.M.m.m.m.M.m.g.d.j.m.s.o.i.c.l.",
"c.i.;.P 2 n [ r.g.c.m.J.G.J.m.J.G.J.J.G.G.I.c.7 J 8.d.G.G.I.U.J.U.J.K.G.J.G.J.K.m.w.oX( #.d.F.G.J.F.G.m.G.m.m.m.c.c.F.g.+.i.c.i.",
"c.i.e.! 2 N [ r.m.G.m.G.I.J.J.J.I.I.J.I.G.T.m.7 F 7.c.G.U.K.U.I.U.U.K.U.J.I.I.K.I.u.%X^ 7.j.J.J.K.K.J.G.G.J.G.G.G.J.m.j.+.i.n.i.",
"c.d.l.( 2 B -.s.m.J.U.J.U.U.I.I.I.U.U.I.U.T.M.6 J 8.c.J.U.!.U.!.Q.U.Q.U.Q.I.Q.U.Q.i.=X~ -.m.J.U.I.U.K.I.I.K.K.K.K.J.K.j.=.l.n.l.",
"8.8.+.K 2 S -. X`.P.I.I.I.I.U.U.Q.U.U.I.U.F.r.k Y q.m.U.Q.!.!.Q.!.Q.!.!.!.!.Q.!.Q.d.C.! 8.F.K.U.!.U.!.I.U.Q.P.T.Z.J.K.F.+.w.:.>.",
"/.d.L.*X5X5X=X].+X{.P.*X*X*X*X*X5X5X5X*X*X*X2X5X5X5X*X5X*X*X*X*X*X*X*X*X*X*X*X*X*X*X%XXX*X*X*X*X*X*X%X%X*X=X2.=Xx.`.XXXX X Xi.y.",
"-./ K.-.! ! O.<._.%.1.S P ! ! ! ! ! ! ! ! c.r.~ ! / ( ( ( ( ( ( ( ( ( ^ ^ ( ^ ! ! ! P K 7.g.n S K K K D D ].>.|.k.A J S S +.8.+.",
"j.s.&X-.% 3 e (.,. .1.> : 3 e r u u a d a I.M.; e a g g g g g g g g g g g g g g d u e 2 M.!.: 3 3 3 3 , G -XK.B.|.: 2 : % u.L.c.",
"m.d.U.;.O % ; %.2.{.-XX.p ; ; 2 2 7 7 7 7 L.M.+ ; 7 7 7 t t t t t t t t t t t t 7 7 2 % L.T.% ; * * ; f {.;X>XoX>.% % O ; i.L.c.",
"m.d.L.#.% + 4 G }.{.{.2.h 1 1 8 q s s s j U.J.- 1 9 q i j j s j k l k l l l l s s i 0 6 L.T.1 1 1 1 1 *.}.-X_..Xp w % + t i.L.l.",
"m.i.L.-.; - i >.2.-X{._...8 j b B F C J U T.J.1 8 v B J F C C J J F U J U F F C B B b l Y.T.2 6 0 s s `.-X-X'.$.f 9 6 4 n i.C.l.",
"m.i.L.+.: 1 B ( (.{.+X{.$.8 N ~ | -.6.6.8.!.L.2 s ~ #.7.8.-.-.| 6.-.-.6.#.-.[ [ ' ] ' T Y.Y.9 l M J T [.:X}.(...c l N v D i.N.l.",
"M.d.L.+.3 6 Y | >._.-X-X,.9 C #.u.g.g.c.j.XXL.7 M | d.j.m.c.j.m.g.j.c.j.j.g.d.s.d.u.q.-.L.Y.s B / | -.#X<X'.,.Z k B / W ! l.N.c.",
"G.g.L.-.3 0 T 6.q.<.-X<X{.d J 7.g.F.J.K.J.XXJ.7 C q.F.U.J.K.K.K.U.K.I.U.K.K.F.G.J.m.m.u.P.Y.k T -.g.m.,X:X(.G s j U -.#.( c.M.c.",
"M.g.L.;.7 i ~ 8.s.s.z.,X<Xz.F 8.m.G.U.U.Q.&XJ.7 C q.J.U.U.U./.!.Q.!.U.!.!.I.!.U.Q.U.J.d.Y.Y.l ' r.m.=X,X{. .l q x ' u.u.+.c.N.c.",
"M.g.L.;.e s ~ r.g.g.7.#X<X>Xo.6.m.U.I.!.Q.&XJ.7 J s.J./.!./.!.OX@X/.4X/./.!.!.!.!.!.U.g.Y.Y.l | g. X<X-X<.F s j T 7.g.s.+.c.C.c.",
"m.g.L.;.r d ' q.m.H.g.k.>X<X{.-.j.J.Q.U.!.&XL.9 Y j.U.!.&X&X4X&X4X&X4X5X/.OX!.!.!.!.Q.c.Y.T.v | M.>X>X).! C j C [ g.G.g.=.c.C.c.",
"m.g.L.;.r d ' r.m.J.K.j..X<X,X).s.J.U.!.!.*XL.t T g.Q./.&X&X4X5X5X5X4X&X&X&X&X!.!./.!.m.Y. Xx -.-X<X#X*.] B N ' d.G.J.g.=.x.C.c.",
"m.g.U.;.t l / u.m.U.J.F.x.>X<X>Xk.c.K.!.Q.*XL.t / j.!.!.K.q.K F ] 8.s.s.f.5XOXOX/.&XQ.M.Y.XXj ].<X:X).=.[ C T 7.G.J.I.g.=.x.C.c.",
"M.d.U.;.t l [ u.G.I.U.K.g..X<XwX%Xj.K.Q.Q.*XL.t / F./.h.B $ # # # $ d g.t.g.4XOXOXOX/.c.C.$XF.wX,X+X*.7.~ U ' d.G.U.U.g.=.n.C.c.",
"M.g.L.;.t k ] u.G.I.I.U.J.x.:X0X8XQ.q.K.Q.&XL.t ' F.J.c * $ # # $ $ $ 3 ~ ' OXOX&X/.!.m.J.8XqX9X5X).=.-.~ T 6.m.I.I.U.m.;.c.C.l.",
"G.c.L.-.u l [ r.G.U.I.K.J.m.4X6X6X/.F.6.K.XXJ.t ' H.~ * = = * > = = = # # B F.5XOX/.!.K.F.4X6X6XQ.w.7.[ W ' q.m.U.K.K.m.=.n.C.c.",
"m.g.L.=.t l [ u.F.U.U.I.I.F.^.^.^.8X2Xp.J.XXL.t ' q.w = > > w w : = > $ O * [ OX/././.D.6X8X6XH.F.8.-.~ W [ d.G.K.U.K.j.=.x.C.c.",
"m.g.L.;.t k [ s.G.I.U.U.I.J.A.h.2XqX8X^.h.T.N.t _ K > > w p p f g w w * # O s G.!././.6X8XqX6XD.q./ +./ ~ 7.g.I.I.U.I.m.=.c.C.n.",
"m.d.U.;.u k ] u.m.I.I.Q.Q.I.h.0.2X8X8X8XD.L.M.t E g = 3 g Z P P ! Z g 3 $ X ; w.I.!.6XqX0X2X2Xh.R #.] W / 8.m.J.U.I.U.g.;.c.C.n.",
"m.i.L.;.u c ] s.F.K.U.I.!.!.K.6.^.4XqX8X4XK.M.0 R = * u Z ! ^ ! Q ( n u * X o #.J.4X8X8X8X6XH.a.~ -./ Y ] q.F.J.I.U.J.c.;.c.C.n.",
"m.i.L.=.u l [ u.G.K.I.U.U.Q.Q.j.j.^.0X8X8X6XF.j U * = u P P c c u S D f $ X X Y K.8XqX8X1X6Xh.q.;.~ J J [ u.c.I.J.I.U.j.;.c.L.n.",
"m.d.L.+.a v [ s.F.U.U.I.U.I.U.G.q.H.8X8XqX8X6XH.4.$ : c Q c 3 : 2 d D p % o X 8.0XqX8X8XH.^.0.[ ] J N U [ g.F.J.U.K.U.c.;.c.C.n.",
"m.i.L.+.a b [ u.G.J.U.Q.I.Q.I.I.j.a.3X6XqX0X0X8XF.# $ c D g * # O e Z u # X   s.6X8X6X6Xh.A._ ( T N B T 6.d.J.K.J.U.J.m.=.n.C.n.",
"m.i.L.-.a c #.s.m.I.J.U.Q.I.U.K.J.f.W.6XqXrXrXrX5X$ @ 6 v u % o X : f > O   X #.K.2X6X@Xh.} / ~ F N J ] r.m.F.I.U.I.U.c.=.x.C.m.",
"m.u.L.=.a v [ d.m.K.U.I.U.Q.I.U.J.F.h.^.rXrXtXtXqXp O * t t + c t : 3 % X   $ ' h.^.2X/.3.C J B M F ~ -.u.c.K.J.I.U.U.j.@.x.C.n.",
"m.u.L.-.a b #.u.G.J.U.Q.Q.Q.U.U.I.G.j.E.yXyXyXyXyX~.O O % % O t 2 X         q I a.W.2X6X' n k b N Y #.r.j.G.J.U.I.U.U.j.=.x.C.c.",
"m.r.L.+.a b | s.m.K.I.!.!.U.U.Q.I.U.J.1XrXtXyXtXtXrXN X o   r w w g       + z I p.E.2X3X&.n s N F ~ -.s.m.J.J.U.U.K.Q.m.;.n.C.c.",
"m.u.J.+.a b #.u.m.J.U.U.U.U.!.!.Q.U.^.2XeXrXrXrXrXrX1X%   u G Z G P f   X q m I p.H.^.2Xp.B k C Y [ 8.g.G.I.I.U.I.U.J.c.;.n.C.c.",
"m.u.L.=.7 x #.u.m.J.I.U.!.U.U.!.Q.Q./.4XqXqXqXqXqX9X8XD.8 f G Z Z c r % j m V ) p.H.E.Q.A.W k J ~ #.u.g.m.J.I.U.U.U.U.v.;.n.C.n.",
"m.u.L.+.7 v [ u.G.I.I.I.U.!.!.U.!.U.@X8X3X6X6X6X6X6X3XW.M = : > * * # 2 V I E ` p.D.H.D.R.C b Y ] -.u.g.J.G.U.U.U.I.U.m.;.n.C.x.",
"G.q.L.+.7 b [ u.F.U.!.Q.Q.U.Q.U.U.K.6X6XW.^.2X2X1X1X2XE.7 o o @ o X X + E E _ } p.j.D.0.a.| b T ] 7.u.m.G.I.K.Q.I.J.U.m.;.x.C.n.",
"r.#.L.+.u c [ s.m.J.Q.!.Q.!.U.!.U.~.8XE.2Xh.E.K.E.E.E.E.x X   X   X   4 { } } 3.0.q.W H.) D.b T [ 8.g.m.J.J.U.I.U.I.J.m.=.x.C.;.",
"m.u.L.+.a b [ u.F.K.U.!.U.Q.U.!.!.^.6XW.D.D.3.a.A.D.D.E.a.6 X       O U } { _ { 9.E a.3.} E.U T [ 8.d.m.J.I.I.I.I.U.U.j.;.x.M.x.",
"m.i.L.+.a b [ d.G.I.I.U.U.U.U.Q.2X^.^.6XD.} V C 4.5.a.h.A.h.U j j x W | } } } } m I _ 6.D.D._ 8.[ 8.d.m.F.I.J.I.U.K.Q.j.;.x.N.k.",
"m.i.L.=.a b #.r.m.L.U.U.U.Q.!.U.2X^.R.H.E.H.' q C 4.q.0.5.0.0.4.4.4.4.| &.4.} z o C D.D.D.h.| v.[ -.d.m.J.J.I.I.I.U.U.g.=.x.C.x.",
"m.u.L.+.a b #.u.m.I.U.U.!.Q.U./.6XR.D.D.' j K.U l I W _ } 5.0.0.0.4.4.} } ' V q + q E 4.H.E h.a.[ 7.u.g.J.K.I.U.I.J.U.m.=.x.C.x.",
"m.u.L.+.a b ] u.m.U.I.!.Q.I.Q.2X6X^.H.0.M ] L.6.j I E E _ _ _ _ _ } 3.4.` m V q < q _ 0.4.0.^.{ j.u.u.g.F.K.I.I.U.I.I.j.=.x.C.x.",
"m.u.L.+.a b +.u.G.I.U.U.Q.K./.6X^.8X2XD.' G.M.g.U C W _ _ E _ 4.5.4.) V I I C q 6 0 C h.H.^.5.D.R.j.u.d.m.G.I.J.I.U.I.g.;.l.C.c.",
"c.u.L.+.a b +.u.c.I.J.Q.U.Q.6X^.2XA.} j q.L.c.-.q.C E _ _ } 9.} _ } 4.' I E M 8 8 q x F 3.A.A.^.^.q.r.d.m.m.J.I.J.U.U.j.=.l.C.c.",
"c.u.L.+.a v [ d.m.J.U.I.U.^.^.^.s.0.' ' K.J.i./ -.-.U E E U I E E I I E E C 9 8 0 i v b a.D.E.E.D.s.8.d.j.G.G.I.U.J.U.g.=.x.C.c.",
"m.u.L.+.a b [ u.G.J.U.!.U.Y.^.D.s.] N m.J.c.w.K ] -.] U N C I I U U C M j 6 9 q q k v x W f.R.H.q.F.( w.g.F.K.K.I.U.U.c.=.c.C.c.",
"m.u.C.o.a c [ r.c.I.I.U.I.'.).F.s.T r.J.c.i.=.n ~ ] | / U b s q 0 0 0 0 0 0 q s s k b l ! ' h.H.F. ...-.d.m.J.U.I.K.U.m.=.x.C.c.",
"m.u.C.+.a v / r.m.J.U.U.L._.).,.o.U.J.c.d.y.+.d Y / [ ' ] W J b x l k k l l j l l v M x +.=.1 A ..,.$.o.q.m.m.I.U.U.K.m.;.c.V.c.",
"M.i.N.+.u l ] 8.m.J.U.U.`.).1. .J.L.c.u.8.i.;.t F / #.-.-.6.[ / U J C N M M N M N B F N i.n.1 0 ..,.,. .7.g.G.J.I.I.U.g.=.c.M.c.",
"n.y.N.+.r d ~ 8.g.J.U.I.).2.X.m.G.c.u.6.-.c.y.i F [ -.q.q.u.8.7.| ' / W T Y U Y Y T ~ J c.L.2 0 c X.,.X.o.u.m.J.I.J.U.g.=.c.M.c.",
"n.u.M.+.e s T 6.g.G.L.).2.,.w.J.m.r.8.#.[ M.l.d Y [ 8.u.g.g.g.u.r.8.8.-.[ ] / / ' / ' T n.L.6 s M H X.X. .8.c.J.J.J.I.m.@.c.M.l.",
"m.u.M.+.e i U -.B.{.;X{.2.O.d.u.8.8.-.#.' L.n.d ~ #.s.c.c.m.c.c.d.u.u.8.8.-.#.#.#.-.#./ M.Y.6 l Y /  .$.,._.).Z.G.J.J.c.+.l.M.l.",
"c.r.M.+.5 0 J ].-X,XwX,X,.( ' ' [ #.#.#.| U.M.t ~ 8.j.G.M.G.G.G.F.c.g.g.q.u.r.8.8.8.8.[ M.T.7 b / 8.7.z.:X-X-X).].G.I.g.o.l.M.l.",
"c.w.N.+.3 i ].1.-X,X,X-X,.s x Y [ #.-.7.8.U.M.t W u.F.J.J.J.J.G.M.G.c.g.j.g.d.d.u.u.s.-.M.T.9 F -.s.j.].wX,X:X[.z.[.L.c.o.l.M.l.",
"c.w.M.+.: 7 ! e.;X;X:X{.h 4 M ] 7.w.8.u.g.T.N.7 ~ g.J.J.J.J.J.J.m.m.m.m.m.g.g.d.g.g.g.8.M.Y.6 U 6.g.c.i.>X,X-X-Xe.8.F.d.o.i.n.l.",
"m.w.C.=.1 s C [..X}.-X,.; i ~ ;.w.w.u.r.u.T.L.2 ! d.m.m.g.c.i.i.i.i.u.y.w.w.w.u.d.i.w.-.c.Y.4 N [ 8.r.6.b.+X{.(.[.-.u.8.K y.n.c.",
"g./ -.c.L.T. Xz.:X=X`.@.V.P.Y.Y.Z.P.Z.Z.Y.V.i.C.L.P.C.Z.Z.C.C.C.C.C.C.n.V.V.B.B.B.B.B.l.C.n.x.n.n.V.B.n.k.`.].'.`.z.V.n.n.c.=.-.",
"m.~ g.N.M.U.].1.2.).1.y.L.L.L.L.L.L.C.V.V.T.M.C.C.C.C.C.C.V.C.C.C.C.C.C.L.C.C.C.C.C.C.M.C.V.V.C.C.C.V.V.M.).z.(.z.z.c.l.l.n.:.u.",
"c.8.M.( % 1 S 1.$.%.Z x l l x l v b v b b J.c.+ 1 0 j b v N B B b N b N N N v b l s %XF 7 s s l k l b x k n O.1.%.c 9 1 ; w.M.c.",
"g.r.M.( % 4 l ! Y U U B B C J J Y T W / W L.c.% 6 v J T / / ' ' / / / / ~ ~ ~ T Y B *XJ s B C J J F U T T U F P P s i 9 t y.n.i.",
"g.r.M.( ; 9 B ~ | -.| ' ~ [ #.-.-.8.7.r.8.L.c.; s T | 8.r.u.u.s.u.u.r.r.q.8.r.8.8.[ %XK N ~ [ -.-.#.-.-.8.8.-.[ T C N v n w.c.i.",
"g.w.n.( : i T #.q.j.s.q.8.q.u.d.g.g.j.m.j.U.m.2 l ] q.j.c.F.F.J.K.J.F.m.J.F.F.G.m.8.%XK F 6.u.j.g.g.j.c.j.m.j.u.q.[ ] W K y.c.i.",
"c.w.n.( : i W 7.d.F.F.m.m.m.F.J.J.J.J.K.K.Q.m.1 v | g.F.J.K.U.K.Q.U.U.Q.K.U.K.U.U.d.%XK J q.c.J.K.J.K.K.J.J.K.J.m.s.u.8.! i.c.i."
};
