/* XPM */
static char *player_up_stand[] = {
/* columns rows colors chars-per-pixel */
"64 64 112 2 ",
"   c None",
".  c #3A5E6D",
"X  c gray28",
"o  c #494949",
"O  c #464D50",
"+  c #435157",
"@  c #40555F",
"#  c #4B8A7F",
"$  c #FDC900",
"%  c #FCCA00",
"&  c #FDCA00",
"*  c #FECB00",
"=  c #FFCC00",
"-  c #FFCC02",
";  c #FFCD05",
":  c #FFCD08",
">  c #FFCE0B",
",  c #FECD0F",
"<  c #FFCE0E",
"1  c #FFCF11",
"2  c #FCCC12",
"3  c #FFCF14",
"4  c #FFD017",
"5  c #FFD119",
"6  c #FFD11C",
"7  c #FFD21F",
"8  c #FED123",
"9  c #FFD222",
"0  c #FFD325",
"q  c #FFD328",
"w  c #FFD42B",
"e  c #FDD12C",
"r  c #FDD22D",
"t  c #FFD52E",
"y  c #E1C83B",
"u  c #A5AF56",
"i  c #86A26C",
"p  c #C3BC49",
"a  c #1E7793",
"s  c #10719A",
"d  c #10729C",
"f  c #11749E",
"g  c #2B6F8A",
"h  c #2E6F8B",
"j  c #316B84",
"k  c #287393",
"l  c #2B7492",
"z  c #1176A0",
"x  c #1278A3",
"c  c #137BA7",
"v  c #137DAA",
"b  c #147FA9",
"n  c #147EAB",
"m  c #147FAB",
"M  c #157FAB",
"N  c #167FAA",
"B  c #167FAB",
"V  c #147FAC",
"C  c #257CA1",
"Z  c #3C8385",
"A  c #1680AD",
"S  c #1581AE",
"D  c #1680AE",
"F  c #1583B1",
"G  c #1682B0",
"H  c #1683B1",
"J  c #1684B3",
"K  c #1586B4",
"L  c #1786B4",
"P  c #1686B5",
"I  c #1787B5",
"U  c #1787B6",
"Y  c #1B87B4",
"T  c #1788B8",
"R  c #178ABA",
"E  c #178CBD",
"W  c #1889B9",
"Q  c #188ABA",
"!  c #188CBC",
"~  c #198CBC",
"^  c #188DBD",
"/  c #198DBE",
"(  c #198EBF",
")  c #2281A8",
"_  c #258AB3",
"`  c #2793BF",
"'  c #3595BC",
"]  c #568EA1",
"[  c #4191B0",
"{  c #60A7BF",
"}  c #73ABBF",
"|  c #7DB1C0",
" . c #A0AD80",
".. c #ACB292",
"X. c #81A5AD",
"o. c #8AAFB7",
"O. c #99B4B8",
"+. c #AAB0AA",
"@. c #B8B7AC",
"#. c #E2C9A9",
"$. c #F0CFB3",
"%. c #9ABBC0",
"&. c #A8C0C0",
"*. c #B7C5C1",
"=. c #E2D4C1",
"-. c #F0D8C0",
";. c #F0D9C1",
":. c #FCDBC0",
">. c #FDDBC0",
",. c #FEDCC0",
"<. c #FEDDC0",
"1. c #FFDEC2",
/* pixels */
"                                                                                                                                ",
"                                                                                                                                ",
"                                                          e e e e                                                               ",
"                                                        , e e e e 9                                                             ",
"                                                * * * * 3 e e e e e * * * *                                                     ",
"                                          * * * * * * * 4 e e e e e * * * * * * * *                                             ",
"                                        * * * * * * * * 9 e e e e e , * * * * * * *                                             ",
"                                      * * * * * * * * * e e e e e e 4 * * * * * * * *                                           ",
"                                    * * * * * * * * * * e e e e e e 4 * * * * * * * * *                                         ",
"                                    * * * * * * * * * , e e e e e e 9 * * * * * * * * * *                                       ",
"                                  * * * * * * * * * * 4 e e e e e e e * * * * * * * * * * *                                     ",
"                                * * * * * * * * * * * 4 e e e e e e e * * * * * * * * * * *                                     ",
"                                * * * * * * * * * * * 9 e e e e e e e , * * * * * * * * * * *                                   ",
"                              * * * * * * * * * * * * e e e e e e e e 4 * * * * * * * * * * *                                   ",
"                              * * * * * * * * * * * * e e e e e e e e 5 * * * * * * * * * * * *                                 ",
"                            * * * * * * * * * * * * < e e e e e e e e 9 * * * * * * * * * * * *                                 ",
"                            * * * * * * * * * * * * 4 e e e e e e e e e * * * * * * * * * * * * *                               ",
"                            * * * * * * * * * * * * 9 e e e e e e e e e < * * * * * * * * * * * *                               ",
"                            * * * * * * * * * * * * e e e e e e e e e e 5 * * * * * * * * * * * *                               ",
"                          * * * * * * * * * * * * , e e e e e e e e e e 9 * * * * * * * * * * * *                               ",
"                          * * * * * * * * * * * * 4 e e e e e e e e e e e * * * * * * * * * * * *                               ",
"                          * * * * * * * * * * * * 9 e e e e e e e e e e e , * * * * * * * * * * *                               ",
"                          * * * * * * * * * * * * e e e e e e e e e e e e 4 * * * * * * * * * * *                               ",
"                          * * * * * * * * * * * < e e e e e e e e e e e e 9 * * * * * * * * * * *                               ",
"                          * * * * * * * * * * * 5 e e e e e e e e e e e e e * * * * * * * * * * *                               ",
"                          * * * * * * * * * * * 9 e e e e e e e e e e e e e < * * * * * * * * * *                               ",
"                          * * * * * * * * * * * e e e e e e e e e e e e e e 5 * * * * * * * * * *                               ",
"                          * * * * * * * * * * 4 e e e e e e e e e e e e e e e * * * * * * * * * *                               ",
"                            * * * * * * * * * 5 e e e e e e e e e e e e e e e , * * * * * * * * *                               ",
"                            * * * * * * * * * e e e e e e e e e e e e e e e e 5 * * * * * * * *                                 ",
"                              * * * * * * * 4 e e e e e e e e e e e e e e e e e * * * * * * * *                                 ",
"                              * * * * * * * 9 e e e e e e e e e e e e e e e e e , * * * * * *                                   ",
"                                * * * * * * e e e e e e e e e e e e e e e e e e 5 * * * * * *                                   ",
"                                  * * * * 4 e e e e e e e e e e e e e e e e e e e * * * * *                                     ",
"                                    * * * e e e e e e e e e e e e e e e e e e e e 4 * * *                                       ",
"                                      * 3 e e e e e e e e e e e e e e e e e e e e e *                                           ",
"                                        +.@...i p e e e e e e e e e e e e y u  .#.$.                                            ",
"                                      E P x s s s s a Z # # # # Z Z Z Z s s s s s ] X.                                          ",
"                                      ( ( ( E x s s s s s s s s s s s s s s s s b ( ( E                                         ",
"                                  b P ( ( ( ( ( ( ( A b x x x x x x x x x A P ( ( ( ( ( P                                       ",
"                                b A ( ( ( ( ( ( ( ( ( ( ( ( ( ( ( ( ( ( ( ( ( ( ( ( ( ( ( b                                     ",
"                                A A ( ( ( ( ( ( ( ( ( ( ( ( ( ( ( ( ( ( ( ( ( ( ( ( ( ( ( A                                     ",
"                                b P ( ( ( ( ( ( ( ( ( ( ( ( ( ( ( ( ( ( ( ( ( ( ( ( ( ( ( P                                     ",
"                              b A E ( ( ( ( ( ( ( ( ( ( ( ( ( ( ( ( ( ( ( ( ( ( ( ( ( ( ( P b                                   ",
"                              A A ( ( ( ( ( ( ( ( ( ( ( ( ( ( ( ( ( ( ( ( ( ( ( ( ( ( ( ( P b                                   ",
"                              A A ( ( ( ( ( ( ( ( ( ( ( ( ( ( ( ( ( ( ( ( ( ( ( ( ( ( ( ( P A                                   ",
"                              A A ( ( ( ( ( ( ( ( ( ( ( ( ( ( ( ( ( ( ( ( ( ( ( ( ( ( ( ( A A                                   ",
"                              A A P ( ( ( ( ( ( ( ( ( ( ( ( ( ( ( ( ( ( ( ( ( ( ( ( ( ( ( b A                                   ",
"                              b A _ ( ( ( ( ( ( E ( ( ( ( ( ( ( ( ( ( ( ( E ( ( ( ( ( ( ' A b                                   ",
"                              b [ 1.` ( ( ( ( ( s s P ( ( ( ( ( ( ( E P s s ( ( ( ( ( ( &.o.b                                   ",
"                                O.1.| ( ( ( ( ( s s s s s b ( ( x s s s s s ( ( ( ( ( ( -.-.                                    ",
"                                -.1.=.` ( ( ( ( s s s s s b ( ( b s s s s s ( ( ( ( ( | 1.1.                                    ",
"                                1.1.1.%.( ( ( ( s s s s s P ( ( A s s s s x ( ( ( ( ` -.1.1.                                    ",
"                                1.1.1.1.{ ( ( ( x s s s s E ( ( P s s s s A ( ( ( ( *.1.1.1.                                    ",
"                                  1.1.1.1.( ( ( P s s s s ( ( ( ( s s s s E ( ( ( } 1.1.1.                                      ",
"                                            E ( ( z s s A ( ( ( ( x s s b ( ( (                                                 ",
"                                              g ( ( ( ( ( ( ( ( ( ( ( ( ( ( l                                                   ",
"                                              o + l ( ( ( ( ( ( ( ( ( ( ) . o                                                   ",
"                                            o o o o O . j C Y Y C C g @ o o o o                                                 ",
"                                            o o o o o o o o     o o o o o o o o                                                 ",
"                                            X o o o o o o o     o o o o o o o X                                                 ",
"                                              X o o o o X         X X o o o X                                                   ",
"                                                                                                                                ",
"                                                                                                                                "
};
