/* XPM */
static char *player_down_stand[] = {
/* columns rows colors chars-per-pixel */
"64 64 165 2 ",
"   c None",
".  c gray24",
"X  c #5A5231",
"o  c #3A5E6D",
"O  c #34677C",
"+  c gray28",
"@  c #494745",
"#  c #494949",
"$  c #55514D",
"%  c #464D50",
"&  c #615B55",
"*  c #6D655E",
"=  c #8B751E",
"-  c #85796E",
";  c #B2910F",
":  c #A88A13",
">  c #A3892F",
",  c #CFA603",
"<  c #D5AB00",
"1  c #D7AB00",
"2  c #D7AC00",
"3  c #D8AA00",
"4  c #D8AB00",
"5  c #D9AD00",
"6  c #DBAE00",
"7  c #DDB000",
"8  c #DBB00C",
"9  c #DDB318",
"0  c #E0B100",
"q  c #E0B200",
"w  c #E2B400",
"e  c #E4B500",
"r  c #E7B800",
"t  c #E9BA00",
"y  c #ECBC00",
"u  c #EEBE00",
"i  c #E0B624",
"p  c #E2B930",
"a  c #E4BC3F",
"s  c #F5C400",
"d  c #F7C600",
"f  c #FAC800",
"g  c #FDC900",
"h  c #FCCA00",
"j  c #FDCA00",
"k  c #FECB00",
"l  c #FFCC00",
"z  c #FFCD05",
"x  c #FFCD08",
"c  c #FFCE0B",
"v  c #FFCE0E",
"b  c #ECC014",
"n  c #ECC117",
"m  c #FFCF11",
"M  c #FFCF14",
"N  c #FFD017",
"B  c #FFD11C",
"V  c #FFD21F",
"C  c #F5CB22",
"Z  c #F7CD25",
"A  c #FED022",
"S  c #FFD222",
"D  c #FFD325",
"F  c #FFD328",
"G  c #FDD32B",
"H  c #FFD42B",
"J  c #FDD12C",
"K  c #FFD52E",
"L  c #AC955F",
"P  c #918377",
"I  c #9E8D7F",
"U  c #C7A748",
"Y  c #D3B150",
"T  c #ECC561",
"R  c #F0CB79",
"E  c #316B84",
"W  c #2B7492",
"Q  c #28789A",
"!  c #147FA9",
"~  c #147EAB",
"^  c #147FAB",
"/  c #167FAA",
"(  c #167FAB",
")  c #147FAC",
"_  c #1680AD",
"`  c #1680AE",
"'  c #1682B0",
"]  c #1683B1",
"[  c #1785B3",
"{  c #1786B4",
"}  c #1787B6",
"|  c #1787B7",
" . c #1788B5",
".. c #1688B6",
"X. c #1C89B7",
"o. c #168BBD",
"O. c #178BBD",
"+. c #1889B9",
"@. c #188ABA",
"#. c #188BBB",
"$. c #188CBC",
"%. c #198CBC",
"&. c #188DBD",
"*. c #198EBF",
"=. c #2485AE",
"-. c #258CB6",
";. c #2690BB",
":. c #2793BF",
">. c #3595BC",
",. c #3598BF",
"<. c #4191B0",
"1. c #449DBF",
"2. c #4E9BB8",
"3. c #5E9DB3",
"4. c #52A2BF",
"5. c #60A7BF",
"6. c #7BA9B6",
"7. c #77ADBD",
"8. c #7FADBA",
"9. c #6FACC0",
"0. c #7DB1C0",
"q. c #AA9787",
"w. c #B6A190",
"e. c #8AAFB7",
"r. c #93AEB1",
"t. c #8AB4BE",
"y. c #A7BABA",
"u. c #C2AB98",
"i. c #CEB5A0",
"p. c #DABFA9",
"a. c #F2CF8D",
"s. c #F5D191",
"d. c #F4D19A",
"f. c #F7D49D",
"g. c #C4C6BC",
"h. c #D9CBB9",
"j. c #DACCBA",
"k. c #E6C9B1",
"l. c #F0CFB3",
"z. c #EED7BF",
"x. c #F1D0B4",
"c. c #F2D1B5",
"v. c #F3D2B6",
"b. c #F4D3B7",
"n. c #FCDAB5",
"m. c #F2D3B9",
"M. c #F5D4B8",
"N. c #F7D6BA",
"B. c #F9D8BC",
"V. c #FCDBBF",
"C. c #8CB6C0",
"Z. c #9ABBC0",
"A. c #A8C0C0",
"S. c #C5CAC1",
"D. c #D3CFC1",
"F. c #DFD1C0",
"G. c #E2D4C1",
"H. c #F0D8C0",
"J. c #F0D9C1",
"K. c #FDDBC0",
"L. c #FDDCC0",
"P. c #FEDCC0",
"I. c #FEDDC0",
"U. c #FEDDC1",
"Y. c #FFDEC2",
/* pixels */
"                                                                                                                                ",
"                                                                                                                                ",
"                                                          J J J J                                                               ",
"                                                        J J J J J D                                                             ",
"                                                g g g x J J J J J N g g g g                                                     ",
"                                        g g g g g g g c J J J J J D g g g g g g g                                               ",
"                                        g g g g g g g N J J J J J J g g g g g g g g                                             ",
"                                      g g g g g g g g N J J J J J J g g g g g g g g g                                           ",
"                                    g g g g g g g g g N J J J J J J c g g g g g g g g g                                         ",
"                                  g g g g g g g g g g D J J J J J J c g g g g g g g g g                                         ",
"                                g g g g g g g g g g g J J J J J J J N g g g g g g g g g g                                       ",
"                                g g g g g g g g g g g J J J J J J J D g g g g g g g g g g g                                     ",
"                              g g g g g g g g g g g c J J J J J J J J g g g g g g g g g g g                                     ",
"                              g g g g g g g g g g g N J J J J J J J J g g g g g g g g g g g g                                   ",
"                            g g g g g g g g g g g g N J J J J J J J J c g g g g g g g g g g g                                   ",
"                            g g g g g g g g g g g g D J J J J J J J J N g g g g g g g g g g g                                   ",
"                            g g g g g g g g g g g g J J J J J J J J J D g g g g g g g g g g g g                                 ",
"                            g g g g g g g g g g g x J J J J J J J J J J g g g g g g g g g g g g                                 ",
"                            g g g g g g g g g g g N J J J J J J J J J J g g g g g g g g g g g g                                 ",
"                          g g g g g g g g g g g g N J J J J J J J J J J N g g g g g g g g g g g                                 ",
"                          g g g g g g g g g g g g J J J J J J J J J J J N g g g g g g g g g g g                                 ",
"                          g g g g g g g g g g g g J J C C C n n b b b b b d d g g g g g g g g g g                               ",
"                          g g g g g g g g t r w w 5 5 5 5 5 5 5 5 5 5 5 5 5 5 5 w s d g g g g g g                               ",
"                          g g g g g t 7 5 5 5 5 5 5 5 5 5 5 5 5 5 5 5 5 5 5 5 5 5 5 5 w t g g g g                               ",
"                          g g d w 5 5 5 5 5 5 5 , ; : > T T T T T Y = : ; 5 5 5 5 5 5 5 5 5 t g g                               ",
"                          g t 5 5 5 5 5 5 i U X . . . * Y.Y.Y.Y.Y.q.. . . . L T i 5 5 5 5 5 5 r g                               ",
"                          w 5 5 5 5 5 8 s.Y.w.. . . . . Y.Y.Y.Y.Y.- . . . . * Y.Y.s.i 5 5 5 5 5 w                               ",
"                          5 5 5 5 5 i f.Y.Y.I . . . . . Y.Y.Y.Y.Y.* . . . . * Y.Y.Y.n.i 5 5 5 5 1                               ",
"                          5 5 5 5 9 n.Y.Y.Y.I . . . . . i.Y.Y.Y.Y.* . . . . . Y.Y.Y.Y.Y.p 5 5 5 5                               ",
"                          5 5 5 5 R Y.Y.Y.Y.I . . . . . i.Y.Y.Y.Y.* . . . . . Y.Y.Y.Y.Y.f.5 5 5 5                               ",
"                            1 5 5 s.Y.Y.Y.Y.I . . . . . i.Y.Y.Y.Y.* . . . . . Y.Y.Y.Y.Y.Y.5 5 5 5                               ",
"                              1 5 a.Y.Y.Y.Y.u.. . . . . m.Y.Y.Y.Y.P . . . . & Y.Y.Y.Y.Y.f.5 1                                   ",
"                                  a Y.Y.Y.Y.k.. . . . $ Y.Y.Y.Y.Y.w.. . . . - Y.Y.Y.Y.Y.                                        ",
"                                    Y.Y.Y.Y.Y.* . . . P Y.Y.Y.Y.Y.m.@ . . . u.Y.Y.Y.Y.Y.                                        ",
"                                      Y.Y.Y.Y.k.. . @ m.Y.Y.Y.Y.Y.Y.w.. . - Y.Y.Y.Y.Y.                                          ",
"                                      8.Y.Y.Y.Y.u.I p.Y.Y.Y.Y.Y.Y.Y.Y.q.I m.Y.Y.Y.Y.7.                                          ",
"                                      *.r.Y.Y.Y.Y.Y.Y.Y.Y.Y.Y.Y.Y.Y.Y.Y.Y.Y.Y.Y.Y.5.*.                                          ",
"                                    ..*.2.v.Y.Y.Y.Y.Y.Y.Y.Y.Y.Y.Y.Y.Y.Y.Y.Y.Y.Y.j.*.*...                                        ",
"                                  _ _ _ *.j.v.B.Y.Y.Y.Y.Y.Y.Y.Y.Y.Y.Y.Y.Y.Y.B.v.t.[ _ _ ~                                       ",
"                                _ _ _ _ _ 9.m.l.v.B.Y.Y.Y.Y.Y.Y.Y.Y.Y.Y.B.v.v.z.:._ _ _ _ ~                                     ",
"                              ~ _ _ _ _ _ *.D.B.l.l.l.v.m.m.m.m.m.m.v.l.l.m.Y.0.[ _ _ _ _ _                                     ",
"                              ~ _ _ _ _ _ [ ,.J.Y.m.l.l.l.l.l.l.l.l.l.v.Y.Y.A.*._ _ _ _ _ _                                     ",
"                              _ _ _ _ _ _ [ *.:.D.Y.Y.B.v.v.v.v.v.B.B.Y.Y.C.*.*._ _ _ _ _ _ ~                                   ",
"                              _ _ _ _ _ _ _ *.*.*.0.J.Y.Y.Y.Y.Y.Y.Y.Y.G.4.*.*.[ _ _ _ _ _ _ ~                                   ",
"                              _ _ _ _ _ _ _ *.*.*.*.:.4.Z.S.S.S.S.0.4.*.*.*.*.[ _ _ _ _ _ _ ~                                   ",
"                              _ _ _ _ _ _ _ *.*.*.*.*.*.*.*.*.*.*.*.*.*.*.*.*.[ _ _ _ _ _ _ ~                                   ",
"                              _ _ _ _ _ _ _ *.*.*.*.*.*.*.*.*.*.*.*.*.*.*.*.*.[ _ _ _ _ _ _ ~                                   ",
"                              _ _ 6.e.e.=.[ *.*.*.*.*.*.*.*.*.*.*.*.*.*.*.*.*.*._ <.e.e.e.=.                                    ",
"                              ~ 3.Y.Y.Y.y.[ *.*.*.*.*.*.*.*.*.*.*.*.*.*.*.*.*.*._ y.Y.Y.Y.e.                                    ",
"                                g.Y.Y.Y.Y.>.*.*.*.*.*.*.*.*.*.*.*.*.*.*.*.*.*.*.-.J.Y.Y.Y.J.                                    ",
"                                Y.Y.Y.Y.Y.4.*.*.*.*.*.*.*.*.*.*.*.*.*.*.*.*.*.*.9.Y.Y.Y.Y.Y.                                    ",
"                                Y.Y.Y.Y.Y.1.*.*.*.*.*.*.*.*.*.*.*.*.*.*.*.*.*.*.9.Y.Y.Y.Y.Y.                                    ",
"                                Y.Y.Y.Y.F.*.*.*.*.*.*.*.*.*.*.*.*.*.*.*.*.*.*.*.*.D.Y.Y.Y.Y.                                    ",
"                                  Y.Y.Y.  o.*.*.*.*.*.*.*.*.*.*.*.*.*.*.*.*.*.*.*.  Y.Y.Y.                                      ",
"                                            o.Q % # # # o X.*.*.*.E # # # % Q o.                                                ",
"                                              # # # # # # O *.*.W # # # # # #                                                   ",
"                                            + # # # # # # # X.X.% # # # # # # +                                                 ",
"                                            # # # # # # # #     # # # # # # # #                                                 ",
"                                            # # # # # # # #     # # # # # # # #                                                 ",
"                                            + # # # # # # #     # # # # # # # +                                                 ",
"                                                                                                                                ",
"                                                                                                                                ",
"                                                                                                                                ",
"                                                                                                                                "
};
