/* XPM */
static char *player_up_stand[] = {
/* columns rows colors chars-per-pixel */
"64 64 117 2 ",
"   c #3A5E6D",
".  c #494949",
"X  c #4C5846",
"o  c #4B5248",
"O  c #464D50",
"+  c #435157",
"@  c #40555F",
"#  c #4F6147",
"$  c #506645",
"%  c #526D44",
"&  c #577D42",
"*  c #5E9539",
"=  c #62973E",
"-  c #659F3E",
";  c #73A13C",
":  c #598241",
">  c #5C8B40",
",  c #5D984E",
"<  c #5F9B53",
"1  c #5F9C58",
"2  c #629D4A",
"3  c #6E994A",
"4  c #599A6F",
"5  c #4B8A7F",
"6  c #4E927C",
"7  c #529475",
"8  c #54967F",
"9  c #83A43A",
"0  c #9DAB36",
"q  c #90A838",
"w  c #9DAD3A",
"e  c #BCB32E",
"r  c #A8AD33",
"t  c #B2B031",
"y  c #C4B72B",
"u  c #CDB828",
"i  c #D4BB25",
"p  c #DDBF21",
"a  c #CDBE35",
"s  c #FFCC00",
"d  c #FFCE0B",
"f  c #E3C01D",
"g  c #E9C318",
"h  c #F0C512",
"j  c #FFCF14",
"k  c #FFD017",
"l  c #FFD21F",
"z  c #DDC025",
"x  c #F8CE25",
"c  c #FFD222",
"v  c #FFD52E",
"b  c #E3C631",
"n  c #E1C83B",
"m  c #A5AF56",
"M  c #8DA464",
"N  c #86A26C",
"B  c #90AC66",
"V  c #9DB070",
"C  c #AAB27A",
"Z  c #C3BC49",
"A  c #1E7793",
"S  c #10719A",
"D  c #2E6F8B",
"F  c #316B84",
"G  c #367683",
"H  c #347A8C",
"J  c #2B7492",
"K  c #1176A0",
"L  c #1278A3",
"P  c #147FAC",
"I  c #257CA1",
"U  c #3C8385",
"Y  c #378897",
"T  c #3D8A93",
"R  c #31869E",
"E  c #1680AD",
"W  c #1686B5",
"Q  c #178ABA",
"!  c #198EBF",
"~  c #2A84A2",
"^  c #2081A8",
"/  c #2B8AAC",
"(  c #338CA6",
")  c #3290AD",
"_  c #3891A8",
"`  c #258AB3",
"'  c #248EB9",
"]  c #2793BF",
"[  c #3595BC",
"{  c #418C8E",
"}  c #529880",
"|  c #469290",
" . c #6EA79E",
".. c #568EA1",
"X. c #4191B0",
"o. c #60A7BF",
"O. c #7DB1C0",
"+. c #9FAB9C",
"@. c #A0AD80",
"#. c #B2B982",
"$. c #ACB292",
"%. c #81A5AD",
"&. c #8AAFB7",
"*. c #99B4B8",
"=. c #B8B7AC",
"-. c #D4C79F",
";. c #DCCAA5",
":. c #E2C9A9",
">. c #F0CFB3",
",. c #EFD4B6",
"<. c #F8DABB",
"1. c #9ABBC0",
"2. c #A8C0C0",
"3. c #B7C5C1",
"4. c #E2D4C1",
"5. c #F0D8C0",
"6. c #FFDEC2",
/* pixels */
"- - - - - - - - - - - - - - - - - - - - - - - - - - - - - - - - - - - - - - - - - - - - - - - - - - - - - - - - - - - - - - - - ",
"- - - - - - - - - - - - - - - - - - - - - - - - - - - - - - - - - - - - - - - - - - - - - - - - - - - - - - - - - - - - - - - - ",
"- - - - - - - - - - - - - - - - - - - - - - - - - - - - ; a b b b w - - - - - - - - - - - - - - - - - - - - - - - - - - - - - - ",
"- - - - - - - - - - - - - - - - - - - - - - - - - 9 e y z v v v v x y y r - - - - - - - - - - - - - - - - - - - - - - - - - - - ",
"- - - - - - - - - - - - - - - - - - - - - ; 0 0 i s s s j v v v v v s s s d r 0 q - - - - - - - - - - - - - - - - - - - - - - - ",
"- - - - - - - - - - - - - - - - - - - - q h s s s s s s k v v v v v s s s s s s s u - - - - - - - - - - - - - - - - - - - - - - ",
"- - - - - - - - - - - - - - - - - - - - f s s s s s s s c v v v v v d s s s s s s s 0 - - - - - - - - - - - - - - - - - - - - - ",
"- - - - - - - - - - - - - - - - - - - i s s s s s s s s v v v v v v j s s s s s s s d q - - - - - - - - - - - - - - - - - - - - ",
"- - - - - - - - - - - - - - - - - - i s s s s s s s s s v v v v v v k s s s s s s s s d q - - - - - - - - - - - - - - - - - - - ",
"- - - - - - - - - - - - * * - - - e s s s s s s s s s d v v v v v v c s s s s s s s s s h ; - - - - - - - - - - - - - - - - - - ",
"- - - - - - - - - - - - * * * - q s s s s s s s s s s j v v v v v v v s s s s s s s s s s p - - - - * * * - - - - - - - - - - - ",
"- - - - - - - - - - - - * * * - g s s s s s s s s s s k v v v v v v v s s s s s s s s s s s r - - - * * * * - - - - - - - - - - ",
"- - - - - - - - - - - - - - - t s s s s s s s s s s s c v v v v v v v d s s s s s s s s s s h - - - - * * - - - - - - - - - - - ",
"- - - - - - - - - - - - - - - h s s s s s s s s s s s v v v v v v v v j s s s s s s s s s s s t - - - - - - - - - - - - - - - - ",
"- - - - - - - - - - - - - - t s s s s s s s s s s s s v v v v v v v v l s s s s s s s s s s s h - - - - - - - - - - - - - - - - ",
"- - - - - - - - - - - - - - p s s s s s s s s s s s d v v v v v v v v c s s s s s s s s s s s s q - - - - - - - - - - - - - - - ",
"- - - - - - - - - - - - - ; s s s s s s s s s s s s k v v v v v v v v v s s s s s s s s s s s s u - - - - - - - - - - - - - - - ",
"- - - - - - - - - - - - - r s s s s s s s s s s s s c v v v v v v v v v d s s s s s s s s s s s g - - - - - - - - - - - - - - - ",
"- - - - - - - - - - - - - y s s s s s s s s s s s s v v v v v v v v v v k s s s s s s s s s s s s - - - - - - - - - - - - - - - ",
"- - - - - - - - - - - - - f s s s s s s s s s s s d v v v v v v v v v v l s s s s s s s s s s s s 0 - - - - - - - - - - - - - - ",
"- - - - - - - - - - - - - h s s s s s s s s s s s j v v v v v v v v v v v s s s s s s s s s s s s t - - - - - - - - - - - - - - ",
"- - - - - - - - - - - - - s s s s s s s s s s s s l v v v v v v v v v v v s s s s s s s s s s s s y - - - - - - - - - - - - - - ",
"- - - - - - - - - - - - - s s s s s s s s s s s s v v v v v v v v v v v v j s s s s s s s s s s s y - - - - - - - - - - - - - - ",
"- - - - - - - - - - - - - s s s s s s s s s s s d v v v v v v v v v v v v c s s s s s s s s s s s y - - - - - - - - - - - - - - ",
"- - - - - - - - - - - - - s s s s s s s s s s s k v v v v v v v v v v v v v s s s s s s s s s s s y - - - - - - - - - - - - - - ",
"- - - - - - - - - - - - - s s s s s s s s s s s c v v v v v v v v v v v v v d s s s s s s s s s s e - - - - - - - - - - - - - - ",
"- - - - - - - - - - - - - g s s s s s s s s s s v v v v v v v v v v v v v v l s s s s s s s s s s 0 - - - - - - - - - - - - - - ",
"- - - - - - - - - - - - - f s s s s s s s s s j v v v v v v v v v v v v v v v s s s s s s s s s s ; - - - - - - - - - - - - - - ",
"- - - - - - - - - - - - - e s s s s s s s s s l v v v v v v v v v v v v v v v d s s s s s s s s g - - - - - - - - - - - - - - - ",
"- - - - - - - - - - - - - ; d s s s s s s s s v v v v v v v v v v v v v v v v l s s s s s s s s t - - - - - - - - - - - - - - - ",
"- - - - - - - - - - - - - - y s s s s s s s j v v v v v v v v v v v v v v v v v s s s s s s s h - - - - - - - - - - - - - - - - ",
"- - - - - - - - - - - - - - ; d s s s s s s l v v v v v v v v v v v v v v v v v d s s s s s s t - - - - - - - - - - - - - - - - ",
"- - - - - - - - - - - - - - - 0 s s s s s s v v v v v v v v v v v v v v v v v v l s s s s s p - - - - - - - - - - - - - - - - - ",
"- - - - - - - - - - - - - - - - t s s s s k v v v v v v v v v v v v v v v v v v v s s s s d ; - - - - - - - - - - - - - - - - - ",
"- - - - - - - - - - - - - - - - - t s s s v v v v v v v v v v v v v v v v v v v v j s s h q - - - - - - - - - - - - - - - - - - ",
"- - - - - - - - - - - - - - - - - - 9 i g v v v v v v v v v v v v v v v v v v v v v f y - - - - - - - - - - - - - - - - - - - - ",
"- - - - - - - - - - - - - - - - - - - , +.=.$.N Z v v v v v v v v v v v v n m @.:.>.C - - - - - - - - - - - - - - - - - - - - - ",
"- - - - - - - - - - - - - - - - - - - _ W L S S S S A 5 5 5 5 5 5 5 5 U S S S S S ..%.4 - - - - - - - - - - - - - - - - - - - - ",
"- - - - - - - - - - - - - - - - - - 4 ! ! ! Q L S S S S S S S S S S S S S S S S P ! ! _ - - - - - - - - - - - - - - - - - - - - ",
"- - - - - - - - - - - - - - - - 2 { / ! ! ! ! ! ! Q E L L L L L L L L L L P W ! ! ! ! ! | - - - - - - - - - - - - - - - - - - - ",
"- - - - - - * * - - - - - - - - T E ! ! ! ! ! ! ! ! ! ! ! ! ! ! ! ! ! ! ! ! ! ! ! ! ! ! ! { - - - - - - - - - - - - - - - - - - ",
"- - - - - - - * - - - - - - - < E E ! ! ! ! ! ! ! ! ! ! ! ! ! ! ! ! ! ! ! ! ! ! ! ! ! ! ! E < - - - - - - - - - - - - - - - - - ",
"- - - - - - - - - - - - - - - 6 P W ! ! ! ! ! ! ! ! ! ! ! ! ! ! ! ! ! ! ! ! ! ! ! ! ! ! ! W 6 - - - - - - - - - - - - - - - - - ",
"- - - - - - - - - - - - - - - Y E Q ! ! ! ! ! ! ! ! ! ! ! ! ! ! ! ! ! ! ! ! ! ! ! ! ! ! ! W Y - - - - - - - - - - - - - - - - - ",
"- - - - - - - - - - - - - - - E E ! ! ! ! ! ! ! ! ! ! ! ! ! ! ! ! ! ! ! ! ! ! ! ! ! ! ! ! W ^ - - - - - - - - - - - - - - - - - ",
"- - - - - - - - - - - - - - - E E ! ! ! ! ! ! ! ! ! ! ! ! ! ! ! ! ! ! ! ! ! ! ! ! ! ! ! ! W E - - - - - - - - - - - - - - - - - ",
"- - - - - - - - - - - - - - - E E ! ! ! ! ! ! ! ! ! ! ! ! ! ! ! ! ! ! ! ! ! ! ! ! ! ! ! ! E E - - - - - - - - - - - - - - - - - ",
"- - - - - - - - - - - - - - - E E W ! ! ! ! ! ! ! ! ! ! ! ! ! ! ! ! ! ! ! ! ! ! ! ! ! ! ! P E - - - - - - - - - - - - - - - - - ",
"- - - - - - - - - - - - - - - R E ` ! ! ! ! ! ! Q ! ! ! ! ! ! ! ! ! ! ! ! Q ! ! ! ! ! ! [ E ~ - - - - - - - - - - - - - - - - - ",
"- - - - - - - - - - - - - - - T X.6.] ! ! ! ! ! S S W ! ! ! ! ! ! ! Q W S S ! ! ! ! ! ! 2.&.Y - - - - - - - - - - - - - - - - - ",
"- - - - - - - - - - - - - - - 7 *.6.O.! ! ! ! ! S S S S S P ! ! L S S S S S ! ! ! ! ! ! 5.5.8 - - - - - - - - - - - - - - - - - ",
"- - - - - - - - - - - - - - - - 5.6.4.] ! ! ! ! S S S S S P ! ! P S S S S S ! ! ! ! ! O.6.6.V - - - - - - - - - - - - - - - - - ",
"- - - - - - - - - - - - - - - - 6.6.6.1.! ! ! ! S S S S S W ! ! E S S S S L ! ! ! ! ] 5.6.6.V - - - - - - - - - - - - - - - - - ",
"- - - - - - - - - - - - - - - * ;.6.6.6.o.! ! ! L S S S S Q ! ! W S S S S E ! ! ! ! 3.6.6.<.- - - - - - - - - - - - - - - - - - ",
"- - - - - - - - - - - - - * * * M ,.6.6.-.) ! ! W S S S S ! ! ! ! S S S S Q ! ! !  .6.6.6.#.- - - - - * * * - - - - - - - - - - ",
"- - - - - - - - - - - - * * * * * 3 V V - 2 _ ! ! K S S E ! ! ! ! L S S P ! ! ' } - B V B - - - - - * * * * * - - - - - - - - - ",
"- - - - - - - - - - - - * * * * * * - - - - - G ! ! ! ! ! ! ! ! ! ! ! ! ! ! H 1 - - - - - - - - - - * * * * * - - - - - - - - - ",
"- - - - - - - - - - - - - * * * * - - - - - & . + J ! ! ! ! ! ! ! ! ! ! ^   . & - - - - - - - - - - - * * * - - - - - - - - - - ",
"- - - - - - - - - - - - - - * * - - - - - - o . . . O   F I ( ( I I D @ . . . o - - - - - - - - - - - - - - - - - - - - - - - - ",
"- - - - - - - - - - - - - - - - - - - - - - . . . . . . . . > > . . . . . . . . - - - - - - - - - - - - - - - - - - - - - - - - ",
"- - - - - - - - - - - - - - - - - - - - - - X . . . . . . . = = . . . . . . . X - - - - - - - - - - - - - - - - - - - - - - - - ",
"- - - - - - - - - - - - - - - - - - - - - - > % # . . . X : - - : $ X . . . $ > - - - - - - - - - - - - - - - - - - - - - - - - ",
"- - - - - - - - - - - - - - - - - - - - - - - - - - - - - - - - - - - - - - - - - - - - - - - - - - - - - - - - - - - - - - - - ",
"- - - - - - - - - - - - - - - - - - - - - - - - - - - - - - - - - - - - - - - - - - - - - - - - - - - - - - - - - - - - - - - - "
};
