/* XPM */
static char *player_left_walk[] = {
/* columns rows colors chars-per-pixel */
"64 64 164 2 ",
"   c gray24",
".  c #554E35",
"X  c #4E6F3C",
"o  c #567F3E",
"O  c #3D5A66",
"+  c #235A71",
"@  c #376275",
"#  c #34677C",
"$  c #494745",
"%  c #494949",
"&  c #4C5846",
"*  c #4B5248",
"=  c #464D50",
"-  c #615B55",
";  c #4F6147",
":  c #4C644D",
">  c #506645",
",  c #526D44",
"<  c #537640",
"1  c #567843",
"2  c #6D655E",
"3  c #796F66",
"4  c #857226",
"5  c #917B22",
"6  c #5A8B3C",
"7  c #5E9539",
"8  c #62973E",
"9  c #659F3E",
"0  c #709D39",
"q  c #73A13C",
"w  c #7AA03A",
"e  c #5B8741",
"r  c #5C8B40",
"t  c #5F9C58",
"y  c #629C45",
"u  c #7F9F58",
"i  c #73A24D",
"p  c #599A6F",
"a  c #569978",
"s  c #B69616",
"d  c #949A2E",
"f  c #83A63B",
"g  c #9DA331",
"h  c #9DAB36",
"j  c #90A93A",
"k  c #A3A42E",
"l  c #AAA52B",
"z  c #B7A725",
"x  c #B1A628",
"c  c #BCB32E",
"v  c #A8B139",
"b  c #B2B031",
"n  c #BAB334",
"m  c #B2B439",
"M  c #D9AD00",
"N  c #DDB205",
"B  c #DAB10B",
"V  c #CBAA12",
"C  c #C8A918",
"Z  c #E9BE14",
"A  c #C4B72B",
"S  c #CDB828",
"D  c #D4BB25",
"F  c #DDBF21",
"G  c #C3B733",
"H  c #C4BB36",
"J  c #CABC33",
"K  c #F7C600",
"L  c #FFCC00",
"P  c #FFCD08",
"I  c #E3C01D",
"U  c #E9C31E",
"Y  c #F5C711",
"T  c #FFCF14",
"R  c #FFD017",
"E  c #FFD11C",
"W  c #D4C233",
"Q  c #DDC532",
"!  c #FFCF24",
"~  c #F8CF2E",
"^  c #FFD325",
"/  c #FFD328",
"(  c #E3C631",
")  c #EFCD30",
"_  c #F0CD30",
"`  c #FFD13C",
"'  c #918377",
"]  c #9E8D7F",
"[  c #9DB070",
"{  c #A8AC78",
"}  c #F2C840",
"|  c #FFD354",
" . c #FFD561",
".. c #FFD66D",
"X. c #FFD779",
"o. c #1B6482",
"O. c #11739D",
"+. c #2E6F8B",
"@. c #2F7A8D",
"#. c #1176A0",
"$. c #147DA9",
"%. c #257CA1",
"&. c #30819B",
"*. c #1680AD",
"=. c #1787B6",
"-. c #1F85B0",
";. c #1C89B7",
":. c #1788B8",
">. c #198EBF",
",. c #2384AD",
"<. c #3E8EAE",
"1. c #3E92A3",
"2. c #3891A8",
"3. c #2B8EB2",
"4. c #248EB9",
"5. c #2793BF",
"6. c #3598BF",
"7. c #4E9788",
"8. c #529880",
"9. c #4A9690",
"0. c #42939D",
"q. c #4888A0",
"w. c #4293B3",
"e. c #5097B2",
"r. c #5E9DB3",
"t. c #52A2BF",
"y. c #60A7BF",
"u. c #7DAFBE",
"i. c #6FACC0",
"p. c #7DB1C0",
"a. c #AA9787",
"s. c #B0B481",
"d. c #B2B982",
"f. c #BCBD8A",
"g. c #8EA5A8",
"h. c #86ABB3",
"j. c #ABAEA7",
"k. c #ABB6B1",
"l. c #A7BABA",
"z. c #CEB5A0",
"x. c #C4C193",
"c. c #CCC198",
"v. c #FFD991",
"b. c #FFDA9D",
"n. c #CAC4A5",
"m. c #DDCBA5",
"M. c #DFCBA8",
"N. c #C7C0B1",
"B. c #C1C2B9",
"V. c #D6C6B2",
"C. c #FFDBA9",
"Z. c #E6C9B1",
"A. c #F0CFB3",
"S. c #F0D5B6",
"D. c #FFDCB5",
"F. c #F2D3B9",
"G. c #FAD9BD",
"H. c #8CB6C0",
"J. c #9ABBC0",
"K. c #B7C5C1",
"L. c #C5CAC1",
"P. c #E2D4C1",
"I. c #F0D9C1",
"U. c #FFDEC2",
/* pixels */
"9 9 9 9 9 9 9 9 9 9 9 9 9 9 9 9 9 9 9 9 9 9 9 9 9 9 9 9 9 9 9 9 9 9 9 9 9 9 9 9 9 9 9 9 9 9 9 9 9 9 9 9 9 9 9 9 9 9 9 9 9 9 9 9 ",
"9 9 9 9 9 9 9 9 9 9 9 9 9 9 9 9 9 9 9 9 9 9 9 9 9 9 9 9 9 9 9 9 9 9 9 9 9 9 9 9 9 9 9 9 9 9 9 9 9 9 9 9 9 9 9 9 9 9 9 9 9 9 9 9 ",
"9 9 9 9 9 9 9 9 9 9 9 9 9 9 9 9 9 9 9 9 9 9 9 9 9 9 9 9 9 9 9 9 9 9 9 9 9 9 9 9 9 9 9 9 9 9 9 9 9 9 9 9 9 9 9 9 9 9 9 9 9 9 9 9 ",
"9 9 9 9 9 9 9 9 9 9 9 9 9 9 9 9 9 9 9 9 9 9 9 9 9 9 9 9 9 7 7 n ( ( ( ( ( ( W m f 9 9 9 9 9 9 9 9 9 9 9 9 9 9 9 9 9 9 9 9 9 9 9 ",
"9 9 9 9 9 9 9 9 9 9 9 9 9 9 9 9 9 9 9 9 9 9 9 9 9 9 9 9 0 G ) / ^ R R R R R E ^ / _ W f 9 9 9 9 9 9 9 9 9 9 9 9 9 9 9 9 9 9 9 9 ",
"9 9 9 9 9 9 9 9 9 9 9 9 9 9 9 9 9 9 9 9 9 9 9 9 9 9 f W ~ / T P L L L L L L L L L P E ~ j 9 9 9 9 9 9 9 9 9 9 9 9 9 9 9 9 9 9 9 ",
"9 9 9 9 9 9 9 9 9 9 9 9 9 9 9 9 9 9 9 9 9 9 9 9 f Q / / T L L L L L L L L L L L L L L L D q 9 9 9 9 9 9 9 9 9 9 9 9 9 9 9 9 9 9 ",
"9 9 9 9 9 9 9 9 9 9 9 9 9 9 9 9 9 9 9 9 9 9 9 j ~ / E L L L L L L L L L L L L L L L L L L Y j 9 9 9 9 9 9 9 9 9 9 9 9 9 9 9 9 9 ",
"9 9 9 9 9 9 9 9 9 9 9 9 9 9 9 9 9 9 9 9 9 9 v ~ / E L L L L L L L L L L L L L L L L L L L L P j 9 9 9 9 9 9 9 9 9 9 9 9 9 9 9 9 ",
"9 9 9 9 9 9 9 9 9 9 9 9 7 7 9 9 9 9 9 9 9 j ~ / E L L L L L L L L L L L L L L L L L L L L L L P f 9 9 9 9 9 9 9 9 9 9 9 9 9 9 9 ",
"9 9 9 9 9 9 9 9 9 9 9 9 7 7 7 9 9 9 9 9 9 ( / T L L L L L L L L L L L L L L L L L L L L L L L L I 9 7 7 7 9 9 9 9 9 9 9 9 9 9 9 ",
"9 9 9 9 9 9 9 9 9 9 9 9 7 7 7 9 9 9 9 9 H / E L L L L L L L L L L L L L L L L L L L L L L L L L L h 7 7 7 7 9 9 9 9 9 9 9 9 9 9 ",
"9 9 9 9 9 9 9 9 9 9 9 9 9 9 9 9 9 9 9 j / E L L L L L L L L L L L L L L L L L L L L L L L L L L L Y 9 7 7 9 9 9 9 9 9 9 9 9 9 9 ",
"9 9 9 9 9 9 9 9 9 9 9 g C M M V w 9 9 ) ^ L L L L L L L L L L L L L L L L L L L L L L L L L L L L L A 9 9 9 9 9 9 9 9 9 9 9 9 9 ",
"9 9 9 9 9 9 9 9 9 9 9 M M M M M M l J / P L L L L L L L L L L L L L L L L L L L L L L L L L L L L L P q 9 9 9 9 9 9 9 9 9 9 9 9 ",
"9 9 9 9 9 9 9 9 9 9 9 x M M M M M N / P L L L L L L L L L L L L L L L L L L L L L L L L L L L L L L L b 9 9 9 9 9 9 9 9 9 9 9 9 ",
"9 9 9 9 9 9 9 9 9 9 9 9 z M M M M Z T L L L L L L L L L L L L L L L L L L L L L L L L L L L L L L L L F 9 9 9 9 9 9 9 9 9 9 9 9 ",
"9 9 9 9 9 9 9 9 9 9 9 9 9 l M M M Y L L L L L L L L L L L L L L L L L L L L L L L L L L L L L L L L L P 9 9 9 9 9 9 9 9 9 9 9 9 ",
"9 9 9 9 9 9 9 9 9 9 9 9 9 9 f C M K L L L L L L L L L L L L L L L L L L L L L L L L L L L L L L L L L L f 9 9 9 9 9 9 9 9 9 9 9 ",
"9 9 9 9 9 9 9 9 9 9 9 9 9 9 9 9 k L L L L L L L L L L L L L L L L L L L L L L L L L L L L L L L L L L L h 9 9 9 9 9 9 9 9 9 9 9 ",
"9 9 9 9 9 9 9 9 9 9 9 9 9 9 9 9 9 f I L L L L L L L L L L L L L L L L L L L L L L L L L L L L L L L L L h 9 9 9 9 9 9 9 9 9 9 9 ",
"9 9 9 9 9 9 9 9 9 9 9 9 9 9 9 9 9 9 9 b U L L L L L L L L L L L L L L L L L L L L L L L L L L L L L L L h 9 9 9 9 9 9 9 9 9 9 9 ",
"9 9 9 9 9 9 9 9 9 9 9 9 9 9 9 9 9 9 9 9 x.v.} L L L L L L L L L L L L L L L L L L L L L L L L L L L L L h 9 9 9 9 9 9 9 9 9 9 9 ",
"9 9 9 9 9 9 9 9 9 9 9 9 9 9 9 9 9 9 9 9 x.U.]   4 s B L L L L L L L L L L L L L L L L L L L L L L L L L h 9 9 9 9 9 9 9 9 9 9 9 ",
"9 9 9 9 9 9 9 9 9 9 9 9 9 9 9 9 9 9 9 9 x.U.]         . X.` L L L L L L L L L L L L L L L L L L L L L L 9 9 9 9 9 9 9 9 9 9 9 9 ",
"9 9 9 9 9 9 9 9 9 9 9 9 9 9 9 9 9 9 9 9 f.U.]           U.U.C...! L L L L L L L L L L L L L L L L L L L 9 9 9 9 9 9 9 9 9 9 9 9 ",
"9 9 9 9 9 9 9 9 9 9 9 9 9 9 9 9 9 9 9 9 [ U.a.          U.U.U.U.U.C.| P L L L L L L L L L L L L L L L I 9 9 9 9 9 9 9 9 9 9 9 9 ",
"9 9 9 9 9 9 9 9 9 9 9 9 9 9 9 9 9 9 9 9 i U.z.        - U.U.U.U.U.U.U.C.| P L L L L L L L L L L L L L S 9 9 9 9 9 9 9 9 9 9 9 9 ",
"9 9 9 9 9 9 9 9 9 9 9 9 9 9 9 9 9 9 9 9 9 m.U.$       ' U.U.U.U.U.U.U.U.U.D. .L L L L L L L L L L L L b 9 9 9 9 9 9 9 9 9 9 9 9 ",
"9 9 9 9 9 9 9 9 9 9 9 9 9 9 9 9 9 9 9 9 9 d.U.'       z.U.U.U.U.U.U.U.U.U.U.U.b.! L L L L L L L L L L q 9 9 9 9 9 9 9 9 9 9 9 9 ",
"9 9 9 9 9 9 9 9 9 9 9 9 9 9 9 9 9 9 9 9 9 9 S.F.$   2 U.U.U.U.U.U.U.U.U.U.U.U.U.U...P L L L L L L L U 9 9 9 9 9 9 9 9 9 9 9 9 9 ",
"9 9 9 9 9 9 9 9 9 9 9 9 9 9 9 9 9 9 9 9 9 9 [ U.Z.z.U.U.U.U.U.U.U.U.U.U.U.U.U.U.U.U.z.5 K L L L L L c 9 9 9 9 9 9 9 9 9 9 9 9 9 ",
"9 9 9 9 9 9 9 9 9 9 9 9 9 9 9 9 9 9 9 9 9 9 7 c.U.U.U.U.U.U.U.U.U.U.U.U.U.U.U.U.U.U.F.    d D Y L L f 9 9 9 9 9 9 9 9 9 9 9 9 9 ",
"9 9 9 9 9 9 9 9 9 9 9 9 9 9 9 9 9 9 9 9 7 7 7 7 M.U.U.U.U.U.U.U.U.U.U.U.U.U.U.U.U.U.z.  X 9 9 9 9 9 9 9 9 9 9 9 9 9 9 9 9 9 9 9 ",
"9 9 9 9 9 9 9 9 9 9 9 9 9 9 9 9 9 9 9 9 7 7 7 { A.F.U.U.U.U.U.U.U.U.U.U.U.U.U.U.U.U.3 + y 9 9 9 9 9 9 9 9 9 9 9 9 9 9 9 9 9 9 9 ",
"9 9 9 9 9 9 9 9 9 9 9 9 9 9 9 9 9 9 9 9 7 7 s.G.A.A.S.G.U.U.U.U.U.U.U.U.U.U.U.U.U.j.o.O.@.9 9 9 9 9 9 9 9 9 9 9 9 9 9 9 9 9 9 9 ",
"9 9 9 9 9 9 9 9 9 9 9 9 9 9 9 9 9 9 9 9 7 u U.U.F.A.A.A.S.G.U.U.U.U.U.U.U.U.U.F.V.O.O.O.#.p 9 9 9 9 9 9 9 9 9 9 9 9 9 9 9 9 9 9 ",
"9 9 9 9 9 9 9 9 9 9 9 9 9 9 9 9 9 9 9 9 9 n.U.U.U.S.A.A.A.A.S.F.F.F.B.B.B.S.A.A.q.O.O.O.:.3.9 9 9 9 9 9 9 9 9 9 9 9 9 9 9 9 9 9 ",
"9 9 9 9 9 9 9 9 9 9 9 9 9 9 9 9 9 9 9 9 t t.U.U.U.G.S.A.A.A.A.A.Z.<.*.*.*.,.k.g.O.O.#.:.>.>.9.9 9 9 9 9 9 9 9 9 9 9 9 9 9 9 9 9 ",
"9 9 9 9 9 9 9 9 9 9 9 9 9 9 9 9 9 9 9 9 0.>.i.U.U.U.U.S.A.A.A.A.<.*.*.*.*.*.*.O.O.#.>.>.>.>.3.9 9 9 9 9 9 9 9 9 9 9 9 9 9 9 9 9 ",
"9 9 9 9 9 9 7 7 9 9 9 9 9 9 9 9 9 9 9 9 3.>.>.t.P.U.U.U.G.S.A.N.*.*.*.*.*.*.*.$.=.>.>.>.>.>.>.p 9 9 9 9 9 9 9 9 9 9 9 9 9 9 9 9 ",
"9 9 9 9 9 9 9 7 9 9 9 9 9 9 9 9 9 9 9 t >.>.>.>.5.J.I.U.U.U.G.h.*.*.*.*.*.*.*.*.:.>.>.>.>.>.>.9.9 9 9 9 9 9 9 9 9 9 9 9 9 9 9 9 ",
"9 9 9 9 9 9 9 9 9 9 9 9 9 9 9 9 9 9 9 p >.>.>.>.>.>.5.y.h.h.H.w.*.*.*.*.*.*.*.*.=.>.>.>.>.>.>.1.9 9 9 9 9 9 9 9 9 9 9 9 9 9 9 9 ",
"9 9 9 9 9 9 9 9 9 9 9 9 9 9 9 9 9 9 9 7.>.>.>.>.>.>.>.>.>.>.>.=.*.*.*.*.*.*.*.*.$.>.>.>.>.>.>.2.9 9 9 9 9 9 9 9 9 9 9 9 9 9 9 9 ",
"9 9 9 9 9 9 9 9 9 9 9 9 9 9 9 9 9 9 9 9.>.>.>.>.>.>.>.>.>.>.>.=.*.*.*.*.*.*.*.*.*.>.>.>.>.>.>.2.9 9 9 9 9 9 9 9 9 9 9 9 9 9 9 9 ",
"9 9 9 9 9 9 9 9 9 9 9 9 9 9 9 9 9 9 9 p >.>.>.>.>.>.>.>.>.>.>.=.*.*.*.*.*.*.*.*.*.>.>.>.>.>.>.1.9 9 9 9 9 9 9 9 9 9 9 9 9 9 9 9 ",
"9 9 9 9 9 9 9 9 9 9 9 9 9 9 9 9 9 9 9 p >.>.>.>.>.>.>.>.>.>.>.=.*.*.*.*.*.*.*.*.*.>.>.>.>.>.>.9.9 9 9 9 9 9 9 9 9 9 9 9 9 9 9 9 ",
"9 9 9 9 9 9 9 9 9 9 9 9 9 9 9 9 9 9 9 9 >.>.>.>.>.>.>.>.>.>.>.>.*.*.*.e.e.e.w.*.*.>.>.>.>.>.>.p 9 9 9 9 9 9 9 9 9 9 9 9 9 9 9 9 ",
"9 9 9 9 9 9 9 9 9 9 9 9 9 9 9 9 9 9 9 9 1.>.>.>.>.>.>.>.>.>.>.>.=.*.l.U.U.U.I.r.=.>.>.>.>.>.4.9 9 9 9 9 9 9 9 9 9 9 9 9 9 9 9 9 ",
"9 9 9 9 9 9 9 9 9 9 9 9 9 9 9 9 9 9 9 9 8.>.>.>.>.>.>.>.>.>.>.>.>.,.I.U.U.U.U.I.>.>.>.>.>.>.0.9 9 9 9 9 9 9 9 9 9 9 9 9 9 9 9 9 ",
"9 9 9 9 9 9 9 9 9 9 9 9 9 9 9 9 9 9 9 9 9 3.>.>.>.>.>.>.>.>.>.>.>.u.U.U.U.U.U.U.>.>.>.>.>.>.p 9 9 9 9 9 9 9 9 9 9 9 9 9 9 9 9 9 ",
"9 9 9 9 9 9 9 9 9 9 9 9 9 9 9 9 9 9 9 9 9 a >.>.>.>.>.>.>.>.>.>.>.p.U.U.U.U.U.U.>.>.>.>.>.0.9 9 9 9 9 9 9 9 9 9 9 9 9 9 9 9 9 9 ",
"9 9 9 9 9 9 9 9 9 9 9 9 9 9 9 9 9 9 9 9 9 9 0.>.>.>.>.>.>.>.>.>.>.6.I.U.U.U.U.L.>.;.+.@ % % % % % > 9 9 9 9 9 9 9 9 9 9 9 9 9 9 ",
"9 9 9 9 9 9 9 9 9 9 9 9 9 9 9 7 6 , > > > > : %.>.>.>.>.>.>.>.>.>.>.i.L.U.U.K.5.%.O % % % % % % % % e 9 9 9 9 9 9 9 9 9 9 9 9 9 ",
"9 9 9 9 9 9 9 9 9 9 9 9 9 7 7 6 % % % % % % % = %.>.>.>.>.>.>.>.>.>.>.>.>.>.>.# % % % % % % % % % % 1 7 7 7 9 9 9 9 9 9 9 9 9 9 ",
"9 9 9 9 9 9 9 9 9 9 9 9 7 7 7 o % % % % % % % % % +.>.>.>.>.>.>.>.>.>.>.>.>.@ % % % % % % % % % % * 7 7 7 7 7 9 9 9 9 9 9 9 9 9 ",
"9 9 9 9 9 9 9 9 9 9 9 9 7 7 7 6 % % % % % % % % % % O -.>.>.>.>.>.>.>.>.>.%.% % % % % % % % % % > 8 7 7 7 7 7 9 9 9 9 9 9 9 9 9 ",
"9 9 9 9 9 9 9 9 9 9 9 9 9 7 7 7 < % % % % % % % % % % % @ &.4.>.>.>.>.>.>.O % % % % % % % % * e 9 9 9 7 7 7 9 9 9 9 9 9 9 9 9 9 ",
"9 9 9 9 9 9 9 9 9 9 9 9 9 9 7 7 9 8 < * % % % % % % % % % > 9 t p p p p t % % % % % % % % 1 9 9 9 9 9 9 9 9 9 9 9 9 9 9 9 9 9 9 ",
"9 9 9 9 9 9 9 9 9 9 9 9 9 9 9 9 9 9 9 9 e , % % % % % % % , 9 9 9 9 9 9 9 % % % % % % 1 8 9 9 9 9 9 9 9 9 9 9 9 9 9 9 9 9 9 9 9 ",
"9 9 9 9 9 9 9 9 9 9 9 9 9 9 9 9 9 9 9 9 9 9 9 e 1 ; % % & 9 9 9 9 9 9 9 9 r * % % < 8 9 9 9 9 9 9 9 9 9 9 9 9 9 9 9 9 9 9 9 9 9 ",
"9 9 9 9 9 9 9 9 9 9 9 9 9 9 9 9 9 9 9 9 9 9 9 9 9 9 9 9 9 9 9 9 9 9 9 9 9 9 9 9 9 9 9 9 9 9 9 9 9 9 9 9 9 9 9 9 9 9 9 9 9 9 9 9 ",
"9 9 9 9 9 9 9 9 9 9 9 9 9 9 9 9 9 9 9 9 9 9 9 9 9 9 9 9 9 9 9 9 9 9 9 9 9 9 9 9 9 9 9 9 9 9 9 9 9 9 9 9 9 9 9 9 9 9 9 9 9 9 9 9 ",
"9 9 9 9 9 9 9 9 9 9 9 9 9 9 9 9 9 9 9 9 9 9 9 9 9 9 9 9 9 9 9 9 9 9 9 9 9 9 9 9 9 9 9 9 9 9 9 9 9 9 9 9 9 9 9 9 9 9 9 9 9 9 9 9 "
};
