/* XPM */
static char *player_right_walk[] = {
/* columns rows colors chars-per-pixel */
"64 64 157 2 ",
"   c None",
".  c #3C3C3C",
"X  c gray24",
"o  c #494539",
"O  c #4A4539",
"+  c #3D5A66",
"@  c #34677C",
"#  c #464646",
"$  c gray28",
"%  c #494745",
"&  c #494949",
"*  c #464D50",
"=  c #435157",
"-  c #405158",
";  c #40555F",
":  c #525453",
">  c #6D655E",
",  c #917B22",
"<  c #85764A",
"1  c #AA8D1A",
"2  c #C29F13",
"3  c #D5A900",
"4  c #D7AC00",
"5  c #D8AA00",
"6  c #D9AD00",
"7  c #DBAE00",
"8  c #E4B500",
"9  c #E6BA07",
"0  c #E7BC11",
"q  c #E6BC1F",
"w  c #FDC900",
"e  c #FCCA00",
"r  c #FDCA00",
"t  c #FECB00",
"y  c #FFCC00",
"u  c #FFCC02",
"i  c #FFCD08",
"p  c #FFCE0B",
"a  c #FECC0D",
"s  c #FCCC0E",
"d  c #FFCE0E",
"f  c #FFCF11",
"g  c #FFCF14",
"h  c #F3C71C",
"j  c #FFCE18",
"k  c #FFD017",
"l  c #FFD119",
"z  c #FFD11C",
"x  c #FFCF24",
"c  c #FFD222",
"v  c #FFD325",
"b  c #FCD129",
"n  c #FDD32B",
"m  c #FFD42B",
"M  c #FDD12C",
"N  c #FDD22D",
"B  c #FED22D",
"V  c #FCD42E",
"C  c #FFD52E",
"Z  c #FFD13C",
"A  c #918377",
"S  c #9E8D7F",
"D  c #AA967B",
"F  c #FFD248",
"G  c #FFD354",
"H  c #FFD66D",
"J  c #FFD779",
"K  c #1A6482",
"L  c #156A8E",
"P  c #0E6E97",
"I  c #10719A",
"U  c #10719B",
"Y  c #1E769B",
"T  c #316B84",
"R  c #2B7492",
"E  c #127AA5",
"W  c #137AA5",
"Q  c #137BA7",
"!  c #157EAA",
"~  c #137FAC",
"^  c #257CA1",
"/  c #1680AD",
"(  c #1680AE",
")  c #1681AF",
"_  c #1683B1",
"`  c #1785B3",
"'  c #1787B7",
"]  c #1F85B0",
"[  c #1B87B4",
"{  c #1C89B7",
"}  c #1788B8",
"|  c #178BBC",
" . c #168BBD",
".. c #178BBD",
"X. c #178CBD",
"o. c #188CBC",
"O. c #198CBC",
"+. c #198CBD",
"@. c #188DBD",
"#. c #198EBF",
"$. c #2384AD",
"%. c #2485AE",
"&. c #338BAF",
"*. c #3E8EAE",
"=. c #3598BF",
"-. c #748C91",
";. c #568EA1",
":. c #4E95B0",
">. c #5097B2",
",. c #60A7BF",
"<. c #7BA9B6",
"1. c #6FACC0",
"2. c #7DB1C0",
"3. c #9DADAB",
"4. c #90ACB0",
"5. c #8AB0B9",
"6. c #C2AB98",
"7. c #DABFA9",
"8. c #FFD991",
"9. c #FFDA9D",
"0. c #C7C0B1",
"q. c #C1C2B9",
"w. c #C4C6BC",
"e. c #CEC7B9",
"r. c #D4C5B2",
"t. c #FFDBA9",
"y. c #E2C9B1",
"u. c #EFCDB0",
"i. c #F0CFB3",
"p. c #E9D1BA",
"a. c #F2D1B5",
"s. c #F3D2B6",
"d. c #F4D3B7",
"f. c #FFDCB5",
"g. c #F2D3B9",
"h. c #F5D4B8",
"j. c #F6D5B9",
"k. c #F7D6BA",
"l. c #F8D7BB",
"z. c #FAD9BD",
"x. c #FCDBBF",
"c. c #8CB6C0",
"v. c #9ABBC0",
"b. c #A8C0C0",
"n. c #B7C5C1",
"m. c #C5C9C0",
"M. c #C5CAC1",
"N. c #F0D8C0",
"B. c #F0D9C1",
"V. c #FCDBC0",
"C. c #FDDBC0",
"Z. c #FCDCC0",
"A. c #FDDCC0",
"S. c #FEDCC0",
"D. c #FEDDC0",
"F. c #FEDDC1",
"G. c #FFDEC2",
/* pixels */
"                                                                                                                                ",
"                                                                                                                                ",
"                                                                                                                                ",
"                                                b b b b b b b b                                                                 ",
"                                          b b v l k k k k k k b b b                                                             ",
"                                      b l f r r r r r r r r r r k v b b                                                         ",
"                                      r r r r r r r r r r r r r r r a v b b                                                     ",
"                                  r r r r r r r r r r r r r r r r r r r k b b                                                   ",
"                                r r r r r r r r r r r r r r r r r r r r r a b b                                                 ",
"                              r r r r r r r r r r r r r r r r r r r r r r r k b b                                               ",
"                              r r r r r r r r r r r r r r r r r r r r r r r r a b b                                             ",
"                            r r r r r r r r r r r r r r r r r r r r r r r r r r a b b                                           ",
"                          r r r r r r r r r r r r r r r r r r r r r r r r r r r r f b                                           ",
"                          r r r r r r r r r r r r r r r r r r r r r r r r r r r r r l b       6 6 6 6 6                         ",
"                        r r r r r r r r r r r r r r r r r r r r r r r r r r r r r r r v b   4 6 6 6 6 6                         ",
"                        r r r r r r r r r r r r r r r r r r r r r r r r r r r r r r r r b 0 6 6 6 6 6 4                         ",
"                        r r r r r r r r r r r r r r r r r r r r r r r r r r r r r r r r a h 6 6 6 6 4                           ",
"                      r r r r r r r r r r r r r r r r r r r r r r r r r r r r r r r r r r a 6 6 6 4                             ",
"                      r r r r r r r r r r r r r r r r r r r r r r r r r r r r r r r r r r r 6 4                                 ",
"                      r r r r r r r r r r r r r r r r r r r r r r r r r r r r r r r r r r r 8                                   ",
"                      r r r r r r r r r r r r r r r r r r r r r r r r r r r r r r r r r r                                       ",
"                      r r r r r r r r r r r r r r r r r r r r r r r r r r r r r r r a                                           ",
"                      r r r r r r r r r r r r r r r r r r r r r r r r r r r r r q J G.                                          ",
"                      r r r r r r r r r r r r r r r r r r r r r r r r r 9 2 , O > G.G.                                          ",
"                      r r r r r r r r r r r r r r r r r r r r r r x H < . . . . > G.G.                                          ",
"                      r r r r r r r r r r r r r r r r r r r j G 9.G.G.> . . . . > G.G.                                          ",
"                        r r r r r r r r r r r r r r r r F 8.G.G.G.G.G.> . . . . > G.                                            ",
"                        r r r r r r r r r r r r r r F 8.G.G.G.G.G.G.G.A . . . . A G.                                            ",
"                        r r r r r r r r r r r r Z t.G.G.G.G.G.G.G.G.G.6.. . . . 6.G.                                            ",
"                        r r r r r r r r r r j J G.G.G.G.G.G.G.G.G.G.G.h.% . . % h.G.                                            ",
"                          r r r r r r r r G f.G.G.G.G.G.G.G.G.G.G.G.G.G.S . . 6.G.                                              ",
"                          r r r r r r 1 D G.G.G.G.G.G.G.G.G.G.G.G.G.G.G.G.7.7.G.                                                ",
"                          r r r r   O . 6.G.G.G.G.G.G.G.G.G.G.G.G.G.G.G.G.G.G.G.                                                ",
"                                      . S G.G.G.G.G.G.G.G.G.G.G.G.G.G.G.G.G.x.                                                  ",
"                                      K : h.G.G.G.G.G.G.G.G.G.G.G.G.G.G.G.l.i.u.                                                ",
"                                    P U L -.G.G.G.G.G.G.G.G.G.G.G.G.G.G.s.i.i.h.G.                                              ",
"                                    ~ U U U 3.h.G.G.G.G.G.G.G.G.G.G.h.i.i.i.s.G.G.                                              ",
"                                  | +.W U U Y y.i.s.e.w.w.p.h.h.s.i.i.i.i.i.x.G.G.G.                                            ",
"                                  +.+.+.W U U ;.0.*./ / / %.0.i.i.i.i.i.i.x.G.G.G.c.                                            ",
"                                | +.+.+.+.W U U ~ / / / / / %.r.i.i.i.i.x.G.G.G.b.+.|                                           ",
"                                +.+.+.+.#.#.| W / / / / / / / 4.i.i.h.G.G.G.N.2.+.+.#.                                          ",
"                                +.+.+.+.#.#.+./ / / / / / / / :.l.G.G.G.G.n.=.+.+.+.+.                                          ",
"                                +.+.#.#.#.#.| / / / / / / / / %.c.c.c.1.=.#.+.+.+.+.+.|                                         ",
"                                +.+.+.#.#.#.' / / / / / / / / / +.+.#.#.#.#.+.+.+.+.+.|                                         ",
"                                #.#.#.#.+.+.' / / / / / / / / / +.+.+.+.#.#.#.+.+.+.+.|                                         ",
"                                #.#.#.#.+.+./ / / / / / / / / / +.+.+.+.#.#.+.+.+.+.+.|                                         ",
"                                +.#.+.+.+.+./ / / / / / / / / ' #.#.+.+.#.#.#.#.+.+.+.|                                         ",
"                                +.+.+.+.+.+.' / &.>.>.>.&./ / | #.#.+.+.#.#.#.#.+.+.+.                                          ",
"                                +.+.+.+.+.+.| / w.G.G.G.N.&./ +.#.#.+.+.+.+.+.+.+.+.+.                                          ",
"                                  +.+.+.+.+.+.5.G.G.G.G.G.<.' +.#.#.+.+.+.+.#.+.+.+.+.                                          ",
"                                  | +.+.#.#.#.M.G.G.G.G.G.M.+.+.#.#.#.+.#.#.#.#.+.+.                                            ",
"                                    +.+.+.#.#.M.G.G.G.G.G.n.+.+.#.#.#.+.#.#.#.#.+.|                                             ",
"                          $ & & & & & + T ] +.c.G.G.G.G.G.1.+.+.+.+.+.+.#.#.#.+.+.                                              ",
"                          & & & & & & & & = R +.2.B.G.G.v.#.#.+.#.+.+.+.#.#.+.{ ; $ $ $ $ $                                     ",
"                          & & & & & & & & & & + { +.#.#.#.#.+.+.#.#.+.+.+.+.] ; & & & & & & &                                   ",
"                          $ & & & & & & & & & & ; { #.#.#.#.+.+.#.#.+.+.+.^ * & & & & & & & & $                                 ",
"                              & & & & & & & & & & T +.+.+.+.+.+.#.#.#.+.@ & & & & & & & & & & $                                 ",
"                                $ & & & & & & & & * { +.+.+.+.+.#.{ @ * & & & & & & & & & & $                                   ",
"                                    & & & & & & & &                 & & & & & & & & & & $                                       ",
"                                        & & & & & &                 & & & & & & & &                                             ",
"                                            $ & &                   $ & & & $                                                   ",
"                                                                                                                                ",
"                                                                                                                                ",
"                                                                                                                                "
};
