/* XPM */
static char *player_up_walk2[] = {
/* columns rows colors chars-per-pixel */
"64 64 113 2 ",
"   c None",
".  c #3A5E6D",
"X  c #34677C",
"o  c #464646",
"O  c gray28",
"+  c #494949",
"@  c #464D50",
"#  c #40555F",
"$  c #4B8A7F",
"%  c #FDC900",
"&  c #FCCA00",
"*  c #FDCA00",
"=  c #FECB00",
"-  c #FFCC00",
";  c #FFCC02",
":  c #FCCA05",
">  c #FFCD05",
",  c #FFCD08",
"<  c #FFCE0B",
"1  c #FECD0F",
"2  c #FFCE0E",
"3  c #FFCF11",
"4  c #FCCC12",
"5  c #FFCF14",
"6  c #FFD017",
"7  c #FFD119",
"8  c #FFD11C",
"9  c #FFD21F",
"0  c #FFD222",
"q  c #FFD325",
"w  c #FFD328",
"e  c #FFD42B",
"r  c #FDD12C",
"t  c #FFD52E",
"y  c #F0CE34",
"u  c #B4B54F",
"i  c #A5AF56",
"p  c #94A86D",
"a  c #85A274",
"s  c #10719A",
"d  c #10729C",
"f  c #2E6F8B",
"g  c #2B7492",
"h  c #28789A",
"j  c #1176A0",
"k  c #1278A3",
"l  c #127AA5",
"z  c #137BA7",
"x  c #137DAA",
"c  c #147FA9",
"v  c #147FAB",
"b  c #157FAB",
"n  c #147FAC",
"m  c #257CA1",
"M  c #3A829E",
"N  c #1480AD",
"B  c #1680AD",
"V  c #1581AE",
"C  c #1583B1",
"Z  c #1682B0",
"A  c #1683B1",
"S  c #1684B3",
"D  c #1785B3",
"F  c #1786B4",
"G  c #1686B5",
"H  c #1787B6",
"J  c #1787B7",
"K  c #1F85B0",
"L  c #1B87B4",
"P  c #1C89B7",
"I  c #1788B8",
"U  c #1689BA",
"Y  c #178ABA",
"T  c #178BBC",
"R  c #168BBD",
"E  c #178BBD",
"W  c #178CBD",
"Q  c #1889B9",
"!  c #188ABA",
"~  c #188CBC",
"^  c #198CBC",
"/  c #188DBD",
"(  c #198DBE",
")  c #198EBF",
"_  c #2281A8",
"`  c #2484AD",
"'  c #338BAF",
"]  c #3595BC",
"[  c #3597BE",
"{  c #5097B2",
"}  c #5099B4",
"|  c #5E9DB3",
" . c #5F9EB4",
".. c #519CB9",
"X. c #B9B89C",
"o. c #81A3AB",
"O. c #95A7A7",
"+. c #8AAFB7",
"@. c #8BB3BD",
"#. c #99B3B5",
"$. c #B8B7AC",
"%. c #D6C496",
"&. c #EFCCB1",
"*. c #F0CFB3",
"=. c #E2D2BD",
"-. c #E9D4BD",
";. c #F0D8C0",
":. c #FCDBC0",
">. c #FDDBC0",
",. c #FDDCC0",
"<. c #FEDCC0",
"1. c #FEDDC0",
"2. c #FFDEC2",
/* pixels */
"                                                                                                                                ",
"                                                                                                                                ",
"                                                            r r r                                                               ",
"                                                        - r r r r r 3                                                           ",
"                                                  - - - , r r r r r 3 - - - -                                                   ",
"                                          - - - - - - - , r r r r r 6 - - - - - - -                                             ",
"                                          - - - - - - - 6 r r r r r 0 - - - - - - - -                                           ",
"                                        - - - - - - - - 7 r r r r r 0 - - - - - - - -                                           ",
"                                      - - - - - - - - - 0 r r r r r r - - - - - - - - -                                         ",
"                                    - - - - - - - - - - r r r r r r r - - - - - - - - - -                                       ",
"                                  - - - - - - - - - - - r r r r r r r , - - - - - - - - - -                                     ",
"                                  - - - - - - - - - - , r r r r r r r 7 - - - - - - - - - - -                                   ",
"                                - - - - - - - - - - - 6 r r r r r r r 7 - - - - - - - - - - -                                   ",
"                              - - - - - - - - - - - - 7 r r r r r r r 0 - - - - - - - - - - - -                                 ",
"                              - - - - - - - - - - - - 0 r r r r r r r r - - - - - - - - - - - -                                 ",
"                              - - - - - - - - - - - - r r r r r r r r r , - - - - - - - - - - - -                               ",
"                            - - - - - - - - - - - - , r r r r r r r r r 6 - - - - - - - - - - - -                               ",
"                            - - - - - - - - - - - - 3 r r r r r r r r r 7 - - - - - - - - - - - -                               ",
"                            - - - - - - - - - - - - 7 r r r r r r r r r r - - - - - - - - - - - -                               ",
"                            - - - - - - - - - - - - 0 r r r r r r r r r r - - - - - - - - - - - - -                             ",
"                          - - - - - - - - - - - - - r r r r r r r r r r r , - - - - - - - - - - - -                             ",
"                          - - - - - - - - - - - - 3 r r r r r r r r r r r 7 - - - - - - - - - - - -                             ",
"                          - - - - - - - - - - - - 7 r r r r r r r r r r r 0 - - - - - - - - - - - -                             ",
"                          - - - - - - - - - - - - r r r r r r r r r r r r r - - - - - - - - - - - -                             ",
"                          - - - - - - - - - - - - r r r r r r r r r r r r r 6 - - - - - - - - - - -                             ",
"                          - - - - - - - - - - - 6 r r r r r r r r r r r r r 7 - - - - - - - - - - -                             ",
"                          - - - - - - - - - - - 0 r r r r r r r r r r r r r r - - - - - - - - - - -                             ",
"                            - - - - - - - - - - r r r r r r r r r r r r r r r 3 - - - - - - - - -                               ",
"                            - - - - - - - - - 6 r r r r r r r r r r r r r r r 7 - - - - - - - - -                               ",
"                            - - - - - - - - - 0 r r r r r r r r r r r r r r r r - - - - - - - - -                               ",
"                              - - - - - - - - r r r r r r r r r r r r r r r r r , - - - - - - -                                 ",
"                              - - - - - - - 6 r r r r r r r r r r r r r r r r r 7 - - - - - - -                                 ",
"                                - - - - - - 0 r r r r r r r r r r r r r r r r r r - - - - - -                                   ",
"                                  - - - - , r r r r r r r r r r r r r r r r r r r 6 - - - -                                     ",
"                                    - - - 7 r r r r r r r r r r r r r r r r r r r r - - -                                       ",
"                                        - r r r r r r r r r r r r r r r r r r r r r 3 -                                         ",
"                                        O.$.X.a i y r r r r r r r r r r r r u p %.*.&.                                          ",
"                                        W k d d d d d M $ $ $ $ M M $ $ d s d d d M o.                                          ",
"                                      W ^ ^ ^ B d d d d d d d d d d d d d d d d k C ^ ^                                         ",
"                                  v B ^ ^ ^ ) ) ) ^ C v k k k k k k k k k B C ^ ^ ^ ^ ^ W                                       ",
"                                v B C ) ) ) ^ ) ) ) ) ) ^ ^ ^ ^ ^ ^ ^ ^ ) ) ) ^ ) ^ ) ) ^ B B                                   ",
"                              v B B ^ ) ) ) ^ ) ) ) ) ) ^ ^ ^ ) ^ ^ ^ ) ) ) ) ^ ^ ^ ) ) ) C B                                   ",
"                              B B C ^ ^ ^ ^ ^ ) ) ) ) ) ^ ^ ) ) ^ ^ ) ) ) ) ^ ^ ^ ^ ^ ) ^ C B v                                 ",
"                            v B B C ^ ^ ^ ^ ) ) ^ ^ ) ) ) ^ ) ) ) ) ) ) ) ) ^ ^ ^ ^ ^ ) ^ ^ B B                                 ",
"                            B B B J ) ^ ^ ^ ^ ) ^ ^ ^ ^ ) ) ) ) ) ) ) ) ) ) ^ ^ ^ ^ ^ ^ ^ ^ B B v                               ",
"                          v B B B J ) ^ ^ ^ ^ ) ^ ^ ) ^ ) ) ) ) ) ) ) ) ) ) ) ^ ^ ^ ^ ^ ^ ^ B B B                               ",
"                          v B B B C ) ) ^ ^ ) ) ) ) ) ) ) ) ^ ^ ^ ^ ) ) ) ) ) ) ) ^ ^ ^ ) W B B B                               ",
"                          B B B B C ) ) ) ^ ) ) ) ) ) ) ^ ^ ^ ) ^ ) ) ) ) ) ) ) ) ) ^ ^ ^ C B B B                               ",
"                          B ' | +.| ^ ^ ) ) ) ) W ^ ^ ^ ^ ^ ^ ) ^ ^ ) ) ) C ^ ^ ) ) ^ ^ ^ } @.@.}                               ",
"                          ` ;.<.<.<.] ^ ) ) ) ) k d v W ^ ^ ^ ^ ^ ^ ^ C j d W ^ ) ) ^ ^ ] <.<.<.;.                              ",
"                          -.<.<.<.<.@.^ ) ^ ^ ) k d d d d d ^ ^ v d d d d d C ^ ) ) ^ ^ ..<.<.<.<.<.                            ",
"                          <.<.<.<.<.=.^ ^ ) ) ) k d d d d d ^ ^ B d d d d d C ^ ) ) ) W #.<.<.<.<.<.                            ",
"                          <.<.<.<.<.    ^ ^ ^ ^ v d d d d k ) ) C d d d d d ^ ^ ^ ^ ^     <.<.<.<.<.                            ",
"                          <.<.<.<.<.      ^ ) ) B d d d d B ) ) ^ d d d d d ^ ^ ^ ^ W     <.<.<.<.<.                            ",
"                            <.<.            ) ) W d d d d W ) ^ ^ k d d d v ) ^ ^ W           <.<.                              ",
"                                              ) ^ C d d k ) ) ^ ^ C d d j ^ ^ ^ W                                               ",
"                                            o # K ^ ^ ^ ^ ^ ^ ^ ^ ^ ^ ^ ^ ^ `                                                   ",
"                                            o + + X K ^ ^ ^ ^ ^ ^ ^ ^ ^ P f @ o                                                 ",
"                                            o + + + + # X g K W m m h . + + + +                                                 ",
"                                              o + + + + o o     + + + + + + + +                                                 ",
"                                                                O + + + + + + +                                                 ",
"                                                                  O + + + + o                                                   ",
"                                                                                                                                ",
"                                                                                                                                "
};
