/* XPM */
static char *player_down_walk2[] = {
/* columns rows colors chars-per-pixel */
"64 64 167 2 ",
"   c gray24",
".  c #464439",
"X  c #3D5A66",
"o  c #3A5E6D",
"O  c #494745",
"+  c #494949",
"@  c #4B5248",
"#  c #55514D",
"$  c #464D50",
"%  c #40555F",
"&  c #615B55",
"*  c #4C644D",
"=  c #526D44",
"-  c #567843",
";  c #6D655E",
":  c #947C1A",
">  c #86743A",
",  c #85796E",
"<  c #5E9539",
"1  c #62973E",
"2  c #659F3E",
"3  c #6F9F3C",
"4  c #73A13C",
"5  c #7AA03A",
"6  c #5B8741",
"7  c #5E8F40",
"8  c #5B9656",
"9  c #5F9B53",
"0  c #5C995E",
"q  c #629D4A",
"w  c #599767",
"e  c #5C9B64",
"r  c #55966F",
"t  c #599A6F",
"y  c #4E927C",
"u  c #529475",
"i  c #B2910F",
"p  c #BB980B",
"a  c #A3892F",
"s  c #83A43A",
"d  c #94A333",
"f  c #9DA331",
"g  c #9DAB36",
"h  c #90A838",
"j  c #A3A42E",
"k  c #AAA52B",
"l  c #B7A725",
"z  c #BEA721",
"x  c #BCB32E",
"c  c #A8AD33",
"v  c #A8B139",
"b  c #B2B031",
"n  c #C59F07",
"m  c #D9AD00",
"M  c #D2AB0A",
"N  c #DBB00C",
"B  c #E2B400",
"V  c #E7B800",
"C  c #ECBC00",
"Z  c #C4B92E",
"A  c #CDB828",
"S  c #D4BB25",
"D  c #DDBF21",
"F  c #CDBE35",
"G  c #D1B53B",
"H  c #E0B624",
"J  c #E2B930",
"K  c #E4BC3C",
"L  c #F0C000",
"P  c #FFCC00",
"I  c #F0C208",
"U  c #F8C90A",
"Y  c #ECC117",
"T  c #E3C01D",
"R  c #E9C318",
"E  c #F0C512",
"W  c #F7CA14",
"Q  c #FFCF14",
"!  c #F0C61C",
"~  c #FFD017",
"^  c #FFD21F",
"/  c #FFD222",
"(  c #FFD52E",
")  c #E3C631",
"_  c #918377",
"`  c #9E8D7F",
"'  c #8EA765",
"]  c #90AC66",
"[  c #9AAB6F",
"{  c #9DB070",
"}  c #A8B479",
"|  c #C7A748",
" . c #E7BF48",
".. c #D1B56C",
"X. c #E9C254",
"o. c #ECC561",
"O. c #316B84",
"+. c #28789A",
"@. c #378897",
"#. c #3D8A93",
"$. c #31869E",
"%. c #1680AD",
"&. c #1787B6",
"*. c #1C89B7",
"=. c #1788B8",
"-. c #198EBF",
";. c #2A84A2",
":. c #2281A8",
">. c #338CA6",
",. c #3290AD",
"<. c #248DB7",
"1. c #248EB9",
"2. c #2793BF",
"3. c #3598BF",
"4. c #468E89",
"5. c #4A9083",
"6. c #4E9788",
"7. c #529880",
"8. c #459396",
"9. c #4A9690",
"0. c #42939D",
"q. c #449DBF",
"w. c #5097B2",
"e. c #6CA1A6",
"r. c #6DA3B4",
"t. c #60A7BF",
"y. c #6EABBF",
"u. c #6FACC0",
"i. c #AA9787",
"p. c #BCBD8A",
"a. c #B0BA90",
"s. c #B9BE96",
"d. c #9BB4AA",
"f. c #8AAFB7",
"g. c #99B4B8",
"h. c #BABCB2",
"j. c #C2AB98",
"k. c #CEB5A0",
"l. c #DABFA9",
"z. c #B6C0BB",
"x. c #C4C193",
"c. c #CCC298",
"v. c #D4C79F",
"b. c #F3CE85",
"n. c #E9CE9B",
"m. c #F7D49D",
"M. c #C4C6BC",
"N. c #D3CDBF",
"B. c #DFD1BE",
"V. c #E3CFAB",
"C. c #E6C9B1",
"Z. c #E7CFB8",
"A. c #F0CFB3",
"S. c #E9D2B1",
"D. c #F3D2B6",
"F. c #FCDAB5",
"G. c #F7D6BA",
"H. c #F8DABB",
"J. c #8CB6C0",
"K. c #9ABBC0",
"L. c #A8C0C0",
"P. c #B7C5C1",
"I. c #C5CAC1",
"U. c #D3CFC1",
"Y. c #E2D4C1",
"T. c #F0D9C1",
"R. c #FFDEC2",
/* pixels */
"2 2 2 2 2 2 2 2 2 2 2 2 2 2 2 2 2 2 2 2 2 2 2 2 2 2 2 2 2 2 2 2 2 2 2 2 2 2 2 2 2 2 2 2 2 2 2 2 2 2 2 2 2 2 2 2 2 2 2 2 2 2 2 2 ",
"2 2 2 2 2 2 2 2 2 2 2 2 2 2 2 2 2 2 2 2 2 2 2 2 2 2 2 2 2 2 2 2 2 2 2 2 2 2 2 2 2 2 2 2 2 2 2 2 2 2 2 2 2 2 2 2 2 2 2 2 2 2 2 2 ",
"2 2 2 2 2 2 2 2 2 2 2 2 2 2 2 2 2 2 2 2 2 2 2 2 2 2 2 2 4 F ) ) ) v 2 2 2 2 2 2 2 2 2 2 2 2 2 2 2 2 2 2 2 2 2 2 2 2 2 2 2 2 2 2 ",
"2 2 2 2 2 2 2 2 2 2 2 2 2 2 2 2 2 2 2 2 2 2 2 2 2 4 g g Z ( ( ( ( ( c g h 2 2 2 2 2 2 2 2 2 2 2 2 2 2 2 2 2 2 2 2 2 2 2 2 2 2 2 ",
"2 2 2 2 2 2 2 2 2 2 2 2 2 2 2 2 2 2 2 2 2 s g g D U P P Q ( ( ( ( ( P P P R b g g 2 2 2 2 2 2 2 2 2 2 2 2 2 2 2 2 2 2 2 2 2 2 2 ",
"2 2 2 2 2 2 2 2 2 2 2 2 2 2 2 2 2 2 2 2 h U P P P P P P ~ ( ( ( ( ( U P P P P P P T 4 2 2 2 2 2 2 2 2 2 2 2 2 2 2 2 2 2 2 2 2 2 ",
"2 2 2 2 2 2 2 2 2 2 2 2 2 2 2 2 2 2 2 2 E P P P P P P P / ( ( ( ( ( Q P P P P P P P x 2 2 2 2 2 2 2 2 2 2 2 2 2 2 2 2 2 2 2 2 2 ",
"2 2 2 2 2 2 2 2 2 2 2 2 2 2 2 2 2 2 2 S P P P P P P P P ( ( ( ( ( ( ~ P P P P P P P U b 2 2 2 2 2 2 2 2 2 2 2 2 2 2 2 2 2 2 2 2 ",
"2 2 2 2 2 2 2 2 2 2 2 2 2 2 2 2 2 2 S P P P P P P P P P ( ( ( ( ( ( / P P P P P P P P P h 2 2 2 2 2 2 2 2 2 2 2 2 2 2 2 2 2 2 2 ",
"2 2 2 2 2 2 2 2 2 2 2 2 < < 2 2 2 x P P P P P P P P P U ( ( ( ( ( ( / P P P P P P P P P U 4 2 2 2 2 2 2 2 2 2 2 2 2 2 2 2 2 2 2 ",
"2 2 2 2 2 2 2 2 2 2 2 2 < < < 2 s U P P P P P P P P P U ( ( ( ( ( ( ( P P P P P P P P P P D 2 2 2 2 < < < 2 2 2 2 2 2 2 2 2 2 2 ",
"2 2 2 2 2 2 2 2 2 2 2 2 < < < 2 T P P P P P P P P P P ~ ( ( ( ( ( ( ( U P P P P P P P P P P b 2 2 2 < < < < 2 2 2 2 2 2 2 2 2 2 ",
"2 2 2 2 2 2 2 2 2 2 2 2 2 2 2 h P P P P P P P P P P P / ( ( ( ( ( ( ( Q P P P P P P P P P P E 2 2 2 2 < < 2 2 2 2 2 2 2 2 2 2 2 ",
"2 2 2 2 2 2 2 2 2 2 2 2 2 2 2 S P P P P P P P P P P P ( ( ( ( ( ( ( ( ~ P P P P P P P P P P P c 2 2 2 2 2 2 2 2 2 2 2 2 2 2 2 2 ",
"2 2 2 2 2 2 2 2 2 2 2 2 2 2 2 U P P P P P P P P P P P ( ( ( ( ( ( ( ( / P P P P P P P P P P P T 2 2 2 2 2 2 2 2 2 2 2 2 2 2 2 2 ",
"2 2 2 2 2 2 2 2 2 2 2 2 2 2 c P P P P P P P P P P P U ( ( ( ( ( ( ( ( ( P P P P P P P P P P P P 4 2 2 2 2 2 2 2 2 2 2 2 2 2 2 2 ",
"2 2 2 2 2 2 2 2 2 2 2 2 2 2 A P P P P P P P P P P P ~ ( ( ( ( ( ( ( ( ( U P P P P P P P P P P P b 2 2 2 2 2 2 2 2 2 2 2 2 2 2 2 ",
"2 2 2 2 2 2 2 2 2 2 2 2 2 2 T P P P P P P P P P P P ^ ( ( ( ( ( ( ( ( ( Q P P P P P P P P P P P S 2 2 2 2 2 2 2 2 2 2 2 2 2 2 2 ",
"2 2 2 2 2 2 2 2 2 2 2 2 2 2 P P P P P P P P P P P P ( ( ( ( ( ( ( ( ( ( ^ P P P P P P P P P P P R 2 2 2 2 2 2 2 2 2 2 2 2 2 2 2 ",
"2 2 2 2 2 2 2 2 2 2 2 2 2 2 P P P P P P P P P P P P ( ( ( ( ( ( ( ( ( ( ( P P P P P P P P P P P P 2 2 2 2 2 2 2 2 2 2 2 2 2 2 2 ",
"2 2 2 2 2 2 2 2 2 2 2 2 2 h P P P P P P P P P P P Q ( ( ( ( ( ( ( ( ( ( ( U P P P P P P P P P P P s 2 2 2 2 2 2 2 2 2 2 2 2 2 2 ",
"2 2 2 2 2 2 2 2 2 2 2 2 2 g P P P P P P P P P P P W ! Y Y Y Y Y Y Y Y Y Y I L P P P P P P P P P P g 2 2 2 2 2 2 2 2 2 2 2 2 2 2 ",
"2 2 2 2 2 2 2 2 2 2 2 2 2 g P P P P P P P L C B B m m m m m m m m m m m m m m m B V L P P P P P P g 2 2 2 2 2 2 2 2 2 2 2 2 2 2 ",
"2 2 2 2 2 2 2 2 2 2 2 2 2 g P P P P L B m m m m m m m m m m m m m m m m m m m m m m m m B L P P P g 2 2 2 2 2 2 2 2 2 2 2 2 2 2 ",
"2 2 2 2 2 2 2 2 2 2 2 2 2 g P P C m m m m m m m m p i : | o.o.o.o.o.a : i n m m m m m m m m B L P g 2 2 2 2 2 2 2 2 2 2 2 2 2 2 ",
"2 2 2 2 2 2 2 2 2 2 2 2 2 s P B m m m m m N K > .       ` R.R.R.R.R.O       . b.K N m m m m m m L g 2 2 2 2 2 2 2 2 2 2 2 2 2 2 ",
"2 2 2 2 2 2 2 2 2 2 2 2 2 3 B m m m m m  .F.R.#         ; R.R.R.R.C.          k.R.F.b.N m m m m m g 2 2 2 2 2 2 2 2 2 2 2 2 2 2 ",
"2 2 2 2 2 2 2 2 2 2 2 2 2 d m m m m m o.R.R.R.          ; R.R.R.R.k.          k.R.R.R.m.N m m m m f 2 2 2 2 2 2 2 2 2 2 2 2 2 2 ",
"2 2 2 2 2 2 2 2 2 2 2 2 2 j m m m m X.R.R.R.R.            R.R.R.R.k.          ` R.R.R.R.F.N m m m l 2 2 2 2 2 2 2 2 2 2 2 2 2 2 ",
"2 2 2 2 2 2 2 2 2 2 2 2 2 5 m m m N F.R.R.R.R.            R.R.R.R.k.          ` R.R.R.R.R.X.m m m l 2 2 2 2 2 2 2 2 2 2 2 2 2 2 ",
"2 2 2 2 2 2 2 2 2 2 2 2 2 2 k m m J R.R.R.R.R.          O R.R.R.R.k.          ` R.R.R.R.R...m m M 5 2 2 2 2 2 2 2 2 2 2 2 2 2 2 ",
"2 2 2 2 2 2 2 2 2 2 2 2 2 2 2 f m H R.R.R.R.R.&         ; R.R.R.R.G.          j.R.R.R.R.R.G m z s 2 2 2 2 2 2 2 2 2 2 2 2 2 2 2 ",
"2 2 2 2 2 2 2 2 2 2 2 2 2 2 2 2 s l n.R.R.R.R.,         i.R.R.R.R.R.#         C.R.R.R.R.V.f 5 2 2 2 2 2 2 2 2 2 2 2 2 2 2 2 2 2 ",
"2 2 2 2 2 2 2 2 2 2 2 2 2 2 2 2 2 2 { R.R.R.R.k.        C.R.R.R.R.R.`       & R.R.R.R.R.{ 2 2 2 2 2 2 2 2 2 2 2 2 2 2 2 2 2 2 2 ",
"2 2 2 2 2 2 2 2 2 2 2 2 2 2 2 2 2 2 2 c.R.R.R.R.,     _ R.R.R.R.R.R.R.#     j.R.R.R.R.v.2 2 2 2 2 2 2 2 2 2 2 2 2 2 2 2 2 2 2 2 ",
"2 2 2 2 2 2 2 2 2 2 2 2 2 2 2 2 2 2 2 8 N.R.R.R.G.` ` G.R.R.R.R.R.R.R.l.` i.R.R.R.R.U.7.2 2 2 2 2 2 2 2 2 2 2 2 2 2 2 2 2 2 2 2 ",
"2 2 2 2 2 2 2 2 2 2 2 2 2 2 2 2 2 2 2 8.<.H.R.R.R.R.R.R.R.R.R.R.R.R.R.R.R.R.R.R.R.N.2.1.q 2 2 2 2 2 2 2 2 2 2 2 2 2 2 2 2 2 2 2 ",
"2 2 2 2 2 2 2 2 2 2 2 2 2 2 2 2 2 9 w <.-.h.G.R.R.R.R.R.R.R.R.R.R.R.R.R.R.R.R.R.H.y.-.-.6.2 2 2 2 2 2 2 2 2 2 2 2 2 2 2 2 2 2 2 ",
"2 2 2 2 2 2 2 2 2 2 2 2 2 2 2 2 4.%.%.%.-.y.A.D.R.R.R.R.R.R.R.R.R.R.R.R.R.R.R.D.Z.2.&.%.%.$.r 2 2 2 2 2 2 2 2 2 2 2 2 2 2 2 2 2 ",
"2 2 2 2 2 2 2 2 2 2 2 2 2 2 2 u %.%.%.%.&.-.B.A.A.G.H.R.R.R.R.R.R.R.R.R.H.G.A.G.J.-.%.%.%.%.:.9 2 2 2 2 2 2 2 2 2 2 2 2 2 2 2 2 ",
"2 2 2 2 2 2 < < 2 2 2 2 2 2 0 %.%.%.%.%.%.-.q.R.D.A.A.D.G.G.G.G.G.G.G.D.A.D.H.Y.2.-.%.%.%.%.%.@.2 2 2 2 2 2 2 2 2 2 2 2 2 2 2 2 ",
"2 2 2 2 2 2 2 < 2 2 2 2 2 2 @.%.%.%.%.%.%.-.-.u.R.H.D.A.A.A.A.A.A.A.A.A.G.R.T.q.-.&.%.%.%.%.%.%.w 2 2 2 2 2 2 2 2 2 2 2 2 2 2 2 ",
"2 2 2 2 2 2 2 2 2 2 2 2 2 9 %.%.%.%.%.%.%.-.-.-.t.T.R.H.G.D.D.D.D.G.H.R.R.Y.3.-.-.&.%.%.%.%.%.%.4.2 2 2 2 2 2 2 2 2 2 2 2 2 2 2 ",
"2 2 2 2 2 2 2 2 2 2 2 2 2 y %.%.%.%.%.%.%.-.-.-.-.3.I.R.R.R.R.R.R.R.R.R.K.2.-.-.-.&.%.%.%.%.%.%.:.2 2 2 2 2 2 2 2 2 2 2 2 2 2 2 ",
"2 2 2 2 2 2 2 2 2 2 2 2 2 #.%.%.+.%.%.%.&.-.-.-.-.-.-.q.u.P.I.I.I.L.t.3.-.-.-.-.-.-.%.%.%.%.%.%.%.0 2 2 2 2 2 2 2 2 2 2 2 2 2 2 ",
"2 2 2 2 2 2 2 2 2 2 2 2 2 ;.%.%.%.%.%.%.&.-.-.-.-.-.-.-.-.-.-.-.-.-.-.-.-.-.-.-.-.-.%.%.%.%.%.%.%.y 2 2 2 2 2 2 2 2 2 2 2 2 2 2 ",
"2 2 2 2 2 2 2 2 2 2 2 2 2 %.%.%.%.%.%.%.-.-.-.-.-.-.-.-.-.-.-.-.-.-.-.-.-.-.-.-.-.-.&.%.%.%.%.%.%.5.2 2 2 2 2 2 2 2 2 2 2 2 2 2 ",
"2 2 2 2 2 2 2 2 2 2 2 2 2 %.f.M.M.g.%.%.-.-.-.-.-.-.-.-.-.-.-.-.-.-.-.-.-.-.-.-.-.-.=.%.%.M.R.R.z.5.2 2 2 2 2 2 2 2 2 2 2 2 2 2 ",
"2 2 2 2 2 2 2 2 2 2 2 2 2 e.R.R.R.R.r.&.-.-.-.-.-.-.-.-.-.-.-.-.-.-.-.-.-.-.-.-.-.-.-.%.w.R.R.R.R.a.2 2 2 2 2 2 2 2 2 2 2 2 2 2 ",
"2 2 2 2 2 2 2 2 2 2 2 2 2 S.R.R.R.R.d.<.-.-.-.-.-.-.-.-.-.-.-.-.-.-.-.-.-.-.-.-.-.-.-.-.r.R.R.R.R.S.2 2 2 2 2 2 2 2 2 2 2 2 2 2 ",
"2 2 2 2 2 2 2 2 2 2 2 2 2 R.R.R.R.R.x.9.-.-.-.-.-.-.-.-.-.-.-.-.-.-.-.-.-.-.-.-.-.-.-.0.s.R.R.R.R.R.2 2 2 2 2 2 2 2 2 2 2 2 2 2 ",
"2 2 2 2 2 2 2 2 2 2 2 2 2 H.R.R.R.R.{ 2 ,.-.-.-.-.-.-.-.-.-.-.-.-.-.-.-.-.-.-.-.-.-.1.q { R.R.R.R.H.2 2 2 2 2 2 2 2 2 2 2 2 2 2 ",
"2 2 2 2 2 2 2 2 2 2 2 2 2 p.R.R.R.v.2 2 0 1.-.-.-.-.-.-.-.-.-.-.-.-.-.-.-.-.-.-.-.-.t 2 2 x.R.R.R.} 2 2 2 2 2 2 2 2 2 2 2 2 2 2 ",
"2 2 2 2 2 2 2 2 2 2 2 2 2 2 ' [ [ 2 2 2 2 e 1.-.-.-.-.-.-.-.-.-.-.:.% + + + % :.-.7.2 2 2 2 2 { ] 2 2 2 2 2 2 2 2 2 2 2 2 2 2 2 ",
"2 2 2 2 2 2 2 2 2 2 2 2 2 < < < < 2 2 2 2 2 0 >.o + + + $ +.-.-.*.% + + + + + % t 2 2 2 2 2 2 2 2 2 2 < < < 2 2 2 2 2 2 2 2 2 2 ",
"2 2 2 2 2 2 2 2 2 2 2 2 < < < < < < 2 2 2 2 2 - + + + + + $ :.-.O.+ + + + + + + 7 2 2 2 2 2 2 2 2 2 < < < < < 2 2 2 2 2 2 2 2 2 ",
"2 2 2 2 2 2 2 2 2 2 2 2 < < < < < < 2 2 2 2 2 + + + + + + + X -.X + + + + + + + - 2 2 2 2 2 2 2 2 2 < < < < < 2 2 2 2 2 2 2 2 2 ",
"2 2 2 2 2 2 2 2 2 2 2 2 2 < < < < 2 2 2 2 2 7 + + + + + + + + t * + + + + + + + - 2 2 2 2 2 2 2 2 2 2 < < < 2 2 2 2 2 2 2 2 2 2 ",
"2 2 2 2 2 2 2 2 2 2 2 2 2 2 < < 2 2 2 2 2 2 7 + + + + + + + + 2 6 + + + + + + + 7 2 2 2 2 2 2 2 2 2 2 2 2 2 2 2 2 2 2 2 2 2 2 2 ",
"2 2 2 2 2 2 2 2 2 2 2 2 2 2 2 2 2 2 2 2 2 2 2 @ + + + + + + = 2 2 1 7 - - - 7 1 2 2 2 2 2 2 2 2 2 2 2 2 2 2 2 2 2 2 2 2 2 2 2 2 ",
"2 2 2 2 2 2 2 2 2 2 2 2 2 2 2 2 2 2 2 2 2 2 2 2 6 - - - - 7 2 2 2 2 2 2 2 2 2 2 2 2 2 2 2 2 2 2 2 2 2 2 2 2 2 2 2 2 2 2 2 2 2 2 ",
"2 2 2 2 2 2 2 2 2 2 2 2 2 2 2 2 2 2 2 2 2 2 2 2 2 2 2 2 2 2 2 2 2 2 2 2 2 2 2 2 2 2 2 2 2 2 2 2 2 2 2 2 2 2 2 2 2 2 2 2 2 2 2 2 ",
"2 2 2 2 2 2 2 2 2 2 2 2 2 2 2 2 2 2 2 2 2 2 2 2 2 2 2 2 2 2 2 2 2 2 2 2 2 2 2 2 2 2 2 2 2 2 2 2 2 2 2 2 2 2 2 2 2 2 2 2 2 2 2 2 ",
"2 2 2 2 2 2 2 2 2 2 2 2 2 2 2 2 2 2 2 2 2 2 2 2 2 2 2 2 2 2 2 2 2 2 2 2 2 2 2 2 2 2 2 2 2 2 2 2 2 2 2 2 2 2 2 2 2 2 2 2 2 2 2 2 "
};
