/* XPM */
static char *player_right_walk[] = {
/* columns rows colors chars-per-pixel */
"64 64 171 2 ",
"   c gray24",
".  c #3F473C",
"X  c #494539",
"o  c #4C4F39",
"O  c #547A3F",
"+  c #3D5A66",
"@  c #34677C",
"#  c #317078",
"$  c #494745",
"%  c #494949",
"&  c #4C5846",
"*  c #4B5148",
"=  c #464D50",
"-  c #435157",
";  c #465F55",
":  c #40555F",
">  c #525453",
",  c #4E6244",
"<  c #506645",
"1  c #526D44",
"2  c #537243",
"3  c #567843",
"4  c #6D655E",
"5  c #917B22",
"6  c #85764A",
"7  c #5B8E3A",
"8  c #5E9539",
"9  c #6E9837",
"0  c #62973E",
"q  c #659F3E",
"w  c #6F9F3C",
"e  c #73A13C",
"r  c #7AA03A",
"t  c #598241",
"y  c #5E8F40",
"u  c #5F9C58",
"i  c #609440",
"p  c #629D4A",
"a  c #73A24D",
"s  c #5C9B64",
"d  c #599A6F",
"f  c #45867A",
"g  c #569978",
"h  c #AA8D1A",
"j  c #8CA236",
"k  c #83A43A",
"l  c #9DA331",
"z  c #9DAB36",
"x  c #90A838",
"c  c #9DAD3A",
"v  c #A3A42E",
"b  c #AAA92F",
"n  c #BEA721",
"m  c #BCB32E",
"M  c #A8AD33",
"N  c #A8B139",
"B  c #BCB837",
"V  c #B2B439",
"C  c #C29F13",
"Z  c #D9AD00",
"A  c #D2AB0A",
"S  c #C1A71D",
"D  c #CDB01D",
"F  c #E6BA07",
"G  c #E7BC11",
"H  c #E6BC1F",
"J  c #C3B327",
"K  c #C4B72B",
"L  c #D4BA23",
"P  c #DDBF21",
"I  c #C4BB36",
"U  c #CDBE35",
"Y  c #FFCC00",
"T  c #F8C809",
"R  c #E3C01D",
"E  c #E9C318",
"W  c #F0C512",
"Q  c #FFCF11",
"!  c #F3C71C",
"~  c #FFCE18",
"^  c #FFD017",
"/  c #FFD119",
"(  c #D4C031",
")  c #E9C92E",
"_  c #FFCF24",
"`  c #F8CF2E",
"'  c #FFD325",
"]  c #FFD52E",
"[  c #E3C631",
"{  c #E9CB31",
"}  c #FFD13C",
"|  c #83A75B",
" . c #918377",
".. c #9E8D7F",
"X. c #AA967B",
"o. c #A8B479",
"O. c #FFD248",
"+. c #FFD354",
"@. c #FFD66D",
"#. c #FFD779",
"$. c #156A8E",
"%. c #10719B",
"&. c #1E769B",
"*. c #316B84",
"=. c #2B7492",
"-. c #137AA5",
";. c #157EAA",
":. c #257CA1",
">. c #1680AD",
",. c #1787B7",
"<. c #1F85B0",
"1. c #1C89B7",
"2. c #1788B8",
"3. c #198EBF",
"4. c #2485AE",
"5. c #328BA6",
"6. c #338BAF",
"7. c #3E8EAE",
"8. c #3E92A3",
"9. c #3290AD",
"0. c #3891A8",
"q. c #2B8EB2",
"w. c #3598BF",
"e. c #4E9788",
"r. c #529880",
"t. c #469496",
"y. c #4A9690",
"u. c #42939D",
"i. c #748C91",
"p. c #568EA1",
"a. c #4E95B0",
"s. c #5097B2",
"d. c #60A7BF",
"f. c #7BA9B6",
"g. c #6FACC0",
"h. c #7DB1C0",
"j. c #B2B982",
"k. c #9DADAB",
"l. c #90ACB0",
"z. c #8AB0B9",
"x. c #C2AB98",
"c. c #C9BD92",
"v. c #DABFA9",
"b. c #C4C193",
"n. c #D4C79F",
"m. c #FFD991",
"M. c #FFDA9D",
"N. c #DDCBA5",
"B. c #C7C0B1",
"V. c #C4C6BC",
"C. c #CEC7B9",
"Z. c #D4C5B2",
"A. c #E3CFAB",
"S. c #FFDBA9",
"D. c #E2C9B1",
"F. c #F0CFB3",
"G. c #E9D2B1",
"H. c #E9D1BA",
"J. c #F3D2B6",
"K. c #FFDCB5",
"L. c #F5D4B8",
"P. c #F8D7BB",
"I. c #F6D8BA",
"U. c #FCDBBF",
"Y. c #8CB6C0",
"T. c #9ABBC0",
"R. c #A8C0C0",
"E. c #B7C5C1",
"W. c #C5CAC1",
"Q. c #F0D9C1",
"!. c #FFDEC2",
/* pixels */
"q q q q q q q q q q q q q q q q q q q q q q q q q q q q q q q q q q q q q q q q q q q q q q q q q q q q q q q q q q q q q q q q ",
"q q q q q q q q q q q q q q q q q q q q q q q q q q q q q q q q q q q q q q q q q q q q q q q q q q q q q q q q q q q q q q q q ",
"q q q q q q q q q q q q q q q q q q q q q q q q q q q q q q q q q q q q q q q q q q q q q q q q q q q q q q q q q q q q q q q q ",
"q q q q q q q q q q q q q q q q q q q q q q q N U [ [ [ [ [ [ U 9 q q q q q q q q q q q q q q q q q q q q q q q q q q q q q q q ",
"q q q q q q q q q q q q q q q q q q q q V [ ] ' / ^ ^ ^ ^ ^ ^ ] ` ( k q q q q q q q q q q q q q q q q q q q q q q q q q q q q q ",
"q q q q q q q q q q q q q q q q q q e ) / Q Y Y Y Y Y Y Y Y Y Y Q ' ] { c q q q q q q q q q q q q q q q q q q q q q q q q q q q ",
"q q q q q q q q q q q q q q q q q q m Y Y Y Y Y Y Y Y Y Y Y Y Y Y Y T ' ] { c q q q q q q q q q q q q q q q q q q q q q q q q q ",
"q q q q q q q q q q q q q q q q e R Y Y Y Y Y Y Y Y Y Y Y Y Y Y Y Y Y Y Q ] ] V q q q q q q q q q q q q q q q q q q q q q q q q ",
"q q q q q q q q q q q q q q q e E Y Y Y Y Y Y Y Y Y Y Y Y Y Y Y Y Y Y Y Y T ] ] I q q q q q q q q q q q q q q q q q q q q q q q ",
"q q q q q q q q q q q q 8 8 q E Y Y Y Y Y Y Y Y Y Y Y Y Y Y Y Y Y Y Y Y Y Y Q ] ] V q q q q q q q q q q q q q q q q q q q q q q ",
"q q q q q q q q q q q q 8 8 J Y Y Y Y Y Y Y Y Y Y Y Y Y Y Y Y Y Y Y Y Y Y Y Y T ] ` e q q q q q q q 8 8 8 q q q q q q q q q q q ",
"q q q q q q q q q q q q 8 9 T Y Y Y Y Y Y Y Y Y Y Y Y Y Y Y Y Y Y Y Y Y Y Y Y Y T ] [ q q q q q q q 8 8 8 8 q q q q q q q q q q ",
"q q q q q q q q q q q q q L Y Y Y Y Y Y Y Y Y Y Y Y Y Y Y Y Y Y Y Y Y Y Y Y Y Y Y Q ] B q q q q q q q 8 8 q q q q q q q q q q q ",
"q q q q q q q q q q q q z Y Y Y Y Y Y Y Y Y Y Y Y Y Y Y Y Y Y Y Y Y Y Y Y Y Y Y Y Y / ` k q w n Z Z Z n w q q q q q q q q q q q ",
"q q q q q q q q q q q q R Y Y Y Y Y Y Y Y Y Y Y Y Y Y Y Y Y Y Y Y Y Y Y Y Y Y Y Y Y Y ' [ l A Z Z Z Z Z j q q q q q q q q q q q ",
"q q q q q q q q q q q k Y Y Y Y Y Y Y Y Y Y Y Y Y Y Y Y Y Y Y Y Y Y Y Y Y Y Y Y Y Y Y Y ] G Z Z Z Z Z A w q q q q q q q q q q q ",
"q q q q q q q q q q q m Y Y Y Y Y Y Y Y Y Y Y Y Y Y Y Y Y Y Y Y Y Y Y Y Y Y Y Y Y Y Y Y T ! Z Z Z Z A k q q q q q q q q q q q q ",
"q q q q q q q q q q q P Y Y Y Y Y Y Y Y Y Y Y Y Y Y Y Y Y Y Y Y Y Y Y Y Y Y Y Y Y Y Y Y Y T Z Z Z S w q q q q q q q q q q q q q ",
"q q q q q q q q q q q W Y Y Y Y Y Y Y Y Y Y Y Y Y Y Y Y Y Y Y Y Y Y Y Y Y Y Y Y Y Y Y Y Y Y Z A v q q q q q q q q q q q q q q q ",
"q q q q q q q q q q q Y Y Y Y Y Y Y Y Y Y Y Y Y Y Y Y Y Y Y Y Y Y Y Y Y Y Y Y Y Y Y Y Y Y Y D r q q q q q q q q q q q q q q q q ",
"q q q q q q q q q q q Y Y Y Y Y Y Y Y Y Y Y Y Y Y Y Y Y Y Y Y Y Y Y Y Y Y Y Y Y Y Y Y Y W z q q q q q q q q q q q q q q q q q q ",
"q q q q q q q q q q q Y Y Y Y Y Y Y Y Y Y Y Y Y Y Y Y Y Y Y Y Y Y Y Y Y Y Y Y Y Y Y Q m e q q q q q q q q q q q q q q q q q q q ",
"q q q q q q q q q q q Y Y Y Y Y Y Y Y Y Y Y Y Y Y Y Y Y Y Y Y Y Y Y Y Y Y Y Y Y H #.A.q q q q q q q q q q q q q q q q q q q q q ",
"q q q q q q q q q q q Y Y Y Y Y Y Y Y Y Y Y Y Y Y Y Y Y Y Y Y Y Y Y Y Y F C 5 X 4 !.A.q q q q q q q q q q q q q q q q q q q q q ",
"q q q q q q q q q q q R Y Y Y Y Y Y Y Y Y Y Y Y Y Y Y Y Y Y Y Y Y _ @.6         4 !.A.q q q q q q q q q q q q q q q q q q q q q ",
"q q q q q q q q q q q R Y Y Y Y Y Y Y Y Y Y Y Y Y Y Y Y Y Y ~ +.M.!.!.4         4 !.N.q q q q q q q q q q q q q q q q q q q q q ",
"q q q q q q q q q q q K Y Y Y Y Y Y Y Y Y Y Y Y Y Y Y Y O.m.!.!.!.!.!.4         4 !.b.q q q q q q q q q q q q q q q q q q q q q ",
"q q q q q q q q q q q M Y Y Y Y Y Y Y Y Y Y Y Y Y Y O.m.!.!.!.!.!.!.!. .         .!.o.q q q q q q q q q q q q q q q q q q q q q ",
"q q q q q q q q q q q k Y Y Y Y Y Y Y Y Y Y Y Y } S.!.!.!.!.!.!.!.!.!.x.        x.U.q q q q q q q q q q q q q q q q q q q q q q ",
"q q q q q q q q q q q q E Y Y Y Y Y Y Y Y Y ~ #.!.!.!.!.!.!.!.!.!.!.!.L.$     $ L.n.q q q q q q q q q q q q q q q q q q q q q q ",
"q q q q q q q q q q q q K Y Y Y Y Y Y Y Y +.K.!.!.!.!.!.!.!.!.!.!.!.!.!...    x.!.| q q q q q q q q q q q q q q q q q q q q q q ",
"q q q q q q q q q q q q x Y Y Y Y Y Y h X.!.!.!.!.!.!.!.!.!.!.!.!.!.!.!.!.v.v.!.b.q q q q q q q q q q q q q q q q q q q q q q q ",
"q q q q q q q q q q q q q R Y T P b o   x.!.!.!.!.!.!.!.!.!.!.!.!.!.!.!.!.!.!.G.q q q q q q q q q q q q q q q q q q q q q q q q ",
"q q q q q q q q q q q q q q q q q q 8 . ..!.!.!.!.!.!.!.!.!.!.!.!.!.!.!.!.!.I.a q q q q q q q q q q q q q q q q q q q q q q q q ",
"q q q q q q q q q q q q q q q q q q q # > L.!.!.!.!.!.!.!.!.!.!.!.!.!.!.!.P.F.c.q q q q q q q q q q q q q q q q q q q q q q q q ",
"q q q q q q q q q q q q q q q q q q f %.$.i.!.!.!.!.!.!.!.!.!.!.!.!.!.!.J.F.F.L.n.q q q q q q q q q q q q q q q q q q q q q q q ",
"q q q q q q q q q q q q q q q q q p 4.%.%.%.k.L.!.!.!.!.!.!.!.!.!.!.L.F.F.F.J.!.!.j.q q q q q q q q q q q q q q q q q q q q q q ",
"q q q q q q q q q q q q q q q q q t.3.-.%.%.&.D.F.J.C.V.V.H.L.L.J.F.F.F.F.F.U.!.!.J.p q q q q q q q q q q q q q q q q q q q q q ",
"q q q q q q q q q q q q q q q q d 3.3.3.-.%.%.p.B.7.>.>.>.4.B.F.F.F.F.F.F.U.!.!.!.Y.r.q q q q q q q q q q q q q q q q q q q q q ",
"q q q q q q q q q q q q q q q q u.3.3.3.3.-.%.%.;.>.>.>.>.>.4.Z.F.F.F.F.U.!.!.!.R.3.q.q q q q q q q q q q q q q q q q q q q q q ",
"q q q q q q 8 8 q q q q q q q q 3.3.3.3.3.3.2.-.>.>.>.>.>.>.>.l.F.F.L.!.!.!.Q.h.3.3.3.u q q q q q q q q q q q q q q q q q q q q ",
"q q q q q q q 8 q q q q q q q d 3.3.3.3.3.3.3.>.>.>.>.>.>.>.>.a.P.!.!.!.!.E.w.3.3.3.3.r.q q q q q q q q q q q q q q q q q q q q ",
"q q q q q q q q q q q q q q q e.3.3.3.3.3.3.2.>.>.>.>.>.>.>.>.4.Y.Y.Y.g.w.3.3.3.3.3.3.t.q q q q q q q q q q q q q q q q q q q q ",
"q q q q q q q q q q q q q q q y.3.3.3.3.3.3.,.>.>.>.>.>.>.>.>.>.3.3.3.3.3.3.3.3.3.3.3.0.q q q q q q q q q q q q q q q q q q q q ",
"q q q q q q q q q q q q q q q y.3.3.3.3.3.3.,.>.>.>.>.>.>.>.>.>.3.3.3.3.3.3.3.3.3.3.3.0.q q q q q q q q q q q q q q q q q q q q ",
"q q q q q q q q q q q q q q q e.3.3.3.3.3.3.>.>.>.>.>.>.>.>.>.>.3.3.3.3.3.3.3.3.3.3.3.0.q q q q q q q q q q q q q q q q q q q q ",
"q q q q q q q q q q q q q q q d 3.3.3.3.3.3.>.>.>.>.>.>.>.>.>.,.3.3.3.3.3.3.3.3.3.3.3.t.q q q q q q q q q q q q q q q q q q q q ",
"q q q q q q q q q q q q q q q q 3.3.3.3.3.3.,.>.6.s.s.s.6.>.>.2.3.3.3.3.3.3.3.3.3.3.3.r.q q q q q q q q q q q q q q q q q q q q ",
"q q q q q q q q q q q q q q q q 8.3.3.3.3.3.2.>.V.!.!.!.Q.6.>.3.3.3.3.3.3.3.3.3.3.3.3.p q q q q q q q q q q q q q q q q q q q q ",
"q q q q q q q q q q q q q q q q r.3.3.3.3.3.3.z.!.!.!.!.!.f.,.3.3.3.3.3.3.3.3.3.3.3.8.q q q q q q q q q q q q q q q q q q q q q ",
"q q q q q q q q q q q q q q q q q q.3.3.3.3.3.W.!.!.!.!.!.W.3.3.3.3.3.3.3.3.3.3.3.3.s q q q q q q q q q q q q q q q q q q q q q ",
"q q q q q q q q q q q q q q q q q g 3.3.3.3.3.W.!.!.!.!.!.E.3.3.3.3.3.3.3.3.3.3.3.u.q q q q q q q q q q q q q q q q q q q q q q ",
"q q q q q q q q q q q q q 3 % % % % % + *.<.3.Y.!.!.!.!.!.d.3.3.3.3.3.3.3.3.3.3.9.p q q q q q q q q q q q q q q q q q q q q q q ",
"q q q q q q q q q q q q i % % % % % % % % - =.3.h.Q.!.!.T.3.3.3.3.3.3.3.3.3.3.1.; < < < < < t q q q q q q q q q q q q q q q q q ",
"q q q q q q q q q q q q 7 % % % % % % % % % % + 1.3.3.3.3.3.3.3.3.3.3.3.3.3.<.: % % % % % % % t q q q 8 8 8 q q q q q q q q q q ",
"q q q q q q q q q q q q 8 , % % % % % % % % % % : 1.3.3.3.3.3.3.3.3.3.3.3.:.= % % % % % % % % 2 q q 8 8 8 8 8 q q q q q q q q q ",
"q q q q q q q q q q q q 8 8 O * % % % % % % % % % *.3.3.3.3.3.3.3.3.3.1.@ % % % % % % % % % % 2 q q 8 8 8 8 8 q q q q q q q q q ",
"q q q q q q q q q q q q q 8 8 7 , % % % % % % % % = 1.3.3.3.3.3.3.5.@ = % % % % % % % % % % < q q q q 8 8 8 q q q q q q q q q q ",
"q q q q q q q q q q q q q q 8 8 q t * % % % % % % % y d d d d s q 3 % % % % % % % % % % 1 y q q q q q q q q q q q q q q q q q q ",
"q q q q q q q q q q q q q q q q q q q t * % % % % % y q q q q q q t % % % % % % % , t 0 q q q q q q q q q q q q q q q q q q q q ",
"q q q q q q q q q q q q q q q q q q q q q t & % % 3 q q q q q q q q 1 % % * 1 t q q q q q q q q q q q q q q q q q q q q q q q q ",
"q q q q q q q q q q q q q q q q q q q q q q q q q q q q q q q q q q q q q q q q q q q q q q q q q q q q q q q q q q q q q q q q ",
"q q q q q q q q q q q q q q q q q q q q q q q q q q q q q q q q q q q q q q q q q q q q q q q q q q q q q q q q q q q q q q q q ",
"q q q q q q q q q q q q q q q q q q q q q q q q q q q q q q q q q q q q q q q q q q q q q q q q q q q q q q q q q q q q q q q q "
};
