/* XPM */
static char *player[] = {
/* columns rows colors chars-per-pixel */
"64 64 160 2 ",
"   c gray24",
".  c #554E35",
"X  c #4E6F3C",
"o  c #3A5E6D",
"O  c #235A71",
"+  c #34677C",
"@  c #494745",
"#  c #494949",
"$  c #4B5248",
"%  c #464D50",
"&  c #435157",
"*  c #615B55",
"=  c #4F6147",
"-  c #526D44",
";  c #577D42",
":  c #6D655E",
">  c #796F66",
",  c #857226",
"<  c #917B22",
"1  c #5F963A",
"2  c #60973A",
"3  c #659F3E",
"4  c #73A23C",
"5  c #7AA03A",
"6  c #5E8F40",
"7  c #5F9C58",
"8  c #609440",
"9  c #629C45",
"0  c #629D4A",
"q  c #73A24D",
"w  c #528C68",
"e  c #5C9B64",
"r  c #599A6F",
"t  c #569978",
"y  c #B69616",
"u  c #949A2E",
"i  c #83A63B",
"p  c #9DA331",
"a  c #9DAB36",
"s  c #90A93A",
"d  c #A3A42E",
"f  c #AAA52B",
"g  c #B7A725",
"h  c #B1A628",
"j  c #BCB32E",
"k  c #A8B139",
"l  c #B2B031",
"z  c #BCB837",
"x  c #B2B439",
"c  c #D9AD00",
"v  c #DDB205",
"b  c #DAB10B",
"n  c #CBAA12",
"m  c #C8A918",
"M  c #E9BE14",
"N  c #C4B72B",
"B  c #CDB828",
"V  c #D4BB25",
"C  c #DDBF21",
"Z  c #C4BB36",
"A  c #CABC33",
"S  c #F7C600",
"D  c #FFCC00",
"F  c #FFCD08",
"G  c #E3C01D",
"H  c #E9C31E",
"J  c #F5C711",
"K  c #FFCF14",
"L  c #FFD017",
"P  c #FFD11C",
"I  c #D4C233",
"U  c #DDC532",
"Y  c #FFCF24",
"T  c #F8CF2E",
"R  c #FFD325",
"E  c #FFD52E",
"W  c #E3C631",
"Q  c #E9CB31",
"!  c #F0CD30",
"~  c #FFD13C",
"^  c #83A75B",
"/  c #918377",
"(  c #9E8D7F",
")  c #9DB070",
"_  c #AAB27A",
"`  c #F2C840",
"'  c #FFD354",
"]  c #FFD561",
"[  c #FFD66D",
"{  c #FFD779",
"}  c #1B6482",
"|  c #11759F",
" . c #2F7A8D",
".. c #2B7492",
"X. c #1176A0",
"o. c #1680AD",
"O. c #1785B3",
"+. c #1F85B0",
"@. c #1C89B7",
"#. c #1788B8",
"$. c #198EBF",
"%. c #2384AD",
"&. c #338BAF",
"*. c #3D8CAA",
"=. c #3E92A3",
"-. c #3290AD",
";. c #3891A8",
":. c #2B8EB2",
">. c #248EB9",
",. c #2793BF",
"<. c #3598BF",
"1. c #4E9788",
"2. c #529880",
"3. c #469496",
"4. c #4A9690",
"5. c #42939D",
"6. c #4888A0",
"7. c #5A98AE",
"8. c #4191B0",
"9. c #449DBF",
"0. c #5097B2",
"q. c #519BB6",
"w. c #52A2BF",
"e. c #60A7BF",
"r. c #6FACC0",
"t. c #7DB1C0",
"y. c #AA9787",
"u. c #B2B982",
"i. c #BCBD8A",
"p. c #8EA5A8",
"a. c #8AAFB7",
"s. c #8BB4BE",
"d. c #ABAEA7",
"f. c #B9BBB1",
"g. c #CEB5A0",
"h. c #C4C193",
"j. c #CDC499",
"k. c #FFD991",
"l. c #FFDA9D",
"z. c #CBC6A5",
"x. c #DDCBA5",
"c. c #C1C2B9",
"v. c #CEC7B9",
"b. c #CFC8BA",
"n. c #D4C5B2",
"m. c #D3CCBE",
"M. c #E0CCA8",
"N. c #FFDBA9",
"B. c #E6C9B1",
"V. c #F0CFB3",
"C. c #E9D1BA",
"Z. c #F0D5B6",
"A. c #FFDCB5",
"S. c #F2D3B9",
"D. c #FBDABE",
"F. c #8CB6C0",
"G. c #9ABBC0",
"H. c #E2D4C1",
"J. c #F0D9C1",
"K. c #FFDEC2",
/* pixels */
"3 3 3 3 3 3 3 3 3 3 3 3 3 3 3 3 3 3 3 3 3 3 3 3 3 3 3 3 3 3 3 3 3 3 3 3 3 3 3 3 3 3 3 3 3 3 3 3 3 3 3 3 3 3 3 3 3 3 3 3 3 3 3 3 ",
"3 3 3 3 3 3 3 3 3 3 3 3 3 3 3 3 3 3 3 3 3 3 3 3 3 3 3 3 3 3 3 3 3 3 3 3 3 3 3 3 3 3 3 3 3 3 3 3 3 3 3 3 3 3 3 3 3 3 3 3 3 3 3 3 ",
"3 3 3 3 3 3 3 3 3 3 3 3 3 3 3 3 3 3 3 3 3 3 3 3 3 3 3 3 3 3 3 z W W W W W W I x i 3 3 3 3 3 3 3 3 3 3 3 3 3 3 3 3 3 3 3 3 3 3 3 ",
"3 3 3 3 3 3 3 3 3 3 3 3 3 3 3 3 3 3 3 3 3 3 3 3 3 3 3 3 4 Z ! E R L L L L L P R E ! I i 3 3 3 3 3 3 3 3 3 3 3 3 3 3 3 3 3 3 3 2 ",
"3 3 3 3 3 3 3 3 3 3 3 3 3 3 3 3 3 3 3 3 3 3 3 3 3 3 i I T E K F D D D D D D D D D F P T s 3 3 3 3 3 3 3 3 3 3 3 3 3 3 3 3 3 3 3 ",
"3 3 3 3 3 3 3 3 3 3 3 3 3 3 3 3 3 3 3 3 3 3 3 3 i U E E K D D D D D D D D D D D D D D D V 4 3 3 3 3 3 3 3 3 3 3 3 3 3 3 3 3 3 3 ",
"3 3 3 3 3 3 3 3 3 3 3 3 3 3 3 3 3 3 3 3 3 3 3 s T E P D D D D D D D D D D D D D D D D D D J s 3 3 3 3 3 3 3 3 3 3 3 3 3 3 3 3 3 ",
"3 3 3 3 3 3 3 3 3 3 3 3 3 3 3 3 3 3 3 3 3 3 k T E P D D D D D D D D D D D D D D D D D D D D F s 3 3 3 3 3 3 3 3 3 3 3 3 3 3 3 3 ",
"3 3 3 3 3 3 3 3 3 3 3 3 3 3 3 3 3 3 3 3 3 s T E P D D D D D D D D D D D D D D D D D D D D D D F i 3 3 3 3 3 3 3 3 3 3 3 3 3 3 3 ",
"3 3 3 3 3 3 3 3 3 3 3 3 3 3 3 3 3 3 3 3 3 W E K D D D D D D D D D D D D D D D D D D D D D D D D G 3 3 3 3 3 3 3 3 3 3 3 3 3 3 3 ",
"3 3 3 3 3 3 3 3 3 3 3 3 3 3 3 3 3 3 3 3 Z E P D D D D D D D D D D D D D D D D D D D D D D D D D D a 3 3 3 3 3 3 3 3 3 3 3 3 3 3 ",
"3 3 3 3 3 3 3 3 3 3 3 3 3 3 3 3 3 3 3 s E P D D D D D D D D D D D D D D D D D D D D D D D D D D D J 3 3 3 3 3 3 3 3 3 3 3 3 3 3 ",
"3 3 3 3 3 3 3 3 3 3 3 p m c c n 5 3 3 Q R D D D D D D D D D D D D D D D D D D D D D D D D D D D D D N 3 3 3 3 3 3 3 3 3 3 3 3 3 ",
"3 3 3 3 3 3 3 3 3 3 3 c c c c c c f A E F D D D D D D D D D D D D D D D D D D D D D D D D D D D D D F 4 3 3 3 3 3 3 3 3 3 3 3 3 ",
"3 3 3 3 3 3 3 3 3 3 3 h c c c c c v E F D D D D D D D D D D D D D D D D D D D D D D D D D D D D D D D l 3 3 3 3 3 3 3 3 3 3 3 3 ",
"3 3 3 3 3 3 3 3 3 3 3 3 g c c c c M K D D D D D D D D D D D D D D D D D D D D D D D D D D D D D D D D C 3 3 3 3 3 3 3 3 3 3 3 3 ",
"3 3 3 3 3 3 3 3 3 3 3 3 3 f c c c J D D D D D D D D D D D D D D D D D D D D D D D D D D D D D D D D D F 3 3 3 3 3 3 3 3 3 3 3 3 ",
"3 3 3 3 3 3 3 3 3 3 3 3 3 3 i m c S D D D D D D D D D D D D D D D D D D D D D D D D D D D D D D D D D D i 3 3 3 3 3 3 3 3 3 3 3 ",
"3 3 3 3 3 3 3 3 3 3 3 3 3 3 3 3 d D D D D D D D D D D D D D D D D D D D D D D D D D D D D D D D D D D D a 3 3 3 3 3 3 3 3 3 3 3 ",
"3 3 3 3 3 3 3 3 3 3 3 3 3 3 3 3 3 i G D D D D D D D D D D D D D D D D D D D D D D D D D D D D D D D D D a 3 3 3 3 3 3 3 3 3 3 3 ",
"3 3 3 3 3 3 3 3 3 3 3 3 3 3 3 3 3 3 3 l H D D D D D D D D D D D D D D D D D D D D D D D D D D D D D D D a 3 3 3 3 3 3 3 3 3 3 3 ",
"3 3 3 3 3 3 3 3 3 3 3 3 3 3 3 3 3 3 3 3 h.k.` D D D D D D D D D D D D D D D D D D D D D D D D D D D D D a 3 3 3 3 3 3 3 3 3 3 3 ",
"3 3 3 3 3 3 3 3 3 3 3 3 3 3 3 3 3 3 3 3 h.K.(   , y b D D D D D D D D D D D D D D D D D D D D D D D D D a 3 3 3 3 3 3 3 3 3 3 3 ",
"3 3 3 3 3 3 3 3 3 3 3 3 3 3 3 3 3 3 3 3 h.K.(         . { ~ D D D D D D D D D D D D D D D D D D D D D D 3 3 3 3 3 3 3 3 3 3 3 3 ",
"3 3 3 3 3 3 3 3 3 3 3 3 3 3 3 3 3 3 3 3 i.K.(           K.K.N.[ Y D D D D D D D D D D D D D D D D D D D 3 3 3 3 3 3 3 3 3 3 3 3 ",
"3 3 3 3 3 3 3 3 3 3 3 3 3 3 3 3 3 3 3 3 ) K.y.          K.K.K.K.K.N.' F D D D D D D D D D D D D D D D G 3 3 3 3 3 3 3 3 3 3 3 3 ",
"3 3 3 3 3 3 3 3 3 3 3 3 3 3 3 3 3 3 3 3 q K.g.        * K.K.K.K.K.K.K.N.' F D D D D D D D D D D D D D B 3 3 3 3 3 3 3 3 3 3 3 3 ",
"3 3 3 3 3 3 3 3 3 3 3 3 3 3 3 3 3 3 3 3 3 x.K.@       / K.K.K.K.K.K.K.K.K.A.] D D D D D D D D D D D D l 3 3 3 3 3 3 3 3 3 3 3 3 ",
"3 3 3 3 3 3 3 3 3 3 3 3 3 3 3 3 3 3 3 3 3 u.K./       g.K.K.K.K.K.K.K.K.K.K.K.l.Y D D D D D D D D D D 4 3 3 3 3 3 3 3 3 3 3 3 3 ",
"3 3 3 3 3 3 3 3 3 3 3 3 3 3 3 3 3 3 3 3 3 3 Z.S.@   : K.K.K.K.K.K.K.K.K.K.K.K.K.K.[ F D D D D D D D H 3 3 3 3 3 3 3 3 3 3 3 3 3 ",
"3 3 3 3 3 3 3 3 3 3 3 3 3 3 3 3 3 3 3 3 3 3 ) K.B.g.K.K.K.K.K.K.K.K.K.K.K.K.K.K.K.K.g.< S D D D D D j 3 3 3 3 3 3 3 3 3 3 3 3 3 ",
"3 3 3 3 3 3 3 3 3 3 3 3 3 3 3 3 3 3 3 3 3 3 3 j.K.K.K.K.K.K.K.K.K.K.K.K.K.K.K.K.K.K.S.    u V J D D i 3 3 3 3 3 3 3 3 3 3 3 3 3 ",
"3 3 3 3 3 3 3 3 3 3 3 3 3 3 3 3 3 3 3 3 3 3 3 3 M.K.K.K.K.K.K.K.K.K.K.K.K.K.K.K.K.K.g.  X 3 3 3 3 3 3 3 3 3 3 3 3 3 3 3 3 3 3 3 ",
"3 3 3 3 3 3 3 3 3 3 3 3 3 3 3 3 3 3 3 3 3 3 3 _ V.S.K.K.K.K.K.K.K.K.K.K.K.K.K.K.K.K.> O 9 3 3 3 3 3 3 3 3 3 3 3 3 3 3 3 3 3 3 3 ",
"3 3 3 3 3 3 3 3 3 3 3 3 3 3 3 3 3 3 3 3 3 3 u.D.V.V.Z.D.K.K.K.K.K.K.K.K.K.K.K.K.K.d.} |  .3 3 3 3 3 3 3 3 3 3 3 3 3 3 3 3 3 3 3 ",
"3 3 3 3 3 3 3 3 3 3 3 3 3 3 3 3 3 3 3 3 3 ^ K.K.S.V.V.V.Z.D.K.K.K.K.K.K.K.K.K.S.n.| | | X.r 3 3 3 3 3 3 3 3 3 3 3 3 3 3 3 3 3 3 ",
"1 2 3 3 3 3 3 3 3 3 3 3 3 3 3 3 3 3 3 3 3 z.K.K.K.Z.V.V.V.V.Z.S.S.C.c.c.v.Z.V.V.6.| | | #.:.3 3 3 3 3 3 3 3 3 3 3 3 3 3 3 3 3 3 ",
"1 1 3 3 3 3 3 3 3 3 3 3 3 3 3 3 3 3 3 3 7 w.K.K.K.D.Z.V.V.V.V.V.f.%.o.o.o.7.V.p.| | X.#.$.$.4.3 3 3 3 3 3 3 3 3 3 3 3 3 3 3 3 3 ",
"1 1 1 3 3 3 3 3 3 3 3 3 3 3 3 3 3 3 3 3 5.$.r.K.K.K.K.Z.V.V.V.n.o.o.o.o.o.o.*.| | X.$.$.$.$.:.3 3 3 3 3 3 3 3 3 3 3 3 3 3 3 3 3 ",
"1 1 1 3 3 3 3 3 3 3 3 3 3 3 3 3 3 3 3 3 :.$.$.w.H.K.K.K.D.Z.V.7.o.o.o.o.o.o.o.| O.$.$.$.$.$.$.r 3 3 3 3 3 3 3 3 3 3 3 3 3 3 3 3 ",
"1 1 1 2 3 3 3 3 3 3 3 3 3 3 3 3 3 3 3 7 $.$.$.$.,.G.J.K.K.K.b.o.o.o.o.o.o.o.o.O.$.$.$.$.$.$.$.1.3 3 3 3 3 3 3 3 3 3 3 3 3 3 3 3 ",
"1 1 1 1 3 3 3 3 3 3 3 3 3 3 3 3 3 3 3 r $.$.$.$.$.$.,.e.F.F.q.o.o.o.o.o.o.o.o.o.$.$.$.$.$.$.$.=.3 3 3 3 3 3 3 3 3 3 3 3 3 3 3 3 ",
"1 1 1 1 3 3 3 3 3 3 3 3 3 3 3 3 3 3 3 1.$.$.$.$.$.$.$.$.$.$.O.o.o.o.o.o.o.o.o.o.$.$.$.$.$.$.$.;.3 3 3 3 3 3 3 3 3 3 3 3 3 3 3 3 ",
"1 1 1 1 3 3 3 3 3 3 3 3 3 3 3 3 3 3 3 4.$.$.$.$.$.$.$.$.$.$.O.o.o.o.o.o.o.o.o.o.$.$.$.$.$.$.$.;.3 3 3 3 3 3 3 3 3 3 3 3 3 3 3 3 ",
"1 1 1 2 3 3 3 3 3 3 3 3 3 3 3 3 3 3 3 r $.$.$.$.$.$.$.$.$.$.O.o.o.o.o.o.o.o.o.o.$.$.$.$.$.$.$.=.3 3 3 3 3 3 3 3 3 3 3 3 3 3 3 3 ",
"1 1 1 2 3 3 3 3 3 3 3 3 3 3 3 3 3 3 3 r $.$.$.$.$.$.$.$.$.$.O.o.o.o.o.o.o.o.o.o.$.$.$.$.$.$.$.4.3 3 3 3 3 3 3 3 3 3 3 3 3 3 3 3 ",
"1 1 1 1 3 3 3 3 3 3 3 3 3 3 3 3 3 3 3 3 $.$.$.$.$.$.$.$.$.$.O.o.o.&.0.0.8.o.o.o.$.$.$.$.$.$.$.r 3 3 3 3 3 3 3 3 3 3 3 3 3 3 3 3 ",
"1 1 2 2 3 3 3 3 3 3 3 3 3 3 3 3 3 3 3 3 =.$.$.$.$.$.$.$.$.$.$.o.0.K.K.K.K.a.o.O.$.$.$.$.$.$.>.3 3 3 3 3 3 3 3 3 3 3 3 3 3 3 3 3 ",
"1 1 1 3 3 3 3 3 3 3 3 3 3 3 3 3 3 3 3 3 2.$.$.$.$.$.$.$.$.$.$.O.m.K.K.K.K.K.8.$.$.$.$.$.$.$.5.3 3 3 3 3 3 3 3 3 3 3 3 3 3 3 3 3 ",
"1 2 1 3 3 3 3 3 3 3 3 3 3 3 3 3 3 3 3 3 3 :.$.$.$.$.$.$.$.$.$.w.K.K.K.K.K.K.s.$.$.$.$.$.$.$.r 3 3 3 3 3 3 3 3 3 3 3 3 3 3 3 3 3 ",
"1 3 3 3 3 3 3 3 3 3 3 3 3 3 3 3 3 3 3 3 3 t $.$.$.$.$.$.$.$.$.9.K.K.K.K.K.K.t.$.$.$.$.$.$.5.3 3 3 3 3 3 3 3 3 3 3 3 3 3 3 3 3 3 ",
"3 3 3 3 3 3 3 3 3 3 3 3 3 3 3 3 3 3 3 3 3 3 5.$.$.$.$.$.$.$.$.$.H.K.K.K.K.K.<.$.$.$.$.$.>.0 3 3 3 3 3 3 3 3 3 3 3 3 3 3 3 3 3 3 ",
"3 3 3 3 3 3 3 3 3 3 3 3 3 3 3 3 3 3 3 3 3 3 0 ;.$.$.$.$.$.$.$.$.9.H.K.K.J.r.$.$.$.$.$.$.e 3 3 3 3 3 3 3 3 3 3 3 3 3 3 3 3 3 3 3 ",
"3 3 3 3 3 3 3 3 3 3 3 3 3 3 3 3 3 3 3 3 3 3 3 0 ;.$.$.$.$.$.$.$.$.,.w.w.<.$.$.$.$.$.>.2.3 3 3 3 3 3 3 3 3 3 3 3 3 3 3 3 3 3 3 3 ",
"3 3 3 3 3 3 3 3 3 3 3 3 3 3 3 3 3 3 3 3 3 3 3 3 3 3.$.+.+ % # # # # # # o ..$.$.$.-.r 3 3 3 3 3 3 3 3 3 3 3 3 3 3 3 3 3 3 3 3 3 ",
"3 3 3 3 3 3 3 3 3 3 3 3 3 3 3 3 3 3 3 3 3 3 3 3 3 3 w & # # # # # # # # # # + @.1.3 3 3 3 3 3 3 3 3 3 3 3 3 3 3 3 3 3 3 3 3 3 3 ",
"3 3 3 3 3 3 3 3 3 3 3 3 3 3 3 3 3 3 3 3 3 3 3 3 3 2 $ # # # # # # # # # # # # = 3 3 3 3 3 3 3 3 3 3 3 3 3 3 3 3 3 3 3 3 3 3 3 3 ",
"3 3 3 3 3 3 3 3 3 3 3 3 3 3 3 3 3 3 3 3 3 3 3 3 3 ; # # # # # # # # # # # # # # 8 3 3 3 3 3 3 3 3 3 3 3 3 3 3 3 3 3 3 3 3 3 3 3 ",
"3 3 3 3 3 3 3 3 3 3 3 3 3 3 3 3 3 3 3 3 3 3 3 3 3 ; # # # # # # # # # # # # # # 6 3 3 3 3 3 3 3 3 3 3 3 3 3 3 3 3 3 3 3 3 3 3 3 ",
"3 3 3 3 3 3 3 3 3 3 3 3 3 3 3 3 3 3 3 3 3 3 3 3 3 2 = # # # # # # # # # # # # - 3 3 3 3 3 3 3 3 3 3 3 3 3 3 3 3 3 3 3 3 3 3 3 3 ",
"3 3 3 3 3 3 3 3 3 3 3 3 3 3 3 3 3 3 3 3 3 3 3 3 3 3 3 3 6 6 6 6 6 6 6 6 6 6 3 3 3 3 3 3 3 3 3 3 3 3 3 3 3 3 3 3 3 3 3 3 3 3 3 3 ",
"3 3 3 3 3 3 3 3 3 3 3 3 3 3 3 3 3 3 3 3 3 3 3 3 3 3 3 3 3 3 3 3 3 3 3 3 3 3 3 3 3 3 3 3 3 3 3 3 3 3 3 3 3 3 3 3 3 3 3 3 3 3 3 3 ",
"3 3 3 3 3 3 3 3 3 3 3 3 3 3 3 3 3 3 3 3 3 3 3 3 3 3 3 3 3 3 3 3 3 3 3 3 3 3 3 3 3 3 3 3 3 3 3 3 3 3 3 3 3 3 3 3 3 3 3 3 3 3 3 3 ",
"3 3 3 3 3 3 3 3 3 3 3 3 3 3 3 3 3 3 3 3 3 3 3 3 3 3 3 3 3 3 3 3 3 3 3 3 3 3 3 3 3 3 3 3 3 3 3 3 3 3 3 3 3 3 3 3 3 3 3 3 3 3 3 3 "
};
