/* XPM */
static char *player_right_stand[] = {
/* columns rows colors chars-per-pixel */
"64 64 159 2 ",
"   c gray24",
".  c #494539",
"X  c #40483C",
"o  c #4C4F39",
"O  c #376275",
"+  c #327279",
"@  c #494745",
"#  c #494949",
"$  c #464D50",
"%  c #525453",
"&  c #506645",
"*  c #567843",
"=  c #6D655E",
"-  c #477C6E",
";  c #917B22",
":  c #85764A",
">  c #5E9539",
",  c #699537",
"<  c #6E9837",
"1  c #659F3E",
"2  c #6F9F3C",
"3  c #73A13C",
"4  c #7AA03A",
"5  c #598241",
"6  c #5E8F40",
"7  c #5F9C58",
"8  c #609440",
"9  c #629D4A",
"0  c #73A24D",
"q  c #5C9B64",
"w  c #599A6F",
"e  c #45867A",
"r  c #569978",
"t  c #AA8D1A",
"y  c #BDA41E",
"u  c #8CA236",
"i  c #83A43A",
"p  c #9DA331",
"a  c #9CA834",
"s  c #90A838",
"d  c #9DAD3A",
"f  c #A3A42E",
"g  c #AAA92F",
"h  c #BEA721",
"j  c #BCB32E",
"k  c #A8AD33",
"l  c #A8B139",
"z  c #BCB837",
"x  c #B2B439",
"c  c #C29F13",
"v  c #D9AD00",
"b  c #D2AB0A",
"n  c #C1A71D",
"m  c #CDB01D",
"M  c #E6BA07",
"N  c #E7BC11",
"B  c #E6BC1F",
"V  c #C4B429",
"C  c #D3B821",
"Z  c #DDBF21",
"A  c #C4BB36",
"S  c #CDBE35",
"D  c #FFCC00",
"F  c #F8C808",
"G  c #E3C01D",
"H  c #E9C318",
"J  c #F0C512",
"K  c #FFCF11",
"L  c #F3C71C",
"P  c #FFCE18",
"I  c #FFD017",
"U  c #FFD119",
"Y  c #D4C133",
"T  c #E9C92E",
"R  c #FFCF24",
"E  c #F8CF2E",
"W  c #FFD325",
"Q  c #FFD52E",
"!  c #E3C631",
"~  c #E9CB31",
"^  c #FFD13C",
"/  c #83A75B",
"(  c #918377",
")  c #9E8D7F",
"_  c #AA967B",
"`  c #A8B479",
"'  c #FFD248",
"]  c #FFD354",
"[  c #FFD66D",
"{  c #FFD779",
"}  c #156A8E",
"|  c #11749E",
" . c #1E769B",
".. c #2E6F8B",
"X. c #127AA5",
"o. c #157EAA",
"O. c #257CA1",
"+. c #1680AD",
"@. c #1682B0",
"#. c #1788B8",
"$. c #198EBF",
"%. c #2081A8",
"&. c #3C88A5",
"*. c #338BAF",
"=. c #3E92A3",
"-. c #3290AD",
";. c #3891A8",
":. c #2B8EB2",
">. c #248EB9",
",. c #338DB1",
"<. c #2793BF",
"1. c #3598BF",
"2. c #4E9788",
"3. c #529880",
"4. c #469496",
"5. c #4A9690",
"6. c #42939D",
"7. c #748C91",
"8. c #568EA1",
"9. c #4191B0",
"0. c #449DBF",
"q. c #5097B2",
"w. c #52A2BF",
"e. c #6FACC0",
"r. c #7DB1C0",
"t. c #B2B982",
"y. c #9DADAB",
"u. c #8AAFB7",
"i. c #90ACB0",
"p. c #95B1B5",
"a. c #9EB1B0",
"s. c #C2AB98",
"d. c #C9BD92",
"f. c #DABFA9",
"g. c #C4C193",
"h. c #D4C79F",
"j. c #FFD991",
"k. c #FFDA9D",
"l. c #DDCBA5",
"z. c #C1C2B9",
"x. c #DCCCB9",
"c. c #E3CFAB",
"v. c #FFDBA9",
"b. c #E2C9B1",
"n. c #F0CFB3",
"m. c #E9D2B1",
"M. c #E1D2BF",
"N. c #F3D2B6",
"B. c #FFDCB5",
"V. c #F2D3B9",
"C. c #F8D7BB",
"Z. c #F6D8BA",
"A. c #FAD9BD",
"S. c #8CB6C0",
"D. c #A8C0C0",
"F. c #B7C5C1",
"G. c #E2D4C1",
"H. c #F0D9C1",
"J. c #FFDEC2",
/* pixels */
"1 1 1 1 1 1 1 1 1 1 1 1 1 1 1 1 1 1 1 1 1 1 1 1 1 1 1 1 1 1 1 1 1 1 1 1 1 1 1 1 1 1 1 1 1 1 1 1 1 1 1 1 1 1 1 1 1 1 1 1 1 1 1 1 ",
"1 1 1 1 1 1 1 1 1 1 1 1 1 1 1 1 1 1 1 1 1 1 1 1 1 1 1 1 1 1 1 1 1 1 1 1 1 1 1 1 1 1 1 1 1 1 1 1 1 1 1 1 1 1 1 1 1 1 1 1 1 1 1 1 ",
"1 1 1 1 1 1 1 1 1 1 1 1 1 1 1 1 1 1 1 1 1 1 1 l S ! ! ! ! ! ! S 3 1 1 1 1 1 1 1 1 1 1 1 1 1 1 1 1 1 1 1 1 1 1 1 1 1 1 1 1 1 1 1 ",
"1 1 1 1 1 1 1 1 1 1 1 1 1 1 1 1 1 1 1 1 x ! Q W U I I I I I I Q E Y i 1 1 1 1 1 1 1 1 1 1 1 1 1 1 1 1 1 1 1 1 1 1 1 1 1 1 1 1 1 ",
"1 1 1 1 1 1 1 1 1 1 1 1 1 1 1 1 1 1 3 T U K D D D D D D D D D D K W Q ~ d 1 1 1 1 1 1 1 1 1 1 1 1 1 1 1 1 1 1 1 1 1 1 1 1 1 1 1 ",
"1 1 1 1 1 1 1 1 1 1 1 1 1 1 1 1 1 1 j D D D D D D D D D D D D D D D F W Q ~ d 1 1 1 1 1 1 1 1 1 1 1 1 1 1 1 1 1 1 1 1 1 1 1 1 1 ",
"1 1 1 1 1 1 1 1 1 1 1 1 1 1 1 1 3 G D D D D D D D D D D D D D D D D D D K Q Q x 1 1 1 1 1 1 1 1 1 1 1 1 1 1 1 1 1 1 1 1 1 1 1 1 ",
"1 1 1 1 1 1 1 1 1 1 1 1 1 1 1 3 H D D D D D D D D D D D D D D D D D D D D F Q Q A 1 1 1 1 1 1 1 1 1 1 1 1 1 1 1 1 1 1 1 1 1 1 1 ",
"1 1 1 1 1 1 1 1 1 1 1 1 1 1 1 H D D D D D D D D D D D D D D D D D D D D D D K Q Q x 1 1 1 1 1 1 1 1 1 1 1 1 1 1 1 1 1 1 1 1 1 1 ",
"1 1 1 1 1 1 1 1 1 1 1 1 > > V D D D D D D D D D D D D D D D D D D D D D D D D F Q E 3 1 1 1 1 1 1 1 1 1 1 1 1 1 1 1 1 1 1 1 1 1 ",
"1 1 1 1 1 1 1 1 1 1 1 1 > < F D D D D D D D D D D D D D D D D D D D D D D D D D F Q ! 1 1 1 1 1 1 1 > > > 1 1 1 1 1 1 1 1 1 1 1 ",
"1 1 1 1 1 1 1 1 1 1 1 1 > C D D D D D D D D D D D D D D D D D D D D D D D D D D D K Q z 1 1 1 1 1 1 > > > > 1 1 1 1 1 1 1 1 1 1 ",
"1 1 1 1 1 1 1 1 1 1 1 1 a D D D D D D D D D D D D D D D D D D D D D D D D D D D D D U E i 1 2 h v v v y , 1 1 1 1 1 1 1 1 1 1 1 ",
"1 1 1 1 1 1 1 1 1 1 1 1 G D D D D D D D D D D D D D D D D D D D D D D D D D D D D D D W ! p b v v v v v u 1 1 1 1 1 1 1 1 1 1 1 ",
"1 1 1 1 1 1 1 1 1 1 1 i D D D D D D D D D D D D D D D D D D D D D D D D D D D D D D D D Q N v v v v v b 2 1 1 1 1 1 1 1 1 1 1 1 ",
"1 1 1 1 1 1 1 1 1 1 1 j D D D D D D D D D D D D D D D D D D D D D D D D D D D D D D D D F L v v v v b i 1 1 1 1 1 1 1 1 1 1 1 1 ",
"1 1 1 1 1 1 1 1 1 1 1 Z D D D D D D D D D D D D D D D D D D D D D D D D D D D D D D D D D F v v v n 2 1 1 1 1 1 1 1 1 1 1 1 1 1 ",
"1 1 1 1 1 1 1 1 1 1 1 J D D D D D D D D D D D D D D D D D D D D D D D D D D D D D D D D D D v b f 1 1 1 1 1 1 1 1 1 1 1 1 1 1 1 ",
"1 1 1 1 1 1 1 1 1 1 1 D D D D D D D D D D D D D D D D D D D D D D D D D D D D D D D D D D D m 4 1 1 1 1 1 1 1 1 1 1 1 1 1 1 1 1 ",
"1 1 1 1 1 1 1 1 1 1 1 D D D D D D D D D D D D D D D D D D D D D D D D D D D D D D D D D J a 1 1 1 1 1 1 1 1 1 1 1 1 1 1 1 1 1 1 ",
"1 1 1 1 1 1 1 1 1 1 1 D D D D D D D D D D D D D D D D D D D D D D D D D D D D D D D K j 3 1 1 1 1 1 1 1 1 1 1 1 1 1 1 1 1 1 1 1 ",
"1 1 1 1 1 1 1 1 1 1 1 D D D D D D D D D D D D D D D D D D D D D D D D D D D D D B { c.1 1 1 1 1 1 1 1 1 1 1 1 1 1 1 1 1 1 1 1 1 ",
"1 1 1 1 1 1 1 1 1 1 1 D D D D D D D D D D D D D D D D D D D D D D D D D M c ; . = J.c.1 1 1 1 1 1 1 1 1 1 1 1 1 1 1 1 1 1 1 1 1 ",
"1 1 1 1 1 1 1 1 1 1 1 G D D D D D D D D D D D D D D D D D D D D D R [ :         = J.c.1 1 1 1 1 1 1 1 1 1 1 1 1 1 1 1 1 1 1 1 1 ",
"1 1 1 1 1 1 1 1 1 1 1 G D D D D D D D D D D D D D D D D D D P ] k.J.J.=         = J.l.1 1 1 1 1 1 1 1 1 1 1 1 1 1 1 1 1 1 1 1 1 ",
"1 1 1 1 1 1 1 1 1 1 1 V D D D D D D D D D D D D D D D D ' j.J.J.J.J.J.=         = J.g.1 1 1 1 1 1 1 1 1 1 1 1 1 1 1 1 1 1 1 1 1 ",
"1 1 1 1 1 1 1 1 1 1 1 k D D D D D D D D D D D D D D ' j.J.J.J.J.J.J.J.(         ( J.` 1 1 1 1 1 1 1 1 1 1 1 1 1 1 1 1 1 1 1 1 1 ",
"1 1 1 1 1 1 1 1 1 1 1 i D D D D D D D D D D D D ^ v.J.J.J.J.J.J.J.J.J.s.        s.A.1 1 1 1 1 1 1 1 1 1 1 1 1 1 1 1 1 1 1 1 1 1 ",
"1 1 1 1 1 1 1 1 1 1 1 1 H D D D D D D D D D P { J.J.J.J.J.J.J.J.J.J.J.V.@     @ V.h.1 1 1 1 1 1 1 1 1 1 1 1 1 1 1 1 1 1 1 1 1 1 ",
"1 1 1 1 1 1 1 1 1 1 1 1 V D D D D D D D D ] B.J.J.J.J.J.J.J.J.J.J.J.J.J.)     s.J./ 1 1 1 1 1 1 1 1 1 1 1 1 1 1 1 1 1 1 1 1 1 1 ",
"1 1 1 1 1 1 1 1 1 1 1 1 s D D D D D D t _ J.J.J.J.J.J.J.J.J.J.J.J.J.J.J.J.f.f.J.g.1 1 1 1 1 1 1 1 1 1 1 1 1 1 1 1 1 1 1 1 1 1 1 ",
"1 1 1 1 1 1 1 1 1 1 1 1 1 G D F Z g o   s.J.J.J.J.J.J.J.J.J.J.J.J.J.J.J.J.J.J.m.1 1 1 1 1 1 1 1 1 1 1 1 1 1 1 1 1 1 1 1 1 1 1 1 ",
"1 1 1 1 1 1 1 1 1 1 1 1 1 1 1 1 1 1 > X ) J.J.J.J.J.J.J.J.J.J.J.J.J.J.J.J.J.Z.0 1 1 1 1 1 1 1 1 1 1 1 1 1 1 1 1 1 1 1 1 1 1 1 1 ",
"1 1 1 1 1 1 1 1 1 1 1 1 1 1 1 1 1 1 1 + % V.J.J.J.J.J.J.J.J.J.J.J.J.J.J.J.C.n.d.1 1 1 1 1 1 1 1 1 1 1 1 1 1 1 1 1 1 1 1 1 1 1 1 ",
"1 1 1 1 1 1 1 1 1 1 1 1 1 1 1 1 1 1 e | } 7.J.J.J.J.J.J.J.J.J.J.J.J.J.J.N.n.n.V.h.1 1 1 1 1 1 1 1 1 1 1 1 1 1 1 1 1 1 1 1 1 1 1 ",
"1 1 1 1 1 1 1 1 1 1 1 1 1 1 1 1 1 9 %.| | | y.V.J.J.J.J.J.J.J.J.J.J.V.n.n.n.N.J.J.t.1 1 1 1 1 1 1 1 1 1 1 1 1 1 1 1 1 1 1 1 1 1 ",
"1 1 1 1 1 1 1 1 1 1 1 1 1 1 1 1 1 4.$.X.| |  .b.n.N.x.z.z.x.V.V.N.n.n.n.n.n.A.J.J.N.9 1 1 1 1 1 1 1 1 1 1 1 1 1 1 1 1 1 1 1 1 1 ",
"1 1 1 1 1 1 1 1 1 1 1 1 1 1 1 1 w $.$.$.X.| | 8.n.i.+.+.+.+.i.n.n.n.n.n.n.A.J.J.J.S.3.1 1 1 1 1 1 1 1 1 1 1 1 1 1 1 1 1 1 1 1 1 ",
"1 1 1 1 1 1 1 1 1 1 1 1 1 1 1 1 6.$.$.$.$.X.| | &.+.+.+.+.+.+.a.n.n.n.n.A.J.J.J.D.$.:.1 1 1 1 1 1 1 1 1 1 1 1 1 1 1 1 1 1 1 1 1 ",
"1 1 1 1 1 1 1 1 1 1 1 1 1 1 1 1 $.$.$.$.$.$.#.| o.+.+.+.+.+.+.*.b.n.V.J.J.J.H.r.$.$.$.7 1 1 1 1 1 1 1 1 1 1 1 1 1 1 1 1 1 1 1 1 ",
"1 1 1 1 1 1 > > 1 1 1 1 1 1 1 w $.$.$.$.$.$.$.$.+.+.+.+.+.+.+.+.p.J.J.J.J.F.1.$.$.$.$.3.1 1 1 1 1 1 1 1 1 1 1 1 1 1 1 1 1 1 1 1 ",
"1 1 1 1 1 1 1 > 1 1 1 1 1 1 1 2.$.$.$.$.$.$.$.@.+.+.+.+.+.+.+.+.,.S.S.e.1.$.$.$.$.$.$.4.1 1 1 1 1 1 1 1 1 1 1 1 1 1 1 1 1 1 1 1 ",
"1 1 1 1 1 1 1 1 1 1 1 1 1 1 1 5.$.$.$.$.$.$.$.@.+.+.+.+.+.+.+.+.+.$.$.$.$.$.$.$.$.$.$.;.1 1 1 1 1 1 1 1 1 1 1 1 1 1 1 1 1 1 1 1 ",
"1 1 1 1 1 1 1 1 1 1 1 1 1 1 1 5.$.$.$.$.$.$.$.@.+.+.+.+.+.+.+.+.+.$.$.$.$.$.$.$.$.$.$.;.1 1 1 1 1 1 1 1 1 1 1 1 1 1 1 1 1 1 1 1 ",
"1 1 1 1 1 1 1 1 1 1 1 1 1 1 1 2.$.$.$.$.$.$.$.@.+.+.+.+.+.+.+.+.+.$.$.$.$.$.$.$.$.$.$.;.1 1 1 1 1 1 1 1 1 1 1 1 1 1 1 1 1 1 1 1 ",
"1 1 1 1 1 1 1 1 1 1 1 1 1 1 1 w $.$.$.$.$.$.$.@.+.+.+.+.+.+.+.+.+.$.$.$.$.$.$.$.$.$.$.4.1 1 1 1 1 1 1 1 1 1 1 1 1 1 1 1 1 1 1 1 ",
"1 1 1 1 1 1 1 1 1 1 1 1 1 1 1 1 $.$.$.$.$.$.$.@.+.+.*.q.q.9.+.+.@.$.$.$.$.$.$.$.$.$.$.3.1 1 1 1 1 1 1 1 1 1 1 1 1 1 1 1 1 1 1 1 ",
"1 1 1 1 1 1 1 1 1 1 1 1 1 1 1 1 =.$.$.$.$.$.$.$.+.q.J.J.J.J.u.+.#.$.$.$.$.$.$.$.$.$.$.9 1 1 1 1 1 1 1 1 1 1 1 1 1 1 1 1 1 1 1 1 ",
"1 1 1 1 1 1 1 1 1 1 1 1 1 1 1 1 3.$.$.$.$.$.$.$.@.M.J.J.J.J.H.,.$.$.$.$.$.$.$.$.$.$.=.1 1 1 1 1 1 1 1 1 1 1 1 1 1 1 1 1 1 1 1 1 ",
"1 1 1 1 1 1 1 1 1 1 1 1 1 1 1 1 1 :.$.$.$.$.$.$.$.J.J.J.J.J.J.S.$.$.$.$.$.$.$.$.$.$.q 1 1 1 1 1 1 1 1 1 1 1 1 1 1 1 1 1 1 1 1 1 ",
"1 1 1 1 1 1 1 1 1 1 1 1 1 1 1 1 1 r $.$.$.$.$.$.$.J.J.J.J.J.J.r.$.$.$.$.$.$.$.$.$.6.1 1 1 1 1 1 1 1 1 1 1 1 1 1 1 1 1 1 1 1 1 1 ",
"1 1 1 1 1 1 1 1 1 1 1 1 1 1 1 1 1 1 =.$.$.$.$.$.$.F.J.J.J.J.J.1.$.$.$.$.$.$.$.$.-.9 1 1 1 1 1 1 1 1 1 1 1 1 1 1 1 1 1 1 1 1 1 1 ",
"1 1 1 1 1 1 1 1 1 1 1 1 1 1 1 1 1 1 9 -.$.$.$.$.$.0.G.J.J.H.e.$.$.$.$.$.$.$.$.>.7 1 1 1 1 1 1 1 1 1 1 1 1 1 1 1 1 1 1 1 1 1 1 1 ",
"1 1 1 1 1 1 1 1 1 1 1 1 1 1 1 > 1 1 1 9 -.$.$.$.$.$.<.w.w.1.$.$.$.$.$.$.$.$.:.q 1 1 1 1 1 1 1 1 1 1 1 1 1 1 1 1 1 1 1 1 1 1 1 1 ",
"1 1 1 1 1 1 1 1 1 1 1 1 1 > > > > 1 1 1 9 4.>.$.$.O.O # # # # # # $ O O.$.;.9 1 1 1 1 1 1 1 1 1 1 1 1 > > > 1 1 1 1 1 1 1 1 1 1 ",
"1 1 1 1 1 1 1 1 1 1 1 1 > > > > > > 1 1 1 1 7 -...$ # # # # # # # # # $ - 1 1 1 1 1 1 1 1 1 1 1 1 1 > > > > > 1 1 1 1 1 1 1 1 1 ",
"1 1 1 1 1 1 1 1 1 1 1 1 > > > > > > 1 1 1 1 1 * # # # # # # # # # # # # # 6 1 1 1 1 1 1 1 1 1 1 1 1 > > > > > 1 1 1 1 1 1 1 1 1 ",
"1 1 1 1 1 1 1 1 1 1 1 1 1 > > > > 1 1 1 1 1 1 # # # # # # # # # # # # # # & 1 1 1 1 1 1 1 1 1 1 1 1 1 > > > 1 1 1 1 1 1 1 1 1 1 ",
"1 1 1 1 1 1 1 1 1 1 1 1 1 1 > > 1 1 1 1 1 1 1 # # # # # # # # # # # # # # & 1 1 1 1 1 1 1 1 1 1 1 1 1 1 1 1 1 1 1 1 1 1 1 1 1 1 ",
"1 1 1 1 1 1 1 1 1 1 1 1 1 1 1 1 1 1 1 1 1 1 1 5 # # # # # # # # # # # # # 6 1 1 1 1 1 1 1 1 1 1 1 1 1 1 1 1 1 1 1 1 1 1 1 1 1 1 ",
"1 1 1 1 1 1 1 1 1 1 1 1 1 1 1 1 1 1 1 1 1 1 1 1 1 8 6 6 6 6 6 6 6 6 6 8 1 1 1 1 1 1 1 1 1 1 1 1 1 1 1 1 1 1 1 1 1 1 1 1 1 1 1 1 ",
"1 1 1 1 1 1 1 1 1 1 1 1 1 1 1 1 1 1 1 1 1 1 1 1 1 1 1 1 1 1 1 1 1 1 1 1 1 1 1 1 1 1 1 1 1 1 1 1 1 1 1 1 1 1 1 1 1 1 1 1 1 1 1 1 ",
"1 1 1 1 1 1 1 1 1 1 1 1 1 1 1 1 1 1 1 1 1 1 1 1 1 1 1 1 1 1 1 1 1 1 1 1 1 1 1 1 1 1 1 1 1 1 1 1 1 1 1 1 1 1 1 1 1 1 1 1 1 1 1 1 ",
"1 1 1 1 1 1 1 1 1 1 1 1 1 1 1 1 1 1 1 1 1 1 1 1 1 1 1 1 1 1 1 1 1 1 1 1 1 1 1 1 1 1 1 1 1 1 1 1 1 1 1 1 1 1 1 1 1 1 1 1 1 1 1 1 "
};
