/* XPM */
static char *player_left_walk[] = {
/* columns rows colors chars-per-pixel */
"64 64 153 2 ",
"   c None",
".  c gray23",
"X  c gray24",
"o  c #554E35",
"O  c #3D5A66",
"+  c #235A71",
"@  c #376275",
"#  c #34677C",
"$  c #464646",
"%  c gray28",
"&  c #494745",
"*  c #494949",
"=  c #464D50",
"-  c #444E50",
";  c #615B55",
":  c #6D655E",
">  c #796F66",
",  c #857226",
"<  c #917B22",
"1  c #B69616",
"2  c #D5AB00",
"3  c #D7AB00",
"4  c #D8AB00",
"5  c #D9AD00",
"6  c #DDB205",
"7  c #DAB10B",
"8  c #E9BE14",
"9  c #F2C303",
"0  c #F7C600",
"q  c #FDC900",
"w  c #FCCA00",
"e  c #FDCA00",
"r  c #FECB00",
"t  c #FDCB02",
"y  c #FFCC00",
"u  c #FFCC02",
"i  c #FFCD08",
"p  c #FFCE0B",
"a  c #FCCA0F",
"s  c #FFCD0C",
"d  c #FFCE0E",
"f  c #F5C711",
"g  c #FFCF11",
"h  c #FFCF14",
"j  c #FFD017",
"k  c #FFD119",
"l  c #FFD11C",
"z  c #F9CF27",
"x  c #FFCF24",
"c  c #FFD222",
"v  c #FFD325",
"b  c #FED126",
"n  c #FFD328",
"m  c #FDD32B",
"M  c #FFD42B",
"N  c #FDD12C",
"B  c #FED32C",
"V  c #FED22D",
"C  c #FCD32E",
"Z  c #FCD42E",
"A  c #FFD52E",
"S  c #FFD13C",
"D  c #918377",
"F  c #9E8D7F",
"G  c #F2C840",
"H  c #FFD354",
"J  c #FFD561",
"K  c #FFD66D",
"L  c #FFD779",
"P  c #1B6482",
"I  c #0F6F99",
"U  c #10719A",
"Y  c #10729C",
"T  c #11739D",
"R  c #2E6F8B",
"E  c #1176A0",
"W  c #147DA9",
"Q  c #217CA3",
"!  c #257CA1",
"~  c #1680AD",
"^  c #1583B1",
"/  c #1683B1",
"(  c #1785B3",
")  c #1787B6",
"_  c #1F85B0",
"`  c #1C89B7",
"'  c #1788B8",
"]  c #178BBC",
"[  c #168BBD",
"{  c #178CBD",
"}  c #188ABA",
"|  c #188BBB",
" . c #188CBC",
".. c #198CBD",
"X. c #198DBE",
"o. c #198EBF",
"O. c #2384AD",
"+. c #2485AE",
"@. c #3E8EAE",
"#. c #2793BF",
"$. c #3598BF",
"%. c #4888A0",
"&. c #4191B0",
"*. c #4293B3",
"=. c #5097B2",
"-. c #5E9DB3",
";. c #52A2BF",
":. c #60A7BF",
">. c #7DAFBE",
",. c #6FACC0",
"<. c #7DB1C0",
"1. c #AA9787",
"2. c #8EA5A8",
"3. c #86ABB3",
"4. c #ABAEA7",
"5. c #ABB6B1",
"6. c #A7BABA",
"7. c #CEB5A0",
"8. c #FFD991",
"9. c #FFDA9D",
"0. c #C7C0B1",
"q. c #C1C2B9",
"w. c #D6C6B2",
"e. c #FFDBA9",
"r. c #E2CAB2",
"t. c #E6C9B1",
"y. c #F0CFB3",
"u. c #F1D0B4",
"i. c #F2D1B5",
"p. c #F4D3B7",
"a. c #FFDCB5",
"s. c #F2D3B9",
"d. c #F5D4B8",
"f. c #F6D5B9",
"g. c #F7D6BA",
"h. c #F9D8BC",
"j. c #F9D9BD",
"k. c #FAD9BD",
"l. c #FBDABE",
"z. c #FCDBBF",
"x. c #8CB6C0",
"c. c #9ABBC0",
"v. c #B7C5C1",
"b. c #C5CAC1",
"n. c #E2D4C1",
"m. c #E8D5C0",
"M. c #F0D8C0",
"N. c #F0D9C1",
"B. c #FCDBC0",
"V. c #FDDBC0",
"C. c #FEDCC0",
"Z. c #FEDDC1",
"A. c #FFDEC2",
/* pixels */
"                                                                                                                                ",
"                                                                                                                                ",
"                                                                                                                                ",
"                                                                V V V V V V V                                                   ",
"                                                            V V v j j j j j l v V V V                                           ",
"                                                      V V V h i y y y y y y y y y i l v                                         ",
"                                                  V V V h y y y y y y y y y y y y y y y y                                       ",
"                                                V V l y y y y y y y y y y y y y y y y y y y                                     ",
"                                              V V l y y y y y y y y y y y y y y y y y y y y y                                   ",
"                                            V V l y y y y y y y y y y y y y y y y y y y y y y y                                 ",
"                                          V V h y y y y y y y y y y y y y y y y y y y y y y y y y                               ",
"                                          V l y y y y y y y y y y y y y y y y y y y y y y y y y y                               ",
"                                        V l y y y y y y y y y y y y y y y y y y y y y y y y y y y y                             ",
"                        3 4 4 3       V v y y y y y y y y y y y y y y y y y y y y y y y y y y y y y                             ",
"                      4 4 4 4 4 4   z V i y y y y y y y y y y y y y y y y y y y y y y y y y y y y y y                           ",
"                      4 4 4 4 4 4 6 V i y y y y y y y y y y y y y y y y y y y y y y y y y y y y y y y                           ",
"                        3 4 4 4 4 8 h y y y y y y y y y y y y y y y y y y y y y y y y y y y y y y y y y                         ",
"                            4 4 4 f y y y y y y y y y y y y y y y y y y y y y y y y y y y y y y y y y y                         ",
"                              3 4 0 y y y y y y y y y y y y y y y y y y y y y y y y y y y y y y y y y y                         ",
"                                  y y y y y y y y y y y y y y y y y y y y y y y y y y y y y y y y y y y                         ",
"                                    y y y y y y y y y y y y y y y y y y y y y y y y y y y y y y y y y y                         ",
"                                        i y y y y y y y y y y y y y y y y y y y y y y y y y y y y y y y                         ",
"                                          8.G y y y y y y y y y y y y y y y y y y y y y y y y y y y y y                         ",
"                                          A.F X , 1 7 y y y y y y y y y y y y y y y y y y y y y y y y y                         ",
"                                          A.F X X X X o L S y y y y y y y y y y y y y y y y y y y y y y                         ",
"                                          A.F X X X X X A.A.e.K z y y y y y y y y y y y y y y y y y y y                         ",
"                                          A.1.X X X X X A.A.A.A.A.e.H i y y y y y y y y y y y y y y y y                         ",
"                                          A.7.X X X X ; A.A.A.A.A.A.A.e.H i y y y y y y y y y y y y y y                         ",
"                                          A.A.& X X X D A.A.A.A.A.A.A.A.A.a.J y y y y y y y y y y y y                           ",
"                                            A.D X X X 7.A.A.A.A.A.A.A.A.A.A.A.9.z y y y y y y y y y y                           ",
"                                            A.s.& X : A.A.A.A.A.A.A.A.A.A.A.A.A.A.K i y y y y y y y y                           ",
"                                              A.t.7.A.A.A.A.A.A.A.A.A.A.A.A.A.A.A.A.7.< 0 y y y y y                             ",
"                                              A.A.A.A.A.A.A.A.A.A.A.A.A.A.A.A.A.A.A.s.X X   y y y y                             ",
"                                                k.A.A.A.A.A.A.A.A.A.A.A.A.A.A.A.A.A.7.X X                                       ",
"                                                y.s.A.A.A.A.A.A.A.A.A.A.A.A.A.A.A.A.> +                                         ",
"                                              k.y.y.u.k.A.A.A.A.A.A.A.A.A.A.A.A.A.4.P T I                                       ",
"                                            A.A.s.y.y.y.u.k.A.A.A.A.A.A.A.A.A.s.w.T T T E                                       ",
"                                          m.A.A.A.u.y.y.y.y.u.s.s.s.q.q.q.u.y.y.%.T T T ] ]                                     ",
"                                          ;.A.A.A.k.u.y.y.y.y.y.t.@.~ ~ ~ O.5.2.T T E ] ....                                    ",
"                                        ] ..,.A.A.A.A.u.y.y.y.y.@.~ ~ ~ ~ ~ ~ T T E ........]                                   ",
"                                        ] ....;.n.A.A.A.k.u.y.0.~ ~ ~ ~ ~ ~ ~ W / ........o...                                  ",
"                                        ........#.c.N.A.A.A.k.3.~ ~ ~ ~ ~ ~ ~ ~ / ......o.o.o.                                  ",
"                                        ............#.:.x.x.x.*.~ ~ ~ ~ ~ ~ ~ ~ / ......o.o.o...                                ",
"                                        ....................../ ~ ~ ~ ~ ~ ~ ~ ~ ~ ........o.o.]                                 ",
"                                        ....o.o.........o.o.../ ~ ~ ~ ~ ~ ~ ~ ~ ~ ............]                                 ",
"                                        ....o.o.........o.o.../ ~ ~ ~ ~ ~ ~ ~ ~ ~ ..o.o.........                                ",
"                                        ....o.o.o.o.....o.o.o.) ~ ~ ~ ~ ~ ~ ~ ~ ~ ..o.o.o.o...                                  ",
"                                        ....o.o.o.o.o.o.o.o.o...~ ~ ~ =.=.=.*.~ ~ ..o.o.o.....                                  ",
"                                        ........o.o.o.o.o.o...o./ ~ 6.A.A.A.N.-./ ....o.o.o...                                  ",
"                                          ......o.o.o.o...........O.N.A.A.A.A.N.........o.o.]                                   ",
"                                          ] ....o.o...............>.A.A.A.A.A.A.........o...                                    ",
"                                            ....o.o...............<.A.A.A.A.A.A.........o.]                                     ",
"                                            ] o.........o.o.......$.N.A.A.A.A.b...` R @ * * * * * %                             ",
"                                  % % % % % - ! ........o.o.....o...,.b.A.A.v.#.! O * * * * * * * *                             ",
"                                * * * * * * * - ! ..o.o.o.o.....o.o...........# * * * * * * * * * *                             ",
"                                * * * * * * * * * R o.o.o.o.....o.o.........@ * * * * * * * * * * *                             ",
"                                * * * * * * * * * * O _ ........o.........! * * * * * * * * * * %                               ",
"                                  * * * * * * * * * * * @ ! ..............O * * * * * * * * *                                   ",
"                                    % * * * * * * * * * * %               * * * * * * * *                                       ",
"                                          % * * * * * * * %               * * * * * * %                                         ",
"                                                % * * * %                   * * * %                                             ",
"                                                                                                                                ",
"                                                                                                                                ",
"                                                                                                                                "
};
