/* XPM */
static char *player[] = {
/* columns rows colors chars-per-pixel */
"64 64 151 2 ",
"   c gray24",
".  c #554E35",
"X  c #3A5E6D",
"o  c #235A71",
"O  c #34677C",
"+  c #494745",
"@  c #494949",
"#  c #56504C",
"$  c #464D50",
"%  c #435157",
"&  c #615B55",
"*  c #6A5C50",
"=  c #6D655E",
"-  c #7D6651",
";  c #796F66",
":  c #857226",
">  c #917B22",
",  c #8D735A",
"<  c #B69616",
"1  c #D9AD00",
"2  c #DDB205",
"3  c #DAB10B",
"4  c #E9BE14",
"5  c #D2A825",
"6  c #D1A72E",
"7  c #EEBD35",
"8  c #EBBB3C",
"9  c #F7C600",
"0  c #FFCC00",
"q  c #FFCD08",
"w  c #F5C711",
"e  c #FFCF14",
"r  c #FAC818",
"t  c #FFD017",
"y  c #FFD11C",
"u  c #F5C425",
"i  c #FFCF24",
"p  c #F1C12E",
"a  c #FACE2E",
"s  c #FFD325",
"d  c #FFD52E",
"f  c #F1C131",
"g  c #FACF33",
"h  c #F5CC3A",
"j  c #FFD13C",
"k  c #B6934E",
"l  c #918377",
"z  c #908379",
"x  c #9E8D7F",
"c  c #A48362",
"v  c #A98765",
"b  c #AE8A66",
"n  c #B28E68",
"m  c #BB9567",
"M  c #B7916A",
"N  c #A78F7D",
"B  c #AD9076",
"V  c #BB9571",
"C  c #C89F4C",
"Z  c #C49B55",
"A  c #CAA047",
"S  c #DFB74D",
"D  c #CBA25D",
"F  c #D4A955",
"G  c #D9AD51",
"H  c #D0A95C",
"J  c #D9B256",
"K  c #E2B347",
"L  c #E6B842",
"P  c #E6BE4A",
"I  c #C59F62",
"U  c #C09C78",
"Y  c #EBC147",
"T  c #F2C840",
"R  c #FFD354",
"E  c #FFD561",
"W  c #FFD66D",
"Q  c #FFD779",
"!  c #1B6482",
"~  c #11759F",
"^  c #2B7492",
"/  c #1176A0",
"(  c #567692",
")  c #1680AD",
"_  c #1785B3",
"`  c #1F85B0",
"'  c #1C89B7",
"]  c #1788B8",
"[  c #198EBF",
"{  c #2384AD",
"}  c #338BAF",
"|  c #3D8CAA",
" . c #378DBA",
".. c #2793BF",
"X. c #3598BF",
"o. c #7F8E9F",
"O. c #4888A0",
"+. c #5A98AE",
"@. c #498CB4",
"#. c #588DB0",
"$. c #4191B0",
"%. c #449DBF",
"&. c #5097B2",
"*. c #519BB6",
"=. c #638DAD",
"-. c #6E8EA9",
";. c #778DA4",
":. c #52A2BF",
">. c #60A7BF",
",. c #6FACC0",
"<. c #7DB1C0",
"1. c #9B8F8A",
"2. c #8E8F95",
"3. c #878F9B",
"4. c #958F90",
"5. c #A18F84",
"6. c #AA9787",
"7. c #8EA5A8",
"8. c #8AAFB7",
"9. c #8BB4BE",
"0. c #ABAEA7",
"q. c #B9BBB1",
"w. c #CBA785",
"e. c #CEAA8A",
"r. c #D4B291",
"t. c #D9B797",
"y. c #DEBC9D",
"u. c #CEB5A0",
"i. c #E2BFA2",
"p. c #FFD991",
"a. c #FFDA9D",
"s. c #DAC3AB",
"d. c #C1C2B9",
"f. c #CEC7B9",
"g. c #CFC8BA",
"h. c #D4C5B2",
"j. c #D3CCBE",
"k. c #EBC8AB",
"l. c #FFDBA9",
"z. c #E6C9B1",
"x. c #F0CFB3",
"c. c #E9D1BA",
"v. c #F2D1B5",
"b. c #FFDCB5",
"n. c #F5D4B8",
"m. c #FBDABE",
"M. c #8CB6C0",
"N. c #9ABBC0",
"B. c #E2D4C1",
"V. c #F0D9C1",
"C. c #FFDEC2",
/* pixels */
"M M M M M M M M M M M M M M M M M M M M M M M M M M M M M M M M M M M M M M M M M M M M M M M M M M M M M M M M M M M M M M M M ",
"M M M M M M M M M M M M M M M M M M M M M M M M M M M M M M M M M M M M M M M M M M M M M M M M M M M M M M M M M M M M M M M M ",
"M M M M M M M M M M M M M M M M M M M M M M M M M M M M M M M J Y Y Y Y Y Y P H I M M M M M M M M M M M M M M M M M M M M M M M ",
"M M M M M M M M M M M M M M M M M M M M M M M M M M M M m J h d s t t t t t y s d h P I M M M M M M M M M M M M M M M M M M M M ",
"M M M M M M M M M M M M M M M M M M M M M M M M M M I P g d e q 0 0 0 0 0 0 0 0 0 q y a I M M M M M M M M M M M M M M M M M M M ",
"M M M M M M M M M M M M M M M M M M M M M M M M I Y d d e 0 0 0 0 0 0 0 0 0 0 0 0 0 0 0 L m M M M M M M M M M M M M M M M M M M ",
"M M M M M M M M M M M M M M M M M M M M M M M I g d y 0 0 0 0 0 0 0 0 0 0 0 0 0 0 0 0 0 0 u I M M M M M M M M M M M M M M M M M ",
"M M M M M M M M M M M M M M M M M M M M M M H g d y 0 0 0 0 0 0 0 0 0 0 0 0 0 0 0 0 0 0 0 0 r I M M M M M M M M M M M M M M M M ",
"M M M M M M M M M M M M M M M M M M M M M I g d y 0 0 0 0 0 0 0 0 0 0 0 0 0 0 0 0 0 0 0 0 0 0 r I M M M M M M M M M M M M M M M ",
"M M M M M M M M M M M M M M M M M M M M M Y d e 0 0 0 0 0 0 0 0 0 0 0 0 0 0 0 0 0 0 0 0 0 0 0 0 7 M M M M M M M M M M M M M M M ",
"M M M M M M M M M M M M M M M M M M M M J d y 0 0 0 0 0 0 0 0 0 0 0 0 0 0 0 0 0 0 0 0 0 0 0 0 0 0 D M M M M M M M M M M M M M M ",
"M M M M M M M M M M M M M M M M M M M I d y 0 0 0 0 0 0 0 0 0 0 0 0 0 0 0 0 0 0 0 0 0 0 0 0 0 0 0 u M M M M M M M M M M M M M M ",
"M M M M M M M M M M M Z 6 1 1 5 m M M h s 0 0 0 0 0 0 0 0 0 0 0 0 0 0 0 0 0 0 0 0 0 0 0 0 0 0 0 0 0 S M M M M M M M M M M M M M ",
"M M M M M M M M M M M 1 1 1 1 1 1 C S d q 0 0 0 0 0 0 0 0 0 0 0 0 0 0 0 0 0 0 0 0 0 0 0 0 0 0 0 0 0 r m M M M M M M M M M M M M ",
"M M M M M M M M M M M A 1 1 1 1 1 2 d q 0 0 0 0 0 0 0 0 0 0 0 0 0 0 0 0 0 0 0 0 0 0 0 0 0 0 0 0 0 0 0 F M M M M M M M M M M M M ",
"M M M M M M M M M M M M A 1 1 1 1 4 e 0 0 0 0 0 0 0 0 0 0 0 0 0 0 0 0 0 0 0 0 0 0 0 0 0 0 0 0 0 0 0 0 8 M M M M M M M M M M M M ",
"M M M M M M M M M M M M M C 1 1 1 w 0 0 0 0 0 0 0 0 0 0 0 0 0 0 0 0 0 0 0 0 0 0 0 0 0 0 0 0 0 0 0 0 0 r M M M M M M M M M M M M ",
"M M M M M M M M M M M M M M m 6 1 9 0 0 0 0 0 0 0 0 0 0 0 0 0 0 0 0 0 0 0 0 0 0 0 0 0 0 0 0 0 0 0 0 0 0 I M M M M M M M M M M M ",
"M M M M M M M M M M M M M M M M Z 0 0 0 0 0 0 0 0 0 0 0 0 0 0 0 0 0 0 0 0 0 0 0 0 0 0 0 0 0 0 0 0 0 0 0 D M M M M M M M M M M M ",
"M M M M M M M M M M M M M M M M M I 7 0 0 0 0 0 0 0 0 0 0 0 0 0 0 0 0 0 0 0 0 0 0 0 0 0 0 0 0 0 0 0 0 0 D M M M M M M M M M M M ",
"M M M M M M M M M M M M M M M M M M M F f 0 0 0 0 0 0 0 0 0 0 0 0 0 0 0 0 0 0 0 0 0 0 0 0 0 0 0 0 0 0 0 D M M M M M M M M M M M ",
"M M M M M M M M M M M M M M M M M M M M y.p.T 0 0 0 0 0 0 0 0 0 0 0 0 0 0 0 0 0 0 0 0 0 0 0 0 0 0 0 0 0 D M M M M M M M M M M M ",
"M M M M M M M M M M M M M M M M M M M M y.C.x   : < 3 0 0 0 0 0 0 0 0 0 0 0 0 0 0 0 0 0 0 0 0 0 0 0 0 0 D M M M M M M M M M M M ",
"M M M M M M M M M M M M M M M M M M M M y.C.x         . Q j 0 0 0 0 0 0 0 0 0 0 0 0 0 0 0 0 0 0 0 0 0 0 M M M M M M M M M M M M ",
"M M M M M M M M M M M M M M M M M M M M t.C.x           C.C.l.W i 0 0 0 0 0 0 0 0 0 0 0 0 0 0 0 0 0 0 0 M M M M M M M M M M M M ",
"M M M M M M M M M M M M M M M M M M M M w.C.6.          C.C.C.C.C.l.R q 0 0 0 0 0 0 0 0 0 0 0 0 0 0 0 7 M M M M M M M M M M M M ",
"M M M M M M M M M M M M M M M M M M M M V C.u.        & C.C.C.C.C.C.C.l.R q 0 0 0 0 0 0 0 0 0 0 0 0 0 K M M M M M M M M M M M M ",
"M M M M M M M M M M M M M M M M M M M M M k.C.+       l C.C.C.C.C.C.C.C.C.b.E 0 0 0 0 0 0 0 0 0 0 0 0 F M M M M M M M M M M M M ",
"M M M M M M M M M M M M M M M M M M M M M r.C.l       u.C.C.C.C.C.C.C.C.C.C.C.a.i 0 0 0 0 0 0 0 0 0 0 m M M M M M M M M M M M M ",
"M M M M M M M M M M M M M M M M M M M M M M n.n.+   = C.C.C.C.C.C.C.C.C.C.C.C.C.C.W q 0 0 0 0 0 0 0 p M M M M M M M M M M M M M ",
"M M M M M M M M M M M M M M M M M M M M M M w.C.z.u.C.C.C.C.C.C.C.C.C.C.C.C.C.C.C.C.u.> 9 0 0 0 0 0 G M M M M M M M M M M M M M ",
"M M M M M M M M M M M M M M M M M M M M M M M i.C.C.C.C.C.C.C.C.C.C.C.C.C.C.C.C.C.C.n.    k K u 0 0 I M M M M M M M M M M M M M ",
"M M M M M M M M M M M M M M M M M M M M M M M M k.C.C.C.C.C.C.C.C.C.C.C.C.C.C.C.C.C.u.  - M M M M M M M M M M M M M M M M M M M ",
"M M M M M M M M M M M M M M M M M M M M M M M e.x.n.C.C.C.C.C.C.C.C.C.C.C.C.C.C.C.C.; o n M M M M M M M M M M M M M M M M M M M ",
"M M M M M M M M M M M M M M M M M M M M M M r.m.x.x.v.m.C.C.C.C.C.C.C.C.C.C.C.C.C.0.! ~ ( M M M M M M M M M M M M M M M M M M M ",
"M M M M M M M M M M M M M M M M M M M M M U C.C.n.x.x.x.v.m.C.C.C.C.C.C.C.C.C.n.h.~ ~ ~ / 5.M M M M M M M M M M M M M M M M M M ",
"M M M M M M M M M M M M M M M M M M M M M s.C.C.C.v.x.x.x.x.v.n.n.c.d.d.f.v.x.x.O.~ ~ ~ ] @.M M M M M M M M M M M M M M M M M M ",
"M M M M M M M M M M M M M M M M M M M M B :.C.C.C.m.v.x.x.x.x.x.q.{ ) ) ) +.x.7.~ ~ / ] [ [ 3.M M M M M M M M M M M M M M M M M ",
"M M M M M M M M M M M M M M M M M M M M ;.[ ,.C.C.C.C.v.x.x.x.h.) ) ) ) ) ) | ~ ~ / [ [ [ [ @.M M M M M M M M M M M M M M M M M ",
"M M M M M M M M M M M M M M M M M M M M @.[ [ :.B.C.C.C.m.v.x.+.) ) ) ) ) ) ) ~ _ [ [ [ [ [ [ 5.M M M M M M M M M M M M M M M M ",
"M M M M M M M M M M M M M M M M M M M B [ [ [ [ ..N.V.C.C.C.g.) ) ) ) ) ) ) ) _ [ [ [ [ [ [ [ 3.M M M M M M M M M M M M M M M M ",
"M M M M M M M M M M M M M M M M M M M 5.[ [ [ [ [ [ ..>.M.M.*.) ) ) ) ) ) ) ) ) [ [ [ [ [ [ [ -.M M M M M M M M M M M M M M M M ",
"M M M M M M M M M M M M M M M M M M M 2.[ [ [ [ [ [ [ [ [ [ _ ) ) ) ) ) ) ) ) ) [ [ [ [ [ [ [ =.M M M M M M M M M M M M M M M M ",
"M M M M M M M M M M M M M M M M M M M 3.[ [ [ [ [ [ [ [ [ [ _ ) ) ) ) ) ) ) ) ) [ [ [ [ [ [ [ =.M M M M M M M M M M M M M M M M ",
"M M M M M M M M M M M M M M M M M M M 5.[ [ [ [ [ [ [ [ [ [ _ ) ) ) ) ) ) ) ) ) [ [ [ [ [ [ [ -.M M M M M M M M M M M M M M M M ",
"M M M M M M M M M M M M M M M M M M M 5.[ [ [ [ [ [ [ [ [ [ _ ) ) ) ) ) ) ) ) ) [ [ [ [ [ [ [ 3.M M M M M M M M M M M M M M M M ",
"M M M M M M M M M M M M M M M M M M M M [ [ [ [ [ [ [ [ [ [ _ ) ) } &.&.$.) ) ) [ [ [ [ [ [ [ 5.M M M M M M M M M M M M M M M M ",
"M M M M M M M M M M M M M M M M M M M M -.[ [ [ [ [ [ [ [ [ [ ) &.C.C.C.C.8.) _ [ [ [ [ [ [  .M M M M M M M M M M M M M M M M M ",
"M M M M M M M M M M M M M M M M M M M M 4.[ [ [ [ [ [ [ [ [ [ _ j.C.C.C.C.C.$.[ [ [ [ [ [ [ ;.M M M M M M M M M M M M M M M M M ",
"M M M M M M M M M M M M M M M M M M M M M @.[ [ [ [ [ [ [ [ [ :.C.C.C.C.C.C.9.[ [ [ [ [ [ [ 5.M M M M M M M M M M M M M M M M M ",
"M M M M M M M M M M M M M M M M M M M M M 1.[ [ [ [ [ [ [ [ [ %.C.C.C.C.C.C.<.[ [ [ [ [ [ ;.M M M M M M M M M M M M M M M M M M ",
"M M M M M M M M M M M M M M M M M M M M M M ;.[ [ [ [ [ [ [ [ [ B.C.C.C.C.C.X.[ [ [ [ [  .M M M M M M M M M M M M M M M M M M M ",
"M M M M M M M M M M M M M M M M M M M M M M M =.[ [ [ [ [ [ [ [ %.B.C.C.V.,.[ [ [ [ [ [ N M M M M M M M M M M M M M M M M M M M ",
"M M M M M M M M M M M M M M M M M M M M M M M M =.[ [ [ [ [ [ [ [ ..:.:.X.[ [ [ [ [  .4.M M M M M M M M M M M M M M M M M M M M ",
"M M M M M M M M M M M M M M M M M M M M M M M M M o.[ ` O $ @ @ @ @ @ @ X ^ [ [ [ #.5.M M M M M M M M M M M M M M M M M M M M M ",
"M M M M M M M M M M M M M M M M M M M M M M M M M M z % @ @ @ @ @ @ @ @ @ @ O ' 2.M M M M M M M M M M M M M M M M M M M M M M M ",
"M M M M M M M M M M M M M M M M M M M M M M M M M b # @ @ @ @ @ @ @ @ @ @ @ @ * M M M M M M M M M M M M M M M M M M M M M M M M ",
"M M M M M M M M M M M M M M M M M M M M M M M M M , @ @ @ @ @ @ @ @ @ @ @ @ @ @ v M M M M M M M M M M M M M M M M M M M M M M M ",
"M M M M M M M M M M M M M M M M M M M M M M M M M , @ @ @ @ @ @ @ @ @ @ @ @ @ @ c M M M M M M M M M M M M M M M M M M M M M M M ",
"M M M M M M M M M M M M M M M M M M M M M M M M M b * @ @ @ @ @ @ @ @ @ @ @ @ - M M M M M M M M M M M M M M M M M M M M M M M M ",
"M M M M M M M M M M M M M M M M M M M M M M M M M M M n c c c c c c c c c c M M M M M M M M M M M M M M M M M M M M M M M M M M ",
"M M M M M M M M M M M M M M M M M M M M M M M M M M M M M M M M M M M M M M M M M M M M M M M M M M M M M M M M M M M M M M M M ",
"M M M M M M M M M M M M M M M M M M M M M M M M M M M M M M M M M M M M M M M M M M M M M M M M M M M M M M M M M M M M M M M M ",
"M M M M M M M M M M M M M M M M M M M M M M M M M M M M M M M M M M M M M M M M M M M M M M M M M M M M M M M M M M M M M M M M "
};
