/* XPM */
static char *player_down_stand[] = {
/* columns rows colors chars-per-pixel */
"64 64 160 2 ",
"   c gray24",
".  c #5A5231",
"X  c #3A5E6D",
"o  c #34677C",
"O  c #494745",
"+  c #494949",
"@  c #4B5248",
"#  c #55514D",
"$  c #464D50",
"%  c #615B55",
"&  c #506645",
"*  c #526D44",
"=  c #577D42",
"-  c #6D655E",
";  c #8B751E",
":  c #85796E",
">  c #5E9539",
",  c #659F3E",
"<  c #6F9F3C",
"1  c #73A13C",
"2  c #7AA03A",
"3  c #598241",
"4  c #5E8F40",
"5  c #54895E",
"6  c #5F9B53",
"7  c #5C995E",
"8  c #609440",
"9  c #629D48",
"0  c #73A24D",
"q  c #69A15B",
"w  c #599767",
"e  c #599A6F",
"r  c #529475",
"t  c #B2910F",
"y  c #A88A13",
"u  c #A3892F",
"i  c #83A138",
"p  c #94A333",
"a  c #9DAB36",
"s  c #90A838",
"d  c #A3A42E",
"f  c #BEA721",
"g  c #B1A628",
"h  c #BCB32E",
"j  c #B2B031",
"k  c #B2B439",
"l  c #CFA603",
"z  c #D9AD00",
"x  c #D2AB0A",
"c  c #DDB000",
"v  c #DBB00C",
"b  c #CBAA12",
"n  c #C8A918",
"m  c #CDB01D",
"M  c #DDB318",
"N  c #E2B400",
"B  c #E7B800",
"V  c #EEBE00",
"C  c #C4B72B",
"Z  c #CDB828",
"A  c #D4BB25",
"S  c #DDBF21",
"D  c #CDB53F",
"F  c #E0B624",
"G  c #E2B930",
"H  c #F7C600",
"J  c #FFCC00",
"K  c #F8C90A",
"L  c #ECC117",
"P  c #E3C01D",
"I  c #E9C318",
"U  c #F0C512",
"Y  c #FFCF14",
"T  c #FFD017",
"R  c #FFD21F",
"E  c #DDC22C",
"W  c #D4C233",
"Q  c #F5CB22",
"!  c #FFD325",
"~  c #FFD52E",
"^  c #E3C631",
"/  c #AC955F",
"(  c #83A75B",
")  c #B8B250",
"_  c #918377",
"`  c #9E8D7F",
"'  c #90AC66",
"]  c #9DB070",
"[  c #C7A748",
"{  c #D3B150",
"}  c #ECC561",
"|  c #F0CB79",
" . c #316B84",
".. c #2B7492",
"X. c #28789A",
"o. c #378897",
"O. c #3D8A93",
"+. c #31869E",
"@. c #3D909D",
"#. c #1680AD",
"$. c #1785B3",
"%. c #1C89B7",
"&. c #198EBF",
"*. c #2A84A2",
"=. c #2485AE",
"-. c #388EA1",
";. c #3290AD",
":. c #258CB6",
">. c #2793BF",
",. c #3595BC",
"<. c #3598BF",
"1. c #468E89",
"2. c #4A9083",
"3. c #469496",
"4. c #42939D",
"5. c #4191B0",
"6. c #449DBF",
"7. c #4E9BB8",
"8. c #5E9DB3",
"9. c #52A2BF",
"0. c #76A7A0",
"q. c #73AAA8",
"w. c #60A7BF",
"e. c #7BA9B6",
"r. c #6FACC0",
"t. c #7DB1C0",
"y. c #AA9787",
"u. c #B6A190",
"i. c #8AAFB7",
"p. c #93AEB1",
"a. c #8AB4BE",
"s. c #A7BABA",
"d. c #C2AB98",
"f. c #CEB5A0",
"g. c #DABFA9",
"h. c #CDC499",
"j. c #D4C79F",
"k. c #ECCC8A",
"l. c #EECE96",
"z. c #F5D191",
"x. c #F7D49D",
"c. c #DDCBA5",
"v. c #C4C6BC",
"b. c #DACEBB",
"n. c #E3CFAB",
"m. c #E6C9B1",
"M. c #F0CFB3",
"N. c #EED7BF",
"B. c #F3D2B6",
"V. c #FCDAB5",
"C. c #F2D3B9",
"Z. c #F9D8BC",
"A. c #8CB6C0",
"S. c #9ABBC0",
"D. c #A8C0C0",
"F. c #C5CAC1",
"G. c #D3CFC1",
"H. c #E2D4C1",
"J. c #F0D9C1",
"K. c #FFDEC2",
/* pixels */
", , , , , , , , , , , , , , , , , , , , , , , , , , , , , , , , , , , , , , , , , , , , , , , , , , , , , , , , , , , , , , , , ",
", , , , , , , , , , , , , , , , , , , , , , , , , , , , , , , , , , , , , , , , , , , , , , , , , , , , , , , , , , , , , , , , ",
", , , , , , , , , , , , , , , , , , , , , , , , , , , , k ^ ^ ^ W 1 , , , , , , , , , , , , , , , , , , , , , , , , , , , , , , ",
", , , , , , , , , , , , , , , , , , , , , , , , , s a a ~ ~ ~ ~ ~ E a a 1 , , , , , , , , , , , , , , , , , , , , , , , , , , , ",
", , , , , , , , , , , , , , , , , , , , , a a h I J J K ~ ~ ~ ~ ~ R J J K A a a i , , , , , , , , , , , , , , , , , , , , , , , ",
", , , , , , , , , , , , , , , , , , , 1 P J J J J J J K ~ ~ ~ ~ ~ ! J J J J J J K j , , , , , , , , , , , , , , , , , , , , , , ",
", , , , , , , , , , , , , , , , , , , h J J J J J J J Y ~ ~ ~ ~ ~ ~ J J J J J J J K , , , , , , , , , , , , , , , , , , , , , , ",
", , , , , , , , , , , , , , , , , , s K J J J J J J J T ~ ~ ~ ~ ~ ~ J J J J J J J J A , , , , , , , , , , , , , , , , , , , , , ",
", , , , , , , , , , , , , , , , , s K J J J J J J J J R ~ ~ ~ ~ ~ ~ K J J J J J J J J A , , , , , , , , , , , , , , , , , , , , ",
", , , , , , , , , , , , > > , , 1 U J J J J J J J J J ! ~ ~ ~ ~ ~ ~ K J J J J J J J J J h , , , , , , , , , , , , , , , , , , , ",
", , , , , , , , , , , , > > > , A J J J J J J J J J J ~ ~ ~ ~ ~ ~ ~ T J J J J J J J J J J i , , , , > > > , , , , , , , , , , , ",
", , , , , , , , , , , , > > > a J J J J J J J J J J J ~ ~ ~ ~ ~ ~ ~ R J J J J J J J J J J P , , , , > > > > , , , , , , , , , , ",
", , , , , , , , , , , , , , , P J J J J J J J J J J K ~ ~ ~ ~ ~ ~ ~ ~ J J J J J J J J J J J a , , , , > > , , , , , , , , , , , ",
", , , , , , , , , , , , , , s J J J J J J J J J J J T ~ ~ ~ ~ ~ ~ ~ ~ J J J J J J J J J J J S , , , , , , , , , , , , , , , , , ",
", , , , , , , , , , , , , , Z J J J J J J J J J J J R ~ ~ ~ ~ ~ ~ ~ ~ K J J J J J J J J J J J i , , , , , , , , , , , , , , , , ",
", , , , , , , , , , , , , , U J J J J J J J J J J J ! ~ ~ ~ ~ ~ ~ ~ ~ Y J J J J J J J J J J J h , , , , , , , , , , , , , , , , ",
", , , , , , , , , , , , , i J J J J J J J J J J J J ~ ~ ~ ~ ~ ~ ~ ~ ~ R J J J J J J J J J J J P , , , , , , , , , , , , , , , , ",
", , , , , , , , , , , , , j J J J J J J J J J J J K ~ ~ ~ ~ ~ ~ ~ ~ ~ ~ J J J J J J J J J J J J , , , , , , , , , , , , , , , , ",
", , , , , , , , , , , , , C J J J J J J J J J J J Y ~ ~ ~ ~ ~ ~ ~ ~ ~ ~ J J J J J J J J J J J J a , , , , , , , , , , , , , , , ",
", , , , , , , , , , , , , P J J J J J J J J J J J R ~ ~ ~ ~ ~ ~ ~ ~ ~ ~ Y J J J J J J J J J J J j , , , , , , , , , , , , , , , ",
", , , , , , , , , , , , , P J J J J J J J J J J J ~ ~ ~ ~ ~ ~ ~ ~ ~ ~ ~ R J J J J J J J J J J J C , , , , , , , , , , , , , , , ",
", , , , , , , , , , , , , I J J J J J J J J J J J ~ ~ Q Q Q L L L L L L L H H J J J J J J J J J A , , , , , , , , , , , , , , , ",
", , , , , , , , , , , , , J J J J J J J J V B N N z z z z z z z z z z z z z z z N V H J J J J J P , , , , , , , , , , , , , , , ",
", , , , , , , , , , , , , J J J J J B c z z z z z z z z z z z z z z z z z z z z z z z N V J J J P , , , , , , , , , , , , , , , ",
", , , , , , , , , , , , , J J H N z z z z z z z l t y u } } } } } { ; y t z z z z z z z z z V J P , , , , , , , , , , , , , , , ",
", , , , , , , , , , , , , I V z z z z z z F [ .       - K.K.K.K.K.y.        / } F z z z z z z B P , , , , , , , , , , , , , , , ",
", , , , , , , , , , , , , n z z z z z v z.K.u.          K.K.K.K.K.:         - K.K.z.F z z z z z m , , , , , , , , , , , , , , , ",
", , , , , , , , , , , , , z z z z z F x.K.K.`           K.K.K.K.K.-         - K.K.K.V.F z z z z b , , , , , , , , , , , , , , , ",
", , , , , , , , , , , , , z z z z M V.K.K.K.`           f.K.K.K.K.-           K.K.K.K.K.G z z z z 2 , , , , , , , , , , , , , , ",
", , , , , , , , , , , , , f z z z | K.K.K.K.`           f.K.K.K.K.-           K.K.K.K.K.x.z z z z 2 , , , , , , , , , , , , , , ",
", , , , , , , , , , , , , i x z z z.K.K.K.K.`           f.K.K.K.K.-           K.K.K.K.K.K.z z z g , , , , , , , , , , , , , , , ",
", , , , , , , , , , , , , , < n z k.K.K.K.K.d.          C.K.K.K.K._         % K.K.K.K.K.l.z x d , , , , , , , , , , , , , , , , ",
", , , , , , , , , , , , , , , , d D K.K.K.K.m.        # K.K.K.K.K.u.        : K.K.K.K.K.) p , , , , , , , , , , , , , , , , , , ",
", , , , , , , , , , , , , , , , , , n.K.K.K.K.-       _ K.K.K.K.K.C.O       d.K.K.K.K.n., , , , , , , , , , , , , , , , , , , , ",
", , , , , , , , , , , , , , , , , , ( Z.K.K.K.m.    O C.K.K.K.K.K.K.u.    : K.K.K.K.Z.' , , , , , , , , , , , , , , , , , , , , ",
", , , , , , , , , , , , , , , , , , , 0.K.K.K.K.d.` g.K.K.K.K.K.K.K.K.y.` C.K.K.K.K.q., , , , , , , , , , , , , , , , , , , , , ",
", , , , , , , , , , , , , , , , , , e &.p.K.K.K.K.K.K.K.K.K.K.K.K.K.K.K.K.K.K.K.K.w.&.e , , , , , , , , , , , , , , , , , , , , ",
", , , , , , , , , , , , , , , , , 7 @.&.7.B.K.K.K.K.K.K.K.K.K.K.K.K.K.K.K.K.K.K.b.&.&.-.9 , , , , , , , , , , , , , , , , , , , ",
", , , , , , , , , , , , , , , , r #.#.#.&.b.B.Z.K.K.K.K.K.K.K.K.K.K.K.K.K.K.Z.B.a.$.#.#.=.6 , , , , , , , , , , , , , , , , , , ",
", , , , , , , , , , , , , , , 6 #.#.#.#.#.r.C.M.B.Z.K.K.K.K.K.K.K.K.K.K.Z.B.B.N.>.#.#.#.#.O., , , , , , , , , , , , , , , , , , ",
", , , , , , > > , , , , , , , 1.#.#.#.#.#.&.G.Z.M.M.M.B.C.C.C.C.C.C.B.M.M.C.K.t.$.#.#.#.#.#.9 , , , , , , , , , , , , , , , , , ",
", , , , , , , > , , , , , , , *.#.#.#.#.#.$.<.J.K.C.M.M.M.M.M.M.M.M.M.B.K.K.D.&.#.#.#.#.#.#.r , , , , , , , , , , , , , , , , , ",
", , , , , , , , , , , , , , 6 #.#.#.#.#.#.$.&.>.G.K.K.Z.B.B.B.B.B.Z.Z.K.K.A.&.&.#.#.#.#.#.#.1., , , , , , , , , , , , , , , , , ",
", , , , , , , , , , , , , , w #.#.#.#.#.#.#.&.&.&.t.J.K.K.K.K.K.K.K.K.H.9.&.&.$.#.#.#.#.#.#.o., , , , , , , , , , , , , , , , , ",
", , , , , , , , , , , , , , w #.#.#.#.#.#.#.&.&.&.&.>.9.S.F.F.F.F.t.9.&.&.&.&.$.#.#.#.#.#.#.o., , , , , , , , , , , , , , , , , ",
", , , , , , , , , , , , , , w #.#.#.#.#.#.#.&.&.&.&.&.&.&.&.&.&.&.&.&.&.&.&.&.$.#.#.#.#.#.#.o., , , , , , , , , , , , , , , , , ",
", , , , , , , , , , , , , , w #.#.#.#.#.#.#.&.&.&.&.&.&.&.&.&.&.&.&.&.&.&.&.&.$.#.#.#.#.#.#.o., , , , , , , , , , , , , , , , , ",
", , , , , , , , , , , , , , , #.#.e.i.i.=.$.&.&.&.&.&.&.&.&.&.&.&.&.&.&.&.&.&.&.#.5.i.i.i.=.2., , , , , , , , , , , , , , , , , ",
", , , , , , , , , , , , , , , +.8.K.K.K.s.$.&.&.&.&.&.&.&.&.&.&.&.&.&.&.&.&.&.&.#.s.K.K.K.i.r , , , , , , , , , , , , , , , , , ",
", , , , , , , , , , , , , , , 2.v.K.K.K.K.,.&.&.&.&.&.&.&.&.&.&.&.&.&.&.&.&.&.&.:.J.K.K.K.J.9 , , , , , , , , , , , , , , , , , ",
", , , , , , , , , , , , , , , ] K.K.K.K.K.9.&.&.&.&.&.&.&.&.&.&.&.&.&.&.&.&.&.&.r.K.K.K.K.K.] , , , , , , , , , , , , , , , , , ",
", , , , , , , , , , , , , , , ( K.K.K.K.K.6.&.&.&.&.&.&.&.&.&.&.&.&.&.&.&.&.&.&.r.K.K.K.K.K.( , , , , , , , , , , , , , , , , , ",
", , , , , , , , , , , , , , , , j.K.K.K.b.&.&.&.&.&.&.&.&.&.&.&.&.&.&.&.&.&.&.&.&.G.K.K.K.h., , , , , , , , , , , , , , , , , , ",
", , , , , , , , , , , , , , , > , h.n.c.0 4.&.&.&.&.&.&.&.&.&.&.&.&.&.&.&.&.&.&.;.q c.n.h., , , , , , , , , , , , , , , , , , , ",
", , , , , , , , , , , , , > > > > , , , , , 3.X.$ + + + X %.&.&.&. .+ + + $ X.4.9 , , , , , , , , , , > > > , , , , , , , , , , ",
", , , , , , , , , , , , > > > > > > , , , , 8 @ + + + + + o &.&...+ + + + + @ 8 , , , , , , , , , , > > > > > , , , , , , , , , ",
", , , , , , , , , , , , > > > > > > , , , , & + + + + + + + %.%.$ + + + + + + & , , , , , , , , , , > > > > > , , , , , , , , , ",
", , , , , , , , , , , , , > > > > , , , , , + + + + + + + + 5 5 + + + + + + + + , , , , , , , , , , , > > > , , , , , , , , , , ",
", , , , , , , , , , , , , , > > , , , , , , + + + + + + + + 4 4 + + + + + + + + , , , , , , , , , , , , , , , , , , , , , , , , ",
", , , , , , , , , , , , , , , , , , , , , , * + + + + + + @ , , @ + + + + + + * , , , , , , , , , , , , , , , , , , , , , , , , ",
", , , , , , , , , , , , , , , , , , , , , , , 8 = = = = 3 , , , , 4 3 = = = 4 , , , , , , , , , , , , , , , , , , , , , , , , , ",
", , , , , , , , , , , , , , , , , , , , , , , , , , , , , , , , , , , , , , , , , , , , , , , , , , , , , , , , , , , , , , , , ",
", , , , , , , , , , , , , , , , , , , , , , , , , , , , , , , , , , , , , , , , , , , , , , , , , , , , , , , , , , , , , , , , ",
", , , , , , , , , , , , , , , , , , , , , , , , , , , , , , , , , , , , , , , , , , , , , , , , , , , , , , , , , , , , , , , , "
};
