/* XPM */
static char *player_left_stand[] = {
/* columns rows colors chars-per-pixel */
"64 64 163 2 ",
"   c gray24",
".  c #554E35",
"X  c #4E6F3C",
"o  c #3A5E6D",
"O  c #235A71",
"+  c #34677C",
"@  c #494745",
"#  c #494949",
"$  c #4B5248",
"%  c #464D50",
"&  c #435157",
"*  c #615B55",
"=  c #4F6147",
"-  c #526D44",
";  c #577D42",
":  c #6D655E",
">  c #796F66",
",  c #857226",
"<  c #917B22",
"1  c #5E9539",
"2  c #62973E",
"3  c #659F3E",
"4  c #73A23C",
"5  c #7AA03A",
"6  c #5E8F40",
"7  c #5D9857",
"8  c #5F9C58",
"9  c #609440",
"0  c #629C45",
"q  c #629D4A",
"w  c #7F9F58",
"e  c #73A24D",
"r  c #528C68",
"t  c #5C9B64",
"y  c #599A6F",
"u  c #569978",
"i  c #B69616",
"p  c #949A2E",
"a  c #83A63B",
"s  c #9DA331",
"d  c #9DAB36",
"f  c #90A93A",
"g  c #A3A42E",
"h  c #AAA52B",
"j  c #B7A725",
"k  c #B1A628",
"l  c #BCB32E",
"z  c #A8B139",
"x  c #B2B031",
"c  c #BCB837",
"v  c #B2B439",
"b  c #D9AD00",
"n  c #DDB205",
"m  c #DAB10B",
"M  c #C7A715",
"N  c #C8A817",
"B  c #E9BE14",
"V  c #C3B428",
"C  c #CDB828",
"Z  c #D4BB25",
"A  c #DDBF21",
"S  c #C3B833",
"D  c #CABC33",
"F  c #F7C600",
"G  c #FFCC00",
"H  c #FFCD08",
"J  c #EFC511",
"K  c #E3C01D",
"L  c #E9C31E",
"P  c #F5C711",
"I  c #FFCF14",
"U  c #FFD017",
"Y  c #FFD11C",
"T  c #D4C233",
"R  c #DDC532",
"E  c #FFCF24",
"W  c #F8CF2E",
"Q  c #FFD325",
"!  c #FFD52E",
"~  c #E3C631",
"^  c #EFCD30",
"/  c #F0CD30",
"(  c #FFD13C",
")  c #918377",
"_  c #9E8D7F",
"`  c #9DB070",
"'  c #A8AC78",
"]  c #F2C840",
"[  c #FFD354",
"{  c #FFD561",
"}  c #FFD66D",
"|  c #FFD779",
" . c #1B6482",
".. c #11759F",
"X. c #2F7A8D",
"o. c #2B7492",
"O. c #1176A0",
"+. c #1680AD",
"@. c #1785B3",
"#. c #1F85B0",
"$. c #1C89B7",
"%. c #1788B8",
"&. c #198EBF",
"*. c #2384AD",
"=. c #338BAF",
"-. c #3D8CAA",
";. c #3E92A3",
":. c #3290AD",
">. c #3891A8",
",. c #2B8EB2",
"<. c #248EB9",
"1. c #2793BF",
"2. c #3598BF",
"3. c #4E9788",
"4. c #529880",
"5. c #469496",
"6. c #4A9690",
"7. c #42939D",
"8. c #4888A0",
"9. c #5A98AE",
"0. c #4191B0",
"q. c #449DBF",
"w. c #5097B2",
"e. c #519BB6",
"r. c #52A2BF",
"t. c #60A7BF",
"y. c #6FACC0",
"u. c #7DB1C0",
"i. c #AA9787",
"p. c #B0B481",
"a. c #B2B982",
"s. c #BCBD8A",
"d. c #8EA5A8",
"f. c #8AAFB7",
"g. c #8BB4BE",
"h. c #ABAEA7",
"j. c #B9BBB1",
"k. c #CEB5A0",
"l. c #C4C193",
"z. c #CDC499",
"x. c #FFD991",
"c. c #FFDA9D",
"v. c #CAC4A5",
"b. c #DDCBA5",
"n. c #DFCCA8",
"m. c #C1C2B9",
"M. c #CEC7B9",
"N. c #CFC8BA",
"B. c #D4C5B2",
"V. c #D3CCBE",
"C. c #FFDBA9",
"Z. c #E6C9B1",
"A. c #F0CFB3",
"S. c #E9D1BA",
"D. c #F0D5B6",
"F. c #FFDCB5",
"G. c #F2D3B9",
"H. c #FBDABE",
"J. c #8CB6C0",
"K. c #9ABBC0",
"L. c #E2D4C1",
"P. c #F0D9C1",
"I. c #FFDEC2",
/* pixels */
"3 3 3 3 3 3 3 3 3 3 3 3 3 3 3 3 3 3 3 3 3 3 3 3 3 3 3 3 3 3 3 3 3 3 3 3 3 3 3 3 3 3 3 3 3 3 3 3 3 3 3 3 3 3 3 3 3 3 3 3 3 3 3 3 ",
"3 3 3 3 3 3 3 3 3 3 3 3 3 3 3 3 3 3 3 3 3 3 3 3 3 3 3 3 3 3 3 3 3 3 3 3 3 3 3 3 3 3 3 3 3 3 3 3 3 3 3 3 3 3 3 3 3 3 3 3 3 3 3 3 ",
"3 3 3 3 3 3 3 3 3 3 3 3 3 3 3 3 3 3 3 3 3 3 3 3 3 3 3 3 3 3 3 c ~ ~ ~ ~ ~ ~ T v a 3 3 3 3 3 3 3 3 3 3 3 3 3 3 3 3 3 3 3 3 3 3 3 ",
"3 3 3 3 3 3 3 3 3 3 3 3 3 3 3 3 3 3 3 3 3 3 3 3 3 3 3 3 4 S ^ ! Q U U U U U Y Q ! / T a 3 3 3 3 3 3 3 3 3 3 3 3 3 3 3 3 3 3 3 3 ",
"3 3 3 3 3 3 3 3 3 3 3 3 3 3 3 3 3 3 3 3 3 3 3 3 3 3 a T W ! I H G G G G G G G G G H Y W f 3 3 3 3 3 3 3 3 3 3 3 3 3 3 3 3 3 3 3 ",
"3 3 3 3 3 3 3 3 3 3 3 3 3 3 3 3 3 3 3 3 3 3 3 3 a R ! ! I G G G G G G G G G G G G G G G Z 4 3 3 3 3 3 3 3 3 3 3 3 3 3 3 3 3 3 3 ",
"3 3 3 3 3 3 3 3 3 3 3 3 3 3 3 3 3 3 3 3 3 3 3 f W ! Y G G G G G G G G G G G G G G G G G G P f 3 3 3 3 3 3 3 3 3 3 3 3 3 3 3 3 3 ",
"3 3 3 3 3 3 3 3 3 3 3 3 3 3 3 3 3 3 3 3 3 3 z W ! Y G G G G G G G G G G G G G G G G G G G G H f 3 3 3 3 3 3 3 3 3 3 3 3 3 3 3 3 ",
"3 3 3 3 3 3 3 3 3 3 3 3 3 3 3 3 3 3 3 3 3 f W ! Y G G G G G G G G G G G G G G G G G G G G G G H a 3 3 3 3 3 3 3 3 3 3 3 3 3 3 3 ",
"3 3 3 3 3 3 3 3 3 3 3 3 1 1 3 3 3 3 3 3 3 ~ ! I G G G G G G G G G G G G G G G G G G G G G G G G K 3 3 3 3 3 3 3 3 3 3 3 3 3 3 3 ",
"3 3 3 3 3 3 3 3 3 3 3 3 1 1 1 3 3 3 3 3 S ! Y G G G G G G G G G G G G G G G G G G G G G G G G G G d 1 1 1 3 3 3 3 3 3 3 3 3 3 3 ",
"3 3 3 3 3 3 3 3 3 3 3 3 1 1 1 3 3 3 3 f ! Y G G G G G G G G G G G G G G G G G G G G G G G G G G G J 1 1 1 1 3 3 3 3 3 3 3 3 3 3 ",
"3 3 3 3 3 3 3 3 3 3 3 s N b b N 5 3 3 ^ Q G G G G G G G G G G G G G G G G G G G G G G G G G G G G G V 1 1 3 3 3 3 3 3 3 3 3 3 3 ",
"3 3 3 3 3 3 3 3 3 3 3 b b b b b b h D ! H G G G G G G G G G G G G G G G G G G G G G G G G G G G G G H 4 3 3 3 3 3 3 3 3 3 3 3 3 ",
"3 3 3 3 3 3 3 3 3 3 3 k b b b b b n ! H G G G G G G G G G G G G G G G G G G G G G G G G G G G G G G G x 3 3 3 3 3 3 3 3 3 3 3 3 ",
"3 3 3 3 3 3 3 3 3 3 3 3 j b b b b B I G G G G G G G G G G G G G G G G G G G G G G G G G G G G G G G G A 3 3 3 3 3 3 3 3 3 3 3 3 ",
"3 3 3 3 3 3 3 3 3 3 3 3 3 h b b b P G G G G G G G G G G G G G G G G G G G G G G G G G G G G G G G G G H 3 3 3 3 3 3 3 3 3 3 3 3 ",
"3 3 3 3 3 3 3 3 3 3 3 3 3 3 a M b F G G G G G G G G G G G G G G G G G G G G G G G G G G G G G G G G G G a 3 3 3 3 3 3 3 3 3 3 3 ",
"3 3 3 3 3 3 3 3 3 3 3 3 3 3 3 3 g G G G G G G G G G G G G G G G G G G G G G G G G G G G G G G G G G G G d 3 3 3 3 3 3 3 3 3 3 3 ",
"3 3 3 3 3 3 3 3 3 3 3 3 3 3 3 3 3 a K G G G G G G G G G G G G G G G G G G G G G G G G G G G G G G G G G d 3 3 3 3 3 3 3 3 3 3 3 ",
"3 3 3 3 3 3 3 3 3 3 3 3 3 3 3 3 3 3 3 x L G G G G G G G G G G G G G G G G G G G G G G G G G G G G G G G d 3 3 3 3 3 3 3 3 3 3 3 ",
"3 3 3 3 3 3 3 3 3 3 3 3 3 3 3 3 3 3 3 3 l.x.] G G G G G G G G G G G G G G G G G G G G G G G G G G G G G d 3 3 3 3 3 3 3 3 3 3 3 ",
"3 3 3 3 3 3 3 3 3 3 3 3 3 3 3 3 3 3 3 3 l.I._   , i m G G G G G G G G G G G G G G G G G G G G G G G G G d 3 3 3 3 3 3 3 3 3 3 3 ",
"3 3 3 3 3 3 3 3 3 3 3 3 3 3 3 3 3 3 3 3 l.I._         . | ( G G G G G G G G G G G G G G G G G G G G G G 3 3 3 3 3 3 3 3 3 3 3 3 ",
"3 3 3 3 3 3 3 3 3 3 3 3 3 3 3 3 3 3 3 3 s.I._           I.I.C.} E G G G G G G G G G G G G G G G G G G G 3 3 3 3 3 3 3 3 3 3 3 3 ",
"3 3 3 3 3 3 3 3 3 3 3 3 3 3 3 3 3 3 3 3 ` I.i.          I.I.I.I.I.C.[ H G G G G G G G G G G G G G G G K 3 3 3 3 3 3 3 3 3 3 3 3 ",
"3 3 3 3 3 3 3 3 3 3 3 3 3 3 3 3 3 3 3 3 e I.k.        * I.I.I.I.I.I.I.C.[ H G G G G G G G G G G G G G C 3 3 3 3 3 3 3 3 3 3 3 3 ",
"3 3 3 3 3 3 3 3 3 3 3 3 3 3 3 3 3 3 3 3 3 b.I.@       ) I.I.I.I.I.I.I.I.I.F.{ G G G G G G G G G G G G x 3 3 3 3 3 3 3 3 3 3 3 3 ",
"3 3 3 3 3 3 3 3 3 3 3 3 3 3 3 3 3 3 3 3 3 a.I.)       k.I.I.I.I.I.I.I.I.I.I.I.c.E G G G G G G G G G G 4 3 3 3 3 3 3 3 3 3 3 3 3 ",
"3 3 3 3 3 3 3 3 3 3 3 3 3 3 3 3 3 3 3 3 3 3 D.G.@   : I.I.I.I.I.I.I.I.I.I.I.I.I.I.} H G G G G G G G L 3 3 3 3 3 3 3 3 3 3 3 3 3 ",
"3 3 3 3 3 3 3 3 3 3 3 3 3 3 3 3 3 3 3 3 3 3 ` I.Z.k.I.I.I.I.I.I.I.I.I.I.I.I.I.I.I.I.k.< F G G G G G l 3 3 3 3 3 3 3 3 3 3 3 3 3 ",
"3 3 3 3 3 3 3 3 3 3 3 3 3 3 3 3 3 3 3 3 3 3 3 z.I.I.I.I.I.I.I.I.I.I.I.I.I.I.I.I.I.I.G.    p Z P G G a 3 3 3 3 3 3 3 3 3 3 3 3 3 ",
"3 3 3 3 3 3 3 3 3 3 3 3 3 3 3 3 3 3 3 3 3 3 1 1 n.I.I.I.I.I.I.I.I.I.I.I.I.I.I.I.I.I.k.  X 3 3 3 3 3 3 3 3 3 3 3 3 3 3 3 3 3 3 3 ",
"3 3 3 3 3 3 3 3 3 3 3 3 3 3 3 3 3 3 3 3 1 1 1 ' A.G.I.I.I.I.I.I.I.I.I.I.I.I.I.I.I.I.> O 0 3 3 3 3 3 3 3 3 3 3 3 3 3 3 3 3 3 3 3 ",
"3 3 3 3 3 3 3 3 3 3 3 3 3 3 3 3 3 3 3 3 1 1 p.H.A.A.D.H.I.I.I.I.I.I.I.I.I.I.I.I.I.h. ...X.3 3 3 3 3 3 3 3 3 3 3 3 3 3 3 3 3 3 3 ",
"3 3 3 3 3 3 3 3 3 3 3 3 3 3 3 3 3 3 3 3 1 w I.I.G.A.A.A.D.H.I.I.I.I.I.I.I.I.I.G.B.......O.y 3 3 3 3 3 3 3 3 3 3 3 3 3 3 3 3 3 3 ",
"3 3 3 3 3 3 3 3 3 3 3 3 3 3 3 3 3 3 3 3 1 v.I.I.I.D.A.A.A.A.D.G.G.S.m.m.M.D.A.A.8.......%.,.3 3 3 3 3 3 3 3 3 3 3 3 3 3 3 3 3 3 ",
"3 3 3 3 3 3 3 3 3 3 3 3 3 3 3 3 3 3 3 3 7 r.I.I.I.H.D.A.A.A.A.A.j.*.+.+.+.9.A.d.....O.%.&.&.6.3 3 3 3 3 3 3 3 3 3 3 3 3 3 3 3 3 ",
"3 3 3 3 3 3 3 3 3 3 3 3 3 3 3 3 3 3 3 3 7.&.y.I.I.I.I.D.A.A.A.B.+.+.+.+.+.+.-.....O.&.&.&.&.,.3 3 3 3 3 3 3 3 3 3 3 3 3 3 3 3 3 ",
"3 3 3 3 3 3 3 3 3 3 3 3 3 3 3 3 3 3 3 3 ,.&.&.r.L.I.I.I.H.D.A.9.+.+.+.+.+.+.+...@.&.&.&.&.&.&.y 3 3 3 3 3 3 3 3 3 3 3 3 3 3 3 3 ",
"3 3 3 3 3 3 1 1 3 3 3 3 3 3 3 3 3 3 3 8 &.&.&.&.1.K.P.I.I.I.N.+.+.+.+.+.+.+.+.@.&.&.&.&.&.&.&.3.3 3 3 3 3 3 3 3 3 3 3 3 3 3 3 3 ",
"3 3 3 3 3 3 3 1 3 3 3 3 3 3 3 3 3 3 3 y &.&.&.&.&.&.1.t.J.J.e.+.+.+.+.+.+.+.+.+.&.&.&.&.&.&.&.;.3 3 3 3 3 3 3 3 3 3 3 3 3 3 3 3 ",
"3 3 3 3 3 3 3 3 3 3 3 3 3 3 3 3 3 3 3 3.&.&.&.&.&.&.&.&.&.&.@.+.+.+.+.+.+.+.+.+.&.&.&.&.&.&.&.>.3 3 3 3 3 3 3 3 3 3 3 3 3 3 3 3 ",
"3 3 3 3 3 3 3 3 3 3 3 3 3 3 3 3 3 3 3 6.&.&.&.&.&.&.&.&.&.&.@.+.+.+.+.+.+.+.+.+.&.&.&.&.&.&.&.>.3 3 3 3 3 3 3 3 3 3 3 3 3 3 3 3 ",
"3 3 3 3 3 3 3 3 3 3 3 3 3 3 3 3 3 3 3 y &.&.&.&.&.&.&.&.&.&.@.+.+.+.+.+.+.+.+.+.&.&.&.&.&.&.&.;.3 3 3 3 3 3 3 3 3 3 3 3 3 3 3 3 ",
"3 3 3 3 3 3 3 3 3 3 3 3 3 3 3 3 3 3 3 y &.&.&.&.&.&.&.&.&.&.@.+.+.+.+.+.+.+.+.+.&.&.&.&.&.&.&.6.3 3 3 3 3 3 3 3 3 3 3 3 3 3 3 3 ",
"3 3 3 3 3 3 3 3 3 3 3 3 3 3 3 3 3 3 3 3 &.&.&.&.&.&.&.&.&.&.@.+.+.=.w.w.0.+.+.+.&.&.&.&.&.&.&.y 3 3 3 3 3 3 3 3 3 3 3 3 3 3 3 3 ",
"3 3 3 3 3 3 3 3 3 3 3 3 3 3 3 3 3 3 3 3 ;.&.&.&.&.&.&.&.&.&.&.+.w.I.I.I.I.f.+.@.&.&.&.&.&.&.<.3 3 3 3 3 3 3 3 3 3 3 3 3 3 3 3 3 ",
"3 3 3 3 3 3 3 3 3 3 3 3 3 3 3 3 3 3 3 3 4.&.&.&.&.&.&.&.&.&.&.@.V.I.I.I.I.I.0.&.&.&.&.&.&.&.7.3 3 3 3 3 3 3 3 3 3 3 3 3 3 3 3 3 ",
"3 3 3 3 3 3 3 3 3 3 3 3 3 3 3 3 3 3 3 3 3 ,.&.&.&.&.&.&.&.&.&.r.I.I.I.I.I.I.g.&.&.&.&.&.&.&.y 3 3 3 3 3 3 3 3 3 3 3 3 3 3 3 3 3 ",
"3 3 3 3 3 3 3 3 3 3 3 3 3 3 3 3 3 3 3 3 3 u &.&.&.&.&.&.&.&.&.q.I.I.I.I.I.I.u.&.&.&.&.&.&.7.3 3 3 3 3 3 3 3 3 3 3 3 3 3 3 3 3 3 ",
"3 3 3 3 3 3 3 3 3 3 3 3 3 3 3 3 3 3 3 3 3 3 7.&.&.&.&.&.&.&.&.&.L.I.I.I.I.I.2.&.&.&.&.&.<.q 3 3 3 3 3 3 3 3 3 3 3 3 3 3 3 3 3 3 ",
"3 3 3 3 3 3 3 3 3 3 3 3 3 3 3 3 3 3 3 3 3 3 q >.&.&.&.&.&.&.&.&.q.L.I.I.P.y.&.&.&.&.&.&.t 3 3 3 3 3 3 3 3 3 3 3 3 3 3 3 3 3 3 3 ",
"3 3 3 3 3 3 3 3 3 3 3 3 3 3 3 1 3 3 3 3 3 3 3 q >.&.&.&.&.&.&.&.&.1.r.r.2.&.&.&.&.&.<.4.3 3 3 3 3 3 3 3 3 3 3 3 3 3 3 3 3 3 3 3 ",
"3 3 3 3 3 3 3 3 3 3 3 3 3 1 1 1 1 3 3 3 3 3 3 3 3 5.&.#.+ % # # # # # # o o.&.&.&.:.y 3 3 3 3 3 3 3 3 1 1 1 3 3 3 3 3 3 3 3 3 3 ",
"3 3 3 3 3 3 3 3 3 3 3 3 1 1 1 1 1 1 3 3 3 3 3 3 3 3 r & # # # # # # # # # # + $.3.3 3 3 3 3 3 3 3 3 1 1 1 1 1 3 3 3 3 3 3 3 3 3 ",
"3 3 3 3 3 3 3 3 3 3 3 3 1 1 1 1 1 1 3 3 3 3 3 3 3 2 $ # # # # # # # # # # # # = 3 3 3 3 3 3 3 3 3 3 1 1 1 1 1 3 3 3 3 3 3 3 3 3 ",
"3 3 3 3 3 3 3 3 3 3 3 3 3 1 1 1 1 3 3 3 3 3 3 3 3 ; # # # # # # # # # # # # # # 9 3 3 3 3 3 3 3 3 3 3 1 1 1 3 3 3 3 3 3 3 3 3 3 ",
"3 3 3 3 3 3 3 3 3 3 3 3 3 3 1 1 3 3 3 3 3 3 3 3 3 ; # # # # # # # # # # # # # # 6 3 3 3 3 3 3 3 3 3 3 3 3 3 3 3 3 3 3 3 3 3 3 3 ",
"3 3 3 3 3 3 3 3 3 3 3 3 3 3 3 3 3 3 3 3 3 3 3 3 3 2 = # # # # # # # # # # # # - 3 3 3 3 3 3 3 3 3 3 3 3 3 3 3 3 3 3 3 3 3 3 3 3 ",
"3 3 3 3 3 3 3 3 3 3 3 3 3 3 3 3 3 3 3 3 3 3 3 3 3 3 3 3 6 6 6 6 6 6 6 6 6 6 3 3 3 3 3 3 3 3 3 3 3 3 3 3 3 3 3 3 3 3 3 3 3 3 3 3 ",
"3 3 3 3 3 3 3 3 3 3 3 3 3 3 3 3 3 3 3 3 3 3 3 3 3 3 3 3 3 3 3 3 3 3 3 3 3 3 3 3 3 3 3 3 3 3 3 3 3 3 3 3 3 3 3 3 3 3 3 3 3 3 3 3 ",
"3 3 3 3 3 3 3 3 3 3 3 3 3 3 3 3 3 3 3 3 3 3 3 3 3 3 3 3 3 3 3 3 3 3 3 3 3 3 3 3 3 3 3 3 3 3 3 3 3 3 3 3 3 3 3 3 3 3 3 3 3 3 3 3 ",
"3 3 3 3 3 3 3 3 3 3 3 3 3 3 3 3 3 3 3 3 3 3 3 3 3 3 3 3 3 3 3 3 3 3 3 3 3 3 3 3 3 3 3 3 3 3 3 3 3 3 3 3 3 3 3 3 3 3 3 3 3 3 3 3 "
};
