/* XPM */
static char *player_down_walk2[] = {
/* columns rows colors chars-per-pixel */
"64 64 163 2 ",
"   c None",
".  c gray24",
"X  c #464439",
"o  c #3D5A66",
"O  c #3A5E6D",
"+  c gray28",
"@  c #494745",
"#  c #494949",
"$  c #55514D",
"%  c #464D50",
"&  c #444E50",
"*  c #40555F",
"=  c #615B55",
"-  c #6D655E",
";  c #947C1A",
":  c #86743A",
">  c #85796E",
",  c #B2910F",
"<  c #BB980B",
"1  c #A3892F",
"2  c #C59F07",
"3  c #D7AB00",
"4  c #D7AC00",
"5  c #D8AA00",
"6  c #D9AD00",
"7  c #DBAE00",
"8  c #DBB00C",
"9  c #E0B200",
"0  c #E2B400",
"q  c #E4B600",
"w  c #E7B800",
"e  c #ECBC00",
"r  c #EEBE00",
"t  c #E0B624",
"y  c #E2B930",
"u  c #E1BA3A",
"i  c #E4BC3C",
"p  c #F0C000",
"a  c #F3C200",
"s  c #F5C400",
"d  c #F7C600",
"f  c #FAC800",
"g  c #FDC900",
"h  c #FCCA00",
"j  c #FDCA00",
"k  c #FECB00",
"l  c #FFCC00",
"z  c #FFCC02",
"x  c #FFCD05",
"c  c #F0C208",
"v  c #FFCD08",
"b  c #FFCE0B",
"n  c #FFCE0E",
"m  c #ECC117",
"M  c #F7CA14",
"N  c #FFCF11",
"B  c #FFCF14",
"V  c #F0C61C",
"C  c #FFD017",
"Z  c #FFD11C",
"A  c #FFD21F",
"S  c #FFD222",
"D  c #FFD325",
"F  c #FFD328",
"G  c #FFD42B",
"H  c #FDD12C",
"J  c #FDD22D",
"K  c #FFD52E",
"L  c #918377",
"P  c #9E8D7F",
"I  c #C7A748",
"U  c #E7BF48",
"Y  c #D6B66E",
"T  c #E9C254",
"R  c #ECC561",
"E  c #316B84",
"W  c #28789A",
"Q  c #147FA9",
"!  c #147EAB",
"~  c #147FAB",
"^  c #157FAB",
"/  c #167FAA",
"(  c #167FAB",
")  c #147FAC",
"_  c #1680AD",
"`  c #1680AE",
"'  c #1681AF",
"]  c #1682B0",
"[  c #1683B1",
"{  c #1684B2",
"}  c #1786B4",
"|  c #1787B6",
" . c #1787B7",
".. c #1B87B4",
"X. c #1C89B7",
"o. c #1788B8",
"O. c #168BBD",
"+. c #178BBD",
"@. c #188ABA",
"#. c #198BBB",
"$. c #198CBC",
"%. c #188DBD",
"&. c #198DBE",
"*. c #198EBF",
"=. c #2281A8",
"-. c #2489B3",
";. c #2793BF",
":. c #3598BF",
">. c #449DBF",
",. c #5097B2",
"<. c #6DA3B4",
"1. c #6EA2B4",
"2. c #60A7BF",
"3. c #6BA8BC",
"4. c #6EABBF",
"5. c #6FACC0",
"6. c #AA9787",
"7. c #8AAFB7",
"8. c #99B4B8",
"9. c #A4B9B9",
"0. c #BABCB2",
"q. c #C2AB98",
"w. c #CEB5A0",
"e. c #DABFA9",
"r. c #B6C0BB",
"t. c #F3CE85",
"y. c #F7D49D",
"u. c #C4C6BC",
"i. c #D2CDBF",
"p. c #D3CDBF",
"a. c #DFD1BE",
"s. c #F5D4A3",
"d. c #E6C9B1",
"f. c #E7CFB8",
"g. c #F0CFB3",
"h. c #E2D2BD",
"j. c #F1D0B4",
"k. c #F2D1B5",
"l. c #F3D2B6",
"z. c #F4D3B7",
"x. c #FCDAB5",
"c. c #F2D3B9",
"v. c #F5D4B8",
"b. c #F6D5B9",
"n. c #F7D6BA",
"m. c #F9D8BC",
"M. c #FAD9BD",
"N. c #FBDABE",
"B. c #FCDBBF",
"V. c #8CB6C0",
"C. c #9ABBC0",
"Z. c #A8C0C0",
"A. c #B7C5C1",
"S. c #C5CAC1",
"D. c #D3CFC1",
"F. c #E2D4C1",
"G. c #F0D9C1",
"H. c #FDDBC0",
"J. c #FCDCC0",
"K. c #FDDCC0",
"L. c #FEDDC0",
"P. c #FEDDC1",
"I. c #FFDEC2",
/* pixels */
"                                                                                                                                ",
"                                                                                                                                ",
"                                                          H H H H                                                               ",
"                                                          H H H H H                                                             ",
"                                                l l l l B H H H H H l l l l                                                     ",
"                                          l l l l l l l C H H H H H n l l l l l l l                                             ",
"                                        l l l l l l l l S H H H H H B l l l l l l l                                             ",
"                                      l l l l l l l l l H H H H H H C l l l l l l l l                                           ",
"                                    l l l l l l l l l l H H H H H H S l l l l l l l l l                                         ",
"                                    l l l l l l l l l n H H H H H H S l l l l l l l l l l                                       ",
"                                  l l l l l l l l l l n H H H H H H H l l l l l l l l l l l                                     ",
"                                l l l l l l l l l l l C H H H H H H H n l l l l l l l l l l                                     ",
"                                l l l l l l l l l l l S H H H H H H H C l l l l l l l l l l l                                   ",
"                              l l l l l l l l l l l l H H H H H H H H C l l l l l l l l l l l                                   ",
"                              l l l l l l l l l l l l H H H H H H H H S l l l l l l l l l l l l                                 ",
"                              l l l l l l l l l l l b H H H H H H H H H l l l l l l l l l l l l                                 ",
"                            l l l l l l l l l l l l C H H H H H H H H H n l l l l l l l l l l l                                 ",
"                            l l l l l l l l l l l l A H H H H H H H H H C l l l l l l l l l l l l                               ",
"                            l l l l l l l l l l l l H H H H H H H H H H A l l l l l l l l l l l l                               ",
"                            l l l l l l l l l l l l H H H H H H H H H H H l l l l l l l l l l l l                               ",
"                            l l l l l l l l l l l C H H H H H H H H H H H n l l l l l l l l l l l                               ",
"                            l l l l l l l l l l l M V m m m m m m m m m m c p l l l l l l l l l l                               ",
"                            l l l l l l l p e 0 0 6 6 6 6 6 6 6 6 6 6 6 6 6 6 6 0 w p l l l l l l                               ",
"                            l l l l p 0 6 6 6 6 6 6 6 6 6 6 6 6 6 6 6 6 6 6 6 6 6 6 6 6 0 p l l l                               ",
"                            l l e 6 6 6 6 6 6 6 6 < , ; I R R R R R 1 ; , 2 6 6 6 6 6 6 6 6 0 p l                               ",
"                            l 0 6 6 6 6 6 8 i : X . . . P I.I.I.I.I.@ . . . X t.i 8 6 6 6 6 6 6 p                               ",
"                            0 6 6 6 6 6 U x.I.$ . . . . - I.I.I.I.d.. . . . . w.I.x.t.8 6 6 6 6 6                               ",
"                            6 6 6 6 6 R I.I.I.. . . . . - I.I.I.I.w.. . . . . w.I.I.I.y.8 6 6 6 6                               ",
"                            6 6 6 6 T I.I.I.I.. . . . . . I.I.I.I.w.. . . . . P I.I.I.I.x.8 6 6 6 3                             ",
"                            6 6 6 8 x.I.I.I.I.. . . . . . I.I.I.I.w.. . . . . P I.I.I.I.I.T 6 6 6 3                             ",
"                              6 6 y I.I.I.I.I.. . . . . @ I.I.I.I.w.. . . . . P I.I.I.I.I.Y 6 6 3                               ",
"                                6 t I.I.I.I.I.= . . . . - I.I.I.I.n.. . . . . q.I.I.I.I.I.i 6 6                                 ",
"                                  3 s.I.I.I.I.> . . . . 6.I.I.I.I.I.$ . . . . d.I.I.I.I.I.                                      ",
"                                      I.I.I.I.w.. . . . d.I.I.I.I.I.P . . . = I.I.I.I.I.                                        ",
"                                      I.I.I.I.I.> . . L I.I.I.I.I.I.I.$ . . q.I.I.I.I.I.                                        ",
"                                        p.I.I.I.n.P P n.I.I.I.I.I.I.I.e.P 6.I.I.I.I.D.                                          ",
"                                      +.-.N.I.I.I.I.I.I.I.I.I.I.I.I.I.I.I.I.I.I.I.p.;.$.                                        ",
"                                      $.$.0.n.I.I.I.I.I.I.I.I.I.I.I.I.I.I.I.I.I.N.4.$.$.                                        ",
"                                Q _ _ _ $.4.g.l.I.I.I.I.I.I.I.I.I.I.I.I.I.I.I.l.f.;.| _ _ Q                                     ",
"                                _ _ _ _ | $.a.g.g.n.N.I.I.I.I.I.I.I.I.I.N.n.g.n.V.$._ _ _ _ Q                                   ",
"                              _ _ _ _ _ _ $.>.I.l.g.g.l.n.n.n.n.n.n.n.l.g.l.N.F.;.$._ _ _ _ _ Q                                 ",
"                            Q _ _ _ _ _ _ $.$.5.I.N.l.g.g.g.g.g.g.g.g.g.n.I.G.>.$.| _ _ _ _ _ _                                 ",
"                            _ _ _ _ _ _ _ $.$.$.2.G.I.N.n.l.l.l.l.n.N.I.I.F.:.*.$.| _ _ _ _ _ _ Q                               ",
"                            _ _ _ _ _ _ _ $.$.$.$.:.S.I.I.I.I.I.I.I.I.I.C.;.*.*.$.| _ _ _ _ _ _ Q                               ",
"                          Q _ _ _ _ _ _ | *.*.*.$.$.$.>.5.A.S.S.S.Z.2.:.*.*.*.*.$.$._ _ _ _ _ _ _                               ",
"                          Q _ _ _ _ _ _ | *.*.*.$.$.$.$.*.*.$.$.$.$.$.$.*.*.*.*.$.$._ _ _ _ _ _ _                               ",
"                          _ _ _ _ _ _ _ $.$.*.*.*.*.$.$.*.*.*.*.$.$.$.$.$.*.$.$.$.$.| _ _ _ _ _ _                               ",
"                          _ 7.u.u.8._ _ $.$.*.*.*.*.$.$.*.*.*.*.$.$.$.$.$.$.$.$.$.$.+._ _ u.I.I.r.                              ",
"                          1.I.I.I.I.1.| $.$.$.$.*.*.*.*.*.*.*.*.*.*.*.$.$.$.$.$.*.$.$.| ,.I.I.I.I.                              ",
"                          I.I.I.I.I.9.$.$.$.$.$.*.*.*.*.$.*.*.*.*.*.*.*.$.$.$.$.*.*.$.$.1.I.I.I.I.I.                            ",
"                          I.I.I.I.I.    *.*.$.$.*.*.$.$.$.$.$.$.*.*.*.*.*.*.$.*.$.$.$.+.h.I.I.I.I.I.                            ",
"                          I.I.I.I.I.    $.$.$.$.*.*.$.$.$.$.$.$.*.*.*.*.*.*.*.*.$.$.$.    I.I.I.I.I.                            ",
"                            I.I.I.I.      $.*.*.*.$.$.$.$.$.$.$.$.$.$.$.*.*.*.*.$.$.        I.I.I.                              ",
"                                            $.*.*.*.$.$.$.$.$.$.$.=.* # # # * =.$.                                              ",
"                                              ..O # # # % W $.$...* # # # # # *                                                 ",
"                                              + # # # # # % =.$.E # # # # # # #                                                 ",
"                                              # # # # # # # o $.o # # # # # # #                                                 ",
"                                              # # # # # # # #   % # # # # # # #                                                 ",
"                                              # # # # # # # #     # # # # # # #                                                 ",
"                                              # # # # # # # +                                                                   ",
"                                                                                                                                ",
"                                                                                                                                ",
"                                                                                                                                ",
"                                                                                                                                "
};
