/* XPM */
static const char *player[] = {
/* columns rows colors chars-per-pixel */
"64 64 153 2 ",
"   c gray23",
".  c gray24",
"X  c #554E35",
"o  c #3D5A66",
"O  c #235A71",
"+  c #376275",
"@  c #34677C",
"#  c #464646",
"$  c gray28",
"%  c #494745",
"&  c #494949",
"*  c #464D50",
"=  c #444E50",
"-  c #615B55",
";  c #6D655E",
":  c #796F66",
">  c #857226",
",  c #917B22",
"<  c #B69616",
"1  c #D5AB00",
"2  c #D7AB00",
"3  c #D8AB00",
"4  c #D9AD00",
"5  c #DDB205",
"6  c #DAB10B",
"7  c #E9BE14",
"8  c #F2C303",
"9  c #F7C600",
"0  c #FDC900",
"q  c #FCCA00",
"w  c #FDCA00",
"e  c #FECB00",
"r  c #FDCB02",
"t  c #FFCC00",
"y  c #FFCC02",
"u  c #FFCD08",
"i  c #FFCE0B",
"p  c #FCCA0F",
"a  c #FFCD0C",
"s  c #FFCE0E",
"d  c #F5C711",
"f  c #FFCF11",
"g  c #FFCF14",
"h  c #FFD017",
"j  c #FFD119",
"k  c #FFD11C",
"l  c #F9CF27",
"z  c #FFCF24",
"x  c #FFD222",
"c  c #FFD325",
"v  c #FED126",
"b  c #FFD328",
"n  c #FDD32B",
"m  c #FFD42B",
"M  c #FDD12C",
"N  c #FED32C",
"B  c #FED22D",
"V  c #FCD32E",
"C  c #FCD42E",
"Z  c #FFD52E",
"A  c #FFD13C",
"S  c #918377",
"D  c #9E8D7F",
"F  c #F2C840",
"G  c #FFD354",
"H  c #FFD561",
"J  c #FFD66D",
"K  c #FFD779",
"L  c #1B6482",
"P  c #0F6F99",
"I  c #10719A",
"U  c #10729C",
"Y  c #11739D",
"T  c #2E6F8B",
"R  c #1176A0",
"E  c #147DA9",
"W  c #217CA3",
"Q  c #257CA1",
"!  c #1680AD",
"~  c #1583B1",
"^  c #1683B1",
"/  c #1785B3",
"(  c #1787B6",
")  c #1F85B0",
"_  c #1C89B7",
"`  c #1788B8",
"'  c #178BBC",
"]  c #168BBD",
"[  c #178CBD",
"{  c #188ABA",
"}  c #188BBB",
"|  c #188CBC",
" . c #198CBD",
".. c #198DBE",
"X. c #198EBF",
"o. c #2384AD",
"O. c #2485AE",
"+. c #3E8EAE",
"@. c #2793BF",
"#. c #3598BF",
"$. c #4888A0",
"%. c #4191B0",
"&. c #4293B3",
"*. c #5097B2",
"=. c #5E9DB3",
"-. c #52A2BF",
";. c #60A7BF",
":. c #7DAFBE",
">. c #6FACC0",
",. c #7DB1C0",
"<. c #AA9787",
"1. c #8EA5A8",
"2. c #86ABB3",
"3. c #ABAEA7",
"4. c #ABB6B1",
"5. c #A7BABA",
"6. c #CEB5A0",
"7. c #FFD991",
"8. c #FFDA9D",
"9. c #C7C0B1",
"0. c #C1C2B9",
"q. c #D6C6B2",
"w. c #FFDBA9",
"e. c #E2CAB2",
"r. c #E6C9B1",
"t. c #F0CFB3",
"y. c #F1D0B4",
"u. c #F2D1B5",
"i. c #F4D3B7",
"p. c #FFDCB5",
"a. c #F2D3B9",
"s. c #F5D4B8",
"d. c #F6D5B9",
"f. c #F7D6BA",
"g. c #F9D8BC",
"h. c #F9D9BD",
"j. c #FAD9BD",
"k. c #FBDABE",
"l. c #FCDBBF",
"z. c #8CB6C0",
"x. c #9ABBC0",
"c. c #B7C5C1",
"v. c #C5CAC1",
"b. c #E2D4C1",
"n. c #E8D5C0",
"m. c #F0D8C0",
"M. c #F0D9C1",
"N. c #FCDBC0",
"B. c #FDDBC0",
"V. c #FEDCC0",
"C. c #FEDDC1",
"Z. c #FFDEC2",
"A. c None",
/* pixels */
"A.A.A.A.A.A.A.A.A.A.A.A.A.A.A.A.A.A.A.A.A.A.A.A.A.A.A.A.A.A.A.A.A.A.A.A.A.A.A.A.A.A.A.A.A.A.A.A.A.A.A.A.A.A.A.A.A.A.A.A.A.A.A.A.",
"A.A.A.A.A.A.A.A.A.A.A.A.A.A.A.A.A.A.A.A.A.A.A.A.A.A.A.A.A.A.A.A.A.A.A.A.A.A.A.A.A.A.A.A.A.A.A.A.A.A.A.A.A.A.A.A.A.A.A.A.A.A.A.A.",
"A.A.A.A.A.A.A.A.A.A.A.A.A.A.A.A.A.A.A.A.A.A.A.A.A.A.A.A.A.A.A.A.A.A.A.A.A.A.A.A.A.A.A.A.A.A.A.A.A.A.A.A.A.A.A.A.A.A.A.A.A.A.A.A.",
"A.A.A.A.A.A.A.A.A.A.A.A.A.A.A.A.A.A.A.A.A.A.A.A.A.A.A.A.A.A.A.A.B B B B B B b A.A.A.A.A.A.A.A.A.A.A.A.A.A.A.A.A.A.A.A.A.A.A.A.A.",
"A.A.A.A.A.A.A.A.A.A.A.A.A.A.A.A.A.A.A.A.A.A.A.A.A.A.A.A.A.A.B Z x h h h h h j x Z B b A.A.A.A.A.A.A.A.A.A.A.A.A.A.A.A.A.A.A.A.A.",
"A.A.A.A.A.A.A.A.A.A.A.A.A.A.A.A.A.A.A.A.A.A.A.A.A.A.A.b B b g u t t t t t t t t t a j c A.A.A.A.A.A.A.A.A.A.A.A.A.A.A.A.A.A.A.A.",
"A.A.A.A.A.A.A.A.A.A.A.A.A.A.A.A.A.A.A.A.A.A.A.A.A.B Z m g t t t t t t t t t t t t t t t 0 A.A.A.A.A.A.A.A.A.A.A.A.A.A.A.A.A.A.A.",
"A.A.A.A.A.A.A.A.A.A.A.A.A.A.A.A.A.A.A.A.A.A.A.A.B Z k t t t t t t t t t t t t t t t t t t 0 A.A.A.A.A.A.A.A.A.A.A.A.A.A.A.A.A.A.",
"A.A.A.A.A.A.A.A.A.A.A.A.A.A.A.A.A.A.A.A.A.A.A.B Z j t t t t t t t t t t t t t t t t t t t t 0 A.A.A.A.A.A.A.A.A.A.A.A.A.A.A.A.A.",
"A.A.A.A.A.A.A.A.A.A.A.A.A.A.A.A.A.A.A.A.A.A.B Z j t t t t t t t t t t t t t t t t t t t t t t 0 A.A.A.A.A.A.A.A.A.A.A.A.A.A.A.A.",
"A.A.A.A.A.A.A.A.A.A.A.A.A.A.A.A.A.A.A.A.A.B Z f t t t t t t t t t t t t t t t t t t t t t t t t 0 A.A.A.A.A.A.A.A.A.A.A.A.A.A.A.",
"A.A.A.A.A.A.A.A.A.A.A.A.A.A.A.A.A.A.A.A.A.Z j t t t t t t t t t t t t t t t t t t t t t t t t t t A.A.A.A.A.A.A.A.A.A.A.A.A.A.A.",
"A.A.A.A.A.A.A.A.A.A.A.A.A.A.A.A.A.A.A.A.Z k t t t t t t t t t t t t t t t t t t t t t t t t t t t 0 A.A.A.A.A.A.A.A.A.A.A.A.A.A.",
"A.A.A.A.A.A.A.A.A.A.A.A.2 4 4 2 A.A.A.Z c t t t t t t t t t t t t t t t t t t t t t t t t t t t t t A.A.A.A.A.A.A.A.A.A.A.A.A.A.",
"A.A.A.A.A.A.A.A.A.A.A.4 4 4 4 4 4 A.l m u t t t t t t t t t t t t t t t t t t t t t t t t t t t t t 0 A.A.A.A.A.A.A.A.A.A.A.A.A.",
"A.A.A.A.A.A.A.A.A.A.A.3 4 4 4 4 4 5 Z u t t t t t t t t t t t t t t t t t t t t t t t t t t t t t t t A.A.A.A.A.A.A.A.A.A.A.A.A.",
"A.A.A.A.A.A.A.A.A.A.A.A.2 4 4 4 4 7 f t t t t t t t t t t t t t t t t t t t t t t t t t t t t t t t t 0 A.A.A.A.A.A.A.A.A.A.A.A.",
"A.A.A.A.A.A.A.A.A.A.A.A.A.A.4 4 4 d t t t t t t t t t t t t t t t t t t t t t t t t t t t t t t t t t 0 A.A.A.A.A.A.A.A.A.A.A.A.",
"A.A.A.A.A.A.A.A.A.A.A.A.A.A.A.2 4 9 t t t t t t t t t t t t t t t t t t t t t t t t t t t t t t t t t t A.A.A.A.A.A.A.A.A.A.A.A.",
"A.A.A.A.A.A.A.A.A.A.A.A.A.A.A.A.A.t t t t t t t t t t t t t t t t t t t t t t t t t t t t t t t t t t t A.A.A.A.A.A.A.A.A.A.A.A.",
"A.A.A.A.A.A.A.A.A.A.A.A.A.A.A.A.A.A.0 t t t t t t t t t t t t t t t t t t t t t t t t t t t t t t t t t A.A.A.A.A.A.A.A.A.A.A.A.",
"A.A.A.A.A.A.A.A.A.A.A.A.A.A.A.A.A.A.A.A.p t t t t t t t t t t t t t t t t t t t t t t t t t t t t t t t A.A.A.A.A.A.A.A.A.A.A.A.",
"A.A.A.A.A.A.A.A.A.A.A.A.A.A.A.A.A.A.A.A.A.7.F t t t t t t t t t t t t t t t t t t t t t t t t t t t t t A.A.A.A.A.A.A.A.A.A.A.A.",
"A.A.A.A.A.A.A.A.A.A.A.A.A.A.A.A.A.A.A.A.A.Z.D . > < 6 t t t t t t t t t t t t t t t t t t t t t t t t t A.A.A.A.A.A.A.A.A.A.A.A.",
"A.A.A.A.A.A.A.A.A.A.A.A.A.A.A.A.A.A.A.A.A.Z.D . . . . X K A t t t t t t t t t t t t t t t t t t t t t t A.A.A.A.A.A.A.A.A.A.A.A.",
"A.A.A.A.A.A.A.A.A.A.A.A.A.A.A.A.A.A.A.A.A.Z.D . . . . . Z.Z.w.J z t t t t t t t t t t t t t t t t t t t A.A.A.A.A.A.A.A.A.A.A.A.",
"A.A.A.A.A.A.A.A.A.A.A.A.A.A.A.A.A.A.A.A.A.Z.<.. . . . . Z.Z.Z.Z.Z.w.G a t t t t t t t t t t t t t t t 0 A.A.A.A.A.A.A.A.A.A.A.A.",
"A.A.A.A.A.A.A.A.A.A.A.A.A.A.A.A.A.A.A.A.A.Z.6.. . . . - Z.Z.Z.Z.Z.Z.Z.w.G a t t t t t t t t t t t t t 0 A.A.A.A.A.A.A.A.A.A.A.A.",
"A.A.A.A.A.A.A.A.A.A.A.A.A.A.A.A.A.A.A.A.A.Z.Z.% . . . S Z.Z.Z.Z.Z.Z.Z.Z.Z.p.H t t t t t t t t t t t t A.A.A.A.A.A.A.A.A.A.A.A.A.",
"A.A.A.A.A.A.A.A.A.A.A.A.A.A.A.A.A.A.A.A.A.A.Z.S . . . 6.Z.Z.Z.Z.Z.Z.Z.Z.Z.Z.Z.8.z t t t t t t t t t t A.A.A.A.A.A.A.A.A.A.A.A.A.",
"A.A.A.A.A.A.A.A.A.A.A.A.A.A.A.A.A.A.A.A.A.A.N.a.% . ; Z.Z.Z.Z.Z.Z.Z.Z.Z.Z.Z.Z.Z.Z.J a t t t t t t t 0 A.A.A.A.A.A.A.A.A.A.A.A.A.",
"A.A.A.A.A.A.A.A.A.A.A.A.A.A.A.A.A.A.A.A.A.A.A.Z.r.6.Z.Z.Z.Z.Z.Z.Z.Z.Z.Z.Z.Z.Z.Z.Z.Z.6., 8 t t t t t A.A.A.A.A.A.A.A.A.A.A.A.A.A.",
"A.A.A.A.A.A.A.A.A.A.A.A.A.A.A.A.A.A.A.A.A.A.A.N.Z.Z.Z.Z.Z.Z.Z.Z.Z.Z.Z.Z.Z.Z.Z.Z.Z.Z.a.. . A.0 0 t t A.A.A.A.A.A.A.A.A.A.A.A.A.A.",
"A.A.A.A.A.A.A.A.A.A.A.A.A.A.A.A.A.A.A.A.A.A.A.A.j.Z.Z.Z.Z.Z.Z.Z.Z.Z.Z.Z.Z.Z.Z.Z.Z.Z.6..   A.A.A.A.A.A.A.A.A.A.A.A.A.A.A.A.A.A.A.",
"A.A.A.A.A.A.A.A.A.A.A.A.A.A.A.A.A.A.A.A.A.A.A.A.t.s.Z.Z.Z.Z.Z.Z.Z.Z.Z.Z.Z.Z.Z.Z.Z.Z.: O A.A.A.A.A.A.A.A.A.A.A.A.A.A.A.A.A.A.A.A.",
"A.A.A.A.A.A.A.A.A.A.A.A.A.A.A.A.A.A.A.A.A.A.A.j.t.t.y.l.Z.Z.Z.Z.Z.Z.Z.Z.Z.Z.Z.Z.Z.3.L I P A.A.A.A.A.A.A.A.A.A.A.A.A.A.A.A.A.A.A.",
"A.A.A.A.A.A.A.A.A.A.A.A.A.A.A.A.A.A.A.A.A.A.Z.Z.s.t.t.t.i.l.Z.Z.Z.Z.Z.Z.Z.Z.Z.s.q.I I I R A.A.A.A.A.A.A.A.A.A.A.A.A.A.A.A.A.A.A.",
"A.A.A.A.A.A.A.A.A.A.A.A.A.A.A.A.A.A.A.A.A.n.Z.Z.Z.y.t.t.t.t.y.s.s.s.0.0.0.i.t.t.$.I I Y ` ' A.A.A.A.A.A.A.A.A.A.A.A.A.A.A.A.A.A.",
"A.A.A.A.A.A.A.A.A.A.A.A.A.A.A.A.A.A.A.A.A.-.Z.Z.Z.l.y.t.t.t.t.t.e.+.! ! ! o.4.1.I I R `  . .A.A.A.A.A.A.A.A.A.A.A.A.A.A.A.A.A.A.",
"A.A.A.A.A.A.A.A.A.A.A.A.A.A.A.A.A.A.A.A.'  .>.Z.Z.Z.Z.i.t.t.t.t.+.! ! ! ! ! ! Y I R  . . . .' A.A.A.A.A.A.A.A.A.A.A.A.A.A.A.A.A.",
"A.A.A.A.A.A.A.A.A.A.A.A.A.A.A.A.A.A.A.A.'  . .-.b.Z.Z.Z.j.y.t.9.! ! ! ! ! ! ! E ^  . . . . .X.A.A.A.A.A.A.A.A.A.A.A.A.A.A.A.A.A.",
"A.A.A.A.A.A.A.A.A.A.A.A.A.A.A.A.A.A.A.A. . . . .@.x.M.Z.Z.Z.j.2.! ! ! ! ! ! ! ! `  . . .X. .X.A.A.A.A.A.A.A.A.A.A.A.A.A.A.A.A.A.",
"A.A.A.A.A.A.A.A.A.A.A.A.A.A.A.A.A.A.A.A. . . . . . .@.;.z.z.z.&.! ! ! ! ! ! ! ! ^  . . .X.X.X. .A.A.A.A.A.A.A.A.A.A.A.A.A.A.A.A.",
"A.A.A.A.A.A.A.A.A.A.A.A.A.A.A.A.A.A.A.A. . . . . . . . . . . .^ ! ! ! ! ! ! ! ! !  . . .X.X.X.] A.A.A.A.A.A.A.A.A.A.A.A.A.A.A.A.",
"A.A.A.A.A.A.A.A.A.A.A.A.A.A.A.A.A.A.A.A. . .X.X. . . . .X.X. .^ ! ! ! ! ! ! ! ! !  . . . . . .] A.A.A.A.A.A.A.A.A.A.A.A.A.A.A.A.",
"A.A.A.A.A.A.A.A.A.A.A.A.A.A.A.A.A.A.A.A. . .X.X. . . . .X.X. .^ ! ! ! ! ! ! ! ! ! } X. . . . . .A.A.A.A.A.A.A.A.A.A.A.A.A.A.A.A.",
"A.A.A.A.A.A.A.A.A.A.A.A.A.A.A.A.A.A.A.A. . .X.X.X.X. . .X.X.X.( ! ! ! ! ! ! ! ! !  .X.X.X. . .A.A.A.A.A.A.A.A.A.A.A.A.A.A.A.A.A.",
"A.A.A.A.A.A.A.A.A.A.A.A.A.A.A.A.A.A.A.A. . .X.X.X.X.X.X.X.X.X. .! ! ! *.*.*.&.! !  .X.X.X. . .A.A.A.A.A.A.A.A.A.A.A.A.A.A.A.A.A.",
"A.A.A.A.A.A.A.A.A.A.A.A.A.A.A.A.A.A.A.A. . . . .X.X.X.X.X.X. .X.^ ! 5.Z.Z.Z.M.=./  . .X.X.X. .A.A.A.A.A.A.A.A.A.A.A.A.A.A.A.A.A.",
"A.A.A.A.A.A.A.A.A.A.A.A.A.A.A.A.A.A.A.A.A. . . .X.X.X.X. . . . .} O.M.Z.Z.Z.Z.M.}  . . .X.X.' A.A.A.A.A.A.A.A.A.A.A.A.A.A.A.A.A.",
"A.A.A.A.A.A.A.A.A.A.A.A.A.A.A.A.A.A.A.A.A.'  . .X.X. . . . . . . .:.Z.Z.Z.Z.Z.Z. . . . .X. .A.A.A.A.A.A.A.A.A.A.A.A.A.A.A.A.A.A.",
"A.A.A.A.A.A.A.A.A.A.A.A.A.A.A.A.A.A.A.A.A.A. . .X.X. . . . . . . .,.Z.Z.Z.Z.Z.Z. . . . .X.] A.A.A.A.A.A.A.A.A.A.A.A.A.A.A.A.A.A.",
"A.A.A.A.A.A.A.A.A.A.A.A.A.A.A.A.A.A.A.A.A.A.] X. . . . .X.X. . . .#.M.Z.Z.Z.Z.v. ._ T + & & & & & $ A.A.A.A.A.A.A.A.A.A.A.A.A.A.",
"A.A.A.A.A.A.A.A.A.A.A.A.A.A.A.A.A.$ $ $ $ $ = Q  . . . .X. . . .X. .>.v.Z.Z.c.@.Q o & & & & & & & & A.A.A.A.A.A.A.A.A.A.A.A.A.A.",
"A.A.A.A.A.A.A.A.A.A.A.A.A.A.A.A.& & & & & & & = Q  .X.X.X.X. . .X.X. . . . . .@ & & & & & & & & & & A.A.A.A.A.A.A.A.A.A.A.A.A.A.",
"A.A.A.A.A.A.A.A.A.A.A.A.A.A.A.A.& & & & & & & & & T X.X.X.X. . .X.X. . . . .+ & & & & & & & & & & & A.A.A.A.A.A.A.A.A.A.A.A.A.A.",
"A.A.A.A.A.A.A.A.A.A.A.A.A.A.A.A.& & & & & & & & & & o )  . . . .X. . . . .Q & & & & & & & & & & $ A.A.A.A.A.A.A.A.A.A.A.A.A.A.A.",
"A.A.A.A.A.A.A.A.A.A.A.A.A.A.A.A.A.& & & & & & & & & & & + W  . . . . . . .o & & & & & & & & & A.A.A.A.A.A.A.A.A.A.A.A.A.A.A.A.A.",
"A.A.A.A.A.A.A.A.A.A.A.A.A.A.A.A.A.A.$ & & & & & & & & & & $ A.A.A.A.A.A.A.& & & & & & & & A.A.A.A.A.A.A.A.A.A.A.A.A.A.A.A.A.A.A.",
"A.A.A.A.A.A.A.A.A.A.A.A.A.A.A.A.A.A.A.A.A.$ & & & & & & & $ A.A.A.A.A.A.A.& & & & & & $ A.A.A.A.A.A.A.A.A.A.A.A.A.A.A.A.A.A.A.A.",
"A.A.A.A.A.A.A.A.A.A.A.A.A.A.A.A.A.A.A.A.A.A.A.A.$ & & & $ A.A.A.A.A.A.A.A.A.& & & $ A.A.A.A.A.A.A.A.A.A.A.A.A.A.A.A.A.A.A.A.A.A.",
"A.A.A.A.A.A.A.A.A.A.A.A.A.A.A.A.A.A.A.A.A.A.A.A.A.A.A.A.A.A.A.A.A.A.A.A.A.A.A.A.A.A.A.A.A.A.A.A.A.A.A.A.A.A.A.A.A.A.A.A.A.A.A.A.",
"A.A.A.A.A.A.A.A.A.A.A.A.A.A.A.A.A.A.A.A.A.A.A.A.A.A.A.A.A.A.A.A.A.A.A.A.A.A.A.A.A.A.A.A.A.A.A.A.A.A.A.A.A.A.A.A.A.A.A.A.A.A.A.A.",
"A.A.A.A.A.A.A.A.A.A.A.A.A.A.A.A.A.A.A.A.A.A.A.A.A.A.A.A.A.A.A.A.A.A.A.A.A.A.A.A.A.A.A.A.A.A.A.A.A.A.A.A.A.A.A.A.A.A.A.A.A.A.A.A."
};
