/* XPM */
static char *player_up_walk2[] = {
/* columns rows colors chars-per-pixel */
"64 64 120 2 ",
"   c #3A5E6D",
".  c #34677C",
"X  c #494949",
"o  c #4C5846",
"O  c #4B5248",
"+  c #464D50",
"@  c #40555F",
"#  c #506645",
"$  c #526D44",
"%  c #537243",
"&  c #577D42",
"*  c #5E9539",
"=  c #659F3E",
"-  c #73A13C",
";  c #5C8B40",
":  c #5F9B53",
">  c #609440",
",  c #629D48",
"<  c #6E994A",
"1  c #73A24D",
"2  c #5A9761",
"3  c #5C9B64",
"4  c #55966F",
"5  c #599A6F",
"6  c #4D8E7B",
"7  c #4E927C",
"8  c #529475",
"9  c #83A43A",
"0  c #9DAB36",
"q  c #90A838",
"w  c #BCB32E",
"e  c #A8AD33",
"r  c #B2B031",
"t  c #B2B439",
"y  c #C4B72B",
"u  c #CDB828",
"i  c #D4BB25",
"p  c #DDBF21",
"a  c #C4BB36",
"s  c #FFCC00",
"d  c #FFCD08",
"f  c #E3C01D",
"g  c #E9C318",
"h  c #F0C512",
"j  c #FFCF11",
"k  c #F0C71C",
"l  c #FFD017",
"z  c #FFD119",
"x  c #DDC025",
"c  c #FFD222",
"v  c #FFD52E",
"b  c #E3C631",
"n  c #F0CE34",
"m  c #80A159",
"M  c #B4B54F",
"N  c #A5AF56",
"B  c #94A86D",
"V  c #85A274",
"C  c #10719A",
"Z  c #2E6F8B",
"A  c #2B7492",
"S  c #28789A",
"D  c #1176A0",
"F  c #1278A3",
"G  c #147FAC",
"H  c #257CA1",
"J  c #378897",
"K  c #31869E",
"L  c #3A829E",
"P  c #37899A",
"I  c #1680AD",
"U  c #1583B1",
"Y  c #1F85B0",
"T  c #1C89B7",
"R  c #1788B8",
"E  c #198EBF",
"W  c #2081A8",
"Q  c #2C86A9",
"!  c #338CA6",
"~  c #338BAF",
"^  c #3D90A0",
"/  c #3290AD",
"(  c #3891A8",
")  c #2B8EB2",
"_  c #248EB9",
"`  c #3595BC",
"'  c #418C8E",
"]  c #4A9083",
"[  c #4E9788",
"{  c #529880",
"}  c #469496",
"|  c #42939D",
" . c #659E86",
".. c #68A089",
"X. c #5097B2",
"o. c #5099B4",
"O. c #5E9DB3",
"+. c #519CB9",
"@. c #84A18B",
"#. c #B2B982",
"$. c #B9BE96",
"%. c #B9B89C",
"&. c #81A3AB",
"*. c #94B1AC",
"=. c #8AAFB7",
"-. c #8BB3BD",
";. c #B8B7AC",
":. c #C3BD92",
">. c #C4C193",
",. c #D6C496",
"<. c #D4C79F",
"1. c #DDC5A3",
"2. c #DCC9A5",
"3. c #D2C8A8",
"4. c #E2CDAB",
"5. c #F0CFB3",
"6. c #F0D5B6",
"7. c #F8DABB",
"8. c #F0D8C0",
"9. c #FFDEC2",
/* pixels */
"= = = = = = = = = = = = = = = = = = = = = = = = = = = = = = = = = = = = = = = = = = = = = = = = = = = = = = = = = = = = = = = = ",
"= = = = = = = = = = = = = = = = = = = = = = = = = = = = = = = = = = = = = = = = = = = = = = = = = = = = = = = = = = = = = = = = ",
"= = = = = = = = = = = = = = = = = = = = = = = = = = = = = t b b b a = = = = = = = = = = = = = = = = = = = = = = = = = = = = = = ",
"= = = = = = = = = = = = = = = = = = = = = = = = = - r y u v v v v v x y w 9 = = = = = = = = = = = = = = = = = = = = = = = = = = ",
"= = = = = = = = = = = = = = = = = = = = = = q 0 w d s s d v v v v v j s s s u 0 0 = = = = = = = = = = = = = = = = = = = = = = = ",
"= = = = = = = = = = = = = = = = = = = = = i s s s s s s d v v v v v l s s s s s s g - = = = = = = = = = = = = = = = = = = = = = ",
"= = = = = = = = = = = = = = = = = = = = e s s s s s s s l v v v v v c s s s s s s s u = = = = = = = = = = = = = = = = = = = = = ",
"= = = = = = = = = = = = = = = = = = = q s s s s s s s s l v v v v v c s s s s s s s s w = = = = = = = = = = = = = = = = = = = = ",
"= = = = = = = = = = = = = = = = = = q d s s s s s s s s c v v v v v v s s s s s s s s s r = = = = = = = = = = = = = = = = = = = ",
"= = = = = = = = = = = = * * = = = - d s s s s s s s s s v v v v v v v s s s s s s s s s s 0 = = = = = = = = = = = = = = = = = = ",
"= = = = = = = = = = = = * * * = = f s s s s s s s s s s v v v v v v v d s s s s s s s s s d - = = = * * * = = = = = = = = = = = ",
"= = = = = = = = = = = = * * * = y s s s s s s s s s s d v v v v v v v l s s s s s s s s s s f = = = * * * * = = = = = = = = = = ",
"= = = = = = = = = = = = = = = - d s s s s s s s s s s j v v v v v v v z s s s s s s s s s s s 0 = = = * * = = = = = = = = = = = ",
"= = = = = = = = = = = = = = = i s s s s s s s s s s s z v v v v v v v c s s s s s s s s s s s h = = = = = = = = = = = = = = = = ",
"= = = = = = = = = = = = = = - s s s s s s s s s s s s c v v v v v v v v s s s s s s s s s s s s e = = = = = = = = = = = = = = = ",
"= = = = = = = = = = = = = = r s s s s s s s s s s s s v v v v v v v v v d s s s s s s s s s s s i = = = = = = = = = = = = = = = ",
"= = = = = = = = = = = = = = g s s s s s s s s s s s d v v v v v v v v v j s s s s s s s s s s s s - = = = = = = = = = = = = = = ",
"= = = = = = = = = = = = = - s s s s s s s s s s s s j v v v v v v v v v z s s s s s s s s s s s s e = = = = = = = = = = = = = = ",
"= = = = = = = = = = = = = 0 s s s s s s s s s s s s z v v v v v v v v v v s s s s s s s s s s s s y = = = = = = = = = = = = = = ",
"= = = = = = = = = = = = = y s s s s s s s s s s s s c v v v v v v v v v v s s s s s s s s s s s s f = = = = = = = = = = = = = = ",
"= = = = = = = = = = = = = i s s s s s s s s s s s s v v v v v v v v v v v d s s s s s s s s s s s h = = = = = = = = = = = = = = ",
"= = = = = = = = = = = = = f s s s s s s s s s s s d v v v v v v v v v v v z s s s s s s s s s s s s = = = = = = = = = = = = = = ",
"= = = = = = = = = = = = = f s s s s s s s s s s s z v v v v v v v v v v v c s s s s s s s s s s s s = = = = = = = = = = = = = = ",
"= = = = = = = = = = = = = f s s s s s s s s s s s v v v v v v v v v v v v v s s s s s s s s s s s s = = = = = = = = = = = = = = ",
"= = = = = = = = = = = = = f s s s s s s s s s s s v v v v v v v v v v v v v j s s s s s s s s s s s = = = = = = = = = = = = = = ",
"= = = = = = = = = = = = = f s s s s s s s s s s j v v v v v v v v v v v v v z s s s s s s s s s s h = = = = = = = = = = = = = = ",
"= = = = = = = = = = = = = u s s s s s s s s s s z v v v v v v v v v v v v v v s s s s s s s s s s p = = = = = = = = = = = = = = ",
"= = = = = = = = = = = = = y s s s s s s s s s s v v v v v v v v v v v v v v v d s s s s s s s s s w = = = = = = = = = = = = = = ",
"= = = = = = = = = = = = = q s s s s s s s s s j v v v v v v v v v v v v v v v z s s s s s s s s s 9 = = = = = = = = = = = = = = ",
"= = = = = = = = = = = = = = f s s s s s s s s z v v v v v v v v v v v v v v v v s s s s s s s s i = = = = = = = = = = = = = = = ",
"= = = = = = = = = = = = = = 0 s s s s s s s s v v v v v v v v v v v v v v v v v d s s s s s s s 9 = = = = = = = = = = = = = = = ",
"= = = = = = = = = = = = = = = f s s s s s s j v v v v v v v v v v v v v v v v v z s s s s s s i = = = = = = = = = = = = = = = = ",
"= = = = = = = = = = = = = = = - d s s s s s c v v v v v v v v v v v v v v v v v v s s s s s d - = = = = = = = = = = = = = = = = ",
"= = = = = = = = = = = = = = = = q d s s s d v v v v v v v v v v v v v v v v v v v j s s s s 0 = = = = = = = = = = = = = = = = = ",
"= = = = = = = = = = = = = = = = = q d s s z v v v v v v v v v v v v v v v v v v v v s s d r = = = = = = = = = = = = = = = = = = ",
"= = = = = = = = = = = = = = = = = = - y g v v v v v v v v v v v v v v v v v v v v v k i 9 = = = = = = = = = = = = = = = = = = = ",
"= = = = = = = = = = = = = = = = = = = = @.;.%.V N n v v v v v v v v v v v v M B ,.5.1.1 = = = = = = = = = = = = = = = = = = = = ",
"= = = = = = = = = = = = = = = = = = = 5 R F C C C C C 6 6 6 6 6 6 6 6 6 C C C C C L &. .= = = = = = = = = = = = = = = = = = = = ",
"= = = = = = = = = = = = = = = = = = = ( E E E G C C C C C C C C C C C C C C C C F U E _ , = = = = = = = = = = = = = = = = = = = ",
"= = = = = = = = = = = = = = = = : ' P E E E E E E R U G F F F F F F F F F G U E E E E E ^ 4 = = = = = = = = = = = = = = = = = = ",
"= = = = = = * * = = = = = = = , W I U E E E E E E E E E E E E E E E E E E E E E E E E E E I J = = = = = = = = = = = = = = = = = ",
"= = = = = = = * = = = = = = = K I I E E E E E E E E E E E E E E E E E E E E E E E E E E E U I 7 = = = = = = = = = = = = = = = = ",
"= = = = = = = = = = = = = = ] I I U E E E E E E E E E E E E E E E E E E E E E E E E E E E U I W , = = = = = = = = = = = = = = = ",
"= = = = = = = = = = = = = , W I I U E E E E E E E E E E E E E E E E E E E E E E E E E E E E I I 7 = = = = = = = = = = = = = = = ",
"= = = = = = = = = = = = = 8 I I I U E E E E E E E E E E E E E E E E E E E E E E E E E E E E I I K = = = = = = = = = = = = = = = ",
"= = = = = = = = = = = = = ' I I I U E E E E E E E E E E E E E E E E E E E E E E E E E E E E I I I , = = = = = = = = = = = = = = ",
"= = = = = = = = = = = = = J I I I U E E E E E E E E E E E E E E E E E E E E E E E E E E E U I I I 4 = = = = = = = = = = = = = = ",
"= = = = = = = = = = = = = I I I I U E E E E E E E E E E E E E E E E E E E E E E E E E E E U I I I ] = = = = = = = = = = = = = = ",
"= = = = = = = = = = = = = I ~ O.=.O.E E E E E E R E E E E E E E E E E E E U E E E E E E E o.=.=.X.] = = = = = = = = = = = = = = ",
"= = = = = = = = = = = = = Q 8.9.9.9.` E E E E E F C G R E E E E E E E U D C R E E E E E ` 9.9.9.8...= = = = = = = = = = = = = = ",
"= = = = = = = = = = = = = 3.9.9.9.9.-.E E E E E F C C C C C E E G C C C C C U E E E E E +.9.9.9.9.<.= = = = = = = = = = = = = = ",
"= = = = = = = = = = = = = 7.9.9.9.9.$./ E E E E F C C C C C E E I C C C C C U E E E E ) *.9.9.9.9.6.= = = = = = = = = = = = = = ",
"= = = = = = = = = = = = = 9.9.9.9.9.#.3 E E E E G C C C C F E E U C C C C C E E E E E 5 #.9.9.9.9.9.= = = = = = = = = = = = = = ",
"= = = = = = = = = = = = = 2.9.9.9.7.1 = { E E E I C C C C G E E E C C C C C E E E E } = 1 7.9.9.9.2.= = = = = = = = = = = = = = ",
"= = = = = = = = = = = = = < 2.4.:.m = = = [ E E R C C C C R E E E F C C C G E E E | = = = m >.4.2.1 = * * * = = = = = = = = = = ",
"= = = = = = = = = = = = * * * * * * = = = = 6 E E U C C F E E E E U C C D E E E } = = = = = = = = = * * * * * = = = = = = = = = ",
"= = = = = = = = = = = = * * * * * * = = = = $ @ Y E E E E E E E E E E E E E W 2 = = = = = = = = = = * * * * * = = = = = = = = = ",
"= = = = = = = = = = = = = * * * * = = = = = # X X . Y E E E E E E E E E T Z + # = = = = = = = = = = = * * * = = = = = = = = = = ",
"= = = = = = = = = = = = = = * * = = = = = = % X X X X @ . A ! ( H H S   X X X X > = = = = = = = = = = = = = = = = = = = = = = = ",
"= = = = = = = = = = = = = = = = = = = = = = > % O X X X # % = = X X X X X X X X ; = = = = = = = = = = = = = = = = = = = = = = = ",
"= = = = = = = = = = = = = = = = = = = = = = = = = = = = = = = = o X X X X X X X > = = = = = = = = = = = = = = = = = = = = = = = ",
"= = = = = = = = = = = = = = = = = = = = = = = = = = = = = = = = ; $ X X X O # & = = = = = = = = = = = = = = = = = = = = = = = = ",
"= = = = = = = = = = = = = = = = = = = = = = = = = = = = = = = = = = = = = = = = = = = = = = = = = = = = = = = = = = = = = = = = ",
"= = = = = = = = = = = = = = = = = = = = = = = = = = = = = = = = = = = = = = = = = = = = = = = = = = = = = = = = = = = = = = = = "
};
