/* XPM */
static char *tile_10[] = {
/* columns rows colors chars-per-pixel */
"64 64 80 1 ",
"  c #545E2B",
". c #5D5F2D",
"X c #645D2E",
"o c #695F2F",
"O c #6D5B31",
"+ c #755733",
"@ c #4D6A26",
"# c #4C6329",
"$ c #576F27",
"% c #56642A",
"& c #5B652B",
"* c #526A28",
"= c #5E6D2A",
"- c #4F7025",
"; c #537125",
": c #5D7B25",
"> c #63642D",
", c #6C632E",
"< c #646D2A",
"1 c #6B6B2C",
"2 c #716C2E",
"3 c #647627",
"4 c #607D23",
"5 c #65732A",
"6 c #607728",
"7 c #6A742A",
"8 c #6D6230",
"9 c #716030",
"0 c #796433",
"q c #7E6A34",
"w c #2B4F6E",
"e c #29506F",
"r c #30506E",
"t c #3F5168",
"y c #275475",
"u c #275578",
"i c #2A5678",
"p c #26587C",
"a c #325777",
"s c #52535E",
"d c #59575E",
"f c #5D595E",
"g c #6E5741",
"h c #725A42",
"j c #635550",
"k c #6B5B51",
"l c #645D5E",
"z c #715F51",
"x c #7F6444",
"c c #766251",
"v c #7A6551",
"b c #44546A",
"n c #49576B",
"m c #815F36",
"M c #816136",
"N c #836136",
"B c #886637",
"V c #866936",
"C c #8C6A37",
"Z c #8A6738",
"A c #8C6938",
"S c #916D37",
"D c #926E3A",
"F c #95703A",
"G c #806444",
"H c #866845",
"J c #8A6C46",
"K c #245D83",
"L c #295E83",
"P c #25658E",
"I c #28648C",
"U c #276C8D",
"Y c #27728D",
"T c #266C97",
"R c #256F9C",
"E c #267397",
"W c #267997",
"Q c #25719D",
"! c #257C9D",
"~ c #25839D",
/* pixels */
"XXX>,1<=;-@*&&><::4:<>>>,111111<$--$<<<<$;;$<<1111155::55711111,",
"OOO++9,>=**%>o,13:431,++++9999,>=**=>,,>%@@%>,9999,>=**=<,99999+",
"++++++98>&&>OO81744729++++++++98>&&>,OOX%##&>++++++8>&&>,+++++++",
"+++++0009888+++,1772q00+++++++009888++OX ##&80NNNN009888+++++mm+",
"++++NNBVVqq00++9,12qVNNN++++NNVVVqq0++OX ##>9NBAZZVVVq00++++NNNN",
"+++NNAAAACCNN++++900VAANN++NNAAAAACN0++X #%>qVADDDAAACVN0++NNAAN",
"+++NCDDFFFACN+++++0NADDANNNNADFFFFAAN0+O.%&8qCFFFDFFFFACNNNNADAB",
"+++NADFFFFDAN++++mNZADDACNNCAFFFFFDAZN09X>>9VAFFFFFFFFDABNNBADAC",
"+++NADFFFFDZN+++NNAADDDDAAAADDFFFFDDAAN09O80VAFFFFFFFFDDAAAADDDB",
"+++NCDDFFDDZN++NNADDDDDDDDDDDDFFFFFDDAAN0++0VADFFFFFFFDDDDDDDDAB",
"+++NCDDFFFDANNNNCDDFFFFFFFFFFFFFFFFFFDDCNN0NCDFFFFFFFFFFFFFFFDDB",
"+++NCSFFFFDCBNNCCDFFFFFFFFFFFFFFFFFFFFDCBBNBCDFFFFFFFFFFFFFFFFSB",
"+++NCDFFFFDDCCCCDDFFFFFFFFFFFFFFFFFFFFDDSCCCDDFFFFFFFFFFFFFFFFDB",
"+++NZADFFDDDAAAADDDDDDDDDDDDDDDDDDDDDDDDDAAADDDDDDDDDDDDDDDFFDAN",
"gghxGHJJJJJJJJJJJJJJJJJJJJJJJJJJJJJJJJJJJJJJJJJJJJJJJJJJJJJJJJHx",
"jjjkzcvvvvvvvvvvvvvvvvvvvvvvvvvvvvvvvvvvvvvvvvvvvvvvvvvvvvvvvvcz",
"sssdfllllllllllllllllllllllllllllllllllllllllllllllllllllllllllf",
"ttbbbnnnnnnnnnnnnnnnnnnnnnnnnnnnnnnnnnnnnnnnnnnnnnnnnnnnnnnnnnnb",
"rrraaaaaaaaaaaaaaaaaaaaaaaaaaaaaaaaaaaaaaaaaaaaaaaaaaaaaaaaaaaaa",
"eyyupKKKKKKKKKKKKKKKKKKKKKKKKKKKKKKKKKKKKKKKKKKKKKKKKKKKKKKKKKKp",
"wyypKPPPPPPPPPPPPPPPPPPPPPPPPPPPPPPPPPPPPPPPPPPPPPPPPPPPPPPPPPPK",
"wyyLPTTTTTTTTTTTTTTTTTTTTTTTTTTTTTTTTTTTTTTTTTTTTTTTTTTTTTTTTTTP",
"wyiLPTRQQRRRRRRRRRRRRRRRRRRRRRRRRRRRRRRRRRRRRRRRRRRRRRRRRRRQQRTI",
"wyiLPTQQQQQQQQQQQQQQQQQQQQQQQQQQQQQQQQQQQQQQQQQQQQQQQQQQQQQQQQTP",
"wyyLITQQQQQQQQQQQQQQQQQQQQQQQQQQQQQQQQQQQQQQQQQQQQQQQQQQQQQQQQTP",
"wyyLITRQQQQQQQQQQQQQQQQQQQQQQQQQQQQQQQQQQQQQQQQQQQQQQQQQQQQQQRTP",
"wyyLPTRQQQQQQQQQQQQQQQQQQQQQQQQQQQQQQQQQQQQQQQQQQQQQQQQQQQQQQRTP",
"wyyLPTRQQQQQQQQQQQQQQQQQQQ!!!!QQQQQQQQQQQQQQQQQQQQQQQQQQQQQQQRTP",
"wyiLPTRQQQQQQQQQQQQRQQQQ!!!!!!!!QQQQQQQQQQQQQQQQQQQQQQQQQQQQQRTP",
"wyiLPTRQQQQQQQQQQQQQQQQ!!!~~~~~!QQQQQQQQQQQQQQQQQQQQQQQQQQQQQRTP",
"wyiLITRQQQQQQQQQQQQQQQQQ!!~~~~~!QQQQQQQQQQQQQQQQQQQQQQQQQQQQQRTP",
"wyiLPTRQQQQRRQQQQQQQQQQQ!!!!!!!!QQQRRQQQQQQQQQQQQQQQQQQQQQQQQRTP",
"wyiLPTQQQQQRRQQQ!!!!QQQQQQ!!!!QQQQQQRQQQQQQQQQQQQQQQQQQQQQQQQRTP",
"wyyLPTQQQQQQQQQ!!!!!!QQQQQQQQQQQQQQQQQQQQQQQQQQQQQQQQQQQQQQQQRTP",
"wyyLPTQQQQQQQQQ!~~~~!QQQQQQQQQQQQQQQQQQQQQQQQQQQQQQQQQQQQQQQQRTP",
"wyiLPTQQQ!!!!!!!~~~~!!QQQQQQQQ!!!!!!!!QQQQQQQQQQQQQQQQQQQQQQQRTP",
"wyiLITQQ!!!!!!~~~~~~~!!!QQQQ!!!!!!!!!!!!QQQQQQQQQQQQQQQQQQQQQRTP",
"wyyLITQQ!!~~~~~~~~~~~~!!!QQQ!!~~~~~~~~!!QQQQQQQQQQQQQQQQQQQQQRTP",
"wyiLITQQ!!~~~~~~~~~~~~~!!!!!!~~~~~~~~~!!QQQQQQQQQQQQQQQQQQQQQRTP",
"wyyLITQQ!!!!!!!~~~~~~~~~!!!!~~~~~!!!!!!!QQQQQQQQQQQQQQQQQQQQQRTP",
"wyiLPTQQQ!!!!!!!~~~~~~~~~!~~~~~~!!!!!!QQQQQQQQQQQQQQQQQQQQQQQRTP",
"wyiLPTQQQQQQQQQ!!~~~~~~~~~~~~~~!!QQQQQQQQQQQQQQQQQQQQQQQQQQQQRTP",
"wyiLPTRQQQQQQQQ!!~~~~~~~~~~~~~!!!QQQQQQQQQQQQQQQQQQQQQQQQQQQQRTP",
"wyiLPTRQQQQRRQQQ!!!!!!!!!!!!!!!!QQQRRQQQQQQQQQQQQQQQQQQQQQQQQRTP",
"wyiLPTRQQQQRRQQQQQ!!!!!!!!!!!!QQQQQRRQQQQQQQQQQQQQQQQQQQQQQQQRTP",
"wyyLPTRQQQQQQQQQQQQQQQQQQQQQQQQQQQQQQQQQQQQQQQQQQQQQQQQQQQQQQRTP",
"wyyLPTRQQQQQQQQQQQQQQQQQQQQQQQQQQQQQQQQQQQQQQQQQQQQQQQQQQQQQQRTP",
"wyiLPTRQQQQQQQQQQQQQQQQQQQQQQQQQQQQQQQQQQQQQQQQQQQQQQQQQQQQQQRTP",
"wyiLITRQQQQQQQQQQQQQQQQQQQQQQQQQQQQQQQQQQQQQQQQQQQQQQQQQQQQQQRTP",
"wyyLITRQQQQQQQQQQQQQQQQQQQQQQQQQQQQQQQQQQQQQQQQQQQQQQQQQQQQQQRTP",
"wyiLPTRQQQQQQQQQQQQQQQQQQQQQQQQQQQQQQQQQQQQQQQQQQQQQQQQQQQQQQRTP",
"wyyLPTRQQQQQQQQQQQQQQQQQQQQQQQQQQQQQQQQQQQQQQQQQQQQQQQQQQQQQQRTP",
"wyiLPTRQQQQQQQQQQQQQQQQQQQQQQQQQQQQQQQQQQQQQQQQQQQQQQQQQQQQQQRTP",
"wyiLPTRQQQQQQQQQQQQQQQQQQQQQQQQQQQQQQQQQQQQQQQQQQQQQQQQQQQQQQRTP",
"wyiLITRQQQQQQQQQQQQQQQQQQQQQQQQQQQQQQQQQQQQQQQQQQQQQQQQQQQQQQRTP",
"wyiLPTRQQQQQQQQQQQQQQQQQQQQQQQQQQQQQQQQRRQQQQQ!!!!!!!!QQQQQQQRTP",
"wyiLPTRQQQQQQQQQQQQQQQQQQQQQQQQQQQQQQQQRRQQQ!!!!!!!!!!!!QQQQQRTP",
"wyyLPTRQQQQQQQQQQQQQQQQQQQQQQQQQQQQQQQQQQQQ!!!~~~~~~~~!!QQQQQQTP",
"wyyLPTRQQQQQQQQQQQQQQQQQQQQQQQQQQQQQQQQQQQQ!!~~~~~~~~~!!!QQQQQTU",
"wyiLPTRQQQQQQQQQQQQQQQQQQQQQQQQQQQ!!!!!!!!!!~~~~~~~~~!!!QQQQQQEU",
"wyiLITRQQQQQQQQQQQQQQQQQQQQQQQQQ!!!!!!!!!!!~~~~~~~~~!!!QQQQQ!!WU",
"wyyLITRQQQQQQQQQQQQQQQQQQQQQQQQQ!!~~~~~~~~~~~~~~~~~~!QQQQQQ!!!WY",
"wyiLITRQQQQQQQQQQQQQQQQQQQQQQQQQ!!~~~~~~~~~~~~~~~~~!!QQQQQQ!!!WY",
"wyyLITRQQQQQQQQQQQQQQQQQQQQQQQQQ!!!!!!!!!!!!!!!!!!!!QQQRRQQQ!!WU"
};
