/* XPM */
static char *tile_20[] = {
/* columns rows colors chars-per-pixel */
"64 64 137 2 ",
"   c None",
".  c #31151D",
"X  c #3A1A1F",
"o  c #2C1B27",
"O  c #341D27",
"+  c #3A1D25",
"@  c #391F28",
"#  c #3D2028",
"$  c #342432",
"%  c #3A2531",
"&  c #322836",
"*  c #431F22",
"=  c #4B2222",
"-  c #422429",
";  c #4A2629",
":  c #4C292B",
">  c #512523",
",  c #5F2B25",
"<  c #512728",
"1  c #542A2A",
"2  c #5B2E2B",
"3  c #59302D",
"4  c #422731",
"5  c #492A32",
"6  c #542E33",
"7  c #543033",
"8  c #6C3127",
"9  c #62352F",
"0  c #6E342C",
"q  c #6D382F",
"w  c #713327",
"e  c #71352C",
"r  c #7C3A2D",
"t  c #653630",
"y  c #683730",
"u  c #673830",
"i  c #6A3931",
"p  c #753C31",
"a  c #7A3E31",
"s  c #774030",
"d  c #7D4330",
"f  c #35364C",
"g  c #3A374C",
"h  c #32394F",
"j  c #3A3E4C",
"k  c #314257",
"l  c #2B4A68",
"z  c #2A5668",
"x  c #2A5868",
"c  c #2D5A75",
"v  c #853E2E",
"b  c #893E2A",
"n  c #853F30",
"m  c #883F30",
"M  c #88402F",
"N  c #84482F",
"B  c #8C4C2F",
"V  c #924F2F",
"C  c #92502E",
"Z  c #9C542E",
"A  c #844232",
"S  c #8A4332",
"D  c #8E4A31",
"F  c #934633",
"G  c #994731",
"H  c #944932",
"J  c #9B4934",
"K  c #9C4A34",
"L  c #9D4A34",
"P  c #9E4A34",
"I  c #9E4B34",
"U  c #9F4B34",
"Y  c #9C4A33",
"T  c #A1572E",
"R  c #A65B2D",
"E  c #A75B2D",
"W  c #A4582E",
"Q  c #A6592E",
"!  c #A75C2C",
"~  c #A75C2D",
"^  c #A65B2D",
"/  c #AD5B2F",
"(  c #AB5D2C",
")  c #B15D2F",
"_  c #B35D2F",
"`  c #B45E2F",
"'  c #A04B33",
"]  c #A14B33",
"[  c #A04C33",
"{  c #A14F32",
"}  c #A34E33",
"|  c #A04B34",
" . c #A14B34",
".. c #A14C34",
"X. c #A24C34",
"o. c #A34C34",
"O. c #A44D34",
"+. c #A54D34",
"@. c #A64D34",
"#. c #A64E34",
"$. c #A74E34",
"%. c #A54D34",
"&. c #A84E34",
"*. c #A65032",
"=. c #A75132",
"-. c #A75332",
";. c #A75531",
":. c #A75730",
">. c #A75232",
",. c #A85133",
"<. c #AD5731",
"1. c #AA5332",
"2. c #AF5831",
"3. c #B05931",
"4. c #B15A31",
"5. c #B6632B",
"6. c #B6642B",
"7. c #B7642B",
"8. c #B2602D",
"9. c #B4612D",
"0. c #B7612D",
"q. c #B5622C",
"w. c #B6632C",
"e. c #B7602E",
"r. c #B5632C",
"t. c #BC662B",
"y. c #BD672B",
"u. c #BA642C",
"i. c #BB652C",
"p. c #BA642D",
"a. c #BE682A",
"s. c #BF692A",
"d. c #BE682B",
"f. c #BE682A",
"g. c #C0692A",
"h. c #C26A2A",
"j. c #2C6780",
/* pixels */
"      l l l l l l l l l l l l l l l l l l l l l l l l l l l l l z z z x x z x x x x z z z z z z z z z z l l l l l l z c j.      ",
"        h h h h h g g g g g g g g g g g g g g g g g g g g g g g g g g g g g k k k k g g g g g g g g g g g g g h h h h k         ",
"        $ $ % 4 5 6 6 6 6 6 6 6 6 6 6 6 6 6 6 6 6 6 6 6 6 6 6 6 6 7 7 7 7 7 7 7 7 7 7 7 7 7 7 7 7 7 7 7 6 6 6 5 4 % $ &         ",
"        . + * > , 8 8 w w w w w w w w w w w w w w w w w w w w w w w w w w w w w w w w w w w w w w w w w w 8 8 , > * + .         ",
"        . + = , w v b b b b b b b b b b b b b b b b b b b b b b b b b b b b b b b b b b b b b b b b b b b v r w , = X .         ",
"        o + < 8 v F G G G G G G G G G G G G G G G G G G G G G G G G G G G G G G G G G G G G G G G G G G G G S r 8 < + o         ",
"        o # 1 8 v F [ [ G G G G G G G G G G G G G G G G G G G G G G G G [ [ [ [ [ [ [ [ [ [ [ [ [ [ [ [ [ [ F v 8 1 # o         ",
"        o # 1 e S G [ [ G F F F F F F F F F F F F F F F F F F F F F H G [ [ [ [ [ [ [ [ &.&.&.&.&.&.&.&.&.[ G S e 1 # o         ",
"        o # 1 e S G G G H S A A A A A A A A A A A A A A A A A A A A S F G [ [ &.&.&.&.&.[ [ [ [ &.&.&.&.&.[ G S e 1 # o         ",
"        o # 1 e M G G G S A d d a a a a d d d d a a a a a a a a a a A S H G [ [ [ [ [ [ [ [ [ [ [ [ [ [ [ [ G m e 1 # o         ",
"        o # 1 e M G G G H A A d d d d d N N A A A d d d d a a p a a A S H G [ [ [ [ [ [ [ G G G G G [ [ [ [ G b e 1 # o         ",
"        o # 1 e m G [ G G V V C C C C C C C C C C C V D S A A A A A S F G [ [ [ &.[ [ G G F F F F F F G G [ G b e 1 # o         ",
"        o # 1 e m G [ *.*.Q Q Q Q Q Q Q / / / / / Q Q T G H F F F F F G G [ [ &.&.[ [ G F S A A A A S F G G G M e 1 # o         ",
"        o # 1 8 S G *.,.) 9.9.0.9.9.9.9.9.9.9.9.9.9.9./ *.[ G G G G G [ [ [ [ [ [ [ [ H S A d p p a d S H G G M e 1 # o         ",
"        o # 1 8 S G ,.4.9.0.d.h.h.d.d.0.0.0.0.0.0.0.0.) <.,.[ [ [ [ [ [ [ G G G G G G H D A d s p p a S F G G M e 1 # o         ",
"        o # 1 8 S G ,.4.0.d.h.h.h.h.h.0.0.0.0.0.0.0.) 4.,.,.[ [ &.[ [ [ G F F F F F F H V V B N d p a A F G G M e 1 # o         ",
"        o # 1 8 m G ,.4.0.0.h.h.h.h.h.0.0.) 4.4.4.4.4.,.,.,.&.&.[ [ [ G F S A m A A S H Z T Z C N d a A F G G M e 1 # o         ",
"        o # 1 8 m G ,.4.0.0.h.h.h.h.0.0.4.<.,.,.,.,.,.,.[ [ [ [ [ [ G H S A a p p d N C Q / / Z B d a A F G G M e 1 # o         ",
"        o # 1 8 S G ,.4.) 0.0.0.d.0.0.) 4.,.&.[ [ [ [ [ [ [ G G G G G H S A A d d A B Z / 9.9.Q C d a A F G G M e 1 # o         ",
"        o # 1 8 m G *.,.4.) 0.0.0.9.) 4.,.,.[ [ [ [ [ G G F F F F F F H H V V V V C Z Q 9.0.9./ C A a A F G G M e 1 # o         ",
"        o # 1 8 b G [ ,.,.4.4.4.4.4.2.,.,.,.[ [ [ [ [ G F S A m A A S H Z Q Q Q Q Q / 9.0.d.9./ C A a A F G G M e 1 # o         ",
"        o # 1 e v G [ ,.,.,.,.,.,.,.,.,.,.[ [ [ [ [ G H S A a a a d N C Q 8.9.0.9.9.0.d.d.d.9.Q C A a A F G G M e 1 # o         ",
"        o # 1 e b G [ [ &.&.&.&.[ [ [ [ [ [ G G G G G H S A A d d A B Z / 9.d.h.h.d.h.h.h.d.9.Q C d a A F G G M e 1 # o         ",
"        o # 1 e b G [ [ &.[ [ [ [ [ [ G G F F F F F H H H V C C C C Z Q 9.0.h.h.h.h.h.h.h.h.9.Q C d a A F G G M e 1 # o         ",
"        o # 1 e b G [ [ [ [ [ [ [ [ [ G F S A A A A S H Z Q Q Q / / / 9.0.d.h.h.h.h.h.h.h.h.0.Q C d a A F G G M e 1 # o         ",
"        o # 1 e b G [ &.[ [ [ &.[ [ G H S A a p p a A V T / 9.9.9.9.0.0.d.h.h.h.h.h.h.h.h.d.9.Q V A d A F G G M e 1 # o         ",
"        o # 1 e b G [ [ [ [ [ &.[ [ G H S A a p p a A H Q 9.0.0.0.0.0.0.0.0.0.0.0.0.0.d.d.0.9.Q V A A S F G G M e 1 # o         ",
"        o # 1 e M G [ [ &.[ [ [ [ [ [ G F S A A A A D G <.) 0.0.0.0.0.0.0.0.0.0.0.0.0.0.0.9.) ,.G H S F G G G M e 1 # o         ",
"        o # 1 e M G [ [ &.[ [ [ [ [ [ [ G H F F F F G [ *.<.4.4.4.4.4.4.4.4.4.4.4.4.4.4.4.4.<.*.G G G G [ [ G M e 1 # o         ",
"        o # 1 8 v G [ [ [ [ [ [ [ [ [ [ [ G G G G G G [ *.*.,.,.,.,.,.,.,.,.,.,.,.,.,.,.,.,.,.[ [ G G [ [ [ G v 8 1 # o         ",
"        o # 1 8 m F G [ [ G G G [ G G G G G G G G G G G G G G [ G G [ [ [ [ G G G [ [ [ [ G G G G G G G G G F v 8 1 # o         ",
"        o # : 9 a S F H H F F F F F F F H H H H H H F F F F F F F F F F F F F F F F F F F F F F F H F F F F S r 9 : # o         ",
"        O + : 2 8 a A A A A A A A A A A A A A A A A A A A A A A A A A A A A A A A A A A A A A A A A A A A A a 8 2 : + O         ",
"        O + - 1 9 i p p p p p p p p p p p p p p p p p p p p p p p p p p p p p p p p p p p p p p p p p p p p i 9 1 - + O         ",
"        O O - : 3 t i i i y t t t t t t t t t t t t t t t t t t t t t t t t t t t t t t t t t t t t y i i i t 3 : - O O         ",
"        O O - : 3 9 t t 9 3 3 3 3 3 3 3 3 3 3 3 3 3 3 3 3 3 3 3 3 3 3 3 3 3 3 3 3 3 3 3 3 3 3 3 3 3 3 9 t t 9 3 : - O O         ",
"        O O - : 3 9 t 9 3 1 : : : : : : : : : : : : : : : : : : : : : : : : : : : : : : : : : : : : 1 3 9 t 9 3 : - O O         ",
"        O O - : 3 9 9 3 1 : - - - - - - - - - - - - - - - - - - - - - - - - - - - - - - - - - - - - : 1 3 9 9 3 : - O O         ",
"        O O - : 3 9 9 3 1 - # # # - - - - - - - - - - - - - - - - - - - - - - - - - - - - - - # # # - 1 3 9 9 3 : - O O         ",
"        O O - : 3 9 9 3 : - # # - : : : : : : : : : : : : : : : : : : : : : : : : : : : : : : - # # - : 3 9 9 3 : - O O         ",
"        O O - : 3 9 9 3 : - # - : 1 3 3 3 3 3 3 3 3 3 3 3 3 3 3 3 3 3 3 3 3 3 3 3 3 3 3 3 3 1 : - # - : 3 9 9 3 : - O O         ",
"        O O - : 3 9 9 3 : - - : 1 3 9 t t t t t t t t t t t t t t t t t t t t t t t t t t 9 3 1 : - - : 3 9 9 3 : - O O         ",
"        O O - : 3 9 9 3 : - - : 3 9 u i i i i i i i i i i i i i i i i i i i i i i i i i i u 9 3 : - - : 3 9 9 3 : - O O         ",
"        O O - : 3 9 9 3 : - - : 3 t i i i i i i i i i i i i i i i i i i i i i i i i i i i i t 3 : - - : 3 9 9 3 : - O O         ",
"        O O - : 3 9 9 3 : - - : 3 t i i i i i i i i i i i i i i i i i i i i i i i i i i i i t 3 : - - : 3 9 9 3 : - O O         ",
"        O O - : 3 9 9 3 : - - : 3 t i i i i i i i i i i i i i i i i i i i i i i i i i i i i t 3 : - - : 3 9 9 3 : - O O         ",
"        O O - : 3 9 9 3 : - - 1 9 p p p p p p p p p p p p p p p p p p p p p p p p p p p p p i 9 1 - - : 3 9 9 3 : - O O         ",
"        O O - : 3 9 9 3 : - : 2 8 a A A A A A A A A A A A A A A A A A A A A A A A A A A A A a 8 2 : - : 3 9 9 3 : - O O         ",
"        O O - : 3 9 9 3 : - : 9 r S F F F F F F F F F H H H F F F F F H H H H H F F F F H F S r 9 : - : 3 t t 3 : - O O         ",
"        O O - : 3 9 9 3 : : 1 8 m F G G G G G G G G G G G G G G G G G G G G G G G G G G G G F v 8 1 : : 3 t 9 3 : - O O         ",
"        O O - : 3 9 9 3 1 : 2 8 m F G G G G G G G G G G G G G G G G G G G G G G G G G G G G F m 8 2 : 1 3 9 9 3 : - O O         ",
"        O O - : 3 9 t 9 3 1 3 8 a S F F H H H H F F F F H H H F F F F F F H H H F F F F H F S m 8 3 1 3 9 t 9 3 : - O O         ",
"        O O - : 3 t t t 9 9 9 q a A A A A A A A A A A A A A A A A A A A A A A A A A A A A A A a q 9 9 9 t t t 3 : - O O         ",
"        O O - : 3 9 t t t t t i i p p p p p p p p p p p p p p p p p p p p p p p p p p p p p p i i t t t t t 9 3 : - O O         ",
"        O O # : 1 3 9 t 9 9 9 9 9 t t t t t t t t t t t t t t t t t t t t t t t t t t t t t t 9 9 9 9 9 t 9 3 1 : # O O         ",
"        O O # - : 1 3 3 3 3 3 3 3 3 3 3 3 3 3 3 3 3 3 3 3 3 3 3 3 3 3 3 3 3 3 3 3 3 3 3 3 3 3 3 3 3 3 3 3 3 1 : - # O O         ",
"        O O @ # - : : : : : : : : : : : : : : : : : : : : : : : : : : : : : : : : : : : : : : : : : : : : : : - # @ O O         ",
"        O O O @ # # - - - - - - - - - - - - - - - - - - - - - - - - - - - - - - - - - - - - - - - - - - - - # # @ O O O         ",
"        O O O O O O O O O O O O O O O O O O O O O O O O O O O O O O O O O O O O O O O O O O O O O O O O O O O O O O O O         ",
"          O O O O O O O O O O O O O O O O O O O O O O O O O O O O O O O O O O O O O O O O O O O O O O O O O O O O O O           ",
"                                                                                                                                ",
"                                                                                                                                ",
"                                                                                                                                ",
"                                                                                                                                "
};
