/* XPM */
static char *tile_15[] = {
/* columns rows colors chars-per-pixel */
"64 64 28 1 ",
"  c #2B4F6E",
". c #2B506E",
"X c #2B5171",
"o c #2A5678",
"O c #2A597B",
"+ c #295B7F",
"@ c #275B81",
"# c #295E83",
"$ c #256280",
"% c #296187",
"& c #256B80",
"* c #27658E",
"= c #286289",
"- c #276B8D",
"; c #2A6A8A",
": c #27768E",
"> c #276792",
", c #286791",
"< c #266C97",
"1 c #286992",
"2 c #256F9C",
"3 c #277492",
"4 c #287490",
"5 c #277892",
"6 c #25709E",
"7 c #25799D",
"8 c #25839D",
"9 c #25879E",
/* pixels */
" Xo#*<266666666666666666666666666677777777777777777666666666663-",
" Xo#*<266666666666666666666666666666666666666666666666666666663-",
" Xo#*<26666666666666666666666666666666666666666666666666666666<*",
" Xo#*<26666666666666666666666666666266666777777777777776666666<*",
" Xo#*<26666666666666666666666666666266667777777777777777666662<*",
" Xo#*<26666666666666666666666666666666667888888888888887666662<*",
" Xo#*<26666666666666666666666666666666667888888888888887666662<*",
" Xo#*<26666666666666666666666666666666667777777777777777666662<*",
" Xo#*<26666666666666666666666666666666666677777777777766666662<*",
" Xo#*<26666666666666666666666666666666666666666666666666666662<*",
" Xo#*<26666666666666666666666666666666666666666666666666666662<*",
" Xo#*<66666666666666666666666666666666666666666666666666666666<*",
" Xo#*<66666666666666666666666666666666666666666666666666666666<*",
" Xo#*<26622222222222222222222222222222226666222266222222222662<=",
" XX#=<<<<<<<<<<<<<<<<<<<<<<<<<<<<<<<<<<<<<<<<<<<<<<<<<<<<<<<<<<=",
".XXO#==******************************************************==#",
"XXXXOO########################################################OO",
"XXXXXooooooooooooooooooooooooooooooooooooooooooooooooooooooooooX",
"XXXXXooooooooooooooooooooooooooooooooooooooooooooooooooooooooooX",
"XXXXOO########################################################OO",
".XXO#==******************************************************==#",
" XX#=<<<<<<<<<<<<<<<<<<<<<<<<<<<<<<<<<<<<<<<<<<<<<<<<<<<<<<<<<<=",
" Xo#*<26622222222222222222222222222222222222222222222222222662<=",
" Xo#*<66666666666666666666666666666666666666666666666666666666<*",
" Xo#*<66666666666666666666666666666666666666666666666666666666<*",
" Xo#*<26666666666666666666666666666666666666666666666666666662<*",
" Xo#*<26666666666666666666666666666666666666666666666666666662<*",
" Xo#*<26666666666666666666777776666666666666666666666666666662<*",
" Xo#*<26666666666662666677777777666666666666666666666666666662<*",
" Xo#*<26666666666666666777888887666666666666666666666666666662<*",
" Xo#*<26666666666666666778888887666666666666666666666666666662<*",
" Xo#*<26666666666666666677777777666226666666666666666666666662<*",
" Xo#*<66666666667777666667777776666666666666666666666666666662<*",
" Xo#*<66666666677777766666666666666666666666666666666666666662<*",
" Xo#*<66666666777888776666666666666666666666666666666666666662<*",
" Xo#*<66677777778888777666666777777777666666666666666666666662<*",
" Xo#*<66777777888888877766667777777777776666666666666666666662<*",
" Xo#*<66778888888888888776677888888888876666666666666666666662<*",
" Xo#*<66788888888888888777777888888888876666666666666666666662<*",
" Xo#*<66777777888888888877778888887777776666666666666666666662<*",
" Xo#*<66677777778888888888888888777777666666666666666666666662<*",
" Xo#*<66666666777888888888888888776666666666666666666666666662<*",
" Xo#*<26666666677888888888888877766666666666666666666666666662<*",
" Xo#*<26666666667777777777777777666626666666666666666666666662<*",
" Xo#*<26666266666777777777777766666626666666666666666666666662<*",
" Xo#*<26666666666666666666666666666666666666666666666666666662<*",
" Xo#*<26666666666666666666666666666666666666666666666666666662<*",
" Xo#*<26666666666666666666666666666666666666666666666666666662<*",
" Xo#*<26666666666666666666666666666666666666666666666666666662<*",
" Xo#*<26666666666666666666666666666666666666666666666666666662<*",
" Xo#*<26666666666666666666666666666666666666666666666666666662<*",
" Xo#*<26666666666666666666666666666666666666666666666666666662<*",
" Xo#*<26666666666666666666666666666666666666666666666666666662<*",
" Xo#*<26666666666666666666666666666666666666666666666666666662<*",
" Xo#*<26666666666666666666666666666666666666666666666666666662<*",
" Xo#*<26666666666666666666666666666666622666677777777766666662<*",
" Xo#*<26666666666666666666666666666666666666777777777777666662<*",
" Xo#*<266666666666666666666666666666666666677888888888877666662*",
" Xo#*<266666666666666666666666666666666666678888888888777666663-",
" Xo#*2666666666666666666666666666777777777778888888888776666663-",
" Xo#*2666666666666666666666666667778887778888888888887766666775:",
" Xo#=<222222222222222222222222667788888888888888888776666667775:",
" XXO%=,<<<<<>><<<<<<>><<<<<>><<<355555555555555555533<<<<1<3775:",
".XXoOO##@@@@OOOO@@@@OOOO@@@@OO@$$&&&&&&&&&&&&&&&&&&$$@@###%;455:"
};
