/* XPM */
static char *tile_11[] = {
/* columns rows colors chars-per-pixel */
"64 64 107 2 ",
"   c #555F2B",
".  c #5D5E2D",
"X  c #5C4C3C",
"o  c #555036",
"O  c #5E5732",
"+  c #645D2E",
"@  c #695F2F",
"#  c #614A36",
"$  c #614B39",
"%  c #675534",
"&  c #6D5235",
"*  c #6C5B31",
"=  c #6C5238",
"-  c #755733",
";  c #745B32",
":  c #7B5C34",
">  c #456527",
",  c #4D6A26",
"<  c #446328",
"1  c #4C6229",
"2  c #576F27",
"3  c #55632A",
"4  c #5B642B",
"5  c #516928",
"6  c #5E6D29",
"7  c #4F7025",
"8  c #537125",
"9  c #5D7C23",
"0  c #63632D",
"q  c #6C632E",
"w  c #646D2A",
"e  c #6B6B2C",
"r  c #716C2E",
"t  c #647727",
"y  c #607D23",
"u  c #6A742A",
"i  c #6D6230",
"p  c #716030",
"a  c #796433",
"s  c #7E6A34",
"d  c #2B455F",
"f  c #38465B",
"g  c #2B4660",
"h  c #284966",
"j  c #2B4E6D",
"k  c #3C4D63",
"l  c #2B506F",
"z  c #3E5067",
"x  c #30506E",
"c  c #3E5168",
"v  c #275476",
"b  c #2A5876",
"n  c #275578",
"m  c #2A5779",
"M  c #26587C",
"N  c #2A5A7C",
"B  c #325776",
"V  c #29607F",
"C  c #524949",
"Z  c #5B504E",
"A  c #454853",
"S  c #4D4F5A",
"D  c #52535E",
"F  c #58575E",
"G  c #5D595E",
"H  c #665141",
"J  c #6D5641",
"K  c #735B42",
"L  c #785E43",
"P  c #665850",
"I  c #6B5B51",
"U  c #645D5E",
"Y  c #715F51",
"T  c #7F6444",
"R  c #766251",
"E  c #7A6551",
"W  c #435369",
"Q  c #49576B",
"!  c #815F36",
"~  c #836136",
"^  c #896737",
"/  c #856936",
"(  c #886B37",
")  c #826239",
"_  c #896738",
"`  c #8C6938",
"'  c #906D37",
"]  c #926E3A",
"[  c #95703A",
"{  c #806444",
"}  c #866845",
"|  c #8A6C46",
" . c #245D83",
".. c #295D82",
"X. c #296483",
"o. c #286B87",
"O. c #25658E",
"+. c #28638A",
"@. c #276D8E",
"#. c #27738E",
"$. c #276790",
"%. c #266C97",
"&. c #256F9C",
"*. c #267B96",
"=. c #25719D",
"-. c #257C9D",
";. c #25829D",
/* pixels */
"0 + + 0 q e w 6 8 7 , 5 4 4 0 w 9 9 9 9 6 0 + 0 q e e e e e w 6 2 7 7 2 w w w w 2 8 8 2 w w e e e e w 6 3 > < 1   . + + + + O o ",
"; * * ; ; p q 0 6 5 5 3 0 @ q e t 9 y t e q * ; ; ; p p p p q 0 6 5 5 6 0 q q 0 3 , , 3 0 q p p p p q 0 3 1 1 3 . * * * * * % X ",
"; ; ; ; : : ; i 0 4 4 0 * * p e u y y u r p : : ; ; ; ; : : ; i 0 4 4 0 q * * + 3 1 1 4 0 ; : : : : ; * 4 3 3 . + * ; ; - - & $ ",
": : : : : : a a p i i i ; ; ; q e u u r s a a : : : : : : : a a p i i i ; ; * +   1 1 4 i a ~ ~ ~ ~ a p i + . + * ; - - - - & $ ",
": : : : ~ ~ ~ / / s s a : ; ; ; q e r s / ~ ~ ~ : : : : ~ ~ ~ / / s s a : ; * +   1 1 0 p ~ ( ` _ _ ~ a p * * * * ; - - - - & # ",
"~ : : ~ ~ ` ` ` ` ( / ~ a : ; ; ; p a a / ` ` ~ ~ : : ~ ~ ` ` ` ` ` ( ~ a : ; +   1 3 0 s / ` ] ] ` ` ~ a ; ; ; - - - - - - & # ",
"~ : : ~ ( ` ] [ [ ] ` ^ ~ : ; ; ; : a ~ ` ] ] ` ~ ~ ~ ~ ` ` ] [ [ ] ` ` ~ : ; * . 3 4 i s ( ] ] ] ] ` ~ a : ; - - - - - - - & # ",
"~ : : ~ ( ] [ [ [ [ ] _ ~ : : : : ! ~ _ ` ] ] ` ^ ~ ~ ( ` ] [ [ [ [ ] ` _ ~ a p + 0 0 p / ` [ ] ] ` ~ ~ : : - - - - - - - - & # ",
"~ : : ~ ^ ] [ [ [ [ ] _ ~ : : : ~ ~ ` ` ] ] ] ] ` ` ` ` ] ] [ [ [ [ ] ] ` ` ~ a p * i a / ` ] ` ` ~ ~ : : : - - - - - - - - & # ",
"~ : : ~ ^ ] ] [ [ ] ] _ ~ : : ~ ~ ` ] ] ] ] ] ] ] ] ] ] ] ] [ [ [ [ [ ] ] ` ` ~ a : : a ( ` ` ` ~ : : : - - - - - - - - - - & # ",
"~ : : ~ ^ ] ] [ [ [ ] ` ~ ~ ~ ~ ( ] ] [ [ [ [ [ [ [ [ [ [ [ [ [ [ [ [ [ [ ] ] ( ~ ~ ~ ~ ( ` ` ( ~ : ; - - - - - - - - - - - & # ",
"~ : : ~ ^ ' [ [ [ [ ] ( ^ ~ ~ ( ( ] [ [ [ [ [ [ [ [ [ [ [ [ [ [ [ [ [ [ [ [ ] ( ^ ~ ~ ( ' ] ' ( ~ : ; - - - - - - - - ; ; - & # ",
"~ : : ~ ^ ] [ [ [ [ ] ] ( ( ( ' ] ] [ [ [ [ [ [ [ [ [ [ [ [ [ [ [ [ [ [ [ [ ] ] ' ( ( ( ] ] ' ( ~ : ; - - - - - - - - ; ; - & # ",
") : : ) ) ` ] [ [ ] ] ] ` ` ` ` ] ] ] ] ] ] ] ] ] ] ] ] ] ] ] ] ] ] ] ] ] ] ] ] ] ` ` ] ] ] ` _ ) : ; - - - - - - - - - - - = $ ",
"L K K L T } | | | | | | | | | | | | | | | | | | | | | | | | | | | | | | | | | | | | | | | | } { L K J J J J J J J J J J J J H X ",
"I P P I Y R E E E E E E E E E E E E E E E E E E E E E E E E E E E E E E E E E E E E E E E E R Y I P P P P P P P P P P P P Z Z C ",
"F D D F G U U U U U U U U U U U U U U U U U U U U U U U U U U U U U U U U U U U U U U U U U U G F D D D D D D D D D D D D D S A ",
"W W W W W Q Q Q Q Q Q Q Q Q Q Q Q Q Q Q Q Q Q Q Q Q Q Q Q Q Q Q Q Q Q Q Q Q Q Q Q Q Q Q Q Q Q W W W c c z z z c c c c c c z k f ",
"B x x B B B B B B B B B B B B B B B B B B B B B B B B B B B B B B B B B B B B B B B B B B B B B B x x x x x x x x x x x x x h d ",
"v v v v M  . . . . . . . . . . . . . . . . . . . . . . . . . . . . . . . . . . . . . . . . . .M n v v j j j v v j j v v v j j d ",
"M v v M  .O.O.O.O.O.O.O.O.O.O.O.O.O.O.O.O.O.O.O.O.O.O.O.O.O.O.O.O.O.O.O.O.O.O.O.O.O.O.O.O.O.O. .M v v j j v v v j v v v v j j g ",
"N m m N O.%.%.%.%.%.%.%.%.%.%.%.%.%.%.%.%.%.%.%.%.%.%.%.%.%.%.%.%.%.%.%.%.%.%.%.%.%.%.%.%.%.%.O.N v v j j l l l l l l v l j j d ",
"..m m ..+.%.&.=.=.&.&.&.&.&.&.&.&.&.&.&.&.&.&.&.&.&.&.&.&.&.&.&.&.&.&.&.&.&.&.&.&.&.&.=.=.&.%.O...m v j j l j j l l l v v j j d ",
"..m m ..O.%.=.=.=.=.=.=.=.=.=.=.=.=.=.=.=.=.=.=.=.=.=.=.=.=.=.=.=.=.=.=.=.=.=.=.=.=.=.=.=.=.%.O...v v j j j j j l l l v l j j g ",
"..m m ..O.%.=.=.=.=.=.=.=.=.=.=.=.=.=.=.=.=.=.=.=.=.=.=.=.=.=.=.=.=.=.=.=.=.=.=.=.=.=.=.=.=.%.O...m v j j l l l l j j j j j j g ",
"..m m ..O.%.&.=.=.=.=.=.=.=.=.=.=.=.=.=.=.=.=.=.=.=.=.=.=.=.=.=.=.=.=.=.=.=.=.=.=.=.=.=.=.&.%.O...m v j j l l l l l j j v j j g ",
"..m m ..O.%.&.=.=.=.=.=.=.=.=.=.=.=.=.=.=.=.=.=.=.=.=.=.=.=.=.=.=.=.=.=.=.=.=.=.=.=.=.=.=.&.%.O...v v j j l l l l l l v v j j g ",
"..m m ..O.%.&.=.=.=.=.=.=.=.=.=.=.=.=.=.=.=.=.=.=.=.-.-.-.-.=.=.=.=.=.=.=.=.=.=.=.=.=.=.=.&.%.O...v v j j l l l l l l v v j j g ",
"..m m ..O.%.&.=.=.=.=.=.=.=.=.=.=.=.=.&.=.=.=.=.-.-.-.-.-.-.-.-.=.=.=.=.=.=.=.=.=.=.=.=.=.&.%.O...m v j j l l l l l l v j j j g ",
"..m m ..O.%.&.=.=.=.=.=.=.=.=.=.=.=.=.=.=.=.=.-.-.-.;.;.;.;.;.-.=.=.=.=.=.=.=.=.=.=.=.=.=.&.%.O...m v j j l l l l l l v l j j g ",
"..m m ..O.%.&.=.=.=.=.=.=.=.=.=.=.=.=.=.=.=.=.=.-.-.;.;.;.;.;.-.=.=.=.=.=.=.=.=.=.=.=.=.=.&.%.+...m v j j l l l l l l l l j j d ",
"..m m ..O.%.&.=.=.=.=.&.&.=.=.=.=.=.=.=.=.=.=.=.-.-.-.-.-.-.-.-.=.=.=.&.&.=.=.=.=.=.=.=.=.&.%.+...m v j j l l l l l l l v j j g ",
"..m m ..O.%.=.=.=.=.=.&.&.=.=.=.-.-.-.-.=.=.=.=.=.=.-.-.-.-.=.=.=.=.=.=.&.=.=.=.=.=.=.=.=.&.%.O...v v j j l l l l l l v v j j g ",
"..m m ..O.%.=.=.=.=.=.=.=.=.=.-.-.;.-.-.-.=.=.=.=.=.=.=.=.=.=.=.=.=.=.=.=.=.=.=.=.=.=.=.=.&.%.O...m v j j l l l l l l v l j j d ",
"..m m ..O.%.=.=.=.=.=.=.=.=.=.-.;.;.;.;.-.=.=.=.=.=.=.=.=.=.=.=.=.=.=.=.=.=.=.=.=.=.=.=.=.&.%.O...m v j j l l l l l l v v j j d ",
"..m m ..O.%.=.=.=.-.-.-.-.-.-.-.;.;.;.;.-.-.=.=.=.=.=.=.=.=.-.-.-.-.-.-.-.-.=.=.=.=.=.=.=.&.%.O...m v j j l l l l l l v j j j d ",
"..m m ..O.%.=.=.-.-.-.-.-.-.;.;.;.;.;.;.;.-.-.-.=.=.=.=.-.-.-.-.-.-.-.-.-.-.-.-.=.=.=.=.=.&.%.O...m v j j l l l l l l v v j j d ",
"..m m ..O.%.=.=.-.-.;.;.;.;.;.;.;.;.;.;.;.;.-.-.-.=.=.=.-.-.;.;.;.;.;.;.;.;.-.-.=.=.=.=.=.&.%.O...m v j j l l l j l l v v j j d ",
"..m m ..O.%.=.=.-.-.;.;.;.;.;.;.;.;.;.;.;.;.;.-.-.-.-.-.-.;.;.;.;.;.;.;.;.;.-.-.=.=.=.=.=.&.%.O...m v j j l l l j l l v v j j d ",
"..m m ..O.%.=.=.-.-.-.-.-.-.-.;.;.;.;.;.;.;.;.;.-.-.-.-.;.;.;.;.;.-.-.-.-.-.-.-.=.=.=.=.=.&.%.O...m v j j l l l j j j v v j j d ",
"..m m ..O.%.=.=.=.-.-.-.-.-.-.-.;.;.;.;.;.;.;.;.;.-.;.;.;.;.;.;.-.-.-.-.-.-.=.=.=.=.=.=.=.&.%.O...v v j j l l l l l l v j j j d ",
"..m m ..O.%.=.=.=.=.=.=.=.=.=.-.-.;.;.;.;.;.;.;.;.;.;.;.;.;.;.-.-.=.=.=.=.=.=.=.=.=.=.=.=.&.%.O...m v j j l l l l l l v l j j g ",
"..m m ..O.%.&.=.=.=.=.=.=.=.=.-.-.;.;.;.;.;.;.;.;.;.;.;.;.;.-.-.-.=.=.=.=.=.=.=.=.=.=.=.=.&.%.O...m v j j l l l l j l v l j j d ",
"..m m ..O.%.&.=.=.=.=.&.&.=.=.=.-.-.-.-.-.-.-.-.-.-.-.-.-.-.-.-.=.=.=.&.&.=.=.=.=.=.=.=.=.&.%.O...m v j j l l l j j l v v j j d ",
"..m m ..O.%.&.=.=.=.=.&.&.=.=.=.=.=.-.-.-.-.-.-.-.-.-.-.-.-.=.=.=.=.=.&.&.=.=.=.=.=.=.=.=.&.%.O...m v j j l j j j j j v v j j g ",
"..m m ..O.%.&.=.=.=.=.=.=.=.=.=.=.=.=.=.=.=.=.=.=.=.=.=.=.=.=.=.=.=.=.=.=.=.=.=.=.=.=.=.=.&.%.O...m v j j l l j j j l v l j j d ",
"..m m ..O.%.&.=.=.=.=.=.=.=.=.=.=.=.=.=.=.=.=.=.=.=.=.=.=.=.=.=.=.=.=.=.=.=.=.=.=.=.=.=.=.&.%.O...m v j j l l l l l l v v j j d ",
"..m m ..O.%.&.=.=.=.=.=.=.=.=.=.=.=.=.=.=.=.=.=.=.=.=.=.=.=.=.=.=.=.=.=.=.=.=.=.=.=.=.=.=.&.%.O...m v j j l l l l l l v l j j d ",
"..m m ..O.%.&.=.=.=.=.=.=.=.=.=.=.=.=.=.=.=.=.=.=.=.=.=.=.=.=.=.=.=.=.=.=.=.=.=.=.=.=.=.=.&.%.O...m v j j l l l l l l l v j j d ",
"..m m ..O.%.&.=.=.=.=.=.=.=.=.=.=.=.=.=.=.=.=.=.=.=.=.=.=.=.=.=.=.=.=.=.=.=.=.=.=.=.=.=.=.&.%.O...m v j j l l l j l j j v j j g ",
"..m m ..O.%.&.=.=.=.=.=.=.=.=.=.=.=.=.=.=.=.=.=.=.=.=.=.=.=.=.=.=.=.=.=.=.=.=.=.=.=.=.=.=.&.%.O...m v j j l l l j j j l v j j g ",
"..m m ..O.%.&.=.=.=.=.=.=.=.=.=.=.=.=.=.=.=.=.=.=.=.=.=.=.=.=.=.=.=.=.=.=.=.=.=.=.=.=.=.=.&.%.O...v v j j j j l l j j v v j j g ",
"..m m ..O.%.&.=.=.=.=.=.=.=.=.=.=.=.=.=.=.=.=.=.=.=.=.=.=.=.=.=.=.=.=.=.=.=.=.=.=.=.=.=.&.&.%.O...v l j j j j l l l l v v j j g ",
"..m m ..O.%.&.=.=.=.=.=.=.=.=.=.=.=.=.=.=.=.=.=.=.=.=.=.=.=.=.=.=.=.=.=.=.=.=.=.=.=.=.=.=.=.%.O...m v v v v v v v l l v l j j g ",
"..m m ..O.%.&.=.=.=.=.=.=.=.=.=.=.=.=.=.=.=.=.=.=.=.=.=.=.=.=.=.=.=.=.=.=.=.=.=.=.=.=.=.=.=.&.%.X.N m m v m v v v v l j j j j d ",
"..m m ..O.%.&.=.=.=.=.=.=.=.=.=.=.=.=.=.=.=.=.=.=.=.=.=.=.=.=.=.=.=.=.=.=.=.=.&.&.=.=.=.=.=.=.*.@.+...........N v v v j j j j d ",
"..m m ..O.%.&.=.=.=.=.=.=.=.=.=.=.=.=.=.=.=.=.=.=.=.=.=.=.=.=.=.=.=.=.=.=.=.=.&.&.=.=.=.-.-.-.*.*.$.+.O.O.+.+...N v v l j j j d ",
"..m m ..O.%.&.=.=.=.=.=.=.=.=.=.=.=.=.=.=.=.=.=.=.=.=.=.=.=.=.=.=.=.=.=.=.=.=.=.=.=.=.-.-.-.-.-.=.%.%.%.%.%.$.+.N v v v v l j g ",
"..N m ..O.%.&.=.=.=.=.=.=.=.=.=.=.=.=.=.=.=.=.=.=.=.=.=.=.=.=.=.=.=.=.=.=.=.=.=.=.=.=.-.-.;.;.-.=.%.%.%.%.%.$.+.N v v v v v v h ",
"X.N N ..O.%.&.=.=.=.=.=.=.=.=.=.=.=.=.=.=.=.=.=.=.=.=.=.=.=.=.=.=.=.-.-.-.-.-.-.-.-.-.-.;.;.;.-.*.%.O.O.O.O.+...N v v m N N N v ",
"X.N N ..O.%.&.=.=.=.=.=.=.=.=.=.=.=.=.=.=.=.=.=.=.=.=.=.=.=.=.=.-.-.-.-.-.-.-.-.-.-.-.;.;.;.;.*.@.+.X.........N v v v N ..X...m ",
"X.N N ..O.%.&.=.=.=.=.=.=.=.=.=.=.=.=.=.=.=.=.=.=.=.=.=.=.=.=.=.-.-.;.;.;.;.;.;.;.;.;.;.;.;.-.*.o.V N v v m v v v v v ..+.+.+.N ",
"X.N N ..O.%.&.=.=.=.=.=.=.=.=.=.=.=.=.=.=.=.=.=.=.=.=.=.=.=.=.=.-.-.;.;.;.;.;.;.;.;.;.;.;.;.*.#.X.N v v v l l l j v v ..+.+.+.N ",
"X.N N ..O.%.&.=.=.=.=.=.=.=.=.=.=.=.=.=.=.=.=.=.=.=.=.=.=.=.=.=.-.-.-.-.-.-.-.-.-.-.-.-.-.-.*.@.X.b l j j j j j j l v N ..+...N "
};
