/* XPM */
static char *tile_06[] = {
/* columns rows colors chars-per-pixel */
"64 64 92 1 ",
"  c #3E691F",
". c #31522D",
"X c #365E2B",
"o c #395E2C",
"O c #355530",
"+ c #3F5332",
"@ c #3A5F30",
"# c #375738",
"$ c #3E5B3F",
"% c #376325",
"& c #3F6824",
"* c #3C642A",
"= c #3F682A",
"- c #3E6335",
"; c #3F6339",
": c #446E1E",
"> c #47711E",
", c #4F791C",
"< c #517B1D",
"1 c #445C2D",
"2 c #555E2C",
"3 c #4A5234",
"4 c #515A30",
"5 c #426627",
"6 c #426B25",
"7 c #4C6C26",
"8 c #44632A",
"9 c #496228",
"0 c #436B2B",
"q c #496D2E",
"w c #536E26",
"e c #55632A",
"r c #526928",
"t c #5C682A",
"y c #477123",
"u c #4F7921",
"i c #4B7329",
"p c #527525",
"a c #5B7426",
"s c #527B21",
"d c #5B7D23",
"f c #537C28",
"g c #406734",
"h c #456B33",
"j c #41643A",
"k c #45693B",
"l c #4B6F38",
"z c #4A7132",
"x c #527637",
"c c #567B37",
"v c #567A3B",
"b c #606E29",
"n c #607F22",
"m c #637328",
"M c #3C5A40",
"N c #435F47",
"B c #435F49",
"V c #4A5F5B",
"C c #456643",
"Z c #476941",
"A c #496A45",
"S c #43604B",
"D c #4A654C",
"F c #4E6A4D",
"G c #516F4F",
"H c #4E7041",
"J c #507340",
"K c #53714A",
"L c #58764E",
"P c #466053",
"I c #4B6552",
"U c #4C6A51",
"Y c #526A5B",
"T c #517050",
"R c #587553",
"E c #577258",
"W c #576F62",
"Q c #57811E",
"! c #59831F",
"~ c #5F881F",
"^ c #60851E",
"/ c #61891F",
"( c #63881F",
") c #568020",
"_ c #5B8221",
"` c #608623",
"' c #658C20",
"] c #688E21",
"[ c #6D9222",
"{ c #719523",
"} c #769924",
"| c #7A9C25",
/* pixels */
"N$$NIYYWWWYUC--CFYYTHz6: *-CUYYGAzzlFYYWWWWWWWWWWYYERLLKFDSSSSIV",
"----jZAAAAZkg**gkZZkh06&&&*gjZZkh00hkZAAAAAAAAAAAAAJvccxzjj-;jCP",
"****0000000006600000066666600000066000000000qqqq00iif_ssi0****jS",
"6&&&6:>>>>>uuuuuu>>yuuuuuuuuu>>uuuuuy>>>>>>>ssss>>><<!Q<y&&%&*;S",
"6&&6>>,<<,<<<s<<<<,<<ssssss<<<,<<ss<,,,,,<<!^//^!<<<Q!Q<>&&%&*-S",
"6666usQQQQ!!!!!!QQQQQQQQQQ!QQQ<Q!Q!!Q!QQQ!!'][[]'!!!!!Qsu6&&&*;S",
"666uu)!!!!!!!!!!!!!!!!!!!!!!!!!!!!!!!~~!!!']{{{['__!!!Qsu66&&*;S",
"6&6usQ!!!!!!!!!!!!!!!!!!!!!!!!!!!!!/''''///[{}}['_ssQ!!ssuy6&*;S",
"&&6usQ!!!!!!!!!!!!!!!!!!!!!!!!!!!!~'[[[]'//[{}{[`sussQ!!ssuu6=jS",
"&&6usQ!!!!!!!!!!!!!!!!!!!!!!!!!!!!/'[{{['//]{}{]_uuuss!!!)s>60jS",
"&&6us!!!!!!!!!!!!!!~~//~!!!!!!!!!!/][{{['/''[{['du66ussQQss>60;B",
"&&6usQ!!!!!!!!!!!!!/''''/!!!!!!!!!/'[[[]'/''][]`s666yuusssuu6*;S",
"6&6usQ!!!!!!!!!!!!/'[[[]//!!!!!!!!~/']''/!!/'''_u6&&66uuuu66&*jS",
"666ysQ!!!!!!!!!!!!/][{{[//!!!!!!!!!~////!!!!//_su6&&&66666&&&*;S",
"y66us<!!!!!!!!!!!!/[{}}{[/!!!!!!!!!!!!!!!!!!!!!su66&&&&&&&&&&*;S",
"y66ys<!!!!!!!!!!!!/[{}}{[/!!!!!!!!!!!!!!!!!!!!!<uuy6&&&&&&&&&*;B",
"y66usQ!!!!!!!!!!!!/]{}}{]/!!!!!!!!!!!!!!!!!!!!!!ssuu6&&&%%&&&*;B",
"y66usQ!!!!!!!!!!!!/]{}}{[/!!!!!!!!!!!!!!!!!!!!!!!Qsu6&&&%&&&&*;S",
"y66us!!!!!!~~//!!~/]{}}{['/!!!!~~//~!!!!!!!!!!!!!!su6&&&&&&&&*;S",
"y66us!!!!!~/''''///[{}}}{[''/!~/''''/~!!!!!!!!!!!!)sy&&&%&&&&*;S",
"y66us!!!!!/'][[]'//]{}||}{[]'//'][[]'/!!!!!!!!!!!!Qsy&&&%&&%&*;S",
"y66usQ!!!!/][{{[''']{}|||}{[]//][{{[]/!!!!!!!!!!!!Qsy&&&%&&&&*;S",
"u66usQ!!!!/[{}}['__'[}||||}{[''[{}}{[/!!!!!!!!!!!!Qsy&&%&&&&&*;B",
"u66usQ!!!!/[{}}['__'[}|||||}{[[{}|}{[/!!!!!!!!!!!!Qsy&&&&&&&&*;B",
"y66ysQ!!!!/[{}{]_ss_]{||||||}{{}||}{]/!!!!!!!!!!!!!su6&&%&&&&*;B",
"y66ysQ!!!!/]{}{]_pp_]{||||||}}}|||}{]/!!!!!!!!!!!!)su6&&%&&&%*;B",
"666ysQ!!!!/][{{'dpud'{}}}}}}}}}}|}{['/!!!!!!!!!!!Qsu6&&&%&&%%*;B",
"6&6ysQ!!!!/'[[['_ssd'[{{{{{{{{{{{{[['~!!!!!!!!!Qssuu6&&&&&&%&*;B",
"&&6usQ!!!!~/''''_ss_''][[[[[]]]][]/'/~!!!!!!!!!suu66&&&&&&&%&*;B",
"&&6usQ!!!!!~///!____!~//////////////~!!!!!!!!!!su66&&&&&&&&%&*;B",
"&&6usQ!!!!!!!!!!!!!!!!!!!!!!!!!!!!!!!!!!!!!!!!!su66&&&&&&&&&&*-N",
"&&6usQ!!!!!!!!!!!!!!!!!!!!!!!!!!!!!!!!!!!!!!!!!ssu66&&&&&&&&&*-M",
"6&6ysQ!!!!!!!!!!!!!!!!!!!!!!!!!!!!!!!!!!!!!!!!!!ssuu6&&&&&&&&*@#",
"666usQ!!!!!!!!!!!!!!!!!!!!!!!!!!!!!!!!!!!!!!!!!!!Qsuy6&&&&&&&*oO",
"u66usQ!!!!!!!!!!Q!QQ!!!!!!!!!!!!!!!!!!!!!!!!!!!!!!)su6&&%&&&&&X.",
"u66ysQ!!!!!!!!!!ssssQ!!!!!!!!!!!!!!!!!!!!!!!!!!!!!Qsu6&&%&&&&&X.",
"u66yuQ!!!!!!!!!ssuuus!!!!!!!!!!!!!!!!!!!!!!!!!!!!!Qsy&&&%&&&&*X.",
"y66ysQ!!!!!!!!!suy6usQ!!!!!!!!!!!!!!!!!!!!!!!!!!!!_sy6&&%&&&&*XO",
"y66ysQ!!!!!!!!!su66usQ!!!!!!!!!!!!!!!!!!!!!!!!!~___su6&&%&&&&*XO",
"y66ysQ!!!!!!!!!su66us!!!!!!!!!!!!!!!!!!!!!!!!!~/''`du6&&%&&&&*XO",
"y66usQ!!!!!!!!!sy66usQ!!!!!!!!!!!!!!!!!!!!!!!!/'[[]`s6&&%&&&&&XO",
"y66us!!!!!!!!!Qsy66yus!!!!!!!!!!!!!!!!!!!!!!!!/][{['d7&&%&&&&&XO",
"y66usQ!!!!!!!!Qsy666usQ!!!!!!Q<Q!!!!!!!~///~!~/[{{{]du&&%&&&&&oO",
"y66us)!!ssss!!)sy6&6uuss!!!Qssss!!!!!!~///''///[{}{]du&&%%&&&&oO",
"y66uusQssuussQ)su6&&6yuss!!ssuuus!!!!!~'][[]'//]{}{]du&%%%%&&&oO",
"y66uus<suuuusQ)su6&&&6yus!!suuyus!!!!!/'[{{['//]{{{]du&&%&&&&&oO",
"u66uus<suuuusQQsu66&66yusQ!suuuusQ!!!!/]{}}{]//]{{{]d7&&&&&&&&XO",
"u66uusQsuuuss!!ssuuyyuuss!!ssuuss!!!!!/]{}}{]//][{{]d7&&66666&XO",
"y66ys)!Q<sss!!!!ssssssss!!!!ssssQ!!!!!/]{}}{]//]{}{]du66uuuu6&oO",
"y66ysQ!!!!!!!!!!!!QQQQQ!!!!!!!!!!!!!!!/]{}}{]''[{}{]du6yussuu6oO",
"y66ysQ!!!!!!!!!!!!!!!!!!!!!!!!!!///!!~/[{}}{[''[{}{]duuus)Qsu6*o",
"666ysQ!!!!!!!!!!!!!!!!!!!!!!!!!/']''///[{}|}{[[{}}{]`suss!!Qsu0o",
"y66usQ!!!!!!!!!!!!!!!!!!!!!!!!/'[[[]'//]{}||}{{}||}['_ssQ!!!<si8",
"y66usQ!!!!!!!!!!!!!!!!!!!!!!!!//[{{['//][}|||}}|||}['__)!!!!!spq",
"y66usQ!!!!!!!!!!!!!!!!!!!!!!!!//[{{['//'[{}}}}}}}}{['_)sQQQQ!spq",
"y66usQ!!!!!!!!!!!!!!!!!!!!!!!!/'][[]'//'][{{{{{{{{['_sssssssssi8",
"y66us!!!!!!!!!!!!!!!!!!!!!!!!!~/''''/~~/''][[[[[]]'_suuyyuuuuu0o",
"y66usQ!!!!!!!!!!!!!!!!!!!!!!!!!~~//~!!!~//////////_su66&&66666*o",
"u66usQ!!!!!!!QQQ!!!!!QQQ!!!!!!!!!!!!!!!!!!!!!!!!!!!su6&&&&&&&&oO",
"y66yuQ!!!!!Qssss!!!!ssssQ!!!!!!!!!!!!!!!!!!!!!!!!!Quu6&%%%%&&%XO",
"y66yuQ!!!!!<suuus!!suuuus!!!!!!!!!!!!!!!!!!!!!!!!!Qsu6&%%%%&%%XO",
"u66ups!!!!!suuuus_)suu7us_!!!!!!!!!!!!!!!!!!!!!!!!_su6&&&&&&&*oO",
"w77wpddd__sp777psddsp77wadn`nnd______dd______ddnnddp76&&8888981+",
"ttttbmmddsppreead_ddwettbmmmmmnasssddmmddssddmmmmmap75589222e243"
};
