/* XPM */
static char *tile_08[] = {
/* columns rows colors chars-per-pixel */
"64 64 187 2 ",
"   c #2E313F",
".  c #4C363E",
"X  c #5C3A3E",
"o  c #663C3D",
"O  c #6E3D3C",
"+  c #703E3C",
"@  c #77463B",
"#  c #7C413B",
"$  c #2E3445",
"%  c #2E384B",
"&  c #323644",
"*  c #3D3642",
"=  c #343847",
"-  c #353847",
";  c #353A4A",
":  c #3A3D4D",
">  c #343D53",
",  c #3A3F54",
"<  c #453741",
"1  c #423945",
"2  c #4B3A44",
"3  c #403F4C",
"4  c #543C44",
"5  c #3C404E",
"6  c #3D4354",
"7  c #3D455A",
"8  c #46424C",
"9  c #49454F",
"0  c #5B4245",
"q  c #434655",
"w  c #4A4555",
"e  c #444857",
"r  c #4B4955",
"t  c #424559",
"y  c #4C455A",
"u  c #494D5D",
"i  c #514B5D",
"p  c #4C515F",
"a  c #53575E",
"s  c #664B43",
"d  c #644947",
"f  c #684C45",
"g  c #75574D",
"h  c #6B4654",
"j  c #6C4957",
"k  c #6E4B59",
"l  c #6B5355",
"z  c #725B5D",
"x  c #444E63",
"c  c #4A4E62",
"v  c #524C61",
"b  c #465063",
"n  c #4C5364",
"m  c #455269",
"M  c #4D5669",
"N  c #4E586A",
"B  c #585467",
"V  c #545963",
"C  c #505668",
"Z  c #545B6C",
"A  c #5A5E6E",
"S  c #4D5970",
"D  c #545F74",
"F  c #585F70",
"G  c #625F6B",
"H  c #5C616D",
"J  c #576074",
"K  c #5B6274",
"L  c #57647A",
"P  c #5D6679",
"I  c #5E687A",
"U  c #63616D",
"Y  c #6C646C",
"T  c #74646A",
"R  c #786669",
"E  c #626573",
"W  c #696B74",
"Q  c #606779",
"!  c #626A7C",
"~  c #696F7C",
"^  c #6F7477",
"/  c #70767B",
"(  c #77757A",
")  c #7C7679",
"_  c #874337",
"`  c #884437",
"'  c #8E4B37",
"]  c #844339",
"[  c #8C4639",
"{  c #974937",
"}  c #9A4A36",
"|  c #954838",
" . c #83523B",
".. c #8E5C3B",
"X. c #975637",
"o. c #A44C34",
"O. c #A75034",
"+. c #AA5534",
"@. c #AE5934",
"#. c #B45E33",
"$. c #A96437",
"%. c #AF6E36",
"&. c #B56234",
"*. c #B96633",
"=. c #B06F36",
"-. c #BC6C34",
";. c #B06F39",
":. c #B0703C",
">. c #C16F33",
",. c #C67433",
"<. c #CA7E34",
"1. c #C87C36",
"2. c #D07F32",
"3. c #914C4C",
"4. c #8D5B45",
"5. c #8F554C",
"6. c #91624B",
"7. c #956957",
"8. c #99705D",
"9. c #B17244",
"0. c #B4764B",
"q. c #BB7B4C",
"w. c #AA7656",
"e. c #A37359",
"r. c #B57A53",
"t. c #B67C56",
"y. c #836965",
"u. c #8C6B62",
"i. c #936464",
"p. c #926D61",
"a. c #8A776A",
"s. c #9B7465",
"d. c #806F74",
"f. c #837578",
"g. c #827B7C",
"h. c #977D78",
"j. c #A07B6F",
"k. c #A17E75",
"l. c #C47E45",
"z. c #DE8D2E",
"x. c #CA803D",
"c. c #D88732",
"v. c #D78835",
"b. c #DB8B34",
"n. c #D3853A",
"m. c #D98B3A",
"M. c #DF9035",
"N. c #E29335",
"B. c #E69837",
"V. c #E99B36",
"C. c #E79A38",
"Z. c #E99D38",
"A. c #EDA13A",
"S. c #F0A53B",
"D. c #BC825E",
"F. c #96847B",
"G. c #9D807C",
"H. c #96887C",
"J. c #B78162",
"K. c #BA8364",
"L. c #B2826C",
"P. c #A88174",
"I. c #A38078",
"U. c #C78144",
"Y. c #CC864C",
"T. c #D18541",
"R. c #C48357",
"E. c #5F6C82",
"W. c #656D80",
"Q. c #686F82",
"!. c #6C7486",
"~. c #6E7689",
"^. c #727586",
"/. c #777A85",
"(. c #7A7C86",
"). c #717789",
"_. c #747788",
"`. c #7A7E8D",
"'. c #757D90",
"]. c #897D85",
"[. c #837E8A",
"{. c #887F89",
"}. c #937F82",
"|. c #7B8189",
" X c #848087",
".X c #958582",
"XX c #9C9080",
/* pixels */
"h.i.5.3.3.3.3.3.3.3.3.3.3.3.3.3.3.3.3.3.3.3.3.3.3.3.3.3.3.3.3.3.3.3.3.3.3.3.3.3.3.3.3.3.3.3.3.3.3.3.3.3.3.3.3.3.3.3.3.3.3.3.5.g ",
"g.T k h h j j j j k k k k k k k k k k k k k k k k k k k k k k k k k k k k k k k k k k k k k k k k k k k k k k k k j j j j j j l ",
"( G i w w y y y i i v v v v v v v v v v C C C C C C C C C C B C C C C C B B C C C C B C C C C C C C B B B C C v i y y y y y y y ",
"( Z 7 > > > 7 7 x x x n n b b x x x m M S D D D D D D D D D D D D D D D D D D D D D D D D D D D D D D J J D D M x 7 6 > > , , , ",
"( V 6 % % ; 6 7 x n M M M M M M M M N D L I E.W.W.E.E.E.E.E.W.W.E.E.E.E.E.E.E.E.E.E.W.E.E.E.W.W.W.W.W.W.W.! P D n 7 > % % ; ; ; ",
"( V 5 $ $ ; 6 t n C Z Z Z Z Z Z A A K E ~ ^.^._._._._._._._._._._._._._._._._._._._._._._._._._._.~.~.~.~.~.Q.K Z t : ; ; ; ; ; ",
"( a : $ & : 6 t n Z Z Z Z Z A U Y T R d.f.].].].].].].].].].].].].].].].].].].].].].].].].].].[.`._._.'.'._.~.! F n q 5 ; = & & ",
"^ a : & ; q t n C Z Z D D Z U T y.p.s.s.j.k.I.I.I.I.I.I.I.I.I.I.I.I.I.I.I.I.I.I.I.I.I.I.I.I.G..X{.`.'.'.'.'._.!.! A C t 6 ; &   ",
"^ a 5 ; 6 t n C Z Z Z D D A Y y.8.w.r.r.D.K.K.K.K.K.K.K.K.K.K.K.K.K.K.K.K.K.K.K.K.K.K.K.K.K.L.I..X[.'.'.'.'._.~.!.! K Z t : &   ",
"^ V q 6 t n Z Z Z Z A Z A U R p.w.q.U.U.U.Y.Y.Y.Y.Y.Y.Y.Y.Y.Y.Y.Y.Y.Y.Y.Y.Y.Y.Y.Y.Y.Y.Y.Y.Y.R.L.G.].`.'.'.'._._._.!.W.K C q ; & ",
"( V e t n Z Z Z Z A H U Y T u.e.q.U.n.v.b.m.m.m.m.m.m.m.m.m.m.m.m.m.m.m.m.m.m.m.m.m.m.b.b.n.Y.D.P.G.].[.`.`.'.'.'._.~.! F n t 6 ",
"( H p u n Z Z D D A U T y.p.e.r.l.n.c.z.b.N.N.N.N.N.N.N.N.N.N.N.N.N.N.N.N.N.N.N.N.N.N.z.z.b.T.R.K.P.G.}.[.`.'.'.'.'._.!.! F Z n ",
"/.E V n C Z D D D H Y y.8.w.q.l.x.c.b.b.N.N.V.V.V.V.V.V.V.V.V.V.V.V.V.V.V.V.V.V.V.V.N.N.z.b.n.U.R.D.L.I.}.[.`.'.'.'._.~.!.! Q K ",
"(.W Z Z Z Z D D Z H T p.w.q.U.n.c.c.b.N.B.Z.A.A.A.A.A.A.A.A.A.A.A.A.A.A.A.A.A.A.A.A.Z.B.N.b.v.n.T.Y.R.L.h.].`.'.'.'.'._._.~.!.! ",
"|.~ K Z Z Z Z Z Z A T 7.r.U.n.b.b.b.M.N.Z.A.A.A.A.A.A.Z.Z.A.A.A.A.A.A.Z.Z.A.A.A.A.A.A.Z.N.M.b.b.b.n.Y.J.k.]._._._._.'.'.'._._.!.",
"|.~ K Z Z Z Z Z N A T 7.0.x.c.b.b.N.N.C.Z.A.A.A.Z.Z.C.C.C.C.C.C.C.C.C.C.C.C.Z.Z.A.A.A.Z.C.N.N.b.z.v.U.r.j.f.^.~._._.'.'.'.'._.!.",
"|.~ K Z Z Z Z N M B z 7.0.x.b.b.N.B.Z.Z.A.A.A.Z.C.N.N.N.N.N.N.N.N.N.N.N.N.N.N.C.Z.A.A.A.Z.Z.B.N.z.b.U.r.s.d.~ !.~._.'.'.'.'._.!.",
"|.~ K Z Z Z Z M n C z 7.9.x.b.N.B.Z.A.A.A.A.A.Z.N.M.b.b.b.b.b.b.b.b.b.b.b.b.M.N.Z.A.A.A.A.A.Z.B.N.b.U.r.s.T W W.!._.'.'.'.'._.!.",
"|.~ K Z Z Z Z M x i l 6.9.<.v.N.V.A.A.A.A.A.Z.C.N.M.b.b.b.b.b.b.b.b.b.b.b.b.M.N.C.Z.A.A.A.A.A.V.N.b.x.0.7.T E I Q._.'.'.'.'._.!.",
"g.W K Z Z Z Z n x u l 6.9.<.b.N.V.A.A.A.Z.Z.C.N.N.N.N.N.N.N.N.N.N.N.N.N.N.N.N.N.N.C.Z.Z.A.A.A.V.N.b.x.9.7.z A K W._.'.'.'._._.!.",
"f.W H Z Z Z Z b t w f 4.:.<.b.N.V.A.A.Z.C.N.N.N.N.B.C.C.C.C.C.C.C.C.C.C.C.C.B.N.N.N.N.C.Z.A.A.V.N.b.x.9.6.l C D ! ~.'.'.'.'._.!.",
"a.Y K D D Z Z b 7 9 f 4.;.<.b.N.Z.A.A.Z.N.M.M.N.B.Z.A.A.A.A.A.A.A.A.A.A.A.A.Z.B.N.M.M.N.Z.A.A.V.N.b.<.:.4.l i Z I ~.'.'.'._._.!.",
"a.T E K J Z Z b 6 8 s ..;.<.b.N.Z.A.A.C.N.b.b.N.C.A.A.S.S.A.A.A.A.A.A.S.S.A.A.C.N.b.b.N.C.A.A.Z.N.b.<.%...f r N I ~._.'.'._._.!.",
"a.( ! P K D Z x 6 8 s ..%.<.b.N.Z.A.Z.C.N.b.b.N.C.A.S.S.S.S.S.S.S.S.S.S.S.S.A.C.N.b.b.N.C.Z.A.Z.N.b.<.%...f r M I ~._.'.'.'._.~.",
"h.) !.! P K Z x 6 8 s ..%.<.b.N.Z.A.Z.C.N.b.b.N.C.A.S.S.S.S.S.S.S.S.S.S.S.S.A.C.N.b.b.N.C.Z.A.Z.N.b.<.%...f r M I ~._.'.'.'._._.",
"F.].^.Q.I K Z b 6 8 s ..;.<.b.N.Z.A.A.C.N.b.b.N.C.A.A.S.S.S.S.S.S.S.S.S.S.A.A.C.N.b.b.N.C.A.A.Z.N.b.<.%...f r M I ~._.'.'.'.'.'.",
"F.]._.~.W.P D n 7 8 s ..=.<.b.N.Z.A.A.C.N.b.b.N.C.A.A.S.S.S.S.S.S.S.S.S.S.A.A.C.N.b.b.N.C.A.A.Z.N.b.<.%...f r M I ~._.'.'.'.'.'.",
"F.]._.~.!.! K N t 9 f ..=.<.b.N.Z.A.Z.C.N.b.b.N.C.A.S.S.S.S.S.S.S.S.S.S.S.S.A.C.N.b.b.N.C.Z.A.Z.N.b.<.%...f r M I !._.'.'.'.'.'.",
"F. X_._.~.!.! D b w f ..%.<.b.N.Z.A.Z.C.N.b.b.N.C.A.S.S.S.S.S.S.S.S.S.S.S.S.A.C.N.b.b.N.C.Z.A.Z.N.b.<.=...f r M I !._.'.'.'.'.'.",
"F. X`.'._._.!.K n r f ..%.<.b.N.Z.A.A.C.N.b.b.N.C.A.A.S.S.A.A.A.A.A.A.S.S.A.A.C.N.b.b.N.C.A.A.Z.N.b.<.=...f r M I !._.'.'.'.'.'.",
"F. X`.'.'._.!.P M r f ..%.<.b.N.Z.A.A.Z.N.M.M.N.B.Z.A.A.A.A.A.A.A.A.A.A.A.A.Z.B.N.M.M.N.Z.A.A.Z.N.b.<.=...f r M I !._.'.'.'.'.'.",
"H. X`.'.'._.~.I N r f ..%.<.b.N.Z.A.A.Z.C.N.N.N.N.B.C.C.C.C.C.C.C.C.C.C.C.C.B.N.N.N.N.C.Z.A.A.Z.N.b.<.%...f r M I !._.'.'.'.'.'.",
"XX X|.'.'._.~.I N r f ..%.<.b.N.Z.A.A.A.Z.Z.C.N.N.N.N.N.N.N.N.N.N.N.N.N.N.N.N.N.N.C.Z.Z.A.A.A.Z.N.b.<.%...f r M I !._.'.'.'.'.'.",
"XX X`.'.'._.!.I N r f ..%.<.b.N.V.A.A.A.A.A.Z.C.N.M.b.b.b.b.b.b.b.b.b.b.b.b.M.N.C.Z.A.A.A.A.A.V.N.v.<.%...f r M I !._.'.'.'.'.'.",
"XX X`.'.'._.~.I N r f ..%.<.b.N.B.Z.A.A.A.A.A.Z.N.M.b.b.b.b.b.b.b.b.b.b.b.b.M.N.Z.A.A.A.A.A.Z.B.N.b.<.%...f r M I !._.'.'.'.'.'.",
"H. X`.'.'._.~.I N r f ..=.<.v.b.N.N.Z.Z.A.A.A.Z.C.N.N.N.N.N.N.N.N.N.N.N.N.N.N.C.Z.A.A.A.Z.Z.B.N.b.v.<.%...f r M I !._.'.'.'.'.'.",
"g.`._.'.'._.~.I M r f ..=.<.c.b.b.N.N.C.Z.A.A.A.Z.Z.C.C.C.C.C.C.C.C.C.C.C.C.Z.Z.A.A.A.Z.C.N.N.b.b.c.<.%...f r M I ~._.'.'.'.'.'.",
") `._.'.'._.~.I M r s ..%.<.c.b.b.b.M.N.Z.Z.A.A.A.A.A.Z.Z.A.A.A.A.A.A.Z.Z.A.A.A.A.A.A.Z.N.M.b.b.b.c.<.%...s r M I ~._.'.'.'.'.'.",
") /._.'.'._.~.I N r s ..%.,.<.c.c.c.b.N.B.Z.Z.A.A.A.A.A.A.A.A.A.A.A.A.A.A.A.A.A.A.A.Z.B.N.b.c.c.c.<.,.%...s r N I ~._.'.'.'.'.'.",
") /._.'.'.'.~.I N r s  .$.-.,.<.c.c.b.b.N.B.C.Z.Z.Z.Z.Z.Z.Z.Z.Z.Z.Z.Z.Z.Z.Z.Z.Z.Z.C.B.N.b.b.c.c.<.,.-.$. .s r N I ~._.'.'.'.'.'.",
") (._.'.'._.~.I N r 0 @ X.$.-.,.<.c.c.b.b.N.N.N.N.N.N.N.N.N.N.N.N.N.N.N.N.N.N.N.N.N.N.b.b.c.c.<.,.-.$.X.@ 0 r N I !._.'.'.'.'.'.",
"g.`._.'.'._.~.I Z r 0 @ ' O.&.-.,.2.c.c.b.b.b.b.b.b.b.b.b.b.b.b.b.b.b.b.b.b.b.b.b.b.b.b.c.c.<.,.-.&.O.' @ 0 r Z I !._.'.'.'.'.'.",
"g.`._.'.'._.~.! Z r 4 O ` } @.*.,.<.<.c.2.c.c.2.2.2.2.2.c.c.c.c.2.2.2.2.c.c.c.c.c.c.c.c.c.<.<.>.*.@.} ` O 4 r Z ! ~._.'.'.'.'.'.",
"(.`._.'.'._.~.! Z r 4 O _ } +.#.-.>.,.,.,.,.,.,.,.,.,.,.,.,.,.,.,.,.,.,.,.,.,.,.,.,.,.,.,.,.>.*.#.+.} _ O 4 r Z ! ~._.'.'.'.'.'.",
"`._.'.'.'._.!.! Z r 4 O _ } O.@.#.&.*.*.*.*.*.*.*.*.*.*.*.*.*.*.*.*.*.*.*.*.*.*.*.*.*.*.*.*.&.#.@.O.} _ O 4 r Z ! ~.'.'.'.'.'.'.",
"_.'.'.'.'._.!.! Z r 4 O ] } o.+.+.+.@.@.@.@.@.@.@.@.@.@.@.@.@.@.@.@.@.@.@.@.@.@.@.@.@.@.@.@.+.+.+.o.} ] O 4 w Z I !._.'.'.'._._.",
"'.'.'.'.'._.!.I Z q 4 o # [ } o.o.o.O.O.O.O.O.O.O.O.O.O.O.O.O.O.O.O.O.O.O.O.O.O.O.O.O.O.O.O.o.o.o.} [ # o 4 q n K !.~._._._._._.",
"'.'.'.'.'._.!.! Z q 2 X O ] [ | } o.o.o.o.o.o.o.o.o.o.o.o.o.o.o.o.o.o.o.o.o.o.o.o.o.o.o.o.o.o.} | [ # + X 2 q n K ! !.!.!.!.!.~.",
"'.'.'.'.'._.!.! Z q 1 . X O # ] | } o.o.o.o.o.o.o.o.o.o.o.o.o.o.o.o.o.o.o.o.o.o.o.o.o.o.o.o.} | ] # O X . 1 5 u Z K ! ! ! ! Q.!.",
"'.'.'.'.'._.!.! Z e : * < 4 o # [ } o.o.o.o.o.o.o.o.o.o.o.o.o.o.o.o.o.o.o.o.o.o.o.o.o.o.o.o.} [ # o 4 < * = 5 t n Z K K K K ! W.",
"'.'.'.'.'._.~.! Z t 5 = & * 4 O ] [ { } } } } } } } } } } } } } } } } } } } } } } } } } } } [ ] O 4 * & & ; 6 t n Z A F F K K ! ",
"'.'.'.'.'._.~.! K n q ; % & . X O # ] ` ` ` _ _ _ _ _ _ _ _ _ _ _ _ _ _ _ _ ] ] [ [ [ [ [ ] # + X < & $ % : 6 t n Z Z Z A F K ! ",
"'.'.'.'.'.'._.Q.K Z u 6 ; = * . X o O + + O O O O O O O O O O O O O O O O O O O O O O @ + O O X 2 * & % ; , t c n Z Z Z Z K K ! ",
"'.'.'.'.'.'._.!.! K C u q 5 : 1 2 4 4 4 4 4 4 4 4 4 4 4 4 4 4 4 4 4 4 4 4 4 4 4 4 4 4 4 4 4 2 2 1 & ; : , t t c C Z Z Z Z A K ! ",
"_._.~._._._._.~.W.Q K Z n t t e q q r r r r r r r r r r e r r r e e r r r w q q q 8 3 3 3 3 : : : : 6 6 t t c n C Z Z Z Z Z Z K ",
"!.W.! !.~._._._.!.W.! K K Z Z Z C M Z Z Z Z Z Z Z Z Z N N N Z Z Z N Z Z Z Z n n t t 7 6 6 6 6 q q e t t c c n C Z Z Z Z C n C Z ",
"! K K ! !._._._._.!.!.Q.! ! ! ! ! ! ! ! ! ! ! ! ! ! ! ! ! ! ! ! ! ! ! ! ! ! K K Z n n n b n n n n n n n n C C Z Z Z Z C n t t u ",
"K n n A ! !._._._._._._.~.~.~.~.!.!.!.!.~.~.~.~.~.~.!.~.~.~.~.~.!.!.!.!.!.!.!.! K Z Z Z Z Z Z Z Z Z Z Z Z Z Z Z Z Z Z n t 6 5 : ",
"Z t t n K W.!._._._.'.'._._._._._._._._._._._._._._._._._._._._._._._._._.~.!.W.! K Z Z Z Z Z Z Z Z Z Z Z Z Z Z Z Z n u q : = & ",
"V e 6 t C K ! !._._.'.|.'.'.'.'.'.'.'.'.'.'.'.'.'.'.'.'.'.'.'.'.'.'.'._._.!.!.! Q K K Z Z F F F F F F F F Z Z Z C n u q : = &   ",
"Z q : 5 t n A ! !._.'.'.'.'.'.'.'.'.'.'.'.'.'.'.'.'.'.'.'.'.'.'.'.'.'._.!.W.! Q K K F F F F F F A F F F F Z Z C n t q 5 : = &   ",
"Z q : ; : q n F ! ~._.'.'._.'.'._._.'.'.'.'.'._._._.'.'.'.'._._._._._.!.W.! K K F D Z Z Z Z Z Z Z Z Z Z Z Z Z n t 6 : ; = & & & ",
"C q : & & : t Z P W.~._._.~.~.~.~.~.~.~.~.~.~.~.~.~.~.~.~.~.~.~.~.~.!.W.Q K Z Z Z Z Z Z Z Z Z Z Z Z Z Z Z Z C n t 6 ; ; ; ; ; ; ",
"n q , ; ; : t n D P W.W.W.W.W.W.W.W.W.W.! ! ! ! W.W.W.W.! ! ! W.W.W.! P F Z C n n C C C C C C C C C C C C n n u t 6 : : : : : : "
};
