/* XPM */
static char * XFACE[] = {
/* width height num_colors chars_per_pixel */
"16 16 6 1",
"a c #45465e"
"b c #313543"
"c c #575e6f"
"d c #757d90"
"e c #d78632"
"f c #f0a53b"
"aaaaaaaaaaaaaaaa",
"bbcccccdddddddbb",
"bccccccddddddddb",
"ccabbbbbbbbbbcdd",
"ccbbeeeeeeeebbdd",
"ccbeeffffffeebdd",
"dcbeffeeeeffebdd",
"ddbefeffffefebdd",
"ddbefeffffefebdd",
"ddbefeffffefebdd",
"ddbeffeeeeffebdd",
"ddbeeffffffeebdd",
"ddbbeeeeeeeebbcc",
"ddcbbbbbbbbbbacc",
"bdddddddddcccccb",
"bbdddddddcccccbb",
};