/* XPM */
static char * XFACE[] = {
/* width height num_colors chars_per_pixel */
"16 16 3 1",
"a c #2b506f"
"b c #25709d"
"c c #25859d"
"abbbbbbbbbbbbbbb",
"abbbbbbbbbccccbb",
"abbbbbbbbbbbbbbb",
"abbbbbbbbbbbbbbb",
"aaaaaaaaaaaaaaaa",
"abbbbbbbbbbbbbbb",
"abbbbbbbbbbbbbbb",
"abbbbbccbbbbbbbb",
"abbbcbbbbbbbbbbb",
"abccccbcccbbbbbb",
"abbbccccbbbbbbbb",
"abbbbbbbbbbbbbbb",
"abbbbbbbbbbbbbbb",
"abbbbbbbbbbbbbbb",
"abbbbbbbbbbcccbb",
"abbbbbbbcccccbbc",
};