/* XPM */
static char *tile_12[] = {
/* columns rows colors chars-per-pixel */
"64 64 94 2 ",
"   c #3A542F",
".  c #344C37",
"X  c #365031",
"o  c #3F5834",
"O  c #4C463C",
"+  c #51423B",
"@  c #435A3D",
"#  c #323546",
"$  c #3C3D45",
"%  c #36374C",
"&  c #393C4D",
"*  c #2D3F55",
"=  c #343E50",
"-  c #3A3C52",
";  c #433E44",
":  c #374A41",
">  c #3D4A46",
",  c #3E454C",
"<  c #3D4B4B",
"1  c #2A415A",
"2  c #354153",
"3  c #3C4252",
"4  c #324358",
"5  c #2B4661",
"6  c #2B4B67",
"7  c #2D4E6B",
"8  c #464146",
"9  c #404E46",
"0  c #43454E",
"q  c #414C4C",
"w  c #47534A",
"e  c #485A4B",
"r  c #414455",
"t  c #434956",
"y  c #494D56",
"u  c #45475B",
"i  c #474A5B",
"p  c #484C5C",
"a  c #485052",
"s  c #4B5957",
"d  c #465158",
"f  c #4D535C",
"g  c #4C5958",
"h  c #525F57",
"j  c #51555D",
"k  c #54595E",
"l  c #546841",
"z  c #54644B",
"x  c #4A4E63",
"c  c #4E5265",
"v  c #4E5860",
"b  c #4F5368",
"n  c #515665",
"m  c #545961",
"M  c #565C6E",
"N  c #595E6D",
"B  c #585F70",
"V  c #5D6267",
"C  c #5D616F",
"Z  c #5C6274",
"A  c #5F6778",
"S  c #61656D",
"D  c #616775",
"F  c #656A73",
"G  c #696D73",
"H  c #696F7B",
"J  c #6D7276",
"K  c #6B717D",
"L  c #71757A",
"P  c #686E82",
"I  c #6C7386",
"U  c #6E7589",
"Y  c #707684",
"T  c #757A84",
"R  c #787E87",
"E  c #70778A",
"W  c #787F8D",
"Q  c #7C8186",
"!  c #7D8490",
"~  c #81868B",
"^  c #868B8D",
"/  c #888E8F",
"(  c #818790",
")  c #868C96",
"_  c #898F95",
"`  c #878E98",
"'  c #8D9294",
"]  c #8E9498",
"[  c #909699",
"{  c #959B9C",
"}  c #989E9F",
"|  c #949BA0",
" . c #999FA1",
".. c #9BA1A4",
/* pixels */
"O $ $ 3 i c n n M n c d < : : < d c v g e @ o   X . : < d f f s e @ @ e s c n n n n n n n n m h z l l z h m n n n n n n n n c x ",
"O ; $ $ 3 t p p p p i t q < , , t t t t q q 9 > > > < q t t t t q 9 q q t t p p p p p p p p y a w w w w a y p p p p p p p p i i ",
"+ ; $ r y j m m m m m m k k j f p p p f f j k k k k k k m m j f f p y f f j m m m m m m m m j f f p p f f j m m m m m m m m n f ",
"+ ; 0 f V G J L L L L L L L J F C N N C F J K L L L L L L K J F S C C Z F J J L L L L L L J J F C N N C F J J L L L L L L J G S ",
"+ 8 y V L Q ^ / / / / / _ ) ^ Q T K K T Q ^ ^ ^ _ / / / / ^ ^ Q Y I I Y Q ~ ^ / / / / / / ^ ^ Q Y I K Y Q ~ ^ / / / / / / ^ Q L ",
"+ 8 j F Q ' { } } { { { { { [ _ Q E E Q _ { { } { { { { { { [ _ ! E E ! _ [ { { { { { { { { [ _ ! E E Q _ [ { { { { { } } { ' Q ",
"+ 8 j G ~ [  ..... . . . .{ { ' ! E Q ) ] | ...... . . . .{ { ' ! E W ( ] | ...... . . . .{ { ' ! E W ( ] | ...... . . . .{ ' Q ",
"+ 8 j F Q ' { | { [ ] ] ] ] _ ( E Y E Q ) ] | | { [ ] ] ] ] _ ( E Y E Q ) ] | { { [ ] ] ] ] _ ( E Y E Q ) ] | { { [ ] ] ] ' ^ T ",
"+ 8 p Z T ( ) ) ) ~ Q Q Q Q T Y H D D Y Q ) ` ) ) Q Q Q Q Q W Y H D D Y ! ) ` ) ) Q Q Q Q Q R Y H D D Y Q ) ` ) ) Q Q Q Q Q T G ",
"+ 8 y N K E Q W E I K K H D D Z B M B D Y W ! E T I K H K H D Z N M B D Y W ! E T I K H H H D Z N M B D Y W ! E T I K H H D F N ",
"+ 8 t M D I E U P D Z Z Z Z N M c c n Z P E E I D D Z Z Z Z N M c c n Z P E E U D D Z Z Z Z N M c c n Z P E E I H D Z Z Z Z M n ",
"+ 8 t M D I U I D Z M M M M M c x x b B P U U I D Z M M M M M c x x b B P U U I D Z M M M M M c x x n Z P U U I D Z M M M M M c ",
"+ 8 t M D I U I D Z B M M M M c x x n B P U U I D Z M M M M M c x x b B P U U I D Z B M M M n b x x b B P U U I D Z B M M M M M ",
"+ ; t M D I U I D Z Z M B M M b x x n B P U U I D Z B M M M M b x x n B P U U I D Z B M M M M b x x n B P U U I D Z Z M B M M M ",
"O ; t M D I U I D Z B B B M M n x x n Z P U E I D Z B M M M M b x x n Z P U E I D Z B B M M M n x x n Z P U E I D Z B M M M M M ",
"8 $ t M D I U I D Z B B B M M n x x n Z P U E I D Z B M M M M n x x n Z P U E I D Z Z B M M M n x x n B P U E I D Z B M M M M M ",
", $ t M D I U I D Z B M M M M n x x n B P U E I D Z Z B B M M n x x n Z P U E I D Z B M M M M n x x n Z P U E I D Z B M M M M M ",
"2 & i M D I U I D Z B M M M M n x x n B P U E I D Z B B B M M n x x n Z P U E I D Z B M M M M n x x n Z P U E I D Z B M M M M M ",
"* & i M D I U I D Z B B M M M n x x n B P U E I D Z B B M M M n x x n B P U E I D Z B M M M M n x x n Z P U E I D Z Z M M B M M ",
"* = i M D I U I D Z B M M M M n x x n B P U E I D Z B M M M M n x x n B P U E I D Z B B M M M n x x n Z P U E I D Z Z M M B M M ",
"* = t M D I E I D Z Z B B M M n x x n Z P U E I D Z B M M M M n x x n B P U E I D Z Z B B M M n x x n B P U E I D Z Z M M B M M ",
"* & t M D I E U D Z Z B M M M n x x n Z P U E I D Z B M M M M n x x n B P U E I D Z Z B B M M n x x n B P U E I D Z Z M M B M M ",
"* = i M D I U I D Z Z B M M M n x x n Z P U E I D Z B M M M M n x x n Z P U E I D Z Z B B M M n x x n Z P U E I D Z Z B M B B Z ",
"* = t M D I U I D Z Z B M M M n x x n Z P U E I D Z B M M M M n x x n Z P U E I D Z Z B M M M n x x n Z P U E I D Z Z B M M Z Z ",
"* = t M D I U I D Z B M M M M n x x n Z P U E I D Z Z B B B M n x x n Z P U E I D Z B M M M M n x x n Z P U E I D Z B M M B Z A ",
"* = t M D I U I D Z B M B M M n x x n Z P U E I D Z Z B B M M n x x n Z P U E I D Z B M M M M n x x n Z P U E I D Z B M M B Z D ",
"* = r M D I U I D Z Z B B M M n x x n Z P U E I D Z Z B M M M b x x n B P U E I D Z B B M M M n x x n Z P U E I D Z B M M Z Z D ",
"* & t M D I U I P Z Z B B M M n x x n Z P U E I D Z Z B M M M n x x n B P U E I D Z B M M M M n x x n Z P U E I P Z Z M M Z Z D ",
"* = t M D I U I D Z B B M M M n x x n B P U E I D Z B M M M M n x x n B P U E I D Z Z B M M M n x x n Z P U E I D Z B M M Z Z D ",
"* = t M D I U I D Z B B M M M n x x n B P U E I D Z B M M M M n x x n Z P U E I D Z Z B M M M n x x n Z P U E I D Z B M M B Z D ",
"* = t M D I U I D Z B M M M M n x x n Z P U E I D Z B M M M M n x x n Z P U E I D Z Z B M M M n x x n Z P U E I D Z Z M B Z Z D ",
"* = i M D I U I D Z B M M M M n x x n Z P U E I D Z B M M M M n x x n Z P U E I D Z Z B M M M n x x n Z P U E I D Z Z M B Z Z D ",
"* & t M D I U I D Z Z B B M M n x x n Z P U E I D Z B M M M M n x x n Z P U E I D Z Z B B M M n x x n Z P U E I D Z B M B Z Z D ",
"* = t M D I U I D Z Z B B M M n x x n Z P U E I D Z B M M M M n x x n Z P U E I D Z B B B M M n x x n Z P U E I D Z B M M Z Z D ",
"* = t M D I U I D Z Z B M M M b x x n B P U E I D Z B M M M M n x x n Z P U E I D Z B B M M M n x x n B P U E I D Z B M M Z Z D ",
"* = t M D I U I D Z Z B M M M n x x n B P U E I D Z B B M M M n x x n Z P U E I D Z B M M M M n x x n B P U E I D Z B M M Z Z D ",
"* = t M D I U I D Z B M M M M n x x n B P U E I D Z Z B B M M n x x n Z P U E I D Z B M M M M n x x n B P U E I D Z Z B B Z Z D ",
"* = t M D I U I D Z B M M M M n x x n B P U E I D Z Z B B M M n x x n Z P U E I D Z B M M M M n x x n B P U E I D Z Z B M Z Z D ",
"* = t M D I U I D Z B M M M M n x x n Z P U E I D Z Z B B M M n x x n Z P U E I D Z B M M M M n x x n Z P U E I D Z Z M M B Z D ",
"* = t M D I U I D Z B M M M M n x x n Z P U E I D Z Z B M M M n x x n B P U E I D Z B M M M M n x x n Z P U E I D Z Z M M B Z D ",
"* = i M D I E I D Z Z B B B M n x x n Z P U E I D Z B M M M M n x x n Z P U E I D Z Z B B B M n x x n Z P U E I D Z B M M B Z D ",
"* = i M D I E I D Z Z B B M M n x x n Z P U E I D Z B M M M M n x x n Z P U E I D Z Z B B M M n x x n Z P U E I D Z B M M B Z D ",
"* = i M D I E I D Z Z B M M M n x x n B P U E I D Z B B M M M n x x n Z P U E I D Z Z B M M M b x x n B P U E I D Z Z M B Z Z D ",
"* = i M D I U I D Z Z B M M M n x x n B P U E I D Z B M M M M n x x n Z P U E I D Z Z B M M M n x x n B P U E I D Z Z M B Z Z D ",
"* & t M D U E I D Z B M M M M n x x n B P U E I D Z Z B M M M n x x n B P U E I D Z B M M M M n x x n B P U E I D Z Z M B Z Z D ",
"* & t M D I E I D Z B M M M M n x x n Z P U E I D Z Z B M M M n x x n B P U E I D Z B M M M M n x x n Z P U E I D Z Z M B Z Z D ",
"* = t M D I U I D Z B M M M M n x x n Z P U E I D Z Z B M M M n x x n Z P U E I D Z B M M M M n x x n Z P U E I D Z Z B M Z Z D ",
"* = t M D I E I D Z B M M M M n x x n Z P U E I D Z Z B M M M n x x n Z P U E I D Z B M M M M n x x n Z P U E I D Z Z B M B Z D ",
"* = t M D I U I D Z B B B M M n x x n Z P U E I D Z B B B M M n x x n Z P U E I D Z B B B M M n x x n Z P U E I D Z B M M B Z D ",
"* = t M D I U I D Z B M B M M n x x n Z P U E I D Z B M B M M n x x n Z P U E I D Z B M B M M n x x n Z P U E I D Z B M M Z Z D ",
"* = t M D I U I D Z B M M M M b x x n B P U U I D Z B M M M M b x x n B P U U I D Z B M M M M b x x n B P U U I D Z B M M Z Z D ",
"* & t M D I U I D Z B M M M M b x x b B P U U I D Z B M M M M b x x b B P U U I D Z B M M M M b x x b B P U U I D Z B M M B Z D ",
"* = i M D I U I D Z M M M M M c x x b B P U U I D Z B M M M M c x x b B P U U I D Z B M M M M c x x b B P U U I D Z B M M M Z D ",
"* = i M D I E I P D Z Z Z Z N M c c n Z P E E I D D Z Z Z Z N M c c n Z P E E I D D Z Z Z Z N M c c n Z P E E I D D Z Z Z Z Z D ",
"* = i N K E Q W T I K H H H D Z B M B D I W ! E T I K H H H D Z B M B D Y W ! E T I K H H H D Z B M B D I W ! E T I K H H H K I ",
"* = p D T ( ` ) ) Q Q Q Q Q R Y H D D Y Q ) ` ) ) Q Q Q Q Q R Y H D D Y Q ) ` ) ) Q Q Q Q Q R Y H D D Y Q ) ` ) ) Q Q Q Q Q W T ",
"* 2 f F Q ' { { { [ ] ] ] ] _ ( W Y E Q ) ] { { { [ ] ] ] ] _ ( W Y E Q ) ] { { { [ ] ] ] ] _ ( W Y E Q ) ] { { { [ ] ] ] ' ) Q ",
"* 3 f G ~ [  ..... . . . . .{ ] ( E W ( ] | ...... . . . . .{ ] ( E W ( ] | ...... . . . . .{ ] ( E W ( ] | ...... . ... .{ ' ~ ",
"1 2 f G Q ' {  . . .}  . .| [ _ ! E E ! _ { {  . .} }  . .| [ _ ! E E ! _ { {  . .} }  . .| [ _ ! E E ! _ { {  . .} }  . .{ ' Q ",
"5 2 p S L ~ _ ' ' ' ' ' ' _ ) Q T I I T Q ) _ ' ' ' ' ' ' _ ) Q T I I T Q ) _ ' ' ' ' ' ' _ ) Q T I I T Q ) _ ' ' ' ' ' ' _ ~ L ",
"6 4 t n S K T T T T T T T T L H D Z C D H L T T T T T T T T L H D Z C D H L T T T T T T T T L H D Z C D H L T T T T T T T T K S ",
"7 4 3 t j N N C C C C C C N N n c p p f n N N C C C C C C N N n c p p f n N N C C C C C C N N n c p p f n N N C C C C N C N N n ",
"7 4 & $ r u i p p p p p p i u r - $ $ $ r u i p p p p p p i u r - $ $ $ r u i p p p p p p i u r - $ $ $ r u i p p p p p p i u r ",
"7 2 & # % % = - - - - - - - $ & % # # # & - - - - - - - - - $ & % # # # & - - - - - - - - - $ & % # # # & - - - - - - - - = = $ "
};
