/* XPM */
static char *tile_21[] = {
/* columns rows colors chars-per-pixel */
"64 64 140 2 ",
"   c None",
".  c #31171F",
"X  c #281727",
"o  c #2B1927",
"O  c #341D27",
"+  c #391E25",
"@  c #391F28",
"#  c #3E2227",
"$  c #35222D",
"%  c #3D2128",
"&  c #332432",
"*  c #3A2531",
"=  c #352B3B",
"-  c #3A2C3A",
";  c #431F22",
":  c #412427",
">  c #4B2324",
",  c #422429",
"<  c #49272A",
"1  c #4C292B",
"2  c #502525",
"3  c #5E2A25",
"4  c #552D2C",
"5  c #5A2E2B",
"6  c #5A312D",
"7  c #422731",
"8  c #492A32",
"9  c #542E33",
"0  c #543033",
"q  c #692F26",
"w  c #603427",
"e  c #6F3227",
"r  c #62352F",
"t  c #6D342C",
"y  c #68382F",
"u  c #723327",
"i  c #723429",
"p  c #733C2C",
"a  c #7C3B2D",
"s  c #653630",
"d  c #673830",
"f  c #6A3931",
"g  c #753C31",
"h  c #793E32",
"j  c #7B412A",
"k  c #7D4330",
"l  c #332E40",
"z  c #2D354A",
"x  c #3B3441",
"c  c #3B3946",
"v  c #34364C",
"b  c #3A374C",
"n  c #31384F",
"m  c #3A3E4C",
"M  c #2C3C50",
"N  c #303D55",
"B  c #2B4457",
"V  c #2B4C5E",
"C  c #2F4763",
"Z  c #2B4A68",
"A  c #2A5264",
"S  c #2A5668",
"D  c #2A5868",
"F  c #2D5476",
"G  c #843D2D",
"H  c #893E2B",
"J  c #823F31",
"K  c #824728",
"L  c #8A432E",
"P  c #8A4A2D",
"I  c #90442F",
"U  c #934D2D",
"Y  c #94512E",
"T  c #9E562A",
"R  c #844232",
"E  c #8A4332",
"W  c #8D4831",
"Q  c #934633",
"!  c #984731",
"~  c #924932",
"^  c #9A4831",
"/  c #9B4831",
"(  c #9A4832",
")  c #9B4932",
"_  c #9B4933",
"`  c #984A33",
"'  c #994A33",
"]  c #984831",
"[  c #9D4B33",
"{  c #9B4D32",
"}  c #9C4C31",
"|  c #9C4A33",
" . c #985030",
".. c #995130",
"X. c #9C5031",
"o. c #9D5031",
"O. c #A4532F",
"+. c #A0552F",
"@. c #A65B2D",
"#. c #AE5D2B",
"$. c #AE5E2B",
"%. c #AA592D",
"&. c #A85A2E",
"*. c #A95A2E",
"=. c #AF5B2F",
"-. c #A85C2D",
";. c #AB5D2D",
":. c #AF5E2D",
">. c #A95C2D",
",. c #B15F2D",
"<. c #B25F2D",
"1. c #B45E2E",
"2. c #A14D33",
"3. c #A14F32",
"4. c #A44F32",
"5. c #A44F33",
"6. c #A54D34",
"7. c #A75730",
"8. c #A55231",
"9. c #A95730",
"0. c #AA5631",
"q. c #A85432",
"w. c #AA5333",
"e. c #AE5930",
"r. c #B15A30",
"t. c #B0602A",
"y. c #B1602A",
"u. c #B1612A",
"i. c #B2612A",
"p. c #B2622A",
"a. c #B3622B",
"s. c #B4632B",
"d. c #B6642B",
"f. c #B3602D",
"g. c #B4622C",
"h. c #B4622B",
"j. c #B8642B",
"k. c #BA632D",
"l. c #BF682B",
"z. c #C0682B",
/* pixels */
"      Z Z Z Z Z Z Z Z Z Z Z Z Z Z Z Z Z Z Z Z Z Z Z Z Z Z Z Z Z S S S D D S D D D D S D S S A V B M z z z z z z z n N C F       ",
"        n v v v v b b b b b b b b b b b b b b b b b b b b b b b b b b b b b B B B B b b b b b c x - - - - - - - = = l v         ",
"        & & * 7 8 9 9 9 9 9 9 9 9 9 9 9 9 9 9 9 9 9 9 9 9 9 9 9 9 0 9 9 0 0 0 0 0 0 0 0 9 9 9 9 9 2 2 2 2 2 2 < , % $ &         ",
"        . + ; 2 3 q e u u u u u u u u u u u u u u u u u u u u u u u u u u u u u u u u u u u u u u u u u u t t 5 2 : + O         ",
"        . + > 3 u a H H H H H H H H H H H H H H H H H H H H H H H H H H H H H H H H H H H H H H H H H H H H a u 5 > + .         ",
"        o + 2 t a I ! { { ! ! ! ! ! ! ! ! ! ! ! ! ! ! ! ! ! ! ! ! ! ! ! ! ! ! ! ! ! ! ! ! ! ! ! ! ! ! { { { Q a t 2 + o         ",
"        o # 2 p L { 6.6.6.{ { { { { { { { { { { { { { { { { { { { { { { { { { { { { { { { { { { { { { 6.6.7.{ L p 2 # o         ",
"        o # 5 a U +.9.9.6.{ Q Q Q Q Q Q Q Q Q Q Q Q Q Q Q Q Q Q Q Q Q Q Q Q Q Q Q Q Q Q Q Q Q Q Q Q { 6.9.9.7.U a 5 # o         ",
"        o : 6 j U $.$.9...W R R R R R R R R R R R R R R R R R R R R R R R R R R R R R R R R R R R E ~ ..9.$.$.U j 6 # o         ",
"        o : 6 K T $.<.$...R h g g h h h h h h h h h h h h h h h h h h h h h h h h h h h h h h g g h R ..$.<.$.T j 6 : o         ",
"        o : w K T g.g.$.T E h g g h h h h h h h h h h h h h h h h h h h h h h h h h h h h h g g f g R Y $.g.t.T K w : X         ",
"        X : w K T g.g.$.+.~ R J R R R R R R R R R R R R R R R R R R R R R R R R R R R R R R h h g g k Y -.g.g.T K w : X         ",
"        X : w K T g.k.g.7.{ Q Q Q Q Q Q Q Q Q Q Q Q Q Q Q Q Q Q Q Q Q Q Q Q Q Q Q Q Q Q Q Q E J h g k Y $.g.g.T K w : X         ",
"        X : w K T g.k.g.e.7.{ { { { { { { { { { { { { { { { { { { { { { { { { { { { { { { { Q E h h k Y $.g.g.T K w : X         ",
"        X : w K T g.k.k.r.9.6.6.6.6.6.6.6.6.6.6.6.6.6.6.6.6.6.6.6.6.6.6.6.6.6.6.6.6.6.6.6.6.{ Q R h R Y $.g.g.T K w : X         ",
"        X : w K T g.k.k.r.9.6.6.6.6.6.6.6.6.6.6.6.6.6.6.6.6.6.6.6.6.6.6.6.6.6.6.6.6.6.6.6.6.{ Q R h R Y $.g.g.T K w : X         ",
"        X : w K T g.k.k.r.9.6.6.6.6.6.6.6.6.6.6.6.6.6.6.6.6.6.6.6.6.6.6.6.6.6.6.6.6.6.6.6.6.{ Q R h k Y -.g.g.T K w : X         ",
"        X : w K T g.k.k.r.9.6.6.6.6.6.6.6.6.6.6.6.6.6.6.6.6.6.6.6.6.6.6.6.6.6.6.6.6.6.6.6.6.{ Q R h k Y $.g.g.T K w : X         ",
"        X : w K T g.k.k.r.9.6.6.6.6.6.6.6.6.6.6.6.6.6.6.6.6.6.6.6.6.6.6.6.6.6.6.6.6.6.6.6.6.{ Q R h k Y -.g.g.T K w : X         ",
"        X : w K T g.k.k.r.9.6.6.6.6.6.6.6.6.6.6.6.6.6.6.6.6.6.6.6.6.6.6.6.6.6.6.6.6.6.6.6.6.{ Q R h k Y $.g.g.T K w : X         ",
"        X : w K T g.k.k.r.9.6.6.6.6.6.6.6.6.6.6.6.6.6.6.6.6.6.6.6.6.6.6.6.6.6.6.6.6.6.6.6.6.{ Q R h R Y $.g.g.T K w : X         ",
"        X : w K T g.k.k.r.9.6.6.6.6.6.6.6.6.6.6.6.6.6.6.6.6.6.6.6.6.6.6.6.6.6.6.6.6.6.6.6.6.{ Q R h R Y $.g.g.T K w : X         ",
"        X : w K T g.k.k.r.9.6.6.6.6.6.6.6.6.6.6.6.6.6.6.6.6.6.6.6.6.6.6.6.6.6.6.6.6.6.6.6.6.{ Q R h R Y $.g.g.T K w : X         ",
"        X : w K T g.k.k.r.9.6.6.6.6.6.6.6.6.6.6.6.6.6.6.6.6.6.6.6.6.6.6.6.6.6.6.6.6.6.6.6.6.{ Q J h k Y -.g.g.T K w : X         ",
"        X : w K T g.k.k.r.9.6.6.6.6.6.6.6.6.6.6.6.6.6.6.6.6.6.6.6.6.6.6.6.6.6.6.6.6.6.6.6.6.{ Q J h k Y -.g.g.T K w : X         ",
"        X : w K T g.k.k.<.9.6.6.6.6.6.6.6.6.6.6.6.6.6.6.6.6.6.6.6.6.6.6.6.6.6.6.6.6.6.6.6.6.{ Q R k R Y $.g.g.T K w : X         ",
"        X : w K T g.k.k.r.9.9.9.9.9.9.9.9.9.9.9.9.9.9.9.9.9.9.9.9.9.9.9.9.9.9.9.9.9.9.9.9.9.7.{ W W P T $.g.g.T K w : X         ",
"        X : w K T g.k.k.k.<.r.r.r.r.r.r.r.r.r.r.r.r.r.r.r.r.r.r.r.r.r.r.r.r.r.r.r.r.r.r.r.r.e.7.T T T $.g.k.g.T K w : X         ",
"        X : w K T g.l.l.k.k.k.k.k.k.k.k.k.k.k.k.g.g.k.k.k.k.k.k.k.k.k.k.g.g.k.k.k.k.k.k.k.k.g.<.$.$.$.g.k.k.g.T K w : X         ",
"        o : 6 K T g.k.l.k.k.k.k.k.k.k.k.k.k.k.k.k.k.k.k.k.k.k.k.k.k.k.k.k.k.k.k.k.k.k.k.k.k.k.g.g.g.g.k.k.k.g.T K 6 : o         ",
"        o : 6 j Y $.g.g.g.g.g.g.g.g.g.g.g.g.g.g.g.g.g.g.g.g.g.g.g.g.g.g.g.g.g.g.g.g.g.g.g.g.g.g.g.g.g.g.g.g.$.Y j 6 : o         ",
"        o # 2 p P T -.$.$.-.$.$.$.$.$.$.$.$.$.-.-.-.$.$.$.$.$.$.$.$.$.-.-.-.$.$.$.$.$.$.$.$.$.$.-.$.$.$.$.-.T P p 2 # o         ",
"        o # 1 w j P U Y Y Y Y Y Y Y Y Y Y Y Y Y Y Y Y Y Y Y Y Y Y Y Y Y Y Y Y Y Y Y Y Y Y Y Y Y Y Y Y Y Y Y P j w 1 # o         ",
"        O + , 6 y p k k k k k k k k k k k k k k k k k k k k k k k k k k k k k k k k k k k k k k k k k k k k p y 6 , @ @         ",
"        O + , 2 6 w f f f f y y y y y y f y y y y y f f y y y y y y y y y y y y f y y y y y f f f f f f f f w 6 2 , @ O         ",
"        O O , 1 5 s s s 6 6 5 2 2 2 2 2 6 2 2 2 2 2 2 6 2 2 2 2 6 2 2 2 2 2 2 2 6 2 2 2 2 2 2 6 2 5 6 6 s s s 5 1 , O O         ",
"        O O , 1 6 w s 6 2 2 1 1 < 1 1 1 1 1 1 1 1 1 1 1 1 1 1 1 1 1 1 1 1 1 1 1 1 1 1 1 1 1 1 1 1 1 2 2 6 s s 6 1 , O O         ",
"        O O , 1 6 w s 6 2 < , % , , , , , , , , , , , , , , , , , , , , , , , , , , , , , , , , % , < 2 6 s s 6 1 , O O         ",
"        O O , 1 6 s s 6 2 , % % % , , , , , , , , , , , , , , , , , , , , , , , , , , , , , , % % % , 2 6 w s 6 1 , O O         ",
"        O O , 1 6 s s 6 1 , % % , 1 1 1 1 1 1 1 1 1 1 1 1 1 1 1 1 1 1 1 1 1 1 1 1 1 1 1 1 1 1 , % % , 1 6 w s 6 1 , O O         ",
"        O O , 1 6 w s 6 1 , % , 1 2 6 6 6 6 6 6 6 6 6 6 6 6 6 6 6 6 6 6 6 6 6 6 6 6 6 6 6 6 2 1 , % , 1 6 w s 6 1 , O O         ",
"        O O , 1 6 s w 6 1 , , 1 2 6 w s s s s s s s s s s s s s s s s s s s s s s s s s s w 6 2 1 , , 1 6 w s 6 1 , O O         ",
"        O O , 1 6 s s 6 1 , , 1 6 w d f f f f f f f f f f f f f f f f f f f f f f f f f f d w 6 1 , , 1 6 w w 6 1 , O O         ",
"        O O , 1 6 s s 6 1 , , 1 6 s f f f f f f f f f f f f f f f f f f f f f f f f f f f f s 6 1 , , 1 6 w w 6 1 , O O         ",
"        O O , 1 6 s w 6 1 , , 1 6 s f f f f f f f f f f f f f f f f f f f f f f f f f f f f s 6 1 , , 1 6 w w 6 1 , O O         ",
"        O O , 1 6 s w 6 1 , , 1 6 s f f f f f f f f f f f f f f f f f f f f f f f f f f f f s 6 1 , , 1 6 w w 6 1 , O O         ",
"        @ @ , 1 6 s w 6 1 , , 2 w g g g g g g g g g g g g g g g g g g g g g g g g g g g g g f w 2 , , 1 6 s w 6 1 , O O         ",
"        @ @ , 1 6 s w 6 1 , < 5 t h R R R R R R R R R R R R R R R R R R R R R R R R R R R R h t 5 < , 1 6 s w 6 1 , O O         ",
"        O O , 1 6 w w 6 1 , 1 w h E Q Q Q Q Q Q Q Q Q Q Q Q Q Q Q Q Q Q Q Q Q Q Q Q Q Q Q Q E a w < , 1 6 w s 6 1 , O O         ",
"        O O , 1 6 w w 6 1 < 2 t J Q { { { { { { { { { { { { { { { { { { { { { { { { { { { { Q H t 2 < 1 6 s s 6 1 , O O         ",
"        O O , 1 6 w s 6 2 1 5 t J Q { { { { { { { { { { { { { { { { { { { { { { { { { { { { Q J t 5 1 2 6 w s 6 1 , O O         ",
"        O O , 1 6 s s s 6 2 6 t J E Q Q Q Q Q Q Q Q Q Q Q Q Q Q Q Q Q Q Q Q Q Q Q Q Q Q Q Q E h t 6 2 6 s s s 6 1 , O O         ",
"        O O , 1 6 s s s w w w y h R R R R R R R R R R R R R R R R R R R R R R R R R R R R R R h f s w s s s s 6 1 , O O         ",
"        O O , 1 6 s s s s s s f f g g g g g g g g g g g g g g g g g g g g g g g g g g g g g g f f s s s s s w 6 1 , O O         ",
"        O O % 1 2 6 s s w s w w w s s s s s s s s s s s s s s s s s s s s s s s s s s s s s s w w w s s s s 6 2 1 % O O         ",
"        O O % , 1 2 6 6 6 6 6 6 6 6 6 6 6 6 6 6 6 6 6 6 6 6 6 6 6 6 6 6 6 6 6 6 6 6 6 6 6 6 6 6 6 6 6 6 6 6 2 1 , % O O         ",
"        O O @ % , 1 1 1 1 1 1 1 1 1 1 1 1 1 1 1 1 1 1 1 1 1 1 1 1 1 1 1 1 1 1 1 1 1 1 1 1 1 1 1 1 1 1 1 1 1 1 , % @ O O         ",
"        O O O @ % % , , , , , , , , , , , , , , , , , , , , , , , , , , , , , , , , , , , , , , , , , , , , % % @ O O O         ",
"        O O O O O O O O O O O O O O O O O O O O O O O O O O O O O O O O O O O O O O O O O O O O O @ @ @ O O O O O O O O         ",
"          O O O O O O O O O O O O @ O O O O O O O O O O O O O O O O O O O O O O O O O O O O O O O @ @ @ O O O O O O O           ",
"                                                                                                                                ",
"                                                                                                                                ",
"                                                                                                                                ",
"                                                                                                                                "
};
