/* XPM */
static char *tile_19[] = {
/* columns rows colors chars-per-pixel */
"64 64 48 1 ",
"  c #373A4B",
". c #393D4D",
"X c #3C3F52",
"o c #3C404F",
"O c #3E4253",
"+ c #414656",
"@ c #434857",
"# c #43465A",
"$ c #45495B",
"% c #494E5E",
"& c #4A505F",
"* c #474A60",
"= c #4E5265",
"- c #4F5368",
"; c #505566",
": c #525867",
"> c #515569",
", c #555B6C",
"< c #575C70",
"1 c #585F70",
"2 c #5B5F74",
"3 c #5C6075",
"4 c #5F6579",
"5 c #636673",
"6 c #61677B",
"7 c #62687C",
"8 c #686D7F",
"9 c #6C707D",
"0 c #666C80",
"q c #686F81",
"w c #687082",
"e c #697083",
"r c #6E7689",
"t c #6F778A",
"y c #757780",
"u c #747884",
"i c #70778A",
"p c #70788A",
"a c #7A7F8C",
"s c #767E91",
"d c #7F8492",
"f c #83868D",
"g c #818694",
"h c #848894",
"j c #8C8F96",
"k c #92959C",
"l c #9497A1",
"z c #9498A0",
/* pixels */
"OOXXXX#*>,2222222222222222222222322,>=************===**$#OXXXXXX",
"######***->>>>>>>>>>>>>>>>>>>>>>>>>==*******************$#######",
"*$$**=->>>>>>>>>>>>>>>>>>>>>>>>>>>>>>>>>>>>>>>>>>>>>>>>---------",
"=**=>22333222222222222222222222222232333333333323333222233333333",
">**>370000000000770000777000777777700000qq00000000000000000q0000",
"2>>26eerrrrrrrrrrrrriirrriiirrrrrrrrrrrrrrrrrrrriiiriirrrrrrrrrr",
"3<<37errrrrrrrppppppssspsssspppppppppprrrrrrrrppppppppppppiipppp",
"74470eeeeqqqeeepppsssssssssssssssssppreeeqqqeeeppsssssppreeeeeee",
"000077774334670eppssssssssssssssssppee774334670eppsssspree777777",
"qeee743<,>>,<370eppssssssssssssspppe7732,>>,<360eppssspr07333333",
"7ee743,>====>,37erppspsssssssspppre763,>====>,37erppsspre7333333",
"36332,>======>,37qerppsssssssppre763,,>======>,37qerppppe07333,,",
",,,;=====--===>,367erppssssssppe7,,======--===>,377erppppee733,,",
"=$$$$$*=->>==**>,37eeppsssssspr73=$#$$*=->>==**>,37qepspppre7333",
"&@OOO#$*====*$*=,37eeppsssssspr7,%+OO#$*====*$%=,37qeppssppe0733",
";%@OOOO#$%%$##$=,47eipssssssspr72=+OXXO#$%%$#+$=,47erpsssspre077",
"2;%$OX.OO++OXO$;37epppssssssspr03,%+OX..OOOO.O#=37erppssssspreee",
"3,=%@O.....  .$,3erppppssssssppe73>%$O...oo..O$,6eppppsssssppppp",
"73,=%$@OOo...O$,7erppppppssssppe063,=$@++@@++$=37rpssssssssspppp",
"62,>;,;=%$+++@&,37eeeeerpsssssppeq733,,,,,,::,37eppsssssssssssss",
"3,>,3333,==%&==,3777770eppsssssppree77777777777eipssssssssssssss",
"2>>27ee732,,,,,,33333370eppssspppppprrrreeeerrippsssssssssssssss",
"<>>27ere7633333333332337erpppppppppppppppppppppppsssssssssssssss",
"<=>20rppe077777633,,,,347eeeeeeeeeepppssssssssssssssssssssssssss",
"<->20rpppeeeeee733,,,,336777777777qerpssssssssssssssssssssssssss",
"2>>30rppppppppre733,,,2333333333337eeppsssssssssssssppspppspsppp",
"7224qipsspspsppe773332,,,,,,,333337eeppsssssssssssppppppirripppp",
"p877epssssssssppee7733,,,,,,,,33370epppsssssssssssppreeeq00qeeee",
"hpeeipsssssssspppee763,,-===,,337eerppsssssssssssspie07633336777",
"kdprppssssssssppppe073,>=**=>,37erppppsssssssssspppe0632,>>,2333",
"lgprrpppppsssspppee733,>=*==>,370eppppsssssssssppre743,>====>,,,",
"zdieeeerppsssspre7732,>======>,37qerppsssssssspre763,,>-=====>>>",
"kae7770erpsssspe73,;====->>===>,377erppssssssppe7,,======--====*",
"ju73347eeppsssr73=$#$$*=>>>==*=>,37qeppsssssspr73=$#$$*=->>==***",
"f93,337eeppsspr7,%+OO#$*====%$%=,37qepssssssspr7,%+OO#$*====*$##",
"y5,,377erpssspr73=@OXXO+$%%$++$=,37erppsssssspr72=@OXXO#$%%$#OXX",
"5,,<40erppsssppe3:%+OX.OOOOO.X#=37erppssssssssre3:%+OX.OOOOOX.. ",
";=>27eppppsssppe73:%$O...oo..O$,7eppppsssssssspe73,%$O...oo.....",
"$*>20rpssssssspr063,=$@++@@++$=27rpssssssssssppr063,=$$@+@@@@+++",
"**-20rpsssssssppe0733,,,,,,::,37eppsssssssssssppe0733,,,,,,,::,,",
"=*>20rssssssssppreeq77777777777erpsssssssssssssppeee777777777777",
",->20rsssssssspppppirreerreeeerppsssspppppppssppppprreeerrreeeee",
"3>>30ppsssssssssppppspppppppppppsssppppppppppppppppppppppppppppp",
"3,<4qppssssssssssssssssssssssssssspppeeeeeeeeeeeeeeeeerppsssssss",
"6326eppssssssssssssssssssssssssssspre07777777777777777eeppssssss",
"7337eippssssppppsssssssssssssssssppe07333333333333333370eppsssss",
"63360eipprpippppppsssssssssssssssppe733,,,,,,33333332337erppssss",
"3,<370eeq0qqeeerppsssssssssssssssspe73,,>>,,,,,2,,,,,,347eepppss",
",>>,36764333670erpsssssssssssssssspe73,,===>,,,,,,,,,,33470erpps",
">==>,232,>>,<360eppssssssssssssssppe73,>=**=>,,,,,<23333337eepps",
"=*$*=,,>====>,37qeppppsssssssspppre733,>=**=>,,,,,333333347eepps",
"=$#$*========>,370erppsssssssppre773,,>=====->>,,,334777770erpss",
";$OO#*===>-===>,360erppssssssppe72,=====->>-===>,,347eeeeeerppss",
">$OX+$*=>>>==**;,37eeppsssssspr73=$#$$*=>>>==**=,,37eepppppppppp",
",$OXO#$*====*$$=,37erppsssssspr7,%+O+#$*====*$$=,370eppssspppppp",
",%+OOOO#$%%$#+$=,30eppssssssspr72=+OXXO#$%%$#+$=,47eppssssspieee",
",=%$OX.XOOOO.X#=37erppssssssssr03,%+OX.XOOOO.X#=37eppssssspre077",
",,;=$O...oo..O$,6eppsssssssssspe73;%$O...oo. O$,7eppsssssppee743",
"332,=$$@@@@++$=37rpssssssssssspr753,=$$+@@@++$=37rpssssssppee743",
"77733,,,,,,,,,37epsssssssssssspre7733,,,,,,,,,37epsssssssspie077",
"eeee77777777777erpsssssssssssspppeee07777777777erpssssssssppreee",
"prrrreeeeeeeerrrppssssppppppsspppprrrreeeeeeerrrppssssppssppprrr",
"rrrrrrrrrrrrrrrrrrrrrrrrrrrrrrrrrrrrrrrrrrrrrrrrrrrrrrrrrrrrrrrr",
"reee0eeeeeeeee0eee0000000000eeeeeeee0eeeeeeeee0e0e000000eee000ee"
};
