/* XPM */
static char *tile_13[] = {
/* columns rows colors chars-per-pixel */
"64 64 160 2 ",
"   c #2E313F",
".  c #3B333E",
"X  c #44333C",
"o  c #4B3339",
"O  c #553335",
"+  c #523439",
"@  c #583438",
"#  c #66352E",
"$  c #6A352C",
"%  c #75362A",
"&  c #7B372A",
"*  c #633531",
"=  c #6A3535",
"-  c #6B383B",
";  c #333544",
":  c #3C3641",
">  c #343847",
",  c #3C3845",
"<  c #343749",
"1  c #363949",
"2  c #393D4D",
"3  c #3D3F53",
"4  c #403742",
"5  c #413944",
"6  c #4B3A44",
"7  c #403E4C",
"8  c #513740",
"9  c #533A43",
"0  c #553D4A",
"q  c #6E3C43",
"w  c #3C404F",
"e  c #3E4254",
"r  c #3F4857",
"t  c #43414F",
"y  c #56404A",
"u  c #434655",
"i  c #484755",
"p  c #42445A",
"a  c #484558",
"s  c #454B5B",
"d  c #494D5D",
"f  c #5A4253",
"g  c #5C4957",
"h  c #4E525D",
"j  c #52565F",
"k  c #6F4145",
"l  c #71424D",
"z  c #72484E",
"x  c #614E5E",
"c  c #764C55",
"v  c #60505C",
"b  c #7F5055",
"n  c #76535D",
"m  c #7A545B",
"M  c #474A60",
"N  c #4A4E63",
"B  c #475161",
"V  c #4C5264",
"C  c #4F5469",
"Z  c #505666",
"A  c #565A65",
"S  c #545B6C",
"D  c #5A5D6D",
"F  c #565F70",
"G  c #655664",
"H  c #675A67",
"J  c #6D5864",
"K  c #635B69",
"L  c #6B5C69",
"P  c #745660",
"I  c #7D5B64",
"U  c #5F6269",
"Y  c #5B6274",
"T  c #5E6678",
"R  c #61656D",
"E  c #616675",
"W  c #686C72",
"Q  c #606779",
"!  c #626A7C",
"~  c #696D7C",
"^  c #716574",
"/  c #766C7B",
"(  c #6D727C",
")  c #9D3B1F",
"_  c #A43E1E",
"`  c #A93E19",
"'  c #813727",
"]  c #863827",
"[  c #8E3824",
"{  c #82362C",
"}  c #86382A",
"|  c #963A25",
" . c #9B3B21",
".. c #973C29",
"X. c #9B3E2B",
"o. c #833933",
"O. c #843D3A",
"+. c #983F30",
"@. c #A33E21",
"#. c #AD4015",
"$. c #A7401F",
"%. c #B44516",
"&. c #B6481F",
"*. c #BA4A1E",
"=. c #9F412D",
"-. c #86423F",
";. c #974236",
":. c #9A4233",
">. c #9A463B",
",. c #9B483D",
"<. c #A74021",
"1. c #A74328",
"2. c #A84429",
"3. c #BE4D20",
"4. c #C14E1D",
"5. c #C4501F",
"6. c #C8521F",
"7. c #C14E20",
"8. c #C55120",
"9. c #CA5421",
"0. c #D15721",
"q. c #D15821",
"w. c #864040",
"e. c #884544",
"r. c #8D4946",
"t. c #894A4B",
"y. c #904843",
"u. c #9C4C43",
"i. c #974F4B",
"p. c #844E51",
"a. c #8A4F50",
"s. c #8E5253",
"d. c #8F5558",
"f. c #955555",
"g. c #915A5D",
"h. c #915C60",
"j. c #8E6167",
"k. c #82626D",
"l. c #856773",
"z. c #866A75",
"x. c #876C77",
"c. c #656D81",
"v. c #686F81",
"b. c #6C7486",
"n. c #6F7689",
"m. c #707486",
"M. c #7B7484",
"N. c #7A7D86",
"B. c #707689",
"V. c #70778A",
"C. c #7B7788",
"Z. c #797A8C",
"A. c #767E91",
"S. c #797F91",
"D. c #817381",
"F. c #7E818C",
"G. c #7D8291",
"H. c #82858D",
"J. c #808695",
"K. c #8A8E99",
/* pixels */
"s p e 3 3 e p N Z S F F F F F F F F F F F F F F F F F F F F F F F F F S Z V N N N N N N N N N N N N N N N N N d p p e e e e 3 e ",
"p p p p p p p s N V C Z Z Z Z Z Z Z Z Z Z Z Z Z Z Z Z Z Z Z Z Z Z Z Z C N N N N N N N N N N N N N N N N N N N N p p p p p p p p ",
"d p p p p p p p M N N N N N N N N N N V C Z Z Z Z Z Z Z Z Z Z Z Z Z Z Z Z Z C C C C C C C C C Z Z Z Z Z Z C V N s p p p p p p p ",
"A d p 3 3 e p p s N N N N N N N N N C Z S F F F F F Y Y Y F F F Y Y Y Y F F F Y Y Y Y Y Y Y Y Y F F F F F F F Z N p e 3 3 e e e ",
"R h e 1 1 2 e p N V C Z Z Z C C C C S F T ! c.c.c.c.c.c.c.c.c.c.c.c.c.c.c.c.c.c.c.c.c.c.c.c.c.c.c.c.c.c.c.! Q F V p 3 2 2 2 2 2 ",
"W h 2 ; ; 1 e s V Z S S S S S S S D F E ~ b.m.B.B.B.m.m.B.B.B.B.m.m.m.m.m.m.m.m.B.B.m.m.m.m.B.B.B.n.n.B.B.n.v.Y S s 2 1 1 1 1 1 ",
"W h 2 ; ; 2 e s V S S S S S D D K K L ^ / M.M.M.M.M.M.M.M.M.M.M.M.M.M.M.M.M.M.M.M.M.M.M.M.M.M.C.B.B.B.A.A.B.n.! F V p w 1 > ; ; ",
"R d 2 > 2 p s V Z S S F F S D K J P I I k.l.z.z.z.z.z.z.z.z.z.z.z.z.z.z.z.z.z.z.z.z.z.z.z.z.z.D.Z.Z.A.A.A.A.B.b.! D Z s e 1 ;   ",
"A u 2 2 p d V Z S S S F F D K J m p.a.s.d.g.g.h.h.h.h.h.h.h.h.h.g.h.h.h.h.h.h.h.h.h.g.g.g.h.j.z.D.Z.A.A.G.A.B.n.b.! Y S s 2 ;   ",
"h p w e s V S S S S S S D D H n p.y.;.>.,.u.u.u.u.u.u.u.u.u.u.u.u.u.u.u.u.u.u.u.u.u.u.u.u.i.f.j.z.M.Z.A.A.A.A.B.B.b.c.Y Z p 1 ; ",
"d p p s V S S S S D D D K H P b r.;.X.@.<.1.2.2.2.2.2.2.2.2.2.2.2.2.2.1.2.2.2.2.2.2.1.<.@.:.u.g.j.z.M.Z.Z.B.A.A.A.B.b.! D V u e ",
"V s s V Z S S F Y D D K J n b t.;.X._ ` #.%.%.%.%.%.%.%.%.%.%.%.%.%.%.%.%.%.%.%.%.%.%.#.` @.:.i.g.j.z.D.C.Z.A.A.A.A.B.b.! F S V ",
"V V V Z S S S F F D K J m p.r.;.:. ._ #.%.*.*.4.4.4.4.4.4.4.4.4.4.4.4.4.4.4.4.4.4.*.*.%.#._ =.>.i.g.j.z.D.Z.B.A.A.A.B.n.b.! E Y ",
"S S S S S S S F S D K n p.y.;.X. .@.<.%.*.5.6.6.6.6.6.6.6.6.6.6.6.6.6.6.6.6.6.6.6.6.5.*.%.#.@.=.:.u.f.j.z.M.B.A.A.A.B.B.B.n.b.! ",
"S S S S F S S S S D G n t.;.X._ _ <.#.*.7.9.9.9.9.9.9.6.9.9.9.9.9.9.9.9.9.9.9.9.9.9.9.7.*.#.#._ @.=.u.g.l.M.B.B.B.B.A.A.A.B.B.b.",
"S S S S F D S S S Z G c e.:.@.` #.%.*.7.6.9.9.9.8.8.7.*.3.7.7.7.4.4.4.3.3.7.8.5.9.9.9.9.7.*.%.#.` @.>.s.k./ b.n.B.B.A.A.A.A.B.b.",
"F F F F S S S S C Z x c e.+.@.#.%.3.7.9.9.9.9.8.7.3.3.3.3.3.3.3.3.3.3.3.3.3.*.3.8.9.9.9.9.7.*.%.#.@.>.s.I ^ ~ b.B.B.A.A.A.A.B.b.",
"F F F F S S S C C N g l w.+.<.%.*.8.9.9.9.9.9.7.3.3.#.#.<.<.<.<.<.<.<.<.<.<.%.3.7.9.9.9.9.9.5.*.%.<.:.t.m L Q c.n.B.A.A.A.B.B.b.",
"F F S F S S S C N d f l O.X.<.%.4.9.9.9.9.9.8.3.3.%.#.#.#.<.<.<.#.<.#.#.<.#.#.&.3.8.9.9.9.9.9.4.%.<.:.e.c G Y ! b.B.B.A.A.B.B.b.",
"F S S S S S S V M a f q O.X.<.%.4.9.9.9.8.7.3.3.3.&.%.%.%.3.3.3.%.%.%.%.3.3.%.&.3.3.7.8.9.9.9.4.%.<.:.-.z v S Y v.B.B.A.A.B.B.b.",
"D S S S S S S V s p 0 q o...<.&.4.9.9.8.7.3.3.3.3.3.3.3.3.3.3.3.7.7.7.3.3.3.3.3.*.&.3.3.8.9.9.4.%.<.X.O.k g Z Y ! n.B.A.A.A.B.b.",
"F F F F F S S V s t 9 - o...<.&.4.9.9.8.*.%.<.3.3.8.9.9.9.8.9.9.9.9.9.9.9.9.8.3.3.%.3.3.7.8.8.4.&.<...o.- y d S ! n.B.A.A.B.B.b.",
"Y Y Y Y Y S S V r 7 9 = { | <.&.4.9.9.7.&.#.#.3.7.9.9.9.9.9.9.9.9.9.9.9.9.9.9.3.3.#.#.3.3.8.8.*.&.<.| { = 9 i S ! n.B.A.A.B.B.b.",
"Q ! ! Q Y F S B e 7 8 = { | <.&.4.9.9.3.%.#.#.3.3.9.9.q.q.0.9.9.0.0.0.q.q.9.9.7.3.<.#.%.3.8.8.7.&.<.| { = 9 p S ! b.B.A.A.A.B.n.",
"! v.c.! Q Y S B e 7 8 = { | <.&.3.8.8.3.3.<.<.3.7.9.9.q.q.0.0.0.0.0.0.q.q.9.9.7.3.<.#.%.3.9.8.4.&.<.| { = 9 p S ! n.B.A.A.A.B.B.",
"b.b.b.b.! Y S V r 7 9 = { | <.&.3.8.8.3.3.<.<.3.3.9.9.0.0.0.0.0.0.0.0.0.0.9.9.3.3.<.#.%.3.9.9.4.&.<.| { = 9 i S ! b.B.A.A.A.B.A.",
"b.n.B.b.c.Q F V s 7 9 = { | <.&.7.9.8.3.3.#.<.3.3.9.9.0.0.0.0.0.0.0.0.0.0.9.9.3.3.<.#.%.7.9.9.4.&.<.| { = 9 i S ! b.B.A.A.A.A.A.",
"b.B.B.B.b.! Y S s t 9 = { | <.&.7.9.8.3.%.#.<.3.3.9.9.q.q.0.0.0.0.0.0.q.q.9.9.3.3.<.#.%.3.9.9.4.&.<.| { = 9 i S ! b.B.A.A.A.A.A.",
"b.B.B.B.B.b.! Y V p 9 = { | <.&.4.9.9.3.%.#.#.3.3.9.0.q.q.0.0.0.0.0.0.q.q.9.9.3.3.<.<.3.3.9.9.4.&.<.| { = 9 i Z ! b.B.A.A.A.A.A.",
"b.B.B.A.B.B.b.Y V p 9 = { | <.&.4.9.9.7.&.#.<.3.3.9.9.9.9.9.9.9.9.9.9.9.9.9.9.3.3.<.<.3.7.9.9.4.&.<.| { = 9 i Z ! b.B.A.A.A.A.A.",
"b.B.B.A.A.B.b.T S i 9 = { | <.&.4.9.9.8.*.%.%.&.3.8.9.9.9.9.9.9.9.9.9.9.9.9.8.3.%.#.%.&.8.9.9.4.&.<.| { = 9 i S ! b.B.A.A.A.A.A.",
"b.B.B.A.A.B.n.! S i 9 = { | <.&.4.9.9.8.7.3.&.*.3.3.7.7.7.3.3.3.3.3.3.3.3.3.3.3.&.&.3.3.8.9.9.4.&.<.| { = 9 i S ! b.B.A.A.A.A.A.",
"b.B.A.A.A.B.n.! S i 9 = { | <.&.7.9.9.9.8.7.3.3.*.&.%.%.3.3.3.3.3.3.3.3.%.3.3.3.3.3.7.8.9.9.9.7.&.<.| { = 9 i S ! b.B.A.A.A.A.A.",
"b.B.A.A.A.B.b.! S i 9 = { | <.%.3.8.9.9.9.9.8.3.*.%.#.#.<.<.<.<.<.<.<.<.#.#.<.3.3.8.9.9.9.9.9.7.%.<.| { = 9 i S ! b.B.A.A.A.A.A.",
"b.B.B.A.A.B.b.! S i 9 = { | @.%.3.8.9.9.9.9.9.7.3.3.#.<.#.#.#.#.<.#.#.#.#.#.%.3.7.9.9.9.9.9.8.*.%.@.| { = 9 i S ! b.B.A.A.A.A.A.",
"b.B.B.A.A.B.b.! S i 9 = { | @.#.%.3.7.9.9.9.9.8.3.3.3.3.%.%.%.%.3.%.%.%.%.&.*.7.8.9.9.9.9.7.*.%.#.@.| { = 9 i S ! b.B.A.A.A.A.A.",
"b.B.B.A.A.B.n.! S i 9 = { | @.#.#.3.3.7.8.9.9.9.8.8.7.3.3.7.7.7.3.3.7.3.3.7.8.8.9.9.9.9.7.*.%.#.#.@.| { = 9 i S ! b.B.A.A.A.A.A.",
"b.B.B.A.A.B.n.! S i 9 = { |  ._ _ #.<.3.7.9.9.9.9.9.8.8.9.9.9.9.8.8.9.9.9.9.9.9.9.9.9.7.*.#.#._ _  .| { = 9 i S ! n.B.A.A.A.A.A.",
"b.B.A.A.A.B.n.! S p 9 * & [  . .) _ #.%.3.7.9.9.9.8.8.8.9.9.9.9.8.8.8.9.9.9.9.9.9.8.8.3.3.<._ ) )  .[ & * 9 p S ! b.B.A.A.A.A.A.",
"b.B.B.A.A.B.n.! S p 6 * % } | | ) ) _ #.%.*.7.7.7.7.7.3.7.7.7.7.7.7.7.7.7.7.7.7.7.3.3.3.#._  . .| | } % * 6 p S ! b.B.A.A.A.A.A.",
"b.B.A.A.A.B.b.! S p 6 @ = & ] [ | ) _ #.#.%.3.3.3.3.3.3.&.&.&.&.3.3.3.3.&.&.&.&.&.%.3.#.#._ ) | [ ] & = @ 6 p S ! b.B.A.A.A.A.A.",
"b.B.A.A.A.B.b.! S p 5 + * $ & ] |  .) _ _ _ <.<.<.<.<.<.#.#.#.#.<.<.<.<.#.#.#.#.#.$.@.@.@. . .| ] & $ * + 5 p S ! b.B.A.A.A.A.A.",
"b.B.B.A.A.B.b.! S p 5 o @ # % ' [ |  . . . . . . . . . . . . . . . . . . . . . . . . . . .| | [ ' % # @ o 5 p S ! b.B.A.A.A.A.A.",
"b.B.B.A.A.B.b.! S p 5 o O # $ & ' [ [ [ [ [ [ [ [ [ [ [ [ [ [ [ [ [ [ [ [ [ [ [ [ [ [ [ [ [ [ ' & $ # O o 5 p S ! n.B.A.A.A.A.A.",
"b.B.B.A.A.B.b.! S p 5 o O * $ % & & ' ' ' ' ' ' & & & & ' ' ' ' & & & & ' ' ' ' ' ' ' ' ' ' & & % $ # O o 5 p S ! n.B.A.A.A.A.A.",
"b.B.B.A.A.B.b.! S p 5 o O * $ $ % % % % % % % % % % % % % % % % % % % % % % % % % % % % % % % % $ $ * O o 5 p S ! b.B.A.A.B.B.B.",
"b.B.B.A.A.B.b.! S p , X O @ * # $ $ $ $ $ $ $ $ $ $ $ $ $ $ $ $ $ $ $ $ $ $ $ $ $ $ $ $ $ $ $ $ # # @ O X , p Z Y b.n.B.B.B.B.B.",
"b.B.B.A.A.B.b.! A p , X o O @ * * # $ $ $ $ $ $ $ $ $ $ $ $ $ $ $ $ $ $ $ $ $ $ $ $ $ $ $ $ # * * @ O o X , p V Y ! b.b.b.b.b.B.",
"b.B.B.A.A.B.b.! S p , . X o + @ * # $ $ $ $ $ $ $ $ $ $ $ $ $ $ $ $ $ $ $ $ $ $ $ $ $ $ $ $ # * @ + o X . : w d S Y ! ! ! ! v.b.",
"b.B.B.A.A.B.b.! S u 2 ; . . X + @ * # $ $ $ $ $ $ $ $ $ $ $ # # $ $ $ $ $ $ $ $ $ $ $ $ $ # * @ + X : : ; > w s Z F Y Y Y Y ! v.",
"b.B.A.A.A.A.n.! S s w > ; ; . o O @ * * # * # # # # # # # * * * * * * * * * # # * * * * # * @ + o : ; ; ; 1 e s V S S F F Y Y ! ",
"b.B.A.G.A.A.B.! Y V p 2 > ; . X o O @ @ @ @ @ @ @ @ @ @ @ @ @ @ @ @ @ @ @ @ @ @ @ @ @ @ @ @ O o X : ; ; 1 2 e s V S S S S F Y ! ",
"b.B.A.A.A.B.B.v.Y S d p 2 > ; . X X o o o o o o o o o o o o o o o o o o o o o o o o o o o o o X . ; ; 1 2 3 p N V S S S S F Y ! ",
"b.B.B.A.A.A.B.b.! Y Z d p w 2 , , , 5 5 5 5 5 5 5 5 5 5 5 5 5 5 5 5 5 5 5 5 5 5 5 4 5 5 4 : : : : ; 1 2 3 p s N Z S S S S S Y ! ",
"b.b.n.B.B.B.B.b.! Q Y S V s u p p p p p p p p p p p p p p p u p p p p p p p p p w 2 2 2 2 2 2 2 2 2 e e p s N V S S S S S S S Y ",
"b.~ ! b.n.B.B.B.b.c.! Y U S S S A S S S S S S S S S S S S S S S S S S S S S Z V d s s p p u u u u u s s N N V Z S S S S Z V Z S ",
"( E Y ! b.B.B.B.B.b.b.v.! ! ! ! ! ! ! ! ! ! ! ! ! ! ! ! ! ! ! ! ! ! ! ! ! ! Y Y S V V V V V V V V V V V V Z Z S S S S Z V s s d ",
"( D Z S ! b.B.B.B.B.B.B.B.n.n.b.b.b.b.b.n.n.n.n.n.n.b.b.n.n.n.n.b.b.b.b.b.b.b.! Y S S S S S S S S S S S S S S S S S S V s e w 2 ",
"W j s V Y c.b.B.B.B.B.B.A.A.B.B.B.B.B.B.B.B.B.B.B.B.B.B.B.B.B.A.B.B.B.B.B.n.b.c.Q Y S S S S S S S S S S S S S S S S V d p 2 > ; ",
"U i e s Z Y ! b.n.B.A.A.A.A.A.A.A.A.A.A.A.A.A.A.A.A.A.A.A.A.G.A.A.A.B.B.B.b.b.! Y Y S S S D F F F F F F F S S S Z V d p w > ;   ",
"j p 2 w s V D ! b.B.B.A.A.A.A.A.A.A.A.A.A.A.A.A.A.A.A.A.A.A.A.A.A.A.A.B.b.b.! T Y F S S S S F F F F F F F S S Z V s p w 1 ; ;   ",
"u 2 1 1 2 p V Y b.B.A.G.A.A.B.B.B.B.A.A.A.A.B.B.B.B.A.A.B.A.B.B.B.B.B.b.! ! Y Y Y Y Y Y Y D S S S S S S F S S V s e 2 1 > ; ; ; ",
"3 2 1 ; < w d Y m.G.J.G.S.B.B.n.n.B.B.B.n.n.n.n.n.B.B.B.n.n.n.n.n.n.b.c.Q Y Y E ~ ( ( ~ E F S S S S S S S S Z V s e 1 1 1 1 1 1 ",
"2 2 2 1 < 3 Z ~ F.K.K.K.G.m.c.! ! c.c.! ! ! ! ! c.c.c.c.! ! ! c.c.c.! Y F S Y ~ N.H.H.N.~ Y Z V V C Z Z Z V V N p 3 2 1 1 2 2 2 "
};
