/* XPM */
static char *tile_24[] = {
/* columns rows colors chars-per-pixel */
"64 64 21 1 ",
"  c #264F6F",
". c #284F6E",
"X c #2A506F",
"o c #2B5170",
"O c #2A5678",
"+ c #2A597C",
"@ c #305270",
"# c #325472",
"$ c #3E5975",
"% c #415B76",
"& c #465E79",
"* c #55677F",
"= c #295E83",
"- c #27668E",
"; c #28658D",
": c #266B96",
"> c #266C98",
", c #25709D",
"< c #25799D",
"1 c #5A6A82",
"2 c #25839D",
/* pixels */
"1***************************************************************",
"&%$$$$$$$$$$$$$$$$$$$$$$$$$$$$$$$$$$$$$$$$$$$$$$$$$$$$$$$$$$$$$$",
"####oo#########oXX#######ooXXX#########ooo#########oXX#######ooX",
" ...............................................................",
" ............... ...........  ......................  ..........",
"oXXooooooooooooooooooooooooooooooooooooooooooooooooooooooooooooo",
"ooooooOOOOOOOOOOoOOOOOOOOOOOOOoOOOOOOOOOOOoOOOOOOOOOOOOOOOOOOOOO",
"oooo+===========================================================",
"ooo+=;----------------------------------------------------------",
"Xoo=;:::::::::>>::::>>>:::::>>>>>>>>::::::::>>>:::::::>>>:>>::>:",
"XoO=;:>,,>>>>>>>>>>>,,>>>>>>>>>>,,>>>>>>>>>>,,>>>>>>>>,>>>>>>>,,",
"XoO=->,,,,,,,,,,,,,,,,,,,,,,,,,,,,,,,,,,,,,,,,,,,,,,,,,,,,,,,,,,",
"XoO=->,,,,,,,,,,,,,,,,,,,,,,,,,,,,,,,,,,,,,,,,,,,,,,,,,,,,,,,,,,",
"XoO=;:>,,>>>>>,,,,>>>>>>>>>>>>,,>>>>>>>>,,>>>>>>>>,,>>>>>>,,>>>>",
"Xoo=;::::>>>:::>:>>>>>>>::::>>>>>>>>:::::>>>::::>>>>:::::>>>::::",
"Xoo+=;;---------------------------------------------------------",
"oooo++==========================================================",
"ooooooOOOOOOOOOOOOOOOOOOOOOOOOOOOOOOOOOOOOOOOOOOOOOOOOOOOOOOOOOO",
"oooooOOOOOOOOOOOOOOOO+OOOOOOOOOOOOO+OOOOOOOOO+OOOOOOOOOOOOOOOOOO",
"oooo++==========================================================",
"ooo+=;;---------------------------------------------------------",
"ooo=;:::::::::>>::::>>::>>>:::::>>>>::::::::>>::::::>>>>::::::>>",
"XoO=;:>,,>>>>>>>>>>>>>>>>,>>>>>>>>>>>>>>>>>>>>>>>>>>,,>>>>>>>>>>",
"XoO=-:,,,,,,,,,,,,,,,,,,,,,,,,,,,,,,,,,,,,,,,,,,,,,,,,,,,,,,,,,,",
"XoO=-:,,,,,,,,,,,,,,,,,,,,,,,,,,,,,,,,,,,,,,,,,,,,,,,,,,,,,,,,,,",
"XoO=-:>,,,,,,,,,,,,,,,,,,,,,,,,,,,,,,,,,,,,,,,,,,,,,,,,,,,,,,,,,",
"XoO=-:>,,,,,,,,,,,,,,,,,,,,,,,,,,,,,,,,,,,,,,,,,,,,,,,,,,,,,,,,,",
"XoO=-:>,,,,,,,,,,,,,,,,,,,<<<<<,,,,,,,,,,,,,,,,,,,,,,,,,,,,,,,,,",
"XoO=-:>,,,,,,,,,,,,>,,,,<<<<<<<<,,,,,,,,,,,,,,,,,,,,,,,,,,,,,,,,",
"XoO=-:>,,,,,,,,,,,,,,,,<<<22222<,,,,,,,,,,,,,,,,,,,,,,,,,,,,,,,,",
"XoO=-:>,,,,,,,,,,,,,,,,<<222222<,,,,,,,,,,,,,,,,,,,,,,,,,,,,,,,,",
"XoO=-:>,,,,,,,,,,,,,,,,,<<<<<<<<,,,>>,,,,,,,,,,,,,,,,,,,,,,,,,,,",
"XoO=-:,,,,,,,,,,<<<<,,,,,<<<<<<,,,,,,,,,,,,,,,,,,,,,,,,,,,,,,,,,",
"XoO=-:,,,,,,,,,<<<<<<,,,,,,,,,,,,,,,,,,,,,,,,,,,,,,,,,,,,,,,,,,,",
"XoO=-:,,,,,,,,<<<222<<,,,,,,,,,,,,,,,,,,,,,,,,,,,,,,,,,,,,,,,,,,",
"XoO=-:,,,<<<<<<<2222<<<,,,,,,<<<<<<<<<,,,,,,,,,,,,,,,,,,,,,,,,,,",
"XoO=-:,,<<<<<<2222222<<<,,,,<<<<<<<<<<<<,,,,,,,,,,,,,,,,,,,,,,,,",
"XoO=-:,,<<2222222222222<<,,<<2222222222<,,,,,,,,,,,,,,,,,,,,,,,,",
"XoO=-:,,<22222222222222<<<<<<2222222222<,,,,,,,,,,,,,,,,,,,,,,,,",
"XoO=-:,,<<<<<<2222222222<<<<222222<<<<<<,,,,,,,,,,,,,,,,,,,,,,,,",
"XoO=->,,,<<<<<<<2222222222222222<<<<<<,,,,,,,,,,,,,,,,,,,,,,,,,,",
"XoO=->,,,,,,,,<<<222222222222222<<,,,,,,,,,,,,,,,,,,,,,,,,,,,,,,",
"XoO=->>,,,,,,,,<<2222222222222<<<,,,,,,,,,,,,,,,,,,,,,,,,,,,,,,,",
"XoO=->>,,,,,,,,,<<<<<<<<<<<<<<<<,,,,>,,,,,,,,,,,,,,,,,,,,,,,,,,,",
"XoO=-:>,,,,>,,,,,<<<<<<<<<<<<<,,,,,,>,,,,,,,,,,,,,,,,,,,,,,,,,,,",
"XoO=-:>,,,,,,,,,,,,,,,,,,,,,,,,,,,,,,,,,,,,,,,,,,,,,,,,,,,,,,,,,",
"XoO=-:>,,,,,,,,,,,,,,,,,,,,,,,,,,,,,,,,,,,,,,,,,,,,,,,,,,,,,,,,,",
"XoO=-:>,,,,,,,,,,,,,,,,,,,,,,,,,,,,,,,,,,,,,,,,,,,,,,,,,,,,,,,,,",
"XoO=-:>,,,,,,,,,,,,,,,,,,,,,,,,,,,,,,,,,,,,,,,,,,,,,,,,,,,,,,,,,",
"XoO=-:>,,,,,,,,,,,,,,,,,,,,,,,,,,,,,,,,,,,,,,,,,,,,,,,,,,,,,,,,,",
"XoO=-:>,,,,,,,,,,,,,,,,,,,,,,,,,,,,,,,,,,,,,,,,,,,,,,,,,,,,,,,,,",
"XoO=-:>,,,,,,,,,,,,,,,,,,,,,,,,,,,,,,,,,,,,,,,,,,,,,,,,,,,,,,,,,",
"XoO=->>,,,,,,,,,,,,,,,,,,,,,,,,,,,,,,,,,,,,,,,,,,,,,,,,,,,,,,,,,",
"XoO=->>,,,,,,,,,,,,,,,,,,,,,,,,,,,,,,,,,,,,,,,,,,,,,,,,,,,,,,,,,",
"XoO=-:>,,,,,,,,,,,,,,,,,,,,,,,,,,,,,,,,,,,,,,,,,,,,,,,,,,,,,,,,,",
"XoO=-:>,,,,,,,,,,,,,,,,,,,,,,,,,,,,,,,,>>,,,,<<<<<<<<<,,,,,,,,,,",
"XoO=->>,,,,,,,,,,,,,,,,,,,,,,,,,,,,,,,,,,,,,<<<<<<<<<<<<,,,,,,,,",
"XoO=->,,,,,,,,,,,,,,,,,,,,,,,,,,,,,,,,,,,,,<<2222222222<<,,,,,,,",
".oO=->>,,,,,,,,,,,,,,,,,,,,,,,,,,,,,,,,,,,,<<222222222<<<,,,,,,,",
".oO=-:>,,,,,,,,,,,,,,,,,,,,,,,,,,,<<<<<<<<<<2222222222<<,,,,,<<<",
".oO=;:>,,,,,,,,,,,,,,,,,,,,,,,,,<<<<<<<<<<2222222222<<<,,,,,<<<<",
".oO=;:>,,,,,,,,,,,,,,,,,,,,,,,,,<<222222222222222222<<,,,,,<<222",
".oO=-:>,,,,,,,,,,,,,,,,,,,,,,,,<<222222222222222222<<,,,,,,<<222",
".oO=-:>,,,,,,,,,,,,,,,,,,,,,,,,<<222222222222222222<<,,,,,,<<222"
};
