/* XPM */
static char *tile_09[] = {
/* columns rows colors chars-per-pixel */
"64 64 90 1 ",
"  c #2D313F",
". c #5E443E",
"X c #744F3D",
"o c #75503E",
"O c #263346",
"+ c #2A3549",
"@ c #323644",
"# c #343847",
"$ c #3E3B45",
"% c #35374B",
"& c #353A4A",
"* c #3A3D4D",
"= c #3B3D54",
"- c #453B42",
"; c #493E43",
": c #403E48",
"> c #3C404E",
", c #3D4455",
"< c #3D4558",
"1 c #3F495A",
"2 c #4C4046",
"3 c #45424C",
"4 c #49444E",
"5 c #5B4543",
"6 c #414755",
"7 c #4B4752",
"8 c #4D4A55",
"9 c #424459",
"0 c #484759",
"q c #484E5E",
"w c #5C5557",
"e c #515B57",
"r c #664A43",
"t c #684C45",
"y c #5E724D",
"u c #686C4F",
"i c #74654F",
"p c #60704F",
"a c #454E61",
"s c #4B4E62",
"d c #465061",
"f c #4C5364",
"g c #4E5769",
"h c #4E5869",
"j c #515667",
"k c #505569",
"l c #545B6C",
"z c #595F6F",
"x c #585F70",
"c c #556072",
"v c #5D6576",
"b c #5E6379",
"n c #5E687B",
"m c #606677",
"M c #62677D",
"N c #636A7B",
"B c #82573E",
"V c #85583D",
"C c #8E5C3B",
"Z c #905E3C",
"A c #9C653C",
"S c #AF6E36",
"D c #A46939",
"F c #AE6F38",
"G c #B16F36",
"H c #B06F39",
"J c #B17037",
"K c #BA7537",
"L c #C37B36",
"P c #C97E35",
"I c #CF8134",
"U c #D48533",
"Y c #D88733",
"T c #DB8B34",
"R c #DF9035",
"E c #E29435",
"W c #E69837",
"Q c #E89B37",
"! c #E99D38",
"~ c #EDA13A",
"^ c #F0A53B",
"/ c #666D80",
"( c #686F81",
") c #6B7284",
"_ c #6F768A",
"` c #70778A",
"' c #70788B",
"] c #737B8E",
"[ c #757D90",
"{ c #767F92",
/* pixels */
"iupyyyyyyyyyyyyyyyyyyyyyyyyyyyyyyyyyyyyyyyyyyyyyyyyyyyyyyyyyyyyy",
"weeeeeeeeeeeeeeeeeeeeeeeeeeeeeeeeeeeeeeeeeeeeeeeeeeeeeeeeeeeeeee",
"00000000qqssssssssssssssssfffjjjjjkkkkkkjkkkkkjjkjkkjkjfq0000000",
"======<9asssssssssssssssssgklxxxxxxxxxxxxxxxxxxxxxxxxxxks9======",
"&&&&%==9afgkkkkkkkkkkkkggklxbM///////////////////////NMxs9=%%&**",
"&&&%&&,0fkllllllllllllllllxb/)_`_________`_________`__(vk0*&%&&@",
"@@@#&*,0flllllllllllxxlllxvN)]][]]]]][]][[[[]]]]]]][[]_Nxf6>&#@@",
" @@&>60fjllxxxxzxxxxxxxllvvN)][[[[[[[[[[[[[[[[[[[[[[[[])Nzj0,&@ ",
" @#>6qfjlllxxxxxxxxxxxxllvvN)][[[[[[[[[[[[[[[[[[[[[[[[]`)Nvl0*@ ",
"@#*6qfllllllllllllllllllllvN)`]]]]]]]]]]]]]]]]]]]]]]]]]]])/vj6*@",
"*>,0fllllllllllllllllllllllvN))__))))_))))_)))))____`]]]]])Nzf06",
"q00fjllllkkfffffdddddddaadfhcvbnnnnnnnnnnnnnnnnnNNNN())]]]])Nvll",
"ljfjllllkfss0066,,,,,,,,,<10dfghhgggggggghhhgghhlllvvNN)]]]_)NNN",
"vllllllkfs09,,**33333333333478888888888888888888660flvM/)]]]]__)",
"Nvlllllks09=&&$;5rrttrrrrrrttttttttttttttttttrr52:>,0kvN)]][[]]]",
"Nvvllllfs9=&+@-5oVCCCCCCCCCCCCCCCCCCCCCCCCCCCCBX.-#&,0lv(`][[[[[",
"Nvvllllf0,&+O@5oZDFJJHFFFFSSSSSSSSSSSSSSSSGGGSDCX5@+&,fvN_][[[[[",
"Nvxllllf0,&@@;rCDKLPPPPPPPPPPPPPPPPPPPPPPPPPPLKDCr;@#>0lN_][[[[[",
"Nvxllllf6*$-5rBAJLUUTTTTTTTTTTTTTTTTTTTTTTTTUUPJABr5-:6lN)][[[[[",
"Nvxllllf6*;5oCAHLIYTTEEEEEEEEEEEEEEEEEEEEEETTYILHACX.26lN)][[[[[",
"Nvxlllld,35oZDJLPUTTEWQ!!!!!!!!!!!!!!!!!!QWETTUPLJDCX58hn)][[[[[",
"Nvvxllld,3rVDKPIUUTEW!~~~~~~~~~~~~~~~~~~~~!WETUUILKDVr8hn)][[[[[",
"/Nvvvlld,3rCFLUYTTRE!~~~~~~!!~~~~~~!!~~~~~~!ERTTYULSCr8hn)][[[[[",
")/Nbvxla,3tCJPUTTEEQ!~~~!!QQQQQQQQQQQQ!!~~~!QEETTUPGCt8hn)][[[[[",
"_))Nbvla,3tCJPTTEW!~~~~!QEEEEEEEEEEEEEEQ~~~~!!WETTPGCt8gn)][[[[[",
"]]_)Nvld,3rCHPTEW!~~~~~!ERTTTTTTTTTTTTRE!~~~~~!WETPGCt8gn)][[[[[",
"[]])/Mlf13rCSPTEQ~~~~~!QERTTTTTTTTTTTTREQ!~~~~~QETPSCt8gn)][[[[[",
"[[]])Nvh04tCSPTE!~~~!!QEEEEEEEEEEEEEEEEEEQ!!~~~!ETPSCt8gn)][[[[[",
"[[]]`)Nxd7tCSPTE!~~!QEEEEWQQQQQQQQQQQQWEEEEQ!~~!ETPSCt8gn)][[[[[",
"[[[]]])vf8tCSPTE!~~!ERREW!~~~~~~~~~~~~!WERRE!~~!ETPSCt8gn)][[[[[",
"[[[[[])bg8tCSPTE!~~QETTEQ~~^^~~~~~~^^~~QETTEQ~~!ETPSCt8gn)][[[[[",
"[[[[[]_nh8tCSPTE!~!QETTEQ~^^^^^^^^^^^^~QETTEQ!~!ETPSCt8gn)][[[[[",
"[[[[[]_nh8tCSPTE!~!QETTEQ~^^^^^^^^^^^^~QETTEQ!~!ETPSCt8gn)][[[[[",
"[[[[[])nh8tCSPTE!~~QETTEQ~~^^^^^^^^^^~~QETTEQ~~!ETPSCt8gn)][[[[[",
"[[[[[])ng8tCSPTE!~~QETTEQ~~^^^^^^^^^^~~QETTEQ~~!ETPSCt8gn)][[[[[",
"[[[[[])nh8tCSPTE!~!QETTEQ~^^^^^^^^^^^^~QETTEQ!~!ETPSCt8gn)][[[[[",
"[[[[[])ng8tCSPTE!~!QETTEQ~^^^^^^^^^^^^~QETTEQ!~!ETPSCt8gn)][[[[[",
"[[[[[])ng8tCSPTE!~~QETTEQ~~^^~~~~~~^^~~QETTEQ~~!ETPSCt8gn)][[[[[",
"[[[[[])ng8tCSPTE!~~!ERREW!~~~~~~~~~~~~!WERRE!~~!ETPSCt8gn)][[[[[",
"[[[[[])ng8tCSPTE!~~!QEEEEWQQQQQQQQQQQQWEEEEQ!~~!ETPSCt8gn)][[[[[",
"[[[[[])ng8tCSPTE!~~~!!QEEEEEEEEEEEEEEEEEEQ!!~~~!ETPSCt8gn)][[[[[",
"[[[[[])ng8tCSPTEQ~~~~~!QERTTTTTTTTTTTTREQ!~~~~~QETPSCt8gn)][[[[[",
"[[[[[])ng8tCGPTEW!~~~~~!ERTTTTTTTTTTTTRE!~~~~~!WETPGCt8gn)][[[[[",
"[[[[[])ng8tCGPTTEW!!~~~!QEEEEEEEEEEEEEEQ!~~~!!WETTPGCt8hn_][[[[[",
"[[[[[])ng8tCGPUTTEEQ!~~~!!QQQQQQQQQQQQ!!~~~!QEETTUPGCt8hn_][[[[[",
"[[[[[])ng8rCSLUYTTRE!~~~~~~!!~~~~~~!!~~~~~~!ERTTYULSCr8gb)][[]]]",
"]][[[])nh8rBDKPIUUTEW!~~~~~~~~~~~~~~~~~~~~!WETUUIPKDVr8fv)]]]]]]",
"]][[[])nh85XCDJLPUTTEWQ!!!!!!!!!!!!!!!!!!QWETTUPLJDCo56fcN))))))",
"_][[[])Nl62.XCAFLIYTTEEEEEEEEEEEEEEEEEEEEEETTYILHACX.230lvNNNNNN",
")]][[])Nl6:-5rBAJLUUTTTTTTTTTTTTTTTTTTTTTTTTUUPJABr5-$>0flvvvvvv",
")]][[]_Nl0>#@;rCDKLPPPPPPPPPPPPPPPPPPPPPPPPPPLKDCr;@@&,0fllvvxvx",
")][[[]_Nvf,&+@5XCDSGGGSSSSSSSSSSSSSSSSSSSSHJJFDZo5@O+&,0flllllll",
")][[[]`(vl0,&#-.XBCCCCCCCCCCCCCCCCCCCCCCCCCCCCVo5-@+&=9sflllllll",
")_][[]])Nvj0,>:25rrttttttttttttttttttttttrrttrr5;$&&=90sklllllll",
"N)_]]]])/Mvlf06688888888888888888888888774333333**,,90sfllllllll",
"vmN)_]]])/Nvvlllhhggggggggggggghgghhhgff01<,,,,,6600ssfklllljfff",
"flvN)]]]]))(NNNNnnnnnnnnnnnnnnnnnnnnnnvclfdaadddfffffkklllljf066",
",6fzN)]]]]]`____))))))__)))))))_)))))))Nvllllllllllllllllllf0,**",
"@&6jv/)]]]]]]]]]]]]]]]]]]]]]]]][]]]]]_)/Nvllllllllllllllllfq6*#@",
" @*0lvN)`][[[[[[[[[[[[[[[[[[[[[[[[[]]))NMvcllxxxxxxxxllljfq6>#@+",
" @&,0jzN)][[[[[[[[[[[[[[[[[[[[[[[[]])/NMvvxxxxxxxxxxxlljf06>&@@+",
"@@#&>6fxN_][[]]]]]]]]]][]]]]]][[]]])/Nvvxxlllllllllllllf0,*&#@@@",
"#&&&&*0lv(_``_____________________)/Mvllllllllllllllllkf0,&&&&&&",
"*****=9fxMN/////////////////NNN//NNvxlkffkkkkkkkkkkkkffq9,******"
};
