/* XPM */
static char * XFACE[] = {
/* width height num_colors chars_per_pixel */
"16 16 3 1",
"a c #3a6426"
"b c #5b851e"
"c c #7b9d25"
"aaaaaaaaaaaaabaa",
"abbbbbbbbbbcbbaa",
"abbbbbbbbcbcabba",
"abbbbcbbbbbbaaaa",
"abbbbcbbbbbbbaaa",
"abbcbccbcbbbbaaa",
"abbcaccccbbbbaaa",
"abbbbbbbbbbbaaaa",
"abbbbbbbbbbbbaaa",
"abbbabbbbbbbbaaa",
"abbbabbbbbbbcaaa",
"ababaababbcbcaaa",
"abbbbbbbbbcbcaba",
"abbbbbbbcbcccbbb",
"abbbbbbbbbbbbaaa",
"abbababbbbbbbaaa",
};