/* XPM */
static char *tile_23[] = {
/* columns rows colors chars-per-pixel */
"64 64 129 2 ",
"   c None",
".  c #292C3C",
"X  c #2D313E",
"o  c #30323F",
"O  c #2E3241",
"+  c #323543",
"@  c #353947",
"#  c #363A49",
"$  c #3A3E4C",
"%  c #3B404E",
"&  c #3F4453",
"*  c #414756",
"=  c #434857",
"-  c #454A59",
";  c #484E5E",
":  c #4D515D",
">  c #52565E",
",  c #54585F",
"<  c #494F60",
"1  c #4B5161",
"2  c #505767",
"3  c #525867",
"4  c #515768",
"5  c #545A6B",
"6  c #595F6D",
"7  c #575E70",
"8  c #585F70",
"9  c #5F646F",
"0  c #5D6475",
"q  c #61656C",
"w  c #606777",
"e  c #656A74",
"r  c #696D73",
"t  c #606778",
"y  c #636A7C",
"u  c #686E7A",
"i  c #6D7276",
"p  c #6D727A",
"a  c #707578",
"s  c #747A7F",
"d  c #666E80",
"f  c #686F80",
"g  c #627086",
"h  c #6B7385",
"j  c #6F778A",
"k  c #707785",
"l  c #737983",
"z  c #70778B",
"x  c #727A8D",
"c  c #757D90",
"v  c #7D838A",
"b  c #7E8594",
"n  c #81878E",
"m  c #868C8E",
"M  c #888D8E",
"N  c #888D8F",
"B  c #808795",
"V  c #808796",
"C  c #818890",
"Z  c #828991",
"A  c #848B90",
"S  c #858B91",
"D  c #808894",
"F  c #808895",
"G  c #858B95",
"H  c #848B96",
"J  c #868C95",
"K  c #868D96",
"L  c #878D97",
"P  c #868D99",
"I  c #888F99",
"U  c #898F99",
"Y  c #899096",
"T  c #8B9197",
"R  c #8C9296",
"E  c #8B9298",
"W  c #8A919B",
"Q  c #8D939A",
"!  c #8D939B",
"~  c #8E9498",
"^  c #8F9598",
"/  c #8F9599",
"(  c #8F959A",
")  c #8B919C",
"_  c #8B929C",
"`  c #8C929C",
"'  c #8F969E",
"]  c #8E9498",
"[  c #91979A",
"{  c #90969F",
"}  c #909699",
"|  c #92989B",
" . c #92989C",
".. c #939A9E",
"X. c #959B9D",
"o. c #949A9E",
"O. c #949A9F",
"+. c #969C9D",
"@. c #979C9D",
"#. c #979D9D",
"$. c #979D9E",
"%. c #959B9D",
"&. c #989E9F",
"*. c #999E9F",
"=. c #959BA1",
"-. c #979DA0",
";. c #959CA2",
":. c #969CA2",
">. c #969DA2",
",. c #969DA3",
"<. c #969CA2",
"1. c #989EA0",
"2. c #999EA0",
"3. c #999FA0",
"4. c #999FA4",
"5. c #999FA1",
"6. c #9AA0A1",
"7. c #9AA0A2",
"8. c #9BA1A3",
"9. c #9BA1A4",
"0. c #9BA2A4",
"q. c #9CA2A4",
"w. c #9DA3A4",
"e. c #9DA3A5",
"r. c #9DA3A6",
"t. c #9FA5A6",
"y. c #9BA1A4",
"u. c #A0A6A7",
"i. c #A1A7A9",
/* pixels */
"      y 0 6 6 6 6 6 6 6 6 6 3 2 2 3 3 2 3 3 2 2 2 2 3 3 3 2 2 2 2 4 4 3 3 6 6 6 6 6 6 6 6 6 6 2 2 2 3 3 3 3 3 3 6 6 6 0 y     g ",
"        ; - = = = - - - - - - - - - - - - - - - - - - - - - - - - - - - - - - - - - - - - - - - - - - - - - - = = = - ;         ",
"        # # # % & * - - - - - - - - - - - - - - - - - - - - - - - - - - - - - - - - - - - - - - - - - - - - * & % # # @         ",
"        . + # & - 1 2 2 6 2 2 2 6 6 6 6 6 6 6 6 4 6 6 6 6 6 6 4 6 6 6 6 4 6 6 6 2 2 2 2 6 6 6 6 2 4 2 2 4 2 1 - & # + .         ",
"        . + # - 2 0 0 y y y y y y y t t y y y y y y y y y y y y y y y y y y y y t t y y y y y y y y y y y 0 0 2 - # + .         ",
"        X @ * 1 0 f h j j j h h h h h h h h h h h h h h h h h h h h h h h h h h h h h h h h h h h h h j j h f 0 1 * @ X         ",
"        X # = 6 u z b b z z z j j j j j j j j j j j j j j j j j j j j j j j j j j j j j j j j j j z z z b b z u 6 = # X         ",
"        X # ; 9 l b F F v z h h h h h h h h h h h h h h h h h h h h h h h h h h h h h h h h h h h h z v F F b l 9 ; # .         ",
"        . # : e v Y ! L v h y y y y y y y y y y y y y y y y y y y y y y y y y y y y y y y y y y y y h v F ! Y v e : # .         ",
"        . # > i n [ o.Y v p w 0 0 0 0 0 0 0 0 0 0 0 0 0 0 0 0 0 0 0 0 0 0 0 0 0 0 0 0 0 0 0 0 0 0 y h v ! o.[ n i > # .         ",
"        . # , a n o.1.! v p 0 0 0 0 0 0 0 0 0 0 0 0 0 0 0 0 0 0 0 0 0 0 0 0 0 0 0 0 0 0 0 0 0 0 0 y h v [ 1.o.n p > # .         ",
"        . % , a N o.1.! v u 0 0 0 y y y y y y y y y y y y y y y y y y y y y y y y y y y y y y y y y l F o.6.o.N a , # .         ",
"        . # , a N o.6.[ v p 0 0 y d h h h h h h h h h h h h h h h h h h h h h h h h h h h h h h h h z F o.6.&.N a , # .         ",
"        . # , a N o.1.! v p 0 t d h z z z z z z z z z z z z z z z z z z z z z z z z z z z z z z z z b I :.6.&.N a , # .         ",
"        . # , a n o.1.! v p w y h z z c c z c c c c z z z z z z z z c c c c z z z z z z z z z z z z b ! :.6.o.n a , % .         ",
"        . # , a n o.1.! v p w y h z c c c c c c c c c c c c c c c c c c c c c c c c c c c c c c c c b ! :.6.o.n a , # .         ",
"        . # , a n o.1.! v p t y h z c c c c c c c c c c c c c c c c c c c c c c c c c c c c c c c c b ! :.6.&.n p , # .         ",
"        . # , a n o.1.! v p 0 y h z z c c c c c c c c c c c c c c c c c c c c c c c c c c c c c c c b ! :.6.&.n p , # .         ",
"        . # , a n o.1.! v p w y h z z c c c c c c c c c c c c c c c c c c c c c c c c c c c c z c c b ! :.6.o.n p , # .         ",
"        . # , a n o.1.! v p w y h z z c c c c c c c c c c c c c c c c c c c c c c c c c c c c z c c b ! :.6.o.N a , # .         ",
"        . % , a n o.1.! v p w y h z z c c c c c c c c c c c c c c c c c c c c c c c c c c c c z c c b ! :.6.o.N a , # .         ",
"        . % , a n o.1.! v p w y h z z c c c c c c c c c c c c c c c c c c c c c c c c c c c c z c c b ! :.6.&.N a , # .         ",
"        . # , a N o.1.! v p w y h z z c c c c c c c c c c c c c c c c c c c c c c c c c c c c z z c b ! :.6.&.N p , # .         ",
"        . # , a N o.1.[ v u 0 y h z z c c c c z c c z z z z z z z z z c c z z z z z z z c c c z z c b ! :.6.&.n p , # .         ",
"        . # , a n o.1.! v u 0 y h j z c c c c c c c c c c c c c c c c c c c c c c c c c c c c z z c b ! :.6.o.n a , % .         ",
"        . # , a n &.1.[ v p y y h z c c c c c c c c c c c c c c c c c c c c c c c c c c c c c c c b F ! :.6.o.n a , # .         ",
"        . # , a N o.6.o.F l l l z b b b b b b b b b b b b b b b b b b b b b b b b b b b b b b b b B P =.1.6.o.n p , # .         ",
"        . # , a N &.6.1.[ F n F F I ! ! ! ! ! ! ! ! ! ! ! ! ! ! ! ! ! ! ! ! ! ! ! ! ! ! ! ! ! ! ! ! ! :.6.6.&.N a , # .         ",
"        . # , p N &.u.6.1.o.[ [ o.:.:.:.:.:.:.:.:.:.:.:.:.:.:.:.:.:.:.:.:.:.:.:.:.:.:.:.:.:.:.:.:.:.1.6.i.u.&.N p , # .         ",
"        . % > i n o.u.u.6.6.6.6.6.6.6.6.6.6.6.6.6.6.6.6.6.6.6.6.6.6.6.6.6.6.6.6.6.6.6.6.6.6.6.6.6.6.6.u.i.u.&.n i > # .         ",
"        . # > r v [ 1.6.6.1.1.1.1.1.6.6.6.6.6.6.6.6.6.6.6.6.6.6.6.6.6.6.6.6.6.6.6.6.6.6.6.6.6.6.6.6.6.6.6.6.[ n r > # .         ",
"        . # : q s n Y ! ! ! ! ! ! ! ! ! ! ! ! ! ! ! ! ! ! ! ! ! ! ! ! ! ! ! ! ! ! ! ! ! ! ! ! ! ! ! ! ! [ Y n l q ; # .         ",
"        O @ = 3 e l v v v v v v v v v v v v v v v v v v v v v v v v v v v v v v v v v v v v v v v v v v v v l e 3 = @ .         ",
"        O @ & : 6 e y u u y y y u u u u u u u u u u u u u u u u u u u u u u u u u u u u u u u u u u u u u y e 6 ; % @ X         ",
"        + @ # - 1 6 0 0 6 6 6 6 6 6 6 6 6 6 6 6 6 6 6 6 6 6 6 6 6 6 6 6 6 6 6 6 6 6 6 6 6 6 6 6 6 6 6 6 0 0 6 1 - # + X         ",
"        + + # * 1 4 6 6 1 1 ; ; < < ; ; ; ; ; ; ; ; ; ; ; ; ; ; ; ; ; ; ; ; ; ; ; ; ; ; ; ; ; ; ; < 1 1 6 6 4 1 * # + +         ",
"        + + # * 1 2 6 1 < - * & & * * & & & & & & & & * * * & & & & & * * * & & & & * & & & & & & & - < 1 6 1 ; * # + +         ",
"        + + # = 1 6 6 1 - & # # # # # # # # # # # # # # % % # # # # # # % % # # # % % % # # # # # # & - 1 4 2 1 = # @ +         ",
"        + + # = 1 6 6 1 - % # # # # % % # # # # # # # # % % % % # # # # % % % % % % % # # # # # # # % - 1 6 2 1 = # + +         ",
"        + + # = 1 4 6 1 = # # # % * = = * * * * * * * * = = * = * * * * = = * = * * = = = * & % # # # = 1 6 2 1 = # + o         ",
"        + + # = 1 4 6 1 = # # % * - 1 1 1 1 1 1 1 1 1 1 1 1 1 1 1 1 1 1 1 1 1 1 1 1 1 1 1 < - * % # # = 1 6 4 1 = # + o         ",
"        + + # = 1 4 6 1 = # # & - 1 4 6 6 6 6 6 6 6 6 6 6 6 6 6 6 6 6 6 6 6 6 6 6 6 6 6 6 4 1 - & # # = 1 6 6 1 = # + o         ",
"        + @ # = 1 2 4 1 = # # * 1 4 6 6 6 6 6 6 6 6 6 6 6 6 6 6 6 6 6 6 6 6 6 6 6 6 6 6 6 6 4 < * # % - 1 6 6 1 = # + o         ",
"        + + # = 1 2 6 1 = # # * 1 6 6 6 6 6 6 6 6 6 6 6 6 6 6 6 6 6 6 6 6 6 6 6 6 6 6 6 6 6 6 1 * # % = 1 6 6 1 = # + o         ",
"        + + # = 1 6 6 1 - % # * 1 6 6 6 7 6 6 6 6 6 6 6 6 6 6 6 6 6 6 6 6 6 6 6 6 6 6 7 6 6 6 1 * # % = 1 6 6 1 = # + +         ",
"        + + # = 1 6 6 1 - % % - 1 6 6 0 0 8 8 8 7 7 7 7 8 8 8 8 7 7 7 7 8 8 8 8 8 8 7 8 0 6 6 1 * # % = 1 6 6 1 - # @ +         ",
"        O + # * 1 4 6 1 = % & - 1 6 0 0 0 0 0 0 0 0 0 0 0 0 0 0 0 0 0 0 0 0 0 0 0 0 0 0 0 0 6 1 - % # * 1 6 6 1 = # @ +         ",
"        O + # * 1 2 6 1 * % & ; 6 0 y y y y y y y y y y y y y y y y y y y y y y y y y y y y 0 6 - & # * 1 4 6 1 = # + o         ",
"        + + # = 1 4 4 1 * # * 1 0 y h h h h h h h h h h h h h h h h h h h h h h h h h h h h y 0 1 * % * 1 6 4 1 = # + o         ",
"        + + # = 1 4 4 1 * & = 2 0 h j z z z z z z z z z z z z z z z z z z z z z z z z z z j h 0 2 = & = 1 6 6 1 = # + o         ",
"        + + # = 1 4 6 1 - * - 6 w h j z z z z z j z j j z z z z z z z z z z z z j z j z z j h w 6 - * - 1 6 6 1 = # + o         ",
"        + + # = 1 6 6 2 1 ; 1 6 0 d h h h h h h h h h h h h h h h h h h h h h h h h h h h h d 0 6 1 ; 1 1 6 6 1 = # + o         ",
"        + @ # = 1 6 6 6 2 1 6 6 0 t y y y y y y y y y y y y y y y y y y y y y y y y y y y y y 0 6 2 1 2 6 6 6 1 = # + o         ",
"        + @ # * 1 4 6 6 6 6 6 6 7 0 0 0 0 0 0 0 0 0 0 0 0 0 0 0 0 0 0 0 0 0 0 0 0 0 0 0 0 0 0 8 6 6 6 6 6 6 1 ; * # + o         ",
"        + + # * - 1 1 6 6 6 6 6 6 6 6 6 6 6 6 6 6 6 6 6 6 6 6 6 6 6 6 6 6 6 6 6 6 6 6 6 6 6 6 6 6 4 4 6 6 4 1 - * # + +         ",
"        + + # & * - < 1 1 1 1 1 1 1 1 1 1 1 1 1 1 1 1 1 1 1 1 1 < < 1 1 1 1 1 1 1 1 < < 1 1 1 1 1 1 1 1 1 < - * & # + +         ",
"        + + @ # & * * = = = = = * * * * * * * * * * * * * * * * * * * * * * * * * * * * * * * * = * * = = * * & # @ + +         ",
"        + + + @ # # # # # # # # # # # # # # # # # # # # # # # # # # # # # # # # # # # # # # # # # # # # # # # # @ + + +         ",
"        + + + + + + + + + + + + + + + + + + + + @ @ @ @ + + + + + + + + + + + + @ @ @ @ + + + + + + + + + + + + + + + +         ",
"          + + + + + + + + + + + + O O O + + + + + + + + + + + + + O O + + + + + + + + + + + + + + + O O + + + + + + +           ",
"                                                                                                                                ",
"                                                                                                                                ",
"                                                                                                                                ",
"                                                                                                                                "
};
