/* XPM */
static char *tile_17[] = {
/* columns rows colors chars-per-pixel */
"64 64 78 1 ",
"  c #2F3342",
". c #323645",
"X c #353947",
"o c #35394A",
"O c #3A3E4D",
"+ c #2A3D54",
"@ c #353F50",
"# c #2E4157",
"$ c #2C425B",
"% c #374051",
"& c #394252",
"* c #38475A",
"= c #38495D",
"- c #294560",
"; c #2B4964",
": c #274F6F",
"> c #284D6B",
", c #275071",
"< c #41444E",
"1 c #424756",
"2 c #424856",
"3 c #494D56",
"4 c #494E5A",
"5 c #4D525C",
"6 c #51565E",
"7 c #53585F",
"8 c #4A4E63",
"9 c #4C5163",
"0 c #4F5368",
"q c #525760",
"w c #535861",
"e c #505469",
"r c #565C6E",
"t c #595E6E",
"y c #585F70",
"u c #5E6267",
"i c #5C6274",
"p c #62666D",
"a c #686A6D",
"s c #656A73",
"d c #686D73",
"f c #606778",
"g c #646C7E",
"h c #696F7B",
"j c #6D7276",
"k c #6B717D",
"l c #707476",
"z c #717579",
"x c #74787F",
"c c #787A7C",
"v c #666D80",
"b c #686E82",
"n c #6C7386",
"m c #6E7589",
"M c #707685",
"N c #737984",
"B c #797E87",
"V c #70778A",
"C c #787F8D",
"Z c #7C8286",
"A c #7D838C",
"S c #7C8391",
"D c #818486",
"F c #80868F",
"G c #858B8F",
"H c #898E8F",
"J c #818791",
"K c #868C96",
"L c #898E90",
"P c #878E98",
"I c #8C9293",
"U c #8F9599",
"Y c #91979A",
"T c #969C9E",
"R c #989D9E",
"E c #959BA0",
"W c #999FA1",
"Q c #9AA0A3",
/* pixels */
";@...............  ..............  ..............  ............o",
"$oXXoOOOOooooooo....oooooooooooo....oooooooooooo....oooooooOOO&&",
"#oO<35542&OOOOOOOOOOOOOOOOOOOOOOOOOOOOOOOOOOOOOOOOOOOOOOOO&24565",
"+o16usdpw52111222222222112211222222222211221122222222211125wpddp",
"+o3uzZZNdt999999999999999999999999999999999999999999999999tdNZZx",
"+%5dZIIGNsreerrrrrrrrrrrrrrrrrrrrrrrrrrrrrrrrrrrrrrrrrreersNGIIF",
"+&6jGTTIAgurrrrrrrrrrrrrrrrrrrrrrrrrrrrrrrrrrrrrrrrrrrrrrigAITTI",
"+&wzLRWUAhirrrrrrrrrrrrrrrrrrrrrrrrrrrrrrrrrrrrrrrrrrrrrrihAUWQY",
"+&wzLRWUAhirrrrrrrrrrrrrrrrrrrrrrrrrrrrrrrrrrrrrrrrrrrrrrihAUQQT",
"+&wzHTWUAkirryyyyyyyyyyyrtyyyyyyyyyyyyyyyyyyyyyytrrryyyrrikAUQQT",
"+&7zHTWYAnfiiiiiiiiiiiiiiiiiiiiiiiiiiiiiiiiiiiiiiiiiiiiiifnAUQQT",
"+&wzHTQTKNggggggggggggggggggggggggggggggggggggggggggggggggNKTQQY",
"+&7zHRQTKCnnnnnnnnnnnnnnnnnnnnnnnnnnnnnnnnnnnnnnnnnnnnnnnnCKTQWI",
"+&6jGTQEPSCmmmmVVCVVVVVVVVVVVVVVVVVVVVVVVVVVVVVVVCVVVVmmmCSPTQTL",
"+&6jGYEUKCVmmmmmmmmmmmmmmmmmmmmmmmmmmmmmmmmmmmmmmmmmmmmmmVCKUETG",
"+%5sZLUKAMbvvvvvvvvvvvvvvvvvvvvvvvvvvvvvvvvvvvvvvvvvvvvvgbMAKULA",
"+@4uNAJAMgiyyyiiiiiiiiiiiiiiiiiiiiiiiiiiiiiiiiiiiiiiiiyyyigMAJSC",
"+@2tkCCCgye00eeeeeeeeeeeeeeeeeeeeeeeeeeeeeeeeeeeeeeeeee00eygMCCC",
"+@2tkCCMgr988888888888888888888888888888888888888888888889rgnCAC",
"+@4uNASCht988888888888888888888888888888888888888888888889thCSJC",
"+%5sZLIJMir990eeeeeeeeeeeeeeeeeeeeeeeeeeeeeeeeeeeeeeee099eiMFUIF",
"+&6jGYTLBgtrrrrrrrrrrrrrrrrrrrrrrrrrrrrrrrrrrrrrrrrrrrrrrtgBLTTK",
"+&6zGTTUAhirrrrrrrrrrrrrrrrrrrrrrrrrrrrrrrrrrrrrrrrrrrrrrihAUWTL",
"+&wzHTWUAhirrrrrrrrrrrrrrrrrrrrrrrrrrrrrrrrrrrrrrrrrrrrrrihAUWRL",
"+&wzHTWUAhirrrrrrrrrrrrrrrrrrrrrrrrrrrrrrrrrrrrrrrrrrrrrrihAUWRI",
"+&7zHTWUAkirryyyyyyyyyyyyyyyyyyyyyyyyyyyyyyyyyyyyyyyyyyrrikAUWRI",
"+&7zHTWYAnfiiiiiiiiiiiiiiiiiiiiiiiiiiiiiiiiiiiiiiiiiiiiiiinAYWWI",
"+&wzHTQTKNggggggggggggggggggggggggggggggggggggggggggggggggNKTQQU",
"+&7zHRQTKCnnnnnnnnnnnnnnnnnnnnnnnnnnnnnnnnnnnnnnnnnnnnnnnnCKTQQY",
"+&6jGTQEPSCmmmVVVCVVVVVVVVVVVVVVVVVVVVVVVCVVVVVVVVVVVVmmmCSKTQQT",
"+&6jGYEUKCVmmmmmmmmmmmmmmmmmmmmmmmmmmmmmmmmmmmmmmmmmmmmmmVCKUEEU",
"+%5sZLUKAMbvvvvvvvvvvvvvvvvvvvvvvvvvvvvvvvvvvvvvvvvvvvvvvbnAKUUP",
"+@4uNAJAMgiyyyyiiiiiiiiiiiiiiiiiiiiiiiiiiiiiiiiiiiiiiiyyyigMAKKS",
"+@2tkCCCgye00eeeeeeeeeeeeeeeeeeeeeeeeeeeeeeeeeeeeeeeeee00eygMASC",
"+@2ukCCMgr988888888888888888888888888888888888888888888889rgMCAC",
"+@4uNASCht988888888888888888888888888888888888888888888889thCSJC",
"+%5sZLIJMir900eeeeeeeeeeeeeeeeeeeeeeeeeeeeeeeeeeeeeeee099riMFLIA",
"+&6jGYTLBgtrrrrrrrrrrrrrrrrrrrrrrrrrrrrrrrrrrrrrrrrrrrrrrtgBLTTK",
"+&qzGTTUAhirrrrrrrrrrrrrrrrrrrrrrrrrrrrrrrrrrrrrrrrrrrrrrihAUWTL",
"+&wzHTWUAhirrrrrrrrrrrrrrrrrrrrrrrrrrrrrrrrrrrrrrrrrrrrrrihAUWRI",
"+&wzHTWUAhirrrrrrrrrrrrrrrrrrrrrrrrrrrrrrrrrrrrrrrrrrrrrrihAUWRI",
"+&7zHTWUAkirryyyyyyyyyyyyyyyyyyyyyyyyyyyyyyyyyyyyyyyyyyrrikAUWRI",
"+&7zHTWUAkfiiiiiiiiiiiiiiiiiiiiiiiiiiiiiiiiiiiiiiiiiiiiiifnAYWEL",
"+&wzHTQTKNggggggggggggggggggggggggggggggggggggggggggggggggNKTQWI",
"+&7zHRQTKCnnnnnnnnnnnnnnnnnnnnnnnnnnnnnnnnnnnnnnnnnnnnnnnnCKTQWI",
"+&6jGTQEPSCmmmVVVVVVVVVVVVVVVVVVVCVVVVVVVVVVVVVVVVVVVVmmmCSPTQEI",
"+&6jGYEUKCVmmmmmmmmmmmmmmmmmmmmmmmmmmmmmmmmmmmmmmmmmmmmmmVCKUETL",
"+%5sZLUKAMbvvvvvvvvvvvvvvvvvvvvvvvvvvvvvvvvvvvvvvvvvvvvvvbMAKUUF",
"+@4uNAJAMgiyyyiiiiyyiiiiiiiiiiiiiiiiiiiiiiiiiiiiiiyyiiyyyigMAJJC",
"+@2tkCCCgye00eeeeeeeeeeeeeeeeeeeeeeeeeeeeeeeeeeeeeeeeee00eygCCCn",
"+@2unCCMgr988888888888888888888888888888888888888888888889rgMCCn",
"+@4uNASCht988888888888888888888888888888888888888888888889thCSSN",
"+%5sZLIJMir990eeeeeeeeeeeeeeeeeeeeeeeeeeeeeeeeeeeeeeee099riMJILA",
"+&6jGYTLBgtrrrrrrrrrrrrrrrrrrrrrrrrrrrrrrrrrrrrrrrrrrrrrrtgBLTYG",
"+&6zGTTUAhirrrrrrrrrrrrrrrrrrrrrrrrrrrrrrrrrrrrrrrrrrrrrrihAUETG",
"+&wzHTWUAhirrrrrrrrrrrrrrrrrrrrrrrrrrrrrrrrrrrrrrrrrrrrrrihAUWRI",
"+&wzHTWUAhirrrrrrrrrrrrrrrrrrrrrrrrrrrrrrrrrrrrrrrrrrrrrrihAUWWI",
"+&wzHTWUAkirryyyyyyyyyyyyyyyyyyyyyyyyyyyyyyyyyyyyyyyyyyrrikAUWWI",
"$&wzHTWYFnfiiiiiiiiiiiiiiiiiiiiiiiiiiiiiiiiiiiiiiiiiiiiiifnAYQWU",
"-&wzHRQTKNvggggggggggggggggggggggggggggggggggggggggggggggvNKTQQT",
";*wzHRQEKCnnnnnnnnnnnnnnnnnnnnnnnnnnnnnnnnnnnnnnnnnnnnnnnnCKTQQT",
">=wlGTWTKACmmmmmmmmmVmmmmmmmVVmmmmmmVmmmmmmmVVmmmmmmmmmmmCAKTQQE",
":=qjDIYIJCnnnnnnnnnnnnnnnnnnnnnnnnnnnnnnnnnnnnnnnnnnnnnnnnCKYQQE",
",=6acDDBzhfffffffffffffffffffffffffffffffffffffffffffffffgkCLTQE"
};
