/* XPM */
static char *tile_07[] = {
/* columns rows colors chars-per-pixel */
"64 64 200 2 ",
"   c #334937",
".  c #334A38",
"X  c #394938",
"o  c #3B5535",
"O  c #5B493D",
"+  c #405337",
"@  c #664E37",
"#  c #6A523B",
"$  c #7D5E35",
"%  c #765A38",
"&  c #446826",
"*  c #466938",
"=  c #4E7331",
"-  c #7F6036",
";  c #7E613B",
":  c #364344",
">  c #3C4748",
",  c #3C5543",
"<  c #3E4551",
"1  c #41504C",
"2  c #434955",
"3  c #464C5B",
"4  c #495855",
"5  c #4B5F5B",
"6  c #675443",
"7  c #496749",
"8  c #55704B",
"9  c #597949",
"0  c #536B59",
"q  c #7B6249",
"w  c #657D43",
"e  c #7A6758",
"r  c #627A59",
"t  c #4E5464",
"y  c #4E5E63",
"u  c #515766",
"i  c #535B66",
"p  c #53596A",
"a  c #585F71",
"s  c #596166",
"d  c #586A65",
"f  c #57636A",
"g  c #59636B",
"h  c #5C716A",
"j  c #5B6273",
"k  c #5E6B70",
"l  c #6B6669",
"z  c #6E696B",
"x  c #796C68",
"c  c #637669",
"v  c #616776",
"b  c #636A74",
"n  c #6A6D75",
"m  c #606779",
"M  c #686F7A",
"N  c #716E74",
"B  c #637476",
"V  c #66747B",
"C  c #697579",
"Z  c #6D7C7B",
"A  c #74737B",
"S  c #7E797E",
"D  c #815E2C",
"F  c #805F33",
"G  c #89652D",
"H  c #826134",
"J  c #886635",
"K  c #856539",
"L  c #87693D",
"P  c #8C6C3C",
"I  c #916E3A",
"U  c #957037",
"Y  c #94713C",
"T  c #A37B3E",
"R  c #A97F3D",
"E  c #886B45",
"W  c #8F714E",
"Q  c #927143",
"!  c #9A7B44",
"~  c #91724A",
"^  c #886E51",
"/  c #867157",
"(  c #8E7355",
")  c #957654",
"_  c #A37D46",
"`  c #A07E57",
"'  c #826F63",
"]  c #847264",
"[  c #8A7463",
"{  c #86766D",
"}  c #8B796C",
"|  c #857771",
" . c #8A7C76",
".. c #81797B",
"X. c #638157",
"o. c #748D56",
"O. c #688167",
"+. c #788E6A",
"@. c #6D8178",
"#. c #788978",
"$. c #AE823B",
"%. c #B3863D",
"&. c #9E824A",
"*. c #9C8259",
"=. c #AA8243",
"-. c #AC8749",
";. c #AB8A4D",
":. c #B28541",
">. c #B68944",
",. c #B0864C",
"<. c #B58C4A",
"1. c #BE9147",
"2. c #BD934B",
"3. c #A88558",
"4. c #B28A54",
"5. c #B78E55",
"6. c #B69656",
"7. c #BB9154",
"8. c #B9925C",
"9. c #9D8366",
"0. c #90816B",
"q. c #998875",
"w. c #A88967",
"e. c #AC9369",
"r. c #B59265",
"t. c #B89363",
"y. c #B89865",
"u. c #B4956D",
"i. c #A38D78",
"p. c #AB9476",
"a. c #B49672",
"s. c #B49876",
"d. c #B49A79",
"f. c #BDA167",
"g. c #C0964B",
"h. c #C49D53",
"j. c #C3A45B",
"k. c #C9A659",
"l. c #C5A766",
"z. c #C4AB73",
"x. c #686F82",
"c. c #6B7385",
"v. c #6D7A84",
"b. c #6E7689",
"n. c #6F7A88",
"m. c #727682",
"M. c #737C86",
"N. c #7C7B84",
"B. c #70778A",
"V. c #797C8A",
"C. c #757D90",
"Z. c #738282",
"A. c #788781",
"S. c #76818A",
"D. c #7C828A",
"F. c #87898B",
"G. c #898B8F",
"H. c #938D87",
"J. c #8B8E94",
"K. c #888F9A",
"L. c #928F92",
"P. c #8D9296",
"I. c #8E959B",
"U. c #999695",
"Y. c #92959C",
"T. c #999E9E",
"R. c #AE9B84",
"E. c #A3978A",
"W. c #AC9F8D",
"Q. c #B19C83",
"!. c #B19E88",
"~. c #A59E99",
"^. c #AEA08E",
"/. c #B9A488",
"(. c #ACA193",
"). c #A6A49E",
"_. c #ACA59B",
"`. c #B6A898",
"'. c #BEB39F",
"]. c #959CA2",
"[. c #999FA2",
"{. c #9FA5A7",
"}. c #9FA6A8",
"|. c #A7A7A2",
" X c #A8A7A1",
".X c #A6A8A6",
"XX c #A2A6A8",
"oX c #A5A9A8",
"OX c #A9ADAD",
"+X c #B5ADA5",
"@X c #B7B3AC",
"#X c #AEAFB2",
"$X c #ADB1B2",
"%X c #B2B4B4",
"&X c #B7B9B9",
"*X c #BABBBB",
"=X c #C4B08B",
"-X c #C0B5A1",
";X c #BFC0C0",
":X c #C2C3C4",
/* pixels */
"y g z | q.p.R.^._..XoXoXoXoXoXoXoXoXoXoXoXoXoXoXoXoXoXoXoXoXoXoXoXoXoXoXoXoXoXoXoXoXoXoXoXoXoXoXoXoXoXoXoXoXoXoXoXoXoXoXoXoX|.U.",
"5 g z { 9.w.u.Q.(.)..XoXoXoXoXoXoXoXoXoXoXoXoXoXoXoXoXoXoXoXoXoXoXoXoXoXoXoXoXoXoXoXoXoXoXoXoXoXoXoXoXoXoXoXoXoXoXoXoXoXoXoX[.L.",
"5 s z [ ` 5.8.a.R.(.).).|.).|.|..XoXoXoXoXoXoXoXoXoXoXoXoXoXoXoXoXoXoXoXoXoXoXoXoXoXoXoXoXoXoXoXoXoXoXoXoXoXoXoXXX{.{.XXoXXX[.J.",
"5 s l [ ` ,.5.r.p.E.E.E.W.W.(._. X.XoXoXoXoXoXoXoXoXoXoXoXoXoXoXoXoXoXoXoXoXoXoXoXoXoXoXoXoXoXoXoXoXoXoXoXoXoX{.{.].].{.{.{.[.J.",
"5 s l [ ` ,.<.5.w.i.q.i.p.p.Q.W._.|.oXoXoXoXoXoXoXoXoXoXoXoXoXoXoXoXoXoXoXoXoXoXoXoXoXoXoXoXoXoXoXoXoXoXoXoX}.{.].I.I.].{.{.T.J.",
"5 s z [ ` ,.<.,.3.3.*.3.3.r.a.Q.(.|.oXoXoXoXoXoXoXoXoXoXoXoXoXoXoXoXoXoXoXoXoXoXoXoXoXoXoXoXoXoXoXoXoXoXoXoX}.].I.K.K.I.{.{.Y.G.",
"5 s z [ ` ,.>.:.=._ _ -.5.r.a.Q.(.|.oXoXoXoXoXoXoXoXoXoXoXoXoXoXoXoXoXoXoXoXoXoXoXoXoXoXoXoXoXoXoXoXoXoXoXoX}.].I.K.I.Y.{.{.Y.G.",
"5 s z [ ` ,.>.%.$.R =.3.w.a.d.^._.|.oXoXoXoXoXoXoXoXoXoXoXoXoXoXoXoXoXoXoXoXoXoXoXoXoXoXoXoXoXoXoXoXoXoXoXoX}.{.].I.I.].{.{.Y.G.",
"5 s z [ ` ,.>.%.%.%.;.w.p.R.(._. X.XoXoXoXoXoXoXoXoXoXoXoXoXoXoXoXoXoXoXoXoXoXoXoXoXoXoXoXoXoXoXoXoXoXoXoXoXoX{.{.].].{.{.{.Y.G.",
"5 s z [ ) 5.<.>.>.<.5.a.R.(. X.XoXoXoXoXoXoXoXoXoXoXoXoXoXoXoXoXoXoXoXoXoXoXoXoXoXoXoXoXoXoXoXoXoXoXoXoXoXoXoXoX}.}.}.XXoX|.Y.G.",
"5 s z { 9.w.8.8.8.t.u.Q.(. X.XoXoXoXoXoXoXoXoXoXoXoXoXoXoXoXoXoXoXoXoXoXoXoXoXoXoXoXoXoXoXoXoXoXoXoXoXoXoXoXoXoXoXoXoXoXoXoXT.G.",
"5 g z | q.p.d.d.d.d.Q.^._..XoXoXoXoXoXoXoXoXoXoXoXoXoXoXoXoXoXoXoXoXoXoXoXoXoXoXoXoXoXoXoXoXoXoXoXoXoXoXoXoXoXoXoXoXoXoXoXoX[.J.",
"5 g n ..H.E.W.^.^.(.(._. X.XoXoXoXoXoXoXoXoXoXoXoXoXoXoXoXoXoXoXoXoXoXoXoXoXoXoXoXoXoXoXoXoXoXoXoXoXoXoXoXoXoXoXoXoXoXoXoXoX{.P.",
"5 f n N.L.U.)._._._. X|..XoXoXoXoXoXoXoXoXoXoXoXoXoXoXoXoXoXoXoXoXoXoXoXoXoXoXoXoXoXoXoXoXoXoXoXoXoXoXoXoXoXoXoXoXoXoXoXoXoX{.P.",
"5 f n N.L.U.). X X.XoXoXoXoXoXoXoXoXoXoXoXoXoXoXoXoXoXoXoXoXoXoXoXoXoXoXoXoXoXoXoXoXoXoXoXoXoX.X|.|. X X_._._._.|.|.|..X.X.X{.P.",
"5 g n ..H.E.(._. X.XoXoXoXoXoXoXoXoXoXoXoXoXoXoXoXoXoXoXoXoXoXoXoXoXoXoXoXoXoXoXoXoXoXoXoXoX.X|._.(.(.^.^.^.^.^.^.(.(._. X|.{.I.",
"5 g z | q.p.R.^._..XoXoXoXoXoXoXoXoXoXoXoXoXoXoXoXoXoXoXoXoXoXoXoXoXoXoXoXoXoXoXoXoXoXoXoXoX.X_.^.Q.d.s.s.d.d.s.s.d.Q.^._.|.{.I.",
"5 s z { 9.w.a.Q.(..XoXoXoXoXoXoXoXoXoXoXoXoXoXoXoXoXoXoXoXoXoXoXoXoXoXoXoXoXoXoXoXoXoXoXoX.X_.(.Q.u.t.8.8.8.8.8.8.t.u.Q.(.).T.P.",
"5 s z { 9.w.a.Q.(. XoXoXoXoXoXoXoXoXoXoXoXoXoXoXoXoXoXoXoXoXoXoXoXoXoXoXoXoXoX.X|. X X X X_.(.Q.s.8.<.<.>.<.2.2.<.<.8.s.!.(.U.L.",
"5 g z | q.p.R.^._..XoXoXoXoXoXoXoXoXoXoXoXoXoXoXoXoXoXoXoXoXoXoXoXoXoXoXoXoX.X X_.(.^.^.^.W.Q.d.t.7.>.%.%.>.>.%.%.>.7.y.d.R.E.H.",
"5 g n ..H.E.(._. X.XoXoXoXoXoXoXoXoXoXoXoXoXoXoXoXoXoXoXoXoXoXoXoXoXoXoXoXoX|._.W.Q.d.s.s.s.a.r.8.<.>.%.%.>.>.%.%.>.<.8.r.a.p.q.",
"5 f n N.L.T.)..X.XoXoXoXoXoXoXoXoXoXoXoXoXoXoXoXoXoXoXoXoXoXoXoXoXoXoXoXoXoX|.(.Q.a.r.t.8.8.8.7.2.<.>.>.>.>.>.>.>.>.<.<.7.5.w.9.",
"5 f M D.P.{.|.oXXX{.{.XXoXoXoXoXoXoXoXoXoXoXoXoXoXoXoXoXoXoXoXoXoXoXoXoXoXoX|.(.Q.a.t.8.7.<.<.>.>.>.>.>.>.>.>.>.>.>.>.>.>.<.5.3.",
"5 f M D.I.{.}.}.{.].].{.{.oXoXoXoXoXoXoXoXoXoXoXoXoXoXoXoXoXoXoXoXoXoXoXoXoX.X_.^.Q.s.r.8.<.>.>.>.>.>.>.>.>.>.>.:.:.:.%.%.>.,.3.",
"5 f M D.I.{.{.{.].I.I.].{.XXoXoXoXoXoXoXoXoXoXoXoXoXoXoXoXoXoXoXoXoXoXoXoXoX.X|._.(.Q.d.t.7.>.%.>.>.>.>.>.>.>.>.=.R R $.%.>.5.w.",
"5 f M D.I.{.{.[.I.K.K.I.].{.oXoXoXoXoXoXoXoXoXoXoXoXoXoXoXoXoXoXoXoXoXoXoXoX.X.X X_.(.Q.u.8.<.>.>.>.>.>.>.>.>.:.R T T R %.>.5.w.",
"5 f M D.P.{.{.[.I.K.K.I.].{.oXoXoXoXoXoXoXoXoXoXoXoXoXoXoXoXoXoXoXoX.X.X|.|. X X_._.(.Q.s.8.<.>.>.>.>.>.>.>.>.:.R T T R %.>.5.i.",
"5 f M D.P.[.{.{.].I.I.].{.{.oXoXoXoXoXoXoXoXoXoXoXoXoXoXoXoXoXoXoXoX.X_._.(.(.(.(.W.Q.d.y.7.<.>.>.>.>.>.>.>.>.>.=.R R $.%.>.5.w.",
"5 f M D.P.[.{.{.{.].].{.{.XXoXoXoXoXoXoXoXoXoXoXoXoXoXoXoXoXoXoXoXoX|._.^.Q.d.d.d.d.a.u.8.<.>.>.>.>.>.>.>.>.>.>.:.:.:.%.>.>.5.i.",
"5 f M D.I.{.oXoXoX}.XXXXoXoXoXoXoXoXoXoXoXoXoXoXoXoXoXoXoXoXoXoXoXoX X(.Q.s.t.8.8.8.8.7.<.<.>.>.>.>.>.>.>.>.>.>.>.>.>.>.>.<.5.i.",
"4 i M D.Y.XXOX$X$XOXOXOXOXOXOXOXOXOXOXOXOXOXOXOXOXOXOXOX X X.X.XOXOX X`./.y.7.2.2.2.2.2.2.1.>.1.2.g.g.2.1.1.>.1.2.2.2.g.g.2.8.w.",
"1 i n F.[.$X&X&X&X%X%X%X%X%X%X%X%X%X%X%X%X%X%X%X%X%X$X+X_.(._. XOX$X$X`./.l.h.g.g.g.g.g.g.g.g.g.g.h.h.g.g.g.g.g.g.g.h.h.h.h.8.e.",
", 4 n G.XX&X:X:X;X*X*X&X&X*X*X*X&X&X&X&X&X&X&X&X&X&X%X+X`./.^.`.+X$X@X'.=Xz.k.k.k.k.j.h.g.2.2.g.h.j.j.h.g.2.2.g.h.j.k.k.k.j.f.p.",
". 2 b G.oX*X:X:X:X*X*X*X*X*X*X*X*X*X*X*X*X*X*X*X*X*X@X`.^.d.d.^.+X@X@X-X=Xz.l.k.k.k.j.j.g.2.2.g.h.j.j.h.g.2.2.g.h.j.k.k.k.l.f.s.",
"  1 l F.|.&X:X:X*X&X%X%X%X%X%X%X%X%X%X%X%X%X%X%X%X%X+X`.Q.u.u.Q.`.+X+X`./.z.l.j.j.j.j.6.2.<.>.2.6.j.j.6.2.<.<.2.6.j.j.j.j.j.f.p.",
"  > i S Y.XX#X$XOXXXXXXX|.|.|.|.|.|.XXXX|.|.XXXXXX|.~.E.i.w.w.i.E.(.(.W.d.y.6.6.6.6.6.;.;.=.=.=.;.6.6.;.;.=.=.;.;.6.6.6.6.8.e.q.",
"  > 4 n N.J.Y.Y.Y.I.J.J.J.J.J.J.J.J.J.J.J.J.J.J.J.J.G.F. .} [ } q.q.q.q.9.*.&.&.&.&.&.! ! Y Y ! ! ! ! ! ! Y Y ! ! &.-.-.&.&.*.0.",
". : 2 i n A M.M.M.m.m.m.m.m.m.m.m.m.m.m.m.m.m.m.m.m.A A N x x x x ] / ^ ^ E E P P P P P K K K L P P P P K K K K L P P P P E / ] ",
"  : < 3 p j v v j j j j j v m m m m m m m m m m m m m m v v l l e q q ; - - - - - - - $ $ $ $ $ $ - - $ $ $ $ $ % % % % $ ; q x ",
"  : < 3 p j j a p t t p a j j m m m m m m m m m m m m m m m n z e q F D D D F F F F F F H H H H F F F H H $ $ % # @ @ @ % % q x ",
". : < t j m m j u 3 3 t j m x.c.c.c.c.c.c.c.c.c.c.c.c.c.c.c.C x e E H G G J J J J J J J J J J J J J J J J H K % # O O @ % K ^ ' ",
". : 2 i j c.c.m p 3 3 p m c.b.B.B.B.B.B.B.B.B.B.B.B.B.B.B.B.m.S ] ^ E P P P P I P P P P P P P P P P P I I P K % # O O # % E ^ ] ",
"  : 2 p m c.c.m j i t a m b.B.C.C.B.B.B.B.B.B.B.C.C.B.C.C.B.N.S { ( ( W W W W ~ Q Y Y Q ~ ~ ~ ~ Q Y I Y Y I P ; # 6 6 6 q ^ ( { ",
"  : 2 p m c.B.c.m j j m c.B.B.C.C.C.C.C.C.C.C.C.C.C.C.C.C.B.V.N...{ [ [ [ [ [ ( ~ Q Q ~ ( ( ( ( ~ Q Y U Y I P K % % 6 q e ] { ..",
"  : 2 p m b.B.B.c.m m c.b.B.C.C.C.C.C.C.C.C.C.C.C.C.C.C.C.C.V.V.N.........| | [ ( ~ ~ ( [ { | } ( Q Y U U Y I P K ; q e x | ..N.",
"  : 2 p m b.B.B.B.b.b.B.B.B.C.C.C.C.C.C.C.C.C.C.C.C.C.C.C.C.B.B.V.V.N.N.N.N.S | [ ( ( [ | ....| [ W Q Y Y Y I I P E ^ ] | S N.V.",
"  : 2 p m b.B.C.C.B.C.B.C.C.C.C.C.C.C.C.C.C.C.C.C.C.C.C.C.C.C.B.B.B.B.B.B.B.N...{ [ [ { ..N.N...{ ( W Q Q Y Y Q ~ ( ( { S N.B.C.",
"  : 2 p m c.B.C.C.C.C.C.C.C.C.C.C.C.C.C.C.C.C.C.C.C.C.C.C.C.C.C.C.C.C.C.C.C.V.N...| | ..N.V.V.N...{ [ ( ~ Q Q ~ ( [ } ..N.V.C.C.",
"  : 2 p m c.B.C.C.C.C.C.C.C.C.C.C.C.C.C.C.C.C.C.C.C.C.C.C.C.C.C.C.C.C.C.C.C.B.V.N.S S N.V.B.V.V.N...| [ ( ~ ~ ( [ | ..N.V.B.C.C.",
"  : 2 p m c.B.C.C.C.C.C.C.C.C.C.C.C.C.C.C.C.C.C.C.C.C.C.C.C.C.C.C.C.C.C.C.C.B.V.V.V.N.V.V.B.B.B.V.V.N.| [ ( ( [ | S V.V.V.B.C.C.",
"  : 2 p m c.B.C.C.C.C.C.C.C.C.C.C.C.C.C.C.C.C.C.C.C.C.C.C.C.C.C.C.C.C.C.C.C.B.V.V.V.V.V.V.B.C.C.C.V.N...{ [ [ { ..V.V.C.C.C.C.C.",
"o > 2 p m c.B.C.C.C.C.C.C.C.C.C.C.C.C.C.C.C.C.C.C.C.C.C.C.C.C.C.C.C.C.C.C.B.B.N.N.S S N.N.B.C.C.C.C.V.N.| | | ..N.V.C.C.C.C.C.C.",
"o > 2 p m b.B.C.C.C.C.C.C.C.C.C.C.C.C.C.C.C.C.C.C.C.C.C.C.C.C.C.C.C.C.C.C.C.V.N.| { { | N.V.C.C.C.C.B.V.N.S S N.V.V.C.C.C.C.C.C.",
"+ > 2 p m b.B.C.C.B.B.B.B.C.C.C.C.C.C.C.C.C.C.B.C.B.B.B.B.C.C.C.C.C.C.C.C.C.V...{ [ [ { ..V.C.C.C.C.C.B.V.V.N.V.B.B.C.B.C.C.C.C.",
"+ > 2 p m b.B.B.B.b.b.B.B.C.C.C.C.C.C.C.C.C.B.B.B.n.n.B.B.B.C.C.C.C.C.C.C.B.V...{ [ [ { ..V.C.C.C.C.C.C.B.B.B.B.B.b.B.B.B.B.B.B.",
"o > 2 p m b.B.b.c.m m c.b.B.C.C.C.C.C.C.C.C.B.v.v.V V v.v.B.C.C.C.C.C.C.C.B.V.N.| { { | N.V.C.C.C.C.C.C.C.C.B.b.c.m m c.b.B.B.b.",
"o > 2 p m c.B.c.m j j m c.B.C.C.C.C.C.C.C.C.B.c.B h h B Z B.B.C.C.C.C.C.C.C.V.N.N.....N.N.V.B.C.C.C.C.C.C.C.B.c.m j j m c.B.B.c.",
"  > 2 p m c.b.x.j i i j m c.B.B.C.C.C.C.C.B.v.V h 0 0 h V v.B.C.C.B.B.B.C.B.B.B.V.V.V.V.B.B.C.B.B.B.B.C.C.B.B.m j i i j m c.c.m ",
"  : 2 p m c.c.m j i t p n c.v.B.B.B.B.B.B.M.Z c 0 7 7 d B v.B.B.B.B.B.B.B.B.C.C.B.C.C.B.C.C.B.S.S.S.S.S.S.B.b.m j i i j m c.c.m ",
"  : 2 p m c.b.c.m j p g k B V v.B.B.B.S.Z.@.c r 8 * 7 0 B v.B.B.Z.@.@.Z.M.B.C.C.C.C.C.C.C.C.S.S.A.#.#.A.S.B.B.c.m j j m c.b.c.m ",
"  : 2 p m c.B.B.c.m n k k d h B v.B.B.Z.@.O.r 9 = * 7 d B v.M.Z.@.O.O.@.Z.B.C.C.C.C.C.C.C.S.S.Z.#.+.+.#.A.S.B.b.c.m m c.b.B.b.m ",
". : 2 u m c.B.B.B.c.V k d 0 0 k V v.v.@.O.X.9 = = * 7 d B v.v.Z O.X.X.O.Z M.B.B.B.B.C.C.B.B.Z.#.+.o.o.+.#.Z.B.B.b.c.c.b.B.B.c.m ",
"X > 2 t j m c.b.c.c.V k 0 7 7 0 k V C B r 9 = = & * 7 0 k V C B r 9 9 r c C c.b.b.b.b.b.b.c.Z O.o.o.o.o.O.Z c.c.c.c.c.c.b.c.x.j ",
"+ > < 3 u j j m m m j s 4 , , 4 s g k d 0 * & & o o , 4 s g g d 0 8 8 0 d k j m m m m m m n n c r w w r c b n m m m m m m j j p "
};
