/* XPM */
static char *tile_18[] = {
/* columns rows colors chars-per-pixel */
"64 64 76 1 ",
"  c #3C3E53",
". c #3D4253",
"X c #3F4159",
"o c #414553",
"O c #444956",
"+ c #464B5D",
"@ c #494D5B",
"# c #4C515F",
"$ c #54585F",
"% c #474961",
"& c #4E5364",
"* c #4E5268",
"= c #545963",
"- c #5A5D65",
"; c #51556A",
": c #595E6B",
"> c #565C71",
", c #595E72",
"< c #5E626A",
"1 c #5C6374",
"2 c #5F6678",
"3 c #61666D",
"4 c #616574",
"5 c #656A76",
"6 c #696E74",
"7 c #606779",
"8 c #636A7C",
"9 c #696E7D",
"0 c #6E7376",
"q c #71767B",
"w c #75787C",
"e c #7A7C7F",
"r c #676E80",
"t c #686F81",
"y c #6C7385",
"u c #6E7689",
"i c #717683",
"p c #747984",
"a c #7A7D84",
"s c #70778A",
"d c #797E8C",
"f c #757D90",
"g c #787F92",
"h c #7D8386",
"j c #7C818C",
"k c #7C8393",
"l c #81858E",
"z c #878C8E",
"x c #818795",
"c c #8B8E93",
"v c #848A99",
"b c #8A8F99",
"n c #8E9396",
"m c #8E9098",
"M c #909395",
"N c #93959E",
"B c #989B9D",
"V c #9296A1",
"C c #979AA3",
"Z c #999DA3",
"A c #9CA0A7",
"S c #9FA2A9",
"D c #A1A5A7",
"F c #A2A6AB",
"G c #A6AAAB",
"H c #AAACAE",
"J c #ABB0AF",
"K c #ACAEB2",
"L c #AEB2B2",
"P c #B0B0B2",
"I c #B3B5B6",
"U c #B5B8B7",
"Y c #B6B7B9",
"T c #B7B8B9",
"R c #BABBBB",
"E c #C0C0C0",
/* pixels */
"     o-pcZZNlt1,,,,,,,,,,,,,,,,,,,>;*;4pcBNca4=%%%%&&%%+o.      ",
"oooXX%4lZHHZx9:**;;;;;;;;;;;;;;;;;*%%;5lBFFBl5=%%%%%%%%%+ooooooo",
"@+oo%;9cDIIDc9:**;;;;;;;;;;;;;;;;;**&:9cDILDc9:%%*;;;;;******;*%",
"-&%%*1imFIIFci1>>,,,,,,,,,,,,,,,,,,>>1imFIIFbi1>>,,,,1,,11111,,;",
"5;%*>8dNHIIGNdt8888888rr8r8r888888888tdNHIIGNdt88rrrrrrrrrrrrr81",
"q-;>7sxCKIIKCvdsuuuuuuuuuuuuuuuuuuuuudxCHIYKCvduuuuussuuuuuuuuy7",
"a517yjbAKYYKSVvkkfdddfffddfffddddddfkkmAKYYKSNvkgfdddddddusdduy8",
"jy9ydvCFIRRIKSCmvkffffffffffffffffkkvmCFLRRIKSVmvkffffdduyyyyyy8",
"vdddvBAHIRRRYKFZmkffffffffffffffffkvmCAGIRRRYKFZmkkfffduyr888888",
"vjjxmZGLIRRRRYLFVxfddffffffffffdffkvmZGLYRRRRYLFVxfdffdyr8111128",
"vjjvNAGLIRRRRRIGVxddddffffffffdduddvBAGLIRRRRRIGCxdddddyr8111118",
"lpplNAGLIURRERTHNksuudfffffffddyt9ilNAGLITRRERTHVkduudduyr811>>1",
"h99anAGHLLIRRRYGNdyyyddffffffdsr215anAGHLIIRRRYGNdyyuddduyr81,::",
"w<<qzBDGGGHIURIDcp8ryddffffffdu8-=<qzBDGGHHITRIDcp88ydddddut81:=",
"0--6hnBZAAAGHHHZvi8ryddffffffdu8:&=6hnBBZAAGHHHZvi8ryddffddyr2,:",
"0:=3qhzzzznMBBNcjiyyudfffdfffdu8:&=3qhzzzzcMBBNcjytyuddffdduyr2,",
"8-=-360000qweaaapyyuddfffddfffur1:=-360000qweaaaiyyuddfffddduyr7",
"81:=====$$==--350ydddddfffffffdy81:=========-<350yddffffffffddyr",
"81:&&@+OOooooO#:8yuddddkkkxkkfdur71:=#@+@@@@@#=18udfffgkkvvkkfsy",
"y1:;&=&&+o....+:18yyyydkvmVmvkduyr81>:=&===&&;:7ysdfffkvmVVmvkdt",
"y1::,11,:&@+++&:178888pvVSSZmkfduyyr88227772178yudffffkmZSFZmkdr",
"i1:>7ry81,::::::111118icZHKFVvfduuuuuuuyyyyyuuuddfffdfvVFKKFVvd8",
"p1;,8yuyr71111111,>::1icFIIGCxduuuddddddddddddfddfffdfvCKIYKCvd8",
"p1;,8udsyr8888821>:::1ycFIIGVkyrryyuddffffffffffffffdgvZKYYKCvs8",
"p1;,8uddsyyyyyr811:::1qcFIIGNd8228ryudfffffffffffffddgvZKYYKZvd8",
"p4:,8uddddddduur811::4pnFIIFNd81118ryddffffffffffffdfkvZKYYKZvdr",
"a8,1rsdffdddfddyr81150jNGIIHBli9888ryddfffffffffffffkkmAKYYLFNxs",
"jy88ydffffffffduytyypjcZHYTIDNvdpytyuddfffffffffffkkvbCFLRRYKSNx",
"vdyyudffffffffdduuddxnBFIRRYIGZNxduuddfffffffffffkkvmCAGIRRRIKFV",
"vdduddffffffffdddddvmCDHIRRRRIHAmkdsddfffffffffdddkvmZGLYRRRRYKF",
"vjduusddddffffddusdvNAGLIRRRRRIGVkdsddffffffffddsddvBAGLIRRRRRYG",
"kdyyyyyuddfffddyrrpjNAHLITRRERRHVksuudfffffffddyy8ijmAGLIURRERRH",
"dy8888ryudffffur218hnAGJLLIRRRYGNdyyuddffffffdur215anAGHLLIRRRYG",
"y811118ryddffdu8:=<qzBDGGGHITRIDcp88yddffffffdu8:=<qzBDGGGHITRID",
"01,:118ryddfffu8:&=6hnBZZAAGHHHZvi8ryddffffffdu8:&=6hnBZAAAGHHGB",
"01::188yuddffdu8:&=3qhzzzzcMBBNcjiyyuddffddffdu8:&=3qhzzzznMBBMz",
"y1:>1ryudddffdur1:=-360000qweaaapyyudddfffdffdur1:=-360000qweaeq",
"i1:,8yddfffffddy81:========--<350yddffffffffffdy81:========----=",
"p1;,8ufkxvxkkfdyr71:=#@+@@@@@#=18udffffkkvvkkfdyr71:&#@+@@@@@@@@",
"p1;>8skvmVVmvkduyr81-:=&===&&;:7yddfffkvmVVmvkduyr81,::=====&&&%",
"p1;>8dkmZFFZmkfduyyr88727772178yudffdgxmZFFZmkfduyyr88872772211:",
"p1;>8dxCFKKFVvfdddsuuuyyuuyyyyuddfdddfvVFKKFVvfddduuuyyyuyyuyyr2",
"p4:>8dvCKIIKCvfdddddfdddddddddddffddddxCGIIHCxduudduuuuddddfddu8",
"a4>,rdvZKYYKCvfddfffffffffffffffffduyykNHYIHVkyryyyyyyuddfffffdr",
"a811rdvZKYYKCvffdfffffffffffffffffdyrydNGIIGNd82288888ryddffffdy",
"h812tdvZKYYKZvkfffffffffffffffffffdyr9dNFIIFNd811111118ryddffddy",
"p818ykmSKYYKFVvkkfffffffffffffffffduyyjNGIIHBli8411::118rysdddyr",
"i519dvCFLTRYKSCmvkffffffffffffffffdddjcZHYTIFNva04,:::118ryyyyr8",
"9110jmAKIRRRIKFZmkffffffffffffffffkkvnBFIRRTIFZca91:::,117888871",
"4-1qvBFLIRRRRYLFVvffdffffffffffdddkvmCDHIRRRRIHZl01::,111111111:",
"1:<qcZGLIRRRRRYHCxddddffffffffddusdvNAGLIRRRRRIDci1:>1111112211:",
"4=-qcAGLITRRERRHNkduudfffffffddyr8ikNAGLITRRERYFci1117888888882>",
"5=-qcAGJLLIRRRYGNdyryddffffffdsr218hnAGJLLIRRRYFci118ryyyyyyyy81",
"0--0zBDGGGHITRIDcp88yddffffffdu8-=<qzBDGGGHITRIDci72ryddddddduy1",
"q-=6hnBZZAAGHHGZvi8ryddffffffdu8:&=6hnBAZAAGHHGBvi88ysdffdddduy2",
"w<=3qhzzzzcMBBNcjiryudfffffffdu8:&=3whzzzzcMBBNcjiyyudffffdduy81",
"a4=-360000qweaappyyuddffffffffur1:=-360000qweaaapyyuddffffduyr81",
"j8-========--<350yddddfffffffduy81:========--<35yyddddfffddur811",
"j01:&#@@@@@@@#=18udffffffffffddyr71:=#@@@@@@@#=18udffffffddur811",
"vp81>::;;====:-8ydffffffffffffdsyr811::;=====:-8ydffffffffduyr88",
"vdyr88888887288yudffffffffffffddsuyr88887887788yudffffffffdduyyy",
"bkduuyyyyyyyyyyudddddddddddddddddsuuyyyyyyyyyyyudddddddddddddduu",
"mkdduyyyyyyyyyyyyyyyyyyuyyyyyyyuyyyyyyyyyyyyyyyyyyyyyyyuyyusddds",
"mkdyr888888888887788888888888888888888888888888877888888788ryddu"
};
