/* XPM */
static char *tile_14[] = {
/* columns rows colors chars-per-pixel */
"64 64 80 1 ",
"  c #2D313F",
". c #43343F",
"X c #4B343D",
"o c #51363F",
"O c #59353A",
"+ c #643537",
"@ c #6A3536",
"# c #683739",
"$ c #7A3631",
"% c #753835",
"& c #7C3832",
"* c #2E3544",
"= c #2F3948",
"- c #323644",
"; c #3C3541",
": c #343947",
"> c #393845",
", c #35394A",
"< c #3A3D4D",
"1 c #3C3F53",
"2 c #483742",
"3 c #413945",
"4 c #4C3943",
"5 c #403E4B",
"6 c #533A43",
"7 c #3B404E",
"8 c #3E4254",
"9 c #3F4857",
"0 c #43414F",
"q c #484755",
"w c #424857",
"e c #42445A",
"r c #454B5B",
"t c #484E5E",
"y c #474960",
"u c #4A4E63",
"i c #475161",
"p c #4C5263",
"a c #4F5368",
"s c #505666",
"d c #505469",
"f c #535B6B",
"g c #595F6F",
"h c #585D70",
"j c #585F70",
"k c #596071",
"l c #5D6475",
"z c #5F6678",
"x c #5F687A",
"c c #606677",
"v c #606779",
"b c #636A7B",
"n c #A33D1F",
"m c #82362C",
"M c #85382E",
"N c #8C392B",
"B c #973B26",
"V c #9C3B22",
"C c #903929",
"Z c #833830",
"A c #A63F20",
"S c #AB421F",
"D c #B3461F",
"F c #B6481E",
"G c #BA4A1F",
"H c #A74020",
"J c #BE4D20",
"K c #C14E1F",
"L c #C14E20",
"P c #C55120",
"I c #CA5421",
"U c #D15721",
"Y c #D15821",
"T c #676D81",
"R c #686F81",
"E c #6C7386",
"W c #6F778A",
"Q c #70778A",
"! c #737B8E",
"~ c #757D90",
/* pixels */
"888118eudfjjjjjjjjjjjjjjjjjjjjjjjjjfdpuuuuuuuuuuuuuuuuutee888811",
"eeeeeeerupaddddddddddddddddddddddddppuuuuuuuuuuuuuuuuuuyeeeeeeee",
"eeeeeeeeyuuuuuuuuuuuuuuuuuupdddddddddddddddddddddddddapureeeeeee",
"888888eeruuuuuuuuuuuuuuuuupdfjjjjjjjjjjjjjjjjjjjjjjjjjfdue811888",
"<<<<<<8etpdddddddddddddpadfjzbTTTbTTTTTTTTTTTTTTTTTTTbvjpe1<<<<<",
",,,,,,8rpdfffffffffffffffflzTEWWWWWWWWWWWWWWWWWWWWWQQWRlfr<,,,::",
"---:,<8rpffffgffjffffjfffjlbEQ!~!!!!!!!!~~~~!!!!!!!~~!Wbjpe7,:--",
" --,7erpsffjjjjjjjjjjjjffllbE!~~~~~~~~~~~~~~~~~~~~~~~~!Ebgsr8,- ",
" -:7etpdfffjjjjjjjjjjjjffllbE!~~~~~~~~~~~~~~~~~~~~~~~~!QEblfr<- ",
"-:<etpfffffffffffffffffffflbEQ!!!!!!!!!!!!!!!!!!!!!!!!!!!ETlse<-",
"<78rpfffffffffffffffffffffflbEEWWEEEEEEEEEEEEEEEWWWWQ!!!!!Ebgpre",
"trrpfffffddppppppppppppppppfllxbbbbbbbbbbbbbbbbbbbbbREE!!!!Eblff",
"fspsffffdauurrwwww9999988rrrppfffffffffffffffffffffllbTE!!!WEbbb",
"lffffffdaure88<<<<55<5555550eeqqqqqqqqqqqqqqqqeeewrpflvbE!!!!WWE",
"blfffffdpre1<,>3246666666666666666666666666666443<7etslbE!!!~!!!",
"bllffffsue1,,-;XO+@@@@@@@@@@@@@@@@@@@@@@@@@@@@+OX;:,8tflRQ!~~~~~",
"blljfffpr8<,*-3O@&MMMmmmmmmmmmmmmmmmmmmmmmmmmm&@O.-=,eplbW!~~~~~",
"bllgfffpr8,--;o#&NBBBBBBBBBBBBBBBBBBBBBBBBBBBBN&#o;-:7rfbW!~~~~~",
"bljffffpw<>;3o+%MBVnnAHHHHHHHHHHHHHHHHHHHHAnnVBM%+o.;>wfbE!~~~~~",
"bljffffpw<3XO#%ZNVnSSDDFFFFFFFFFFFFFFFFFFDDSSnVCZ%#OX3efbE!~~~~~",
"bljffffpw<2O@&MNBVnSDGKKKKKKKKKKKKKKKKKKKKGDSnVBCM&@O4efbE!~~~~~",
"blljfffpw<4+&NBVVnSDGPIIIPPIIIIIIIIIIPIIIIPGDSnVVBN&+4efbE!~~~~~",
"Tblllffp856@MBVnnSSGLIIIIIIIIIIIIIIIIIIIIIILGSSnnVBm@6qfbE!~~~~~",
"ETbzljfi856@MBnSSDGLIIIIPPLJJLLLLLLJJLPPIIIILGDSSnBm@6qfbE!~~~~~",
"WEEbzlfi856@MBnSDGLIIIIPLGFDDDDDDDDDDFGLIIIIILGDSnBm@6qfbE!~~~~~",
"!!WEblfp956@mBADGPIIIIILJDSSSSSSSSSSSSDJLIIIIIPGDABm@6qfbE!~~~~~",
"~!!ETvfpr56@mBHDKIIIIIPJFDSSSSSSSSSSSSDFJPIIIIPKDHBm@6qfbE!~~~~~",
"~~!!Eblfr06@mBHFKIIIPLJJGFDDDDDDDDDDDDFGJJLPIIIKFHBm@6qfbE!~~~~~",
"~~!!QEblpe6@mBHFKIIPLJFGJJJJJJJJLLLJJJJJGGJLPIIKFHBm@6qsbE!~~~~~",
"~~~!!!Elpe6@mBHFKIIPGDDFJPIIIIIIIIIIIIPJFDDGPIIKFHBm@6qfbE!~~~~~",
"~~~~~!Exfq6@mBHFKIILFSSDLIIIIIIIIIIIIIIJDSSFLIIKFHBm@6qfbE!~~~~~",
"~~~~~!Wbfq6@mBHFKIIJDSSDJIIYYUUUUUUYYIIJDSSDJIIKFHBm@6qfbE!~~~~~",
"~~~~~!Wbfq6@mBHFKIIJDSSDJIIYYUUUUUUYYIIJDSSDJIIKFHBm@6qfbE!~~~~~",
"~~~~~!Ebfq6@mBHFKIILDSSDJIIUUUUUUUUUUIIJDSSDLIIKFHBm@6qfbE!~~~~~",
"~~~~~!Ebfq6@mBHFKIILDSSDJIIUUUUUUUUUUIIJDSSDLIIKFHBm@6qfbE!~~~~~",
"~~~~~!Ebfq6@mBHFKIIJDSSDJIIYYUUUUUUYYIIJDSSDJIIKFHBm@6qfbE!~~~~~",
"~~~~~!Ebfq6@mBHFKIIJDSSDJIIYYUUUUUUYYUIJDSSDJIIKFHBm@6qfbE!~~~~~",
"~~~~~!Ebfq6@mBHFKIPLFSSDLIIIIIUUIIIIIIILDSSFLPIKFHBm@6qfbE!~~~~~",
"~~~~~!Ebfq6@mBHFKIIPGDDFJPIIIIIIIIIIIIPJFDDGPIIKFHBm@6qfbE!~~~~~",
"~~~~~!Ebfq6@mBHFKIIPLJGGJJJJJJLLJJJJJJJJGFJLPIIKFHBm@6qfbE!~~~~~",
"~~~~~!Ebfq6@mBHFKIIIPLJJGFDDDDDDDDDDDDFGJJLPIIIKFHBm@6qfbE!~~~~~",
"~~~~~!Ebfq6@mBHDKIIIIIPJFDSSSSSSSSSSSSDFJPIIIIIKDHBm@6qfbE!~~~~~",
"~~~~~!Ebfq6@mBADGPIIIIILJDSSSSSSSSSSSSDJLIIIIIPGDABm@6qfbE!~~~~~",
"~~~~~!Ebfq6@mBnSDGLIIIIILGFDDDDDDDDDDFGLPIIIILGDSnBm@6qfbW!~~~~~",
"~~~~~!Ebfq6@mBnSSDGLIIIIPPLJJLLLLLLJJLPPIIIILGDSSnBm@6qfbW!~~~~~",
"~~~~~!Ebfq6@mBVnnSSGLIIIIIIIIIIIIIIIIIIIIIILGSSnnVBm@6efxE!~~!!!",
"!!~~~!Ebfe4+&NBVVnSDGPIIIIPIIIIIIIIIIIIIIIPGDSnVVBN$+4eplEW!!!!!",
"!!~~~!Ebfe4O@&MCBVnSDGKKKKKKKKKKKKKKKKKKKKGDSnVVNM&@O4eplbEEEEEE",
"W!~~~!Ebfe3XO#%ZCVnSSDDFFFFFFFFFFFFFFFFFFDDSSnVNZ%#OX37tflbbbbbb",
"E!!~~!Ebfw<;.o+%MBVnnAHHHHHHHHHHHHHHHHHHHHAnnVBM%+o3;>7rpfllllll",
"E!!~~!Wbfr7:-;o#&NBBBBBBBBBBBBBBBBBBBBBBBBBBBBN&#o;--,8rpfjlljlj",
"E!~~~!Wblpe,=-.O@&mmmmmmmmmmmmmmmmmmmmmmmmmMMM&@O3-*,<8rpffjfgff",
"E!~~~!QRlft8,:;XO+@@@@@@@@@@@@@@@@@@@@@@@@@@@@+OX;-,,1eupffgffff",
"EW!~~!!Eblste7<3446666666666666666666666666666423>,<1erudffgffff",
"bEW!!!!ETclfprweeeqqqqqqqqqqeqqqqqqqqqee005555<<<<88erupffffffff",
"lcbEW!!!ETbllfffffffffffffffffffffffffpprrr889wwwwrruupdffffsppp",
"pflbE!!!!EERbbbbbbbbbbbbbbbbbbbbbbbbbbllfppppppppppppddffffdprre",
"8wpgbE!!!!!QWWWWEEEEEEWWEEEEEEWWEEEEEEEblffffffffffffffffffpr8<<",
"-,eslTE!!!!!~!!!!!!!!!!!!!!!!!!!!!!!!WETblffffffffffffffffpte<:-",
" -<rflbEQ!~~~~~~~~~~~~~~~~~~~~~~~~~!!EEbvllffjjjjjjjjffffptw7:-*",
" -,8rsgbE!~~~~~~~~~~~~~~~~~~~~~~~~!!ETbvlljjjjjjjjjjjffdpre7,--*",
"--:,7epjbW!~~!!!!!!!~!!!!!!!~~!!!!!ETblljjfffffjffgffffpre<,:---",
":::,,<rdlRWWQWWWWWWWWWWWWWWWWWWWWWETvlffffffffffffffffdpr8,,:,,,",
"<<<,,<epfvbTTbbbbbbbTTTTbbbbTTTTTbbljfdppddddddddddddppue1<,,<<<"
};
