/* XPM */
static char *tile_16[] = {
/* columns rows colors chars-per-pixel */
"64 64 36 1 ",
"  c #293F5A",
". c #27435F",
"X c #29435E",
"o c #274460",
"O c #2A4560",
"+ c #274866",
"@ c #2B4964",
"# c #264F6F",
"$ c #2B4E6C",
"% c #27546B",
"& c #2B506F",
"* c #255577",
"= c #265E74",
"- c #2A577A",
"; c #24597E",
": c #26667B",
"> c #2A617B",
", c #256B7F",
"< c #255B80",
"1 c #295D82",
"2 c #256480",
"3 c #296284",
"4 c #256C80",
"5 c #296A84",
"6 c #27658D",
"7 c #27698E",
"8 c #27738E",
"9 c #276791",
"0 c #286791",
"q c #266C97",
"w c #256F9C",
"e c #277492",
"r c #277892",
"t c #25709E",
"y c #25799D",
"u c #25839D",
/* pixels */
"3--16qwtttttttttttttttttttttttttttyyyyyyyyyyyye73-&$$$$$$$------",
"1--16qwttttttttttttttttttttttttttttttttttttttte73------&&&-----@",
"1--16qwttttttttttttttttttttttttttttttttttttttttq3---------$&&$$O",
"1--16qwttttttttttttttttttttttttttttwtttttyyyyyte7611111---&$$$@X",
"1--16qwttttttttttttttttttttttttttttwttttyyyyyyyteq666661---&$$@X",
"1--16qwtttttttttttttttttttttttttttttttttyuuuuuyytqqqqq66---&&$$X",
"1--16qwtttttttttttttttttttttttttttttttttyuuuuuyytqqqqq66---&$$$X",
"1--16qwtttttttttttttttttttttttttttttttttyyyuyyyteq666661---&&$$.",
"1--16qwtttttttttttttttttttttttttttttttttttyyyyte7611111---&$&$$.",
"1--16qwttttttttttttttttttttttttttttttttttttttttq3---------$$&$$.",
"1--16qwtttttttttttttttttttttttttttttttttttttttq61--&----$$&&-$$.",
"1--16qwttttttttttttttttttttttttttttttttttttttwq61-&$$$$&$$&&-$$.",
"1--16qtttttttttttttttttttttttttttttttttttttttwq61--$$$$&$$&--$$.",
"1--16qwttwwwwwwwwwwwwwwwwwwwwwwwwwwwwwwwttttwwq61--$$&$&&$&--$$.",
"----6qqqqqqqqqqqqqqqqqqqqqqqqqqqqqqqqqqqqqqqqqq61--$$$$&&&&-&$$X",
"----16666666666666666666666666666666666666666661---&$$$&&&&-$$@X",
"------1111111111111111111111111111111111111111-----&&&&&$&$&$$$X",
"--------------------------------------------------&&&&&&$&$--$$X",
"--------------------------------------------------&&&&&&&&&-&$$O",
"------1111111111111111111111111111111111111111-----&&&&&$$&&-$$X",
"----16666666666666666666666666666666666666666661--&$&&&&&$&--$$X",
"----6qqqqqqqqqqqqqqqqqqqqqqqqqqqqqqqqqqqqqqqqqq6--&$$$&&$$&--$$X",
"1---6qwttwwwwwwwwwwwwwwwwwwwwwwwwwwwwwwwwwwttwq61-&$$$$&&&&--$$.",
"1--16qttttttttttttttttttttttttttttttttttttttttq61-&$$$$&&&&-$$@.",
"1--16qttttttttttttttttttttttttttttttttttttttttq61--$$&&$$$$$$$$.",
"1--16qwttttttttttttttttttttttttttttttttttttttwq61--$$&$$&&$$-$$.",
"1--16qwttttttttttttttttttttttttttttttttttttttwq61--$$$$$&&&--$$.",
"1--16qwtttttttttttttttttttyyyyyttttttttttttttwq61--$$&&&&&&--$$.",
"1--16qwttttttttttttwttttyyyyyyyytttttttttttttwq61--$$&&&$$&--$$.",
"1--16qwttttttttttttttttyyyuuuuuytttttttttttttwq61--$$&&&$$&--$$.",
"1--16qwttttttttttttttttyyuuuuuuyttttttttttttwwq61--$$&&&$$&$&$$X",
"1--16qwtttttttttttttttttyyyyyyyytttwwtttttttwwq61--$$&&&$&&&-$$X",
"1--16qttttttttttyyyytttttyyyyyyttttttttttttttwq61--$$$&&&&&-&$$X",
"1--16qtttttttttyyyyyyttttttttttttttttttttttttwq61--$$$&$&&&-$$$O",
"1--16qttttttttyyyuuuyytttttttttttttttttttttttwq61--$$&&$&&&--$$X",
"1--16qtttyyyyyyyuuuuyyyttttttyyyyyyyyytttttttwq61--$$&&&&&&-$$@X",
"1--16qttyyyyyyuuuuuuuyyyttttyyyyyyyyyyyytttttwq61--$$&&&&$&--$$X",
"1--16qttyyuuuuuuuuuuuuuyyttyyuuuuuuuuuuytttttwq61--$$&&&$$&--$$X",
"1--16qttyuuuuuuuuuuuuuuyyyyyyuuuuuuuuuuytttttwq61--$$&&&$$$--$$.",
"1--16qttyyyyyyuuuuuuuuuuyyyyuuuuuuyyyyyytttttwq61--$$&&&$$$&-$$.",
"1--16qtttyyyyyyyuuuuuuuuuuuuuuuuyyyyyytttttttwq61--$$$&&&&$&$$$.",
"1--16qttttttttyyyuuuuuuuuuuuuuuuyytttttttttttwq61--$$$&$$&&&-$$.",
"1--16qwttttttttyyuuuuuuuuuuuuuyyyttttttttttttwq61--$$&&$&&&-&$$.",
"1--16qwtttttttttyyyyyyyyyyyyyyyyttttwttttttttwq61--$$&&&&&&&&$$.",
"1--16qwttttwtttttyyyyyyyyyyyyyttttttwttttttttwq61--$$$$$&&&--$$.",
"1--16qwttttttttttttttttttttttttttttttttttttttwq61--$$$$$&&&--$$.",
"1--16qwttttttttttttttttttttttttttttttttttttttwq61--$$&$$&&&--$$X",
"1--16qwttttttttttttttttttttttttttttttttttttttwq61--$$&$$&&&-&$@X",
"1--16qwttttttttttttttttttttttttttttttttttttttwq61--$$&&$&&&--$@X",
"1--16qwttttttttttttttttttttttttttttttttttttttwq61--$$&$$&&&--$@X",
"1--16qwttttttttttttttttttttttttttttttttttttttwq61--$$$$$$&$$-$$X",
"1--16qwttttttttttttttttttttttttttttttttttttttwq61--$$$$&$$$$-$$X",
"1--16qwtttttttttttttttttttttttttttttttttttttttq61-&$$$$&$&&$-$$X",
"1--16qwtttttttttttttttttttttttttttttttttttttttq61--&----&&&&&$$X",
"1--16qwtttttttttttttttttttttttttttttttttttttttwq3---------&$$$$X",
"1--16qwttttttttttttttttttttttttttttttttwwtttttte7611111----&&$$.",
"1--16qwtttttttttttttttttttttttttttttttttttttyyyteq666661---&$$$.",
"1--16qwttttttttttttttttttttttttttttttttttttyyyyytqqqqq66---&-&$o",
"1--16qwttttttttttttttttttttttttttttttttttttyuuuyteqqqq66-------+",
"3--16wtttttttttttttttttttttttttttyyyyyyyyyyyuuuyeqq66661-------#",
"3--16wttttttttttttttttttttttttttyyyuuuyyyuuuuuur8631111-----131*",
"3--16qwwwwwwwwwwwwwwwwwwwwwwwwttyyuuuuuuuuuuuur85-------&&--666;",
"5---360qqqqq99qqqqqq99qqqqq99qqqerrrrrrrrrrrrr85>-$$$$$@@$--696<",
"5-----11<<<<;;<<<<<<;;;;<<<<;;<22444444444444,:=%@XX XX XX@-16q<"
};
