/* XPM */
static char *wall[] = {
/* columns rows colors chars-per-pixel */
"64 64 18 1 ",
"  c #876643",
". c #886644",
"X c #8A6844",
"o c #8F6C49",
"O c #906C46",
"+ c #946F48",
"@ c #97714A",
"# c #9A7752",
"$ c #9F7952",
"% c #A37D56",
"& c #A57F58",
"* c #A7815A",
"= c #A9835C",
"- c #AD8760",
"; c #AF8962",
": c #B38D66",
"> c #B58F68",
", c #B7916A",
/* pixels */
"................................................................",
"................................................................",
" .........XXXXo@@@@oXXXXXXXXXXXXo@@@@XXXXXXXXXXXXXo@@@+X....... ",
" XXXXXO+@@@@@@@;,,-@@@@@@@@@@@@@@:,,=@@@@@@@@@@@@@@:,,,$+OXXXX. ",
" XXXX+@@@@@@@@@$,,@@@@@@@@@@@@@@@%,>@@@@@@@@@@@@@@@$,,;@@@@XXXX ",
" XXX+@@@@@@@@@@@>;@@@@@@@@@@@@@@@@,;@@@@@@@@@@@@@@@@,,$@@@@@XXX ",
" XXX@@@@@@@@@@@@;;@@@@@@@@@@@@@@@@,;@@@@@@@@@@@@@@@@,,$@@@@@OX. ",
".XX+@@@@@@@@@@@@::@@@@@@@@@@@@@@@@,>@@@@@@@@@@@@@@@#,,=@@@@@@X. ",
".XX@@@@@@@@@@@@$,,$@@@@@@@@@@@@@@*,,%@@@@@@@@@@@@@@=,,,@@@@@@X. ",
".XX@@@@@@@@@@@@:,,:@@@@@@@@@@@@@$>,,>%@@@@@@@@@@@@*,,,,;@@@@@X. ",
" +@$$$$$$$$$$=,,,,,,*$$$$$$$$$$=,,,,,,;**********:,,,,,,:****@X ",
" +#,,,,,,,,,,,,,,,,,,,,,,,,,,,,,,,,,,,,,,,,,,,,>;;*******-;>,&X ",
" X+**>,,,,:&$@@@@@@@@$%:,,,,>=$#@@@@@@@$$=,,,,:@@@@@@@@@@@@@:&X ",
" XX@@@>,,>@@@@@@@@@@@@@@:,,,%@@@@@@@@@@@@@=,,,$@@@@@@@@@@@@@#$X ",
" XX@@@#,,%@@@@@@@@@@@@@@@,,=@@@@@@@@@@@@@@@:,;@@@@@@@@@@@@@@@@X ",
" XX@@@@-,@@@@@@@@@@@@@@@@;,$@@@@@@@@@@@@@@@*,*@@@@@@@@@@@@@@@+X ",
" XX@@@@*,@@@@@@@@@@@@@@@@;,$@@@@@@@@@@@@@@@*,*@@@@@@@@@@@@@@@+X ",
" XX@@@@*,@@@@@@@@@@@@@@@@:,%@@@@@@@@@@@@@@@=,-@@@@@@@@@@@@@@@@X ",
" XX@@@@:,*@@@@@@@@@@@@@@$,,;@@@@@@@@@@@@@@@>,,@@@@@@@@@@@@@@@$X ",
" XX@@@%,,>$@@@@@@@@@@@@@:,,,&@@@@@@@@@@@@@=,,,:#@@@@@@@@@@@#:&X ",
" XX@@=,,,,,&@@@@@@@@@@$:,,,,,=@@@@@@@@@@@:,,,,,>=*********=>,&X ",
" o@;;;;;;;;:,,,,,,,,,,:;;;;;;:,,,,,,,,,,:;;;;;;:,,,,,,,,,,>;;$X ",
" o+@@@@@@@@@@@;,,,,=@@@@@@@@@@@@-,,,,=@@@@@@@@@@@@-,,,,:%@@@@X..",
" XX@@@@@@@@@@@@:,,-@@@@@@@@@@@@@@:,,-@@@@@@@@@@@@@@:,,,#@@@@@X..",
" XX@@@@@@@@@@@@%,,@@@@@@@@@@@@@@@%,,@@@@@@@@@@@@@@@%,,=@@@@@@X..",
" XX@@@@@@@@@@@@@>;@@@@@@@@@@@@@@@@,;@@@@@@@@@@@@@@@@,,$@@@@@@X. ",
" XX@@@@@@@@@@@@@;;@@@@@@@@@@@@@@@@,;@@@@@@@@@@@@@@@@,,$@@@@@@X. ",
" XX@@@@@@@@@@@@@,:@@@@@@@@@@@@@@@@,:@@@@@@@@@@@@@@@@,,%@@@@@@X. ",
" XX@@@@@@@@@@@@%,,$@@@@@@@@@@@@@@*,,$@@@@@@@@@@@@@@*,,;@@@@@@X. ",
" XX@@@@@@@@@@@@:,,:@@@@@@@@@@@@@$>,,:@@@@@@@@@@@@@$>,,,&@@@@@X. ",
" +@$$$$$$$$$$=,,,,,,*$$$$$$$$$$=,,,,,,*$$$$$$$$$$=,,,,,,:%$$$@. ",
" +#,,,,,,,,,,,,,,,,,,,,,,,,,,,,,,,,,,,,,,,,,,,,,,,,,,,,,,,,,,&X ",
" o@,,,,,,,:&$@@@@@@@@$%:,,,,>=$#@@@@@@@$$=,,,,,=$$@@@@@@@#$=,&X ",
" XX@@*,,,>@@@@@@@@@@@@@@:,,,&@@@@@@@@@@@@@=,,,=@@@@@@@@@@@@@=&X ",
" XX@@@=,,*@@@@@@@@@@@@@@$,,>@@@@@@@@@@@@@@@,,>@@@@@@@@@@@@@@@#X ",
" XX@@@@:,@@@@@@@@@@@@@@@@>,=@@@@@@@@@@@@@@@:,=@@@@@@@@@@@@@@@@X ",
" XX@@@@=,@@@@@@@@@@@@@@@@;,%@@@@@@@@@@@@@@@=,*@@@@@@@@@@@@@@@+X ",
" XX@@@@*,@@@@@@@@@@@@@@@@:,%@@@@@@@@@@@@@@@=,*@@@@@@@@@@@@@@@@X ",
" XX@@@@=,%@@@@@@@@@@@@@@@,,=@@@@@@@@@@@@@@@:,:@@@@@@@@@@@@@@@@X ",
" XX@@@@>,:@@@@@@@@@@@@@@-,,,#@@@@@@@@@@@@@&,,,&@@@@@@@@@@@@@%&X ",
" XX@@@:,,,>#@@@@@@@@@@@=,,,,,%@@@@@@@@@@@=,,,,,=@@@@@@@@@@@=,&X.",
" X+$&>,,,,,,;;;;;;;;;;>,,,,,,,:;;;;;;;;;:,,,,,,,:;;;;;;;;;:,,&X.",
" +#********=;:,,,,,,;=%$$$$$$%**>,,,,,;=%$$$$$$%**>,,,,,:*&$$@X.",
" XX@@@@@@@@@@@*,,,>$@@@@@@@@@@@@%,,,>$@@@@@@@@@@@@%,,,,*@@@@@X. ",
" XX@@@@@@@@@@@@;,,%@@@@@@@@@@@@@@=,,%@@@@@@@@@@@@@@=,,;@@@@@@X. ",
" XX@@@@@@@@@@@@$,:@@@@@@@@@@@@@@@@,:@@@@@@@@@@@@@@@@,,%@@@@@@X. ",
" XX@@@@@@@@@@@@@:;@@@@@@@@@@@@@@@@,;@@@@@@@@@@@@@@@@,,$@@@@@@X..",
" XX@@@@@@@@@@@@@:;@@@@@@@@@@@@@@@@,;@@@@@@@@@@@@@@@@,,&@@@@@@X. ",
" XX@@@@@@@@@@@@@,,@@@@@@@@@@@@@@@%,,@@@@@@@@@@@@@@@%,,=@@@@@@X. ",
" XX@@@@@@@@@@@@*,,*@@@@@@@@@@@@@@;,,*@@@@@@@@@@@@@@;,,>@@@@@@X. ",
" XX@@@@@@@@@@@=,,,,=@@@@@@@@@@@@;,,,,=@@@@@@@@@@@@;,,,,:%@@@@X. ",
" +#**********;,,,,,,>;;;;;;;;;;,,,,,,,>;;;;;;;;;;,,,,,,,,:;;;$X ",
" o@,,,,,,,,,,:;;;;;;:,,,,,,,,,,>;;;;;;;,,,,,,,,,,,;;;;;;;>,,,&X ",
" XX@@%,,,,-#@@@@@@@@@@@-,,,,:%@@@@@@@@@@@%>,,,>%@@@@@@@@@@@%>&X ",
" XX@@@=,,:@@@@@@@@@@@@@@-,,,#@@@@@@@@@@@@@&,,,%@@@@@@@@@@@@@%&X ",
" XX+@@@:,%@@@@@@@@@@@@@@@,,=@@@@@@@@@@@@@@@:,:@@@@@@@@@@@@@@@@X ",
" XX+@@@=,@@@@@@@@@@@@@@@@;,$@@@@@@@@@@@@@@@*,*@@@@@@@@@@@@@@@+X ",
" XXX@@@*,@@@@@@@@@@@@@@@@;,$@@@@@@@@@@@@@@@*,*@@@@@@@@@@@@@@++X ",
" XXX+@@=,@@@@@@@@@@@@@@@@:,%@@@@@@@@@@@@@@@=,=@@@@@@@@@@@@@@X+X ",
" XXXX@@>,*@@@@@@@@@@@@@@$,,;@@@@@@@@@@@@@@@>,>@@@@@@@@@@@@@OX#X ",
" XXXXX*:,>#@@@@@@@@@@@@@:,,,%@@@@@@@@@@@@@=,,,=@@@@@@@@@@+XX@#X ",
".....XXX@@@XXXXXXXXXXXXo@@@@@XXXXXXXXXXXXo@@@@@oXXXXXXXX...XXXX ",
"................................................................",
"................................................................"
};
