/* XPM */
static char *tile_00[] = {
/* columns rows colors chars-per-pixel */
"64 64 127 2 ",
"   c #2A2E3E",
".  c #2C303F",
"X  c #313E3D",
"o  c #354C3B",
"O  c #3F682A",
"+  c #436E1D",
"@  c #477217",
"#  c #4C761F",
"$  c #426A2D",
"%  c #4B7428",
"&  c #547C2F",
"*  c #456A35",
"=  c #43673D",
"-  c #476A3F",
";  c #4C703B",
":  c #527834",
">  c #54783A",
",  c #2F3341",
"<  c #313543",
"1  c #353947",
"2  c #323748",
"3  c #3B3E4A",
"4  c #364243",
"5  c #3D414F",
"6  c #3F5348",
"7  c #3E4353",
"8  c #434953",
"9  c #474D5E",
"0  c #494F5E",
"q  c #4A5D57",
"w  c #4C505C",
"e  c #476942",
"r  c #486946",
"t  c #4B6A4C",
"y  c #506F4B",
"u  c #5B7E45",
"i  c #57784A",
"p  c #5A7A4C",
"a  c #4D6952",
"s  c #506B57",
"d  c #536D5B",
"f  c #5C765F",
"g  c #627E5B",
"h  c #4E5465",
"j  c #4F5B61",
"k  c #515766",
"l  c #535966",
"z  c #585A62",
"x  c #505768",
"c  c #545B6C",
"v  c #595F6F",
"b  c #585F71",
"n  c #556765",
"m  c #566D61",
"M  c #596E67",
"N  c #59626E",
"B  c #5D6D6D",
"V  c #5C7563",
"C  c #5D716C",
"Z  c #5B6272",
"A  c #5E6B71",
"S  c #63656C",
"D  c #62766D",
"F  c #677C6E",
"G  c #616777",
"H  c #686C76",
"J  c #606779",
"K  c #686F7B",
"L  c #637476",
"P  c #6A7C77",
"I  c #66757B",
"U  c #70747F",
"Y  c #787A7F",
"T  c #6A893D",
"R  c #6B874D",
"E  c #749149",
"W  c #628154",
"Q  c #648258",
"!  c #738C5C",
"~  c #789359",
"^  c #678166",
"/  c #688169",
"(  c #788F67",
")  c #70856E",
"_  c #758A6E",
"`  c #798F6C",
"'  c #6D8175",
"]  c #6E807B",
"[  c #738576",
"{  c #788C75",
"}  c #75867C",
"|  c #778978",
" . c #78897C",
".. c #676F82",
"X. c #6A7285",
"o. c #6D7985",
"O. c #6F7789",
"+. c #6F7A88",
"@. c #727682",
"#. c #737C84",
"$. c #7D7F86",
"%. c #70778A",
"&. c #757D90",
"*. c #748383",
"=. c #76818A",
"-. c #7C8289",
";. c #84878C",
":. c #898B8F",
">. c #8B8E94",
",. c #888F9A",
"<. c #8D9397",
"1. c #93959B",
"2. c #93969A",
"3. c #999EA2",
"4. c #9CA2A4",
"5. c #A0A6A7",
"6. c #A1A7A8",
"7. c #A2A8A9",
"8. c #A9AEAE",
"9. c #AEAFB2",
"0. c #ABB0B0",
"q. c #B1B5B4",
"w. c #B7B7B9",
"e. c #B7B9B9",
"r. c #B9BABA",
"t. c #BFC0C0",
"y. c #C0C1C2",
/* pixels */
"c Z K -.<.4.7.7.7.7.7.7.7.7.7.7.7.7.7.7.7.7.7.7.7.7.7.7.7.7.7.7.7.7.7.7.7.7.7.7.7.7.7.7.7.7.7.7.7.7.7.7.7.7.7.7.7.7.7.7.7.7.4.<.",
"c Z K -.<.4.7.7.7.7.7.7.7.7.7.7.7.7.7.7.7.7.7.7.7.7.7.7.7.7.7.7.7.7.7.7.7.7.7.7.7.7.7.7.7.7.7.7.7.7.7.7.7.7.7.7.7.7.7.7.7.7.4.<.",
"c Z K -.<.4.6.7.6.4.4.6.7.7.7.7.7.7.7.7.7.7.7.7.7.7.7.7.7.7.7.7.7.7.7.7.7.7.7.7.7.7.7.7.7.7.7.7.7.7.7.7.7.7.7.7.6.4.4.6.7.7.4.<.",
"c Z K -.<.4.5.4.4.3.3.4.4.7.7.7.7.7.7.7.7.7.7.7.7.7.7.7.7.7.7.7.7.7.7.7.7.7.7.7.7.7.7.7.7.7.7.7.7.7.7.7.7.7.7.4.4.3.3.4.4.6.4.<.",
"c Z K -.<.4.4.4.3.<.<.3.4.6.7.7.7.7.7.7.7.7.7.7.7.7.7.7.7.7.7.7.7.7.7.7.7.7.7.7.7.7.7.7.7.7.7.7.7.7.7.7.7.7.6.4.3.<.<.3.4.4.4.<.",
"c Z K -.<.4.4.3.<.,.,.<.3.5.7.7.7.7.7.7.7.7.7.7.7.7.7.7.7.7.7.7.7.7.7.7.7.7.7.7.7.7.7.7.7.7.7.7.7.7.7.7.7.7.5.3.<.,.,.<.3.4.4.<.",
"c Z K -.<.4.4.3.<.,.<.<.3.5.7.7.7.7.7.7.7.7.7.7.7.7.7.7.7.7.7.7.7.7.7.7.7.7.7.7.7.7.7.7.7.7.7.7.7.7.7.7.7.7.5.3.<.,.,.<.3.4.4.<.",
"c Z K -.<.4.4.4.3.<.<.3.4.6.7.7.7.7.7.7.7.7.7.7.7.7.7.7.7.7.7.7.7.7.7.7.7.7.7.7.7.7.7.7.7.7.7.7.7.7.7.7.7.7.6.4.3.<.<.3.4.4.4.<.",
"c Z K -.<.4.5.4.4.3.3.4.4.7.7.7.7.7.7.7.7.7.7.7.7.7.7.7.7.7.7.7.7.7.7.7.7.7.7.7.7.7.7.7.7.7.7.7.7.7.7.7.7.7.7.4.4.3.3.4.4.5.4.<.",
"c Z K -.<.4.6.7.6.4.4.6.7.7.7.7.7.7.7.7.7.7.7.7.7.7.7.7.7.7.7.7.7.7.7.7.7.7.7.7.7.7.7.7.7.7.7.7.7.7.7.7.7.7.7.7.6.5.5.7.7.6.4.<.",
"c Z K -.<.4.7.7.7.7.7.7.7.7.7.7.7.7.7.7.7.7.7.7.7.7.7.7.7.7.7.7.7.7.7.7.7.7.7.7.7.7.7.7.7.7.7.7.7.7.7.7.7.7.7.7.7.7.7.7.7.7.4.<.",
"c Z K -.<.4.7.7.7.7.7.7.7.7.7.7.7.7.7.7.7.7.7.7.7.7.7.7.7.7.7.7.7.7.7.7.7.7.7.7.7.7.7.7.7.7.7.7.7.7.7.7.7.7.7.7.7.7.7.7.7.7.4.<.",
"c Z K -.<.4.7.7.7.7.7.7.7.7.7.7.7.7.7.7.7.7.7.7.7.7.7.7.7.7.7.7.7.7.7.7.7.7.7.7.7.7.7.7.7.7.7.7.7.7.7.7.7.7.7.7.7.7.7.7.7.7.4.<.",
"c Z K -.<.4.7.7.7.7.7.7.7.7.7.7.7.7.7.7.7.7.7.7.7.7.7.7.7.7.7.7.7.7.7.7.7.7.7.7.7.7.7.7.7.7.7.7.7.7.7.7.7.7.7.7.7.7.7.7.7.7.4.<.",
"c Z K -.<.4.7.7.7.7.7.7.7.7.7.7.7.7.7.7.7.7.7.7.7.7.7.7.7.7.7.7.7.7.7.7.7.7.7.7.7.7.7.7.7.7.7.7.7.7.7.7.7.7.7.7.7.7.7.7.7.7.4.<.",
"c Z K -.<.4.7.7.7.7.7.7.7.7.7.7.7.7.7.7.7.7.7.7.7.7.7.7.7.7.7.7.7.7.7.7.7.7.7.7.7.7.7.7.7.7.7.7.7.7.7.7.7.7.7.7.7.7.7.7.7.7.4.<.",
"c Z K -.<.4.7.7.7.7.7.7.7.7.7.7.7.7.7.7.7.7.7.7.7.7.7.7.7.7.7.7.7.7.7.7.7.7.7.7.7.7.7.7.7.7.7.7.7.7.7.7.7.7.7.7.7.7.7.7.7.7.4.<.",
"c Z K -.<.4.7.7.7.7.7.7.7.7.7.7.7.7.7.7.7.7.7.7.7.7.7.7.7.7.7.7.7.7.7.7.7.7.7.7.7.7.7.7.7.7.7.7.7.7.7.7.7.7.7.7.7.7.7.7.7.7.4.<.",
"c Z K -.<.4.7.7.7.7.7.7.7.7.7.7.7.7.7.7.7.7.7.7.7.7.7.7.7.7.7.7.7.7.7.7.7.7.7.7.7.7.7.7.7.7.7.7.7.7.7.7.7.7.7.7.7.7.7.7.7.7.4.<.",
"c Z K -.<.4.7.7.7.7.7.7.7.7.7.7.7.7.7.7.7.7.7.7.7.7.7.7.7.7.7.7.7.7.7.7.7.7.7.7.7.7.7.7.7.7.7.7.7.7.7.7.7.7.7.7.7.7.7.7.7.7.4.<.",
"c Z K -.<.4.7.7.7.7.7.7.7.7.7.7.7.7.7.7.7.7.7.7.7.7.7.7.7.7.7.7.7.7.7.7.7.7.7.7.7.7.7.7.7.7.7.7.7.7.7.7.7.7.7.7.7.7.7.7.7.7.4.<.",
"c Z K -.<.4.7.7.7.7.7.7.7.7.7.7.7.7.7.7.7.7.7.7.7.7.7.7.7.7.7.7.7.7.7.7.7.7.7.7.7.7.7.7.7.7.7.7.7.7.7.7.7.7.7.7.7.7.7.7.7.7.4.<.",
"c Z K -.<.4.7.7.7.6.6.6.7.7.7.7.7.7.7.7.7.7.7.7.7.7.7.7.7.7.7.7.7.7.7.7.7.7.7.7.7.7.7.7.7.7.7.7.7.7.7.7.7.7.7.7.6.5.5.7.7.6.4.<.",
"c Z K -.<.4.5.6.4.3.3.4.4.7.7.7.7.7.7.7.7.7.7.7.7.7.7.7.7.7.7.7.7.7.7.7.7.7.7.7.7.7.7.7.7.7.7.7.7.7.7.7.7.7.7.4.4.3.3.4.4.5.4.<.",
"c Z K -.<.4.4.4.3.<.<.3.4.6.7.7.7.7.7.7.7.7.7.7.7.7.7.7.7.7.7.7.7.7.7.7.7.7.7.7.7.7.7.7.7.7.7.7.7.7.7.7.7.7.6.4.3.<.<.3.4.4.4.<.",
"c Z K -.<.4.4.3.<.,.,.<.3.4.7.7.7.7.7.7.7.7.7.7.7.7.7.7.7.7.7.7.7.7.7.7.7.7.7.7.7.7.7.7.7.7.7.7.7.7.7.7.7.7.6.3.<.,.,.<.3.4.4.<.",
"c Z K -.<.4.4.3.<.,.,.<.3.4.7.7.7.7.7.7.7.7.7.7.7.7.7.7.7.7.7.7.7.7.7.7.7.7.7.7.7.7.7.7.7.7.7.7.7.7.7.7.7.7.6.3.<.,.,.<.3.4.3.<.",
"c Z K -.<.3.4.4.3.<.<.3.4.4.7.7.7.7.7.7.7.7.7.7.7.7.7.7.7.7.7.7.7.7.7.7.7.7.7.7.7.7.7.7.7.7.7.7.7.7.7.7.7.7.5.4.3.<.<.3.4.4.3.<.",
"c Z K -.<.4.4.4.4.3.3.4.4.6.7.7.7.7.7.7.7.7.7.7.7.7.7.7.7.7.7.7.7.7.7.7.7.7.7.7.7.7.7.7.7.7.7.7.7.7.7.7.7.7.6.4.4.3.3.4.4.5.3.<.",
"c Z K -.<.4.7.7.7.6.6.6.7.7.7.7.7.7.7.7.7.7.7.7.7.7.7.7.7.7.7.7.7.7.7.7.7.7.7.7.7.7.7.7.7.7.7.7.7.7.7.7.7.7.7.7.6.6.6.7.7.7.4.<.",
"x c K -.1.6.8.0.0.8.8.8.8.8.8.8.8.8.8.8.8.8.8.8.8.8.8.8.8.8.8.8.8.8.8.8.8.8.8.8.8.8.8.8.8.8.8.8.8.8.8.8.8.8.8.8.8.8.8.0.0.8.6.1.",
"0 l H ;.3.0.e.r.e.q.q.q.q.q.q.q.q.q.q.q.q.q.q.q.q.q.q.q.q.q.q.q.q.q.q.q.q.q.q.q.q.q.q.q.q.q.q.q.q.q.q.q.q.q.q.q.q.q.q.e.r.e.0.3.",
"7 w H :.6.r.y.y.y.r.r.r.r.r.r.r.e.e.e.r.r.r.e.e.r.r.r.r.e.r.e.r.r.r.r.r.e.r.e.r.r.r.e.e.r.r.r.r.e.e.e.r.r.r.e.e.r.r.r.t.y.y.e.5.",
"2 8 S :.7.r.y.y.y.r.r.r.r.r.r.r.r.r.r.r.r.r.r.r.r.r.r.r.r.r.r.r.r.r.r.r.r.r.r.r.r.r.r.r.r.r.r.r.r.r.r.r.r.r.r.r.r.r.r.y.y.y.r.6.",
", 5 S ;.5.w.y.y.r.w.q.q.q.q.q.q.q.q.q.q.q.q.q.q.q.q.q.q.q.q.q.q.q.q.q.q.q.q.q.q.q.q.q.q.q.q.q.q.q.q.q.q.q.q.q.q.q.q.w.r.y.y.w.5.",
"  3 z Y 1.6.9.0.8.6.6.6.5.5.5.5.5.5.6.6.5.5.5.5.5.5.5.5.6.6.5.5.5.5.5.5.6.6.5.5.5.5.5.5.5.5.5.5.5.5.5.6.5.5.5.5.6.6.6.8.0.9.6.1.",
". 1 w H $.>.1.1.1.<.>.>.>.>.>.>.>.>.>.>.>.>.>.>.>.>.>.>.>.>.>.>.>.>.>.>.>.>.>.>.>.>.>.>.>.>.>.>.>.>.>.>.>.>.>.>.>.>.<.1.1.1.>.$.",
", 1 8 l H U #.#.#.@.@.@.@.@.@.@.@.@.@.@.@.@.@.@.@.@.@.@.@.@.@.@.@.@.@.@.@.@.@.@.@.@.@.@.@.@.@.@.@.@.@.@.@.@.@.@.@.@.@.#.#.#.U G ",
"< 1 5 0 c Z G G Z Z Z Z Z G J J J J J J J J J J J J J J J J J J J J J J J J J J J J J J J J J J J J J J J J J Z Z Z Z Z G G Z c ",
"< < 5 0 c Z Z b c h h c b Z J J J J J J J J J J J J J J J J J J J J J J J J J J J J J J J J J J J J J J J J Z b c h h c b Z Z c ",
", 1 7 h Z J J Z x 9 9 h Z J ..X.X.X.X.X.X.X.X.X.X.X.X.X.X.X.X.X.X.X.X.X.X.X.X.X.X.X.X.X.X.X.X.X.X.X.X.X.X...J Z h 9 9 x Z J J b ",
"< 1 8 k Z X.X.J c 0 0 c J X.O.%.%.%.%.%.%.%.%.%.%.%.%.%.%.%.%.%.%.%.%.%.%.%.%.%.%.%.%.%.%.%.%.%.%.%.%.%.%.+.X.J c 0 0 c J X.X.Z ",
", 1 8 c J X.X.J Z k h v J O.%.&.&.%.%.%.%.%.%.%.&.%.&.%.%.%.%.%.&.%.&.%.%.%.%.%.%.%.%.%.%.%.&.%.%.%.%.&.&.%.O.J N h k Z J X.X.J ",
", 1 8 c J X.%.X.J Z Z J X.%.%.&.&.&.&.&.&.&.&.&.&.&.&.&.&.&.&.&.&.&.&.&.&.&.&.&.&.&.&.&.&.&.&.&.&.&.&.&.&.&.%.X.J Z Z J X.%.X.J ",
", 1 8 c J O.%.%.X.J J X.O.%.&.&.&.&.&.&.&.&.&.&.&.&.&.&.&.&.&.&.&.&.&.&.&.&.&.&.&.&.&.&.&.&.&.&.&.&.&.&.&.&.%.O.X.J J X.O.%.X.J ",
", 1 8 c J O.%.%.%.O.O.%.%.%.&.&.&.&.&.&.&.&.&.&.&.&.&.&.&.&.&.&.&.&.&.&.&.&.&.&.&.&.&.&.&.&.&.&.&.&.&.&.&.&.&.%.%.O.O.%.%.%.X.J ",
", 1 8 c J O.%.&.&.%.&.%.&.&.&.&.&.&.&.&.&.&.&.&.&.&.&.&.&.&.&.&.&.&.&.&.&.&.&.&.&.&.&.&.&.&.&.&.&.&.&.&.&.&.&.&.%.%.%.&.&.%.O.J ",
", 1 8 c J X.%.&.&.&.&.&.&.&.&.&.&.&.&.&.&.&.&.&.&.&.&.&.&.&.&.&.&.&.&.&.&.&.&.&.&.&.&.&.&.&.&.&.&.&.&.&.&.&.&.&.&.&.&.&.&.%.O.J ",
", 1 8 c J X.%.&.&.&.&.&.&.&.&.&.&.&.&.&.&.&.&.&.&.&.&.&.&.&.&.&.&.&.&.&.&.&.&.&.&.&.&.&.&.&.&.&.&.&.&.&.&.&.&.&.&.&.&.&.&.%.O.J ",
", 1 8 c J X.%.&.&.&.&.&.&.&.&.&.&.&.&.&.&.&.&.&.&.&.&.&.&.&.&.&.&.&.&.&.&.&.&.&.&.&.&.&.&.&.&.&.&.&.&.&.&.&.&.&.&.&.&.&.&.%.O.J ",
", 1 8 c J O.%.&.&.&.&.&.&.&.&.&.&.&.&.&.&.&.&.&.&.&.&.&.&.&.&.&.&.&.&.&.&.&.&.&.&.&.&.&.&.&.&.&.&.&.&.&.&.&.&.&.&.&.&.&.&.%.X.J ",
", 1 8 c J X.%.&.&.&.&.&.&.&.&.&.&.&.&.&.&.&.&.&.&.&.&.&.&.&.&.&.&.&.&.&.&.&.&.&.&.&.&.&.&.&.&.&.&.&.&.&.&.&.&.&.&.&.&.&.&.%.O.J ",
", 1 8 c J O.%.&.&.&.&.&.&.&.&.&.&.&.&.&.&.&.&.&.&.&.&.&.&.&.&.&.&.&.&.&.&.&.&.&.&.&.&.&.&.&.&.&.&.&.&.&.&.&.&.&.&.&.&.&.&.%.O.J ",
", 1 8 c J O.%.&.&.%.%.%.%.&.&.&.&.&.&.&.&.&.&.%.&.%.%.%.%.&.&.&.&.&.&.&.&.&.&.&.&.&.&.&.&.&.&.&.&.&.&.&.&.&.&.%.&.&.%.&.&.%.O.J ",
", 1 8 c J X.%.%.%.O.O.%.%.&.&.&.&.&.&.&.&.&.%.%.%.+.+.%.%.%.&.&.&.&.&.&.&.&.&.&.&.&.&.&.&.&.&.&.&.&.&.&.&.&.%.%.%.%.O.%.%.%.O.J ",
", 1 8 c J O.%.O.X.J J X.O.%.&.&.&.&.&.&.&.&.%.o.o.I I o.o.%.&.&.&.&.&.&.&.&.&.&.&.&.&.&.&.&.&.&.&.&.&.&.&.&.%.O.X.J J X.%.%.X.J ",
", 1 8 c J X.%.X.J Z Z J X.%.&.&.&.&.&.&.&.&.%.o.L C C L I %.%.&.&.&.&.&.&.&.&.&.&.&.&.&.%.&.&.&.&.&.&.&.&.&.%.X.J Z Z J X.O.X.J ",
", 1 8 c J X.O...Z l k Z J X.%.%.&.&.&.&.&.%.o.I C d d C I #.%.&.&.%.%.%.%.&.&.&.&.&.&.&.&.&.&.%.%.%.%.%.&.%.%.J Z l l Z J X.X.J ",
", 1 8 c J X.X.J Z k h c H X.o.%.%.%.%.%.%.#.I D d t t m L o.%.%.%.%.%.%.%.%.&.&.&.&.&.&.&.&.%.=.=.=.=.=.=.%.O.J Z k l Z J X.X.J ",
", 1 8 c J X.O.X.J Z c N A L I o.%.%.%.%.*.I F f y - r d L o.%.%.*.] ] #.*.%.&.&.&.&.&.&.&.&.=.*.*. . .*.=.%.%.X.J Z Z J X.O.X.J ",
", 1 8 c J X.%.%.X.J H A B M C L o.%.%.*.' / g i ; * r m L o.%.*.' / / ' #.%.&.&.&.&.&.&.&.&.=.*.{ ` ` { *.=.%.O.X.J J X.+.%.O.J ",
", 1 8 l J X.%.%.%.X.I A m s d C I o.#.] / W u : % * r m L o.o.I / Q Q ^ P #.%.%.%.%.%.%.&.%.*.| ( ~ ~ ( | *.%.%.O.X.X.%.%.%.X.J ",
"X 4 8 j A I o.o.o.o.I C d t t d D I I F g u & # + $ e d C I I F g W W g F I o.o.o.o.o.o.+.o.I ) ! E E ! _ } *.#.#.o.o.o.o.o.I A ",
"o o 6 q n B L I I L C m t = = t m C D V p > % @ + O = a m C C C p > > i f D L L L L L L I L D F R T T R ! _ [ [ I P L L L L A n "
};
